<?xml version="1.0" encoding="utf-8"?>
<svg width="72px" height="74px" viewBox="0 0 72 74" version="1.1" xmlns:xlink="http://www.w3.org/1999/xlink" xmlns="http://www.w3.org/2000/svg">
  <defs>
    <filter id="filter_1">
      <feColorMatrix in="SourceGraphic" type="matrix" values="0 0 0 0 0.827451 0 0 0 0 0.827451 0 0 0 0 0.827451 0 0 0 1 0" />
    </filter>
  </defs>
  <g id="brush-tool">
    <g id="Group-9-Copy-2" filter="url(#filter_1)">
      <path d="M68.8908 5.10448L68.8921 5.10602Q68.9703 5.2005 69.044 5.29855Q69.1176 5.39659 69.1866 5.498Q69.2556 5.5994 69.3198 5.70393Q69.3839 5.80846 69.4431 5.9159Q69.5022 6.02333 69.5563 6.13343Q69.6103 6.24352 69.6591 6.35604Q69.7079 6.46855 69.7514 6.58323Q69.7949 6.69792 69.8329 6.81452Q69.8709 6.93112 69.9034 7.04938Q69.9359 7.16764 69.9628 7.28729Q69.9897 7.40695 70.0109 7.52774Q70.0322 7.64853 70.0477 7.77018Q70.0633 7.89184 70.0731 8.01409Q70.0829 8.13634 70.087 8.25891Q70.091 8.38149 70.0893 8.50412Q70.0876 8.62675 70.0801 8.74917Q70.0726 8.87158 70.0594 8.99351Q70.0462 9.11544 70.0272 9.23661Q70.0083 9.35779 69.9837 9.47793Q69.959 9.59808 69.9288 9.71694Q69.8986 9.83579 69.8628 9.9531Q69.827 10.0704 69.7857 10.1859Q69.7445 10.3014 69.6978 10.4148Q69.6511 10.5282 69.5992 10.6393Q69.5473 10.7504 69.4902 10.859Q69.4331 10.9675 69.3709 11.0733Q69.3088 11.179 69.2418 11.2817Q69.1747 11.3844 69.1029 11.4838Q69.0311 11.5833 68.9547 11.6792Q68.8784 11.7752 68.7975 11.8674Q68.7167 11.9597 68.6317 12.048Q68.5466 12.1364 68.4575 12.2206L31.905 46.776L25.6777 39.253L62.2302 4.6976Q62.3152 4.61728 62.4041 4.54142Q62.4931 4.46556 62.5858 4.39434Q62.6785 4.32312 62.7748 4.25674Q62.871 4.19036 62.9705 4.12898Q63.07 4.0676 63.1725 4.01139Q63.275 3.95518 63.3802 3.90428Q63.4855 3.85338 63.5932 3.80793Q63.7009 3.76248 63.8108 3.7226Q63.9207 3.68272 64.0325 3.6485Q64.1443 3.61429 64.2576 3.58583Q64.371 3.55738 64.4857 3.53476Q64.6004 3.51214 64.7161 3.49541Q64.8318 3.47869 64.9482 3.4679Q65.0647 3.45711 65.1814 3.45228Q65.2983 3.44746 65.4152 3.44861Q65.5321 3.44977 65.6488 3.45689Q65.7654 3.46402 65.8816 3.47711Q65.9978 3.49019 66.1131 3.5092Q66.2285 3.5282 66.3427 3.55308Q66.457 3.57796 66.5697 3.60865Q66.6825 3.63933 66.7936 3.67575Q66.9047 3.71216 67.0138 3.7542Q67.1229 3.79625 67.2297 3.84382Q67.3365 3.89138 67.4407 3.94435Q67.5449 3.99731 67.6463 4.05553Q67.7477 4.11375 67.8459 4.17708Q67.9442 4.24041 68.0391 4.30868Q68.134 4.37695 68.2253 4.44999Q68.3166 4.52302 68.404 4.60062Q68.4915 4.67823 68.5748 4.7602Q68.6582 4.84217 68.7372 4.9283Q68.8163 5.01442 68.8908 5.10448L68.8908 5.10448Z" id="Rectangle" fill="#B8B8B8" fill-rule="evenodd" stroke="none" />
      <path d="M4.51227 67.7467C4.41827 67.6632 4.21468 57.4805 9.95776 51.0153C15.7008 44.5501 22.5741 41.5589 25.3098 44.3342C28.0454 47.1095 26.9 57.9229 19.8643 61.0655C12.8287 64.2081 4.60629 67.8302 4.51227 67.7467Z" id="Ellipse" fill="#808080" fill-rule="evenodd" stroke="none" />
    </g>
  </g>
</svg>