<?xml version="1.0" encoding="utf-8"?>
<svg width="72px" height="63px" viewBox="0 0 72 63" version="1.1" xmlns:xlink="http://www.w3.org/1999/xlink" xmlns="http://www.w3.org/2000/svg">
  <defs>
    <filter id="filter_1">
      <feColorMatrix in="SourceGraphic" type="matrix" values="0 0 0 0 0.827451 0 0 0 0 0.827451 0 0 0 0 0.827451 0 0 0 1 0" />
    </filter>
  </defs>
  <g id="color-picker">
    <g id="Group-13" filter="url(#filter_1)">
      <path d="M51.8202 19.2692L51.8214 19.2708Q51.9315 19.4181 52.0344 19.5705Q52.1374 19.7229 52.2329 19.88Q52.3285 20.0371 52.4164 20.1986Q52.5044 20.3601 52.5845 20.5256Q52.6647 20.6911 52.7368 20.8602Q52.809 21.0294 52.873 21.2018Q52.937 21.3742 52.9926 21.5494Q53.0483 21.7247 53.0956 21.9024Q53.1429 22.0801 53.1816 22.2599Q53.2203 22.4396 53.2504 22.621Q53.2805 22.8025 53.3019 22.9851Q53.3233 23.1677 53.336 23.3512Q53.3487 23.5346 53.3526 23.7185Q53.3565 23.9023 53.3516 24.0862Q53.3467 24.27 53.333 24.4534Q53.3194 24.6368 53.297 24.8193Q53.2746 25.0018 53.2435 25.183Q53.2125 25.3643 53.1728 25.5438Q53.1331 25.7234 53.0849 25.9009Q53.0366 26.0783 52.98 26.2533Q52.9234 26.4282 52.8585 26.6003Q52.7935 26.7723 52.7205 26.9411Q52.6474 27.1098 52.5664 27.2749Q52.4854 27.44 52.3966 27.601Q52.3078 27.762 52.2114 27.9186Q52.115 28.0752 52.0112 28.227Q51.9074 28.3788 51.7965 28.5255Q51.6856 28.6722 51.5679 28.8135Q51.4501 28.9547 51.3257 29.0901Q51.2014 29.2256 51.0707 29.355Q50.94 29.4843 50.8033 29.6073Q50.6665 29.7303 50.5241 29.8466L15.9614 58.0692Q15.8234 58.1819 15.6798 58.2875Q15.5362 58.3932 15.3875 58.4915Q15.2388 58.5897 15.0853 58.6804Q14.9318 58.771 14.774 58.8538Q14.6161 58.9366 14.4543 59.0113Q14.2924 59.0861 14.127 59.1526Q13.9617 59.219 13.7931 59.2771Q13.6246 59.3352 13.4533 59.3847Q13.2821 59.4341 13.1086 59.4749Q12.9351 59.5157 12.7597 59.5477Q12.5843 59.5797 12.4076 59.6029Q12.2309 59.626 12.0532 59.6402Q11.8755 59.6543 11.6973 59.6596Q11.5191 59.6648 11.3409 59.661Q11.1627 59.6572 10.9849 59.6444Q10.8071 59.6317 10.6302 59.61Q10.4533 59.5883 10.2777 59.5577Q10.102 59.5271 9.9282 59.4877Q9.75436 59.4483 9.58273 59.4002Q9.41109 59.352 9.2421 59.2953Q9.07311 59.2386 8.90719 59.1735Q8.74127 59.1083 8.57885 59.0349Q8.41643 58.9615 8.25791 58.8799Q8.0994 58.7984 7.94519 58.709Q7.79099 58.6196 7.64149 58.5225Q7.49198 58.4254 7.34757 58.3209Q7.20315 58.2165 7.06418 58.1048Q6.92521 57.9932 6.79205 57.8747Q6.65888 57.7562 6.53186 57.6311Q6.40483 57.5061 6.28428 57.3748Q6.16372 57.2435 6.04993 57.1063Q5.93614 56.9691 5.82942 56.8263L5.82822 56.8247Q5.71812 56.6774 5.61517 56.525Q5.51223 56.3727 5.41667 56.2155Q5.32112 56.0584 5.23317 55.8969Q5.14522 55.7354 5.06508 55.5699Q4.98494 55.4044 4.9128 55.2353Q4.84065 55.0661 4.77666 54.8937Q4.71266 54.7213 4.65697 54.5461Q4.60128 54.3708 4.55402 54.1931Q4.50676 54.0154 4.46803 53.8356Q4.42931 53.6559 4.3992 53.4745Q4.3691 53.2931 4.34769 53.1104Q4.32629 52.9278 4.31362 52.7443Q4.30095 52.5609 4.29706 52.377Q4.29316 52.1932 4.29804 52.0094Q4.30293 51.8255 4.31658 51.6421Q4.33023 51.4588 4.35262 51.2762Q4.37501 51.0937 4.40609 50.9125Q4.43716 50.7312 4.47685 50.5517Q4.51654 50.3721 4.56476 50.1947Q4.61298 50.0172 4.66961 49.8423Q4.72624 49.6673 4.79116 49.4953Q4.85607 49.3232 4.92913 49.1545Q5.00219 48.9857 5.08321 48.8206Q5.16424 48.6555 5.25305 48.4945Q5.34187 48.3335 5.43826 48.1769Q5.53466 48.0203 5.63842 47.8685Q5.74219 47.7167 5.85308 47.57Q5.96397 47.4233 6.08174 47.2821Q6.1995 47.1408 6.32387 47.0054Q6.44825 46.8699 6.57894 46.7406Q6.70964 46.6112 6.84636 46.4882Q6.98308 46.3653 7.12552 46.249L41.6882 18.0264Q41.8263 17.9136 41.9698 17.808Q42.1134 17.7023 42.2621 17.6041Q42.4108 17.5058 42.5643 17.4151Q42.7178 17.3245 42.8757 17.2417Q43.0335 17.1589 43.1954 17.0842Q43.3572 17.0094 43.5226 16.943Q43.688 16.8765 43.8565 16.8184Q44.025 16.7604 44.1963 16.7109Q44.3675 16.6614 44.541 16.6206Q44.7146 16.5798 44.8899 16.5478Q45.0653 16.5158 45.242 16.4927Q45.4188 16.4695 45.5964 16.4554Q45.7741 16.4412 45.9523 16.436Q46.1305 16.4308 46.3087 16.4345Q46.4869 16.4383 46.6647 16.4511Q46.8425 16.4638 47.0194 16.4855Q47.1964 16.5072 47.372 16.5378Q47.5476 16.5684 47.7214 16.6078Q47.8953 16.6472 48.0669 16.6954Q48.2385 16.7435 48.4075 16.8002Q48.5765 16.8569 48.7424 16.922Q48.9083 16.9872 49.0708 17.0606Q49.2332 17.1341 49.3917 17.2156Q49.5502 17.2971 49.7044 17.3865Q49.8586 17.476 50.0081 17.573Q50.1576 17.6701 50.302 17.7746Q50.4465 17.8791 50.5854 17.9907Q50.7244 18.1023 50.8576 18.2208Q50.9907 18.3393 51.1178 18.4644Q51.2448 18.5894 51.3653 18.7207Q51.4859 18.852 51.5997 18.9892Q51.7135 19.1265 51.8202 19.2692Z" id="Rectangle" fill="none" fill-rule="evenodd" stroke="#808080" stroke-width="3" />
      <path d="M66.8566 5.90924L66.8578 5.91084Q66.9679 6.05813 67.0708 6.2105Q67.1738 6.36287 67.2693 6.51999Q67.3649 6.6771 67.4528 6.8386Q67.5408 7.00009 67.6209 7.1656Q67.701 7.33111 67.7732 7.50025Q67.8453 7.6694 67.9093 7.8418Q67.9733 8.01419 68.029 8.18944Q68.0847 8.3647 68.132 8.54241Q68.1792 8.72012 68.218 8.89989Q68.2567 9.07966 68.2868 9.26106Q68.3169 9.44247 68.3383 9.62511Q68.3597 9.80775 68.3724 9.9912Q68.385 10.1747 68.3889 10.3585Q68.3928 10.5424 68.3879 10.7262Q68.3831 10.91 68.3694 11.0934Q68.3558 11.2768 68.3334 11.4593Q68.311 11.6418 68.2799 11.8231Q68.2488 12.0043 68.2091 12.1839Q68.1694 12.3634 68.1212 12.5409Q68.073 12.7183 68.0164 12.8933Q67.9597 13.0682 67.8948 13.2403Q67.8299 13.4123 67.7569 13.5811Q67.6838 13.7498 67.6028 13.9149Q67.5218 14.08 67.4329 14.241Q67.3441 14.402 67.2477 14.5586Q67.1513 14.7152 67.0476 14.867Q66.9438 15.0189 66.8329 15.1655Q66.722 15.3122 66.6042 15.4535Q66.4865 15.5947 66.3621 15.7302Q66.2377 15.8656 66.107 15.995Q65.9763 16.1243 65.8396 16.2473Q65.7029 16.3703 65.5605 16.4866L60.4025 20.6983Q60.2645 20.8111 60.1209 20.9167Q59.9773 21.0224 59.8286 21.1206Q59.6799 21.2189 59.5264 21.3096Q59.3729 21.4002 59.2151 21.483Q59.0572 21.5658 58.8954 21.6405Q58.7336 21.7153 58.5682 21.7817Q58.4028 21.8482 58.2342 21.9063Q58.0657 21.9643 57.8945 22.0138Q57.7232 22.0633 57.5497 22.1041Q57.3762 22.1449 57.2008 22.1769Q57.0255 22.2089 56.8487 22.232Q56.672 22.2552 56.4943 22.2693Q56.3166 22.2835 56.1384 22.2887Q55.9603 22.2939 55.782 22.2902Q55.6038 22.2864 55.426 22.2736Q55.2482 22.2609 55.0713 22.2392Q54.8944 22.2175 54.7188 22.1869Q54.5432 22.1563 54.3693 22.1169Q54.1955 22.0775 54.0238 22.0294Q53.8522 21.9812 53.6832 21.9245Q53.5142 21.8678 53.3483 21.8027Q53.1824 21.7375 53.02 21.6641Q52.8575 21.5906 52.699 21.5091Q52.5405 21.4276 52.3863 21.3382Q52.2321 21.2488 52.0826 21.1517Q51.9331 21.0546 51.7887 20.9501Q51.6443 20.8456 51.5053 20.734Q51.3663 20.6224 51.2332 20.5039Q51.1 20.3854 50.973 20.2603Q50.846 20.1353 50.7254 20.004Q50.6048 19.8727 50.4911 19.7355Q50.3773 19.5982 50.2705 19.4555L50.2693 19.4539Q50.1592 19.3066 50.0563 19.1542Q49.9533 19.0018 49.8578 18.8447Q49.7622 18.6876 49.6743 18.5261Q49.5863 18.3646 49.5062 18.1991Q49.4261 18.0336 49.3539 17.8645Q49.2818 17.6953 49.2178 17.5229Q49.1538 17.3505 49.0981 17.1753Q49.0424 17 48.9951 16.8223Q48.9479 16.6446 48.9091 16.4648Q48.8704 16.2851 48.8403 16.1037Q48.8102 15.9222 48.7888 15.7396Q48.7674 15.557 48.7547 15.3735Q48.7421 15.1901 48.7382 15.0062Q48.7343 14.8224 48.7392 14.6385Q48.744 14.4547 48.7577 14.2713Q48.7713 14.088 48.7937 13.9054Q48.8161 13.7229 48.8472 13.5417Q48.8783 13.3604 48.918 13.1809Q48.9577 13.0013 49.0059 12.8239Q49.0541 12.6464 49.1107 12.4714Q49.1674 12.2965 49.2323 12.1244Q49.2972 11.9524 49.3702 11.7836Q49.4433 11.6149 49.5243 11.4498Q49.6054 11.2847 49.6942 11.1237Q49.783 10.9627 49.8794 10.8061Q49.9758 10.6495 50.0795 10.4977Q50.1833 10.3459 50.2942 10.1992Q50.4051 10.0525 50.5229 9.91125Q50.6406 9.77002 50.765 9.63457Q50.8894 9.49912 51.0201 9.36976Q51.1508 9.2404 51.2875 9.11742Q51.4242 8.99445 51.5666 8.87814L56.7246 4.66637Q56.8626 4.55363 57.0062 4.44799Q57.1498 4.34235 57.2985 4.24408Q57.4472 4.14581 57.6007 4.05517Q57.7542 3.96452 57.912 3.88172Q58.0699 3.79893 58.2317 3.72419Q58.3936 3.64946 58.559 3.58298Q58.7243 3.51649 58.8929 3.45843Q59.0614 3.40037 59.2326 3.35088Q59.4039 3.30139 59.5774 3.26059Q59.7509 3.21979 59.9263 3.18779Q60.1016 3.15579 60.2784 3.13267Q60.4551 3.10955 60.6328 3.09537Q60.8105 3.08119 60.9887 3.07598Q61.1669 3.07077 61.3451 3.07455Q61.5233 3.07833 61.7011 3.09109Q61.8789 3.10385 62.0558 3.12555Q62.2327 3.14725 62.4083 3.17785Q62.584 3.20844 62.7578 3.24785Q62.9316 3.28725 63.1033 3.33537Q63.2749 3.38349 63.4439 3.4402Q63.6129 3.49691 63.7788 3.56206Q63.9447 3.62721 64.1071 3.70065Q64.2696 3.77408 64.4281 3.85561Q64.5866 3.93714 64.7408 4.02655Q64.895 4.11597 65.0445 4.21304Q65.194 4.31011 65.3384 4.4146Q65.4828 4.51908 65.6218 4.63072Q65.7608 4.74235 65.894 4.86084Q66.0271 4.97934 66.1541 5.10439Q66.2812 5.22945 66.4017 5.36075Q66.5223 5.49205 66.6361 5.62926Q66.7498 5.76647 66.8566 5.90924L66.8566 5.90924Z" id="Rectangle-2" fill="#808080" fill-rule="evenodd" stroke="none" />
      <path d="M40.453 5.17352L60.0677 32.1735" id="Line" fill="none" fill-rule="evenodd" stroke="#808080" stroke-width="8" stroke-linecap="square" />
    </g>
  </g>
</svg>