<?xml version="1.0" encoding="utf-8"?>
<svg width="72px" height="69px" viewBox="0 0 72 69" version="1.1" xmlns:xlink="http://www.w3.org/1999/xlink" xmlns="http://www.w3.org/2000/svg">
  <defs>
    <filter id="filter_1">
      <feColorMatrix in="SourceGraphic" type="matrix" values="0 0 0 0 0.827451 0 0 0 0 0.827451 0 0 0 0 0.827451 0 0 0 1 0" />
    </filter>
    <path d="M0 0L76.0755 0L76.0755 69L0 69L0 0Z" id="path_1" />
    <clipPath id="mask_1">
      <use xlink:href="#path_1" />
    </clipPath>
  </defs>
  <g id="hand-tool">
    <g id="Hand-Cursor-icon" transform="translate(-4.0754395 0)" filter="url(#filter_1)">
      <path d="M0 0L76.0755 0L76.0755 69L0 69L0 0Z" id="Background" fill="none" fill-rule="evenodd" stroke="none" />
      <g clip-path="url(#mask_1)">
        <path d="M30.9418 5.62731C27.0321 5.62731 23.8097 8.55003 23.8097 12.0961L23.8097 37.5667L22.2496 36.0843L21.6552 35.6126C18.9157 33.1279 14.4396 33.1279 11.7 35.6126C8.9605 38.0974 8.9605 42.1572 11.7 44.6419L11.7 44.7093L31.1647 62.1614L31.3132 62.2288L31.3875 62.3636C34.5914 64.5451 38.6775 66.0023 43.2743 66.0023L47.3604 66.0023C58.1421 66.0023 66.8251 58.1269 66.8251 48.348L66.8251 31.5023C66.8251 27.9563 64.0908 12.0961 60.1812 12.0961C59.1689 12.0961 58.3733 11.7423 57.5003 12.096C57.0639 10.5269 56.1662 10.3455 54.7472 9.85714C53.6298 9.4726 52.1323 8.62485 50.6717 8.62485C49.6059 8.62485 48.4423 9.15176 47.3604 8.62485C46.5947 8.25193 45.8418 6.64562 45.3184 7.07498C44.0554 6.03897 42.3032 3.94265 40.4831 3.94265C39.6473 3.94265 38.8261 5.38326 38.0739 5.62752L38.0739 12.0961C38.0739 8.55003 34.8514 5.62731 30.9418 5.62731L30.9418 5.62731ZM30.9056 9.85717C32.2243 9.85717 33.283 10.8174 33.283 12.0134L33.283 35.7322L38.0377 35.7322L38.1057 10.1652C38.1057 8.96914 39.1643 8.00893 40.483 8.00893C41.8017 8.00893 42.8604 8.96914 42.8604 10.1652L42.7924 35.7322L47.5471 35.7322L48.0715 13.2456C48.0715 12.0495 49.1301 11.0893 50.4488 11.0893C51.7675 11.0893 52.8262 12.0495 52.8262 13.2456L52.3018 35.7322L57.2794 35.7322L57.8038 17.5581C57.8038 16.362 58.8625 15.4018 60.1811 15.4018C61.4998 15.4018 62.5585 16.362 62.5585 17.5581L62.0341 48.2654C62.0341 55.7364 55.5614 61.6072 47.3242 61.6072L43.2382 61.6072C39.7557 61.6072 36.7468 60.4785 34.2488 58.7771L15.007 41.5271C13.9483 40.5669 13.9483 39.5225 15.007 38.5622C16.0657 37.602 17.2172 37.602 18.2759 38.5622L28.5282 47.8611L28.5282 12.0134C28.5282 10.8174 29.5869 9.85717 30.9056 9.85717L30.9056 9.85717Z" id="Shape" fill="#FFFFFF" fill-rule="evenodd" stroke="none" />
      </g>
    </g>
  </g>
</svg>