<?xml version="1.0" encoding="utf-8"?>
<svg width="78px" height="75px" viewBox="0 0 78 75" version="1.1" xmlns:xlink="http://www.w3.org/1999/xlink" xmlns="http://www.w3.org/2000/svg">
  <defs>
    <filter id="filter_1">
      <feColorMatrix in="SourceGraphic" type="matrix" values="0 0 0 0 0.827451 0 0 0 0 0.827451 0 0 0 0 0.827451 0 0 0 1 0" />
    </filter>
  </defs>
  <g id="move-tool">
    <g id="Group-20" filter="url(#filter_1)">
      <path d="M38.6652 9L38.6652 67.5L38.6652 37.9503L7.5 37.9503L69.5 37.9503" id="New-shape" fill="none" fill-rule="evenodd" stroke="#808080" stroke-width="3" />
      <path d="M39.8936 1.78706L47.2772 16.5542Q47.3056 16.6111 47.3266 16.6711Q47.3476 16.7312 47.3608 16.7934Q47.3741 16.8556 47.3793 16.919Q47.3845 16.9824 47.3816 17.0459Q47.3788 17.1094 47.3679 17.1721Q47.357 17.2348 47.3383 17.2955Q47.3195 17.3563 47.2932 17.4142Q47.2669 17.4721 47.2335 17.5262Q47.2 17.5803 47.16 17.6297Q47.12 17.6792 47.074 17.7231Q47.028 17.7671 46.9769 17.8048Q46.9257 17.8426 46.8701 17.8736Q46.8146 17.9045 46.7556 17.9282Q46.6965 17.9519 46.635 17.9679Q46.5734 17.9839 46.5103 17.9919Q46.4472 18 46.3836 18L31.6165 18Q31.5529 18 31.4898 17.9919Q31.4267 17.9839 31.3652 17.9679Q31.3036 17.9519 31.2446 17.9282Q31.1856 17.9045 31.13 17.8736Q31.0745 17.8426 31.0233 17.8048Q30.9721 17.7671 30.9261 17.7231Q30.8802 17.6792 30.8401 17.6297Q30.8001 17.5803 30.7667 17.5262Q30.7332 17.4721 30.7069 17.4142Q30.6806 17.3563 30.6619 17.2955Q30.6431 17.2348 30.6322 17.1721Q30.6213 17.1094 30.6185 17.0459Q30.6156 16.9824 30.6209 16.919Q30.6261 16.8556 30.6393 16.7934Q30.6525 16.7312 30.6735 16.6711Q30.6945 16.6111 30.7229 16.5542L38.1065 1.78707Q38.122 1.75614 38.1396 1.72635Q38.1571 1.69657 38.1767 1.66807Q38.1963 1.63957 38.2178 1.6125Q38.2393 1.58542 38.2626 1.5599Q38.2859 1.53437 38.311 1.51052Q38.336 1.48667 38.3626 1.46461Q38.3893 1.44255 38.4174 1.42238Q38.4454 1.40221 38.4749 1.38403Q38.5043 1.36585 38.5349 1.34975Q38.5655 1.33365 38.5971 1.3197Q38.6287 1.30576 38.6613 1.29403Q38.6938 1.2823 38.7271 1.27286Q38.7603 1.26341 38.7942 1.25628Q38.828 1.24915 38.8622 1.24438Q38.8965 1.23961 38.931 1.23722Q38.9655 1.23483 39.0001 1.23483Q39.0346 1.23483 39.0691 1.23722Q39.1036 1.23961 39.1379 1.24438Q39.1721 1.24915 39.206 1.25628Q39.2398 1.26341 39.2731 1.27286Q39.3063 1.2823 39.3389 1.29403Q39.3714 1.30576 39.403 1.3197Q39.4347 1.33365 39.4653 1.34975Q39.4959 1.36585 39.5253 1.38403Q39.5547 1.40221 39.5828 1.42238Q39.6109 1.44255 39.6375 1.46461Q39.6641 1.48667 39.6891 1.51052Q39.7142 1.53437 39.7375 1.5599Q39.7608 1.58542 39.7823 1.6125Q39.8038 1.63957 39.8234 1.66807Q39.843 1.69657 39.8606 1.72635Q39.8781 1.75614 39.8936 1.78707L39.8936 1.78706Z" id="Triangle" fill="#D3D3D3" fill-rule="evenodd" stroke="none" />
      <path d="M38.1065 72.7129L30.723 57.9458Q30.6945 57.8889 30.6735 57.8288Q30.6525 57.7688 30.6393 57.7066Q30.6261 57.6444 30.6209 57.581Q30.6157 57.5176 30.6185 57.4541Q30.6214 57.3906 30.6323 57.3279Q30.6432 57.2652 30.6619 57.2045Q30.6807 57.1437 30.707 57.0858Q30.7333 57.0279 30.7667 56.9738Q30.8002 56.9197 30.8402 56.8703Q30.8802 56.8208 30.9262 56.7769Q30.9722 56.7329 31.0233 56.6952Q31.0745 56.6574 31.13 56.6264Q31.1856 56.5955 31.2446 56.5718Q31.3036 56.5481 31.3652 56.5321Q31.4268 56.5161 31.4898 56.5081Q31.5529 56.5 31.6165 56.5L46.3837 56.5Q46.4473 56.5 46.5104 56.5081Q46.5735 56.5162 46.635 56.5322Q46.6966 56.5482 46.7556 56.5718Q46.8146 56.5955 46.8702 56.6265Q46.9257 56.6575 46.9769 56.6952Q47.0281 56.733 47.074 56.7769Q47.12 56.8209 47.16 56.8703Q47.2001 56.9197 47.2335 56.9738Q47.2669 57.0279 47.2932 57.0858Q47.3195 57.1437 47.3383 57.2045Q47.357 57.2653 47.3679 57.3279Q47.3788 57.3906 47.3817 57.4541Q47.3845 57.5177 47.3793 57.581Q47.3741 57.6444 47.3609 57.7066Q47.3477 57.7688 47.3267 57.8289Q47.3057 57.8889 47.2772 57.9458L39.8936 72.7129Q39.8781 72.7439 39.8606 72.7737Q39.843 72.8035 39.8234 72.8319Q39.8038 72.8604 39.7823 72.8875Q39.7608 72.9146 39.7375 72.9401Q39.7142 72.9656 39.6891 72.9895Q39.6641 73.0134 39.6375 73.0354Q39.6109 73.0575 39.5828 73.0777Q39.5547 73.0978 39.5253 73.116Q39.4959 73.1342 39.4653 73.1503Q39.4347 73.1664 39.403 73.1803Q39.3714 73.1943 39.3388 73.206Q39.3063 73.2177 39.2731 73.2272Q39.2398 73.2366 39.206 73.2437Q39.1721 73.2509 39.1379 73.2556Q39.1036 73.2604 39.0691 73.2628Q39.0346 73.2652 39.0001 73.2652Q38.9655 73.2652 38.931 73.2628Q38.8965 73.2604 38.8622 73.2556Q38.828 73.2509 38.7942 73.2437Q38.7603 73.2366 38.7271 73.2272Q38.6938 73.2177 38.6613 73.206Q38.6287 73.1943 38.5971 73.1803Q38.5655 73.1664 38.5349 73.1503Q38.5043 73.1342 38.4749 73.116Q38.4454 73.0978 38.4174 73.0776Q38.3893 73.0575 38.3627 73.0354Q38.336 73.0133 38.311 72.9895Q38.286 72.9656 38.2626 72.9401Q38.2393 72.9146 38.2178 72.8875Q38.1963 72.8604 38.1767 72.8319Q38.1571 72.8035 38.1396 72.7737Q38.122 72.7439 38.1065 72.7129Z" id="Triangle-2" fill="#D3D3D3" fill-rule="evenodd" stroke="none" />
      <path d="M1.78708 37.1065L16.5543 29.7229Q16.6111 29.6945 16.6712 29.6735Q16.7312 29.6525 16.7934 29.6393Q16.8556 29.6261 16.919 29.6208Q16.9824 29.6156 17.0459 29.6185Q17.1095 29.6213 17.1721 29.6322Q17.2348 29.6431 17.2955 29.6619Q17.3563 29.6806 17.4142 29.7069Q17.4721 29.7332 17.5262 29.7667Q17.5803 29.8001 17.6297 29.8401Q17.6792 29.8802 17.7231 29.9261Q17.7671 29.9721 17.8048 30.0233Q17.8426 30.0744 17.8736 30.13Q17.9045 30.1855 17.9282 30.2446Q17.9519 30.3036 17.9679 30.3651Q17.9839 30.4267 17.992 30.4898Q18 30.5529 18 30.6165L18 45.3836Q18 45.4472 17.9919 45.5103Q17.9839 45.5734 17.9679 45.635Q17.9519 45.6965 17.9282 45.7555Q17.9045 45.8146 17.8736 45.8701Q17.8426 45.9257 17.8048 45.9768Q17.7671 46.028 17.7231 46.074Q17.6792 46.12 17.6297 46.16Q17.5803 46.2 17.5262 46.2334Q17.4721 46.2669 17.4142 46.2932Q17.3563 46.3195 17.2955 46.3382Q17.2348 46.357 17.1721 46.3679Q17.1094 46.3788 17.0459 46.3816Q16.9824 46.3845 16.919 46.3793Q16.8556 46.374 16.7934 46.3608Q16.7312 46.3476 16.6711 46.3266Q16.6111 46.3056 16.5542 46.2772L1.78707 38.8936Q1.75615 38.8781 1.72636 38.8605Q1.69658 38.843 1.66808 38.8234Q1.63958 38.8038 1.61251 38.7823Q1.58543 38.7608 1.55991 38.7375Q1.53438 38.7141 1.51053 38.6891Q1.48668 38.6641 1.46462 38.6374Q1.44256 38.6108 1.42239 38.5827Q1.40222 38.5546 1.38404 38.5252Q1.36586 38.4958 1.34976 38.4652Q1.33366 38.4346 1.31971 38.403Q1.30577 38.3713 1.29404 38.3388Q1.28231 38.3063 1.27287 38.273Q1.26342 38.2398 1.25629 38.2059Q1.24916 38.1721 1.24439 38.1378Q1.23962 38.1036 1.23723 38.0691Q1.23484 38.0346 1.23484 38Q1.23484 37.9655 1.23723 37.931Q1.23962 37.8965 1.24439 37.8622Q1.24916 37.828 1.25629 37.7941Q1.26342 37.7603 1.27287 37.727Q1.28232 37.6938 1.29404 37.6613Q1.30577 37.6287 1.31971 37.5971Q1.33366 37.5654 1.34976 37.5348Q1.36586 37.5042 1.38404 37.4748Q1.40222 37.4454 1.42239 37.4173Q1.44256 37.3892 1.46462 37.3626Q1.48668 37.336 1.51053 37.311Q1.53438 37.2859 1.55991 37.2626Q1.58543 37.2393 1.61251 37.2178Q1.63959 37.1963 1.66808 37.1767Q1.69658 37.1571 1.72637 37.1395Q1.75615 37.122 1.78708 37.1065Z" id="Triangle-3" fill="#D3D3D3" fill-rule="evenodd" stroke="none" />
      <path d="M76.213 38.8935L61.4458 46.2771Q61.389 46.3056 61.3289 46.3266Q61.2689 46.3476 61.2067 46.3608Q61.1445 46.374 61.0811 46.3792Q61.0177 46.3845 60.9542 46.3816Q60.8906 46.3787 60.828 46.3679Q60.7653 46.357 60.7046 46.3382Q60.6438 46.3195 60.5859 46.2932Q60.528 46.2668 60.4739 46.2334Q60.4198 46.2 60.3704 46.16Q60.3209 46.1199 60.277 46.074Q60.233 46.028 60.1953 45.9768Q60.1575 45.9256 60.1265 45.8701Q60.0956 45.8145 60.0719 45.7555Q60.0482 45.6965 60.0322 45.6349Q60.0162 45.5734 60.0081 45.5103Q60.0001 45.4472 60.0001 45.3836L60.0001 30.6164Q60.0001 30.5528 60.0081 30.4898Q60.0162 30.4267 60.0322 30.3651Q60.0482 30.3036 60.0719 30.2445Q60.0956 30.1855 60.1265 30.13Q60.1575 30.0744 60.1953 30.0232Q60.233 29.9721 60.277 29.9261Q60.3209 29.8801 60.3703 29.8401Q60.4198 29.8001 60.4739 29.7666Q60.528 29.7332 60.5859 29.7069Q60.6438 29.6806 60.7045 29.6618Q60.7653 29.6431 60.828 29.6322Q60.8906 29.6213 60.9542 29.6184Q61.0177 29.6156 61.0811 29.6208Q61.1445 29.626 61.2067 29.6392Q61.2689 29.6525 61.3289 29.6735Q61.3889 29.6945 61.4458 29.7229L76.213 37.1065Q76.2439 37.1219 76.2737 37.1395Q76.3035 37.1571 76.332 37.1766Q76.3605 37.1962 76.3876 37.2177Q76.4146 37.2392 76.4402 37.2626Q76.4657 37.2859 76.4896 37.3109Q76.5134 37.336 76.5355 37.3626Q76.5575 37.3892 76.5777 37.4173Q76.5979 37.4454 76.616 37.4748Q76.6342 37.5042 76.6503 37.5348Q76.6664 37.5654 76.6804 37.597Q76.6943 37.6287 76.7061 37.6612Q76.7178 37.6937 76.7272 37.727Q76.7367 37.7603 76.7438 37.7941Q76.7509 37.8279 76.7557 37.8622Q76.7605 37.8964 76.7629 37.9309Q76.7652 37.9654 76.7652 38Q76.7652 38.0346 76.7629 38.0691Q76.7605 38.1036 76.7557 38.1378Q76.7509 38.1721 76.7438 38.2059Q76.7367 38.2397 76.7272 38.273Q76.7178 38.3063 76.706 38.3388Q76.6943 38.3713 76.6804 38.403Q76.6664 38.4346 76.6503 38.4652Q76.6342 38.4958 76.616 38.5252Q76.5979 38.5546 76.5777 38.5827Q76.5575 38.6108 76.5355 38.6374Q76.5134 38.664 76.4896 38.6891Q76.4657 38.7141 76.4402 38.7374Q76.4146 38.7608 76.3876 38.7823Q76.3605 38.8038 76.332 38.8234Q76.3035 38.8429 76.2737 38.8605Q76.2439 38.8781 76.213 38.8935Z" id="Triangle-4" fill="#D3D3D3" fill-rule="evenodd" stroke="none" />
    </g>
  </g>
</svg>