<?xml version="1.0" encoding="utf-8"?>
<svg width="72px" height="75px" viewBox="0 0 72 75" version="1.1" xmlns:xlink="http://www.w3.org/1999/xlink" xmlns="http://www.w3.org/2000/svg">
  <defs>
    <filter id="filter_1">
      <feColorMatrix in="SourceGraphic" type="matrix" values="0 0 0 0 0.827451 0 0 0 0 0.827451 0 0 0 0 0.827451 0 0 0 1 0" />
    </filter>
  </defs>
  <g id="pen-with-arrow-icon">
    <g id="Group-17">
      <g id="Group-9-Copy-3" filter="url(#filter_1)">
        <path d="M68.9959 5.99752L68.9969 5.99918Q69.08 6.1397 69.1515 6.28648Q69.223 6.43326 69.2824 6.58533Q69.3418 6.7374 69.3887 6.89377Q69.4356 7.05014 69.4697 7.20979Q69.5039 7.36943 69.525 7.53132Q69.5462 7.6932 69.5541 7.85626Q69.5621 8.01933 69.5569 8.1825Q69.5517 8.34568 69.5334 8.5079Q69.515 8.67012 69.4836 8.83033Q69.4522 8.99054 69.408 9.14769Q69.3637 9.30483 69.3069 9.4579Q69.2501 9.61096 69.1812 9.75894Q69.1122 9.90692 69.0315 10.0488Q68.9508 10.1908 68.859 10.3257Q68.7671 10.4607 68.6646 10.5877Q68.5621 10.7148 68.4497 10.8332L38.3114 42.5755L30.9008 33.5169L65.0936 5.31348Q65.2022 5.22391 65.3198 5.14655Q65.4374 5.06919 65.5627 5.00495Q65.6879 4.94071 65.8194 4.89033Q65.9508 4.83995 66.0869 4.80403Q66.223 4.7681 66.3622 4.74703Q66.5014 4.72597 66.6421 4.72002Q66.7827 4.71407 66.9232 4.7233Q67.0637 4.73253 67.2023 4.75684Q67.341 4.78114 67.4762 4.82024Q67.6114 4.85934 67.7417 4.91277Q67.8719 4.9662 67.9956 5.03335Q68.1193 5.1005 68.2351 5.18058Q68.3509 5.26066 68.4574 5.35274Q68.5638 5.44483 68.6598 5.54784Q68.7557 5.65086 68.84 5.76361Q68.9243 5.87635 68.9959 5.99752Z" id="Rectangle" fill="#B8B8B8" fill-rule="evenodd" stroke="none" />
        <path d="M5.38038 67.4625C5.26702 67.363 5.02153 55.232 11.9464 47.5298C18.8714 39.8276 27.1591 36.264 30.4577 39.5703C33.7562 42.8767 32.3751 55.7591 23.8916 59.503C15.4081 63.2469 5.49373 67.562 5.38038 67.4625Z" id="Ellipse" fill="#808080" fill-rule="evenodd" stroke="none" />
      </g>
      <path d="M27.8507 54.9876C93.7606 33.871 43.0828 9.28265 35.3172 12.3335C18.9125 18.7783 6.919 35.8204 0.715376 32.2426" id="Arrow" fill="none" fill-rule="evenodd" stroke="#D3D3D3" stroke-width="1" stroke-dasharray="2 2" />
    </g>
  </g>
</svg>