<?xml version="1.0" encoding="utf-8"?>
<svg width="73px" height="70px" viewBox="0 0 73 70" version="1.1" xmlns:xlink="http://www.w3.org/1999/xlink" xmlns="http://www.w3.org/2000/svg">
  <defs>
    <filter id="filter_1">
      <feColorMatrix in="SourceGraphic" type="matrix" values="0 0 0 0 0.827451 0 0 0 0 0.827451 0 0 0 0 0.827451 0 0 0 1 0" />
    </filter>
  </defs>
  <g id="rectangular-marquee-tool">
    <g id="Group-7" filter="url(#filter_1)">
      <path d="M8.24937 0L64.2514 0Q64.4477 0 64.6439 0.00963514Q64.84 0.0192703 65.0354 0.0385174Q65.2308 0.0577644 65.4251 0.0865771Q65.6193 0.11539 65.8119 0.153699Q66.0045 0.192007 66.195 0.23972Q66.3854 0.287433 66.5733 0.344434Q66.7612 0.401436 66.9461 0.467589Q67.131 0.533742 67.3124 0.608888Q67.4939 0.684033 67.6714 0.76799Q67.8489 0.851946 68.0221 0.944512Q68.1952 1.03708 68.3637 1.13803Q68.5321 1.23898 68.6954 1.34807Q68.8586 1.45717 69.0164 1.57414Q69.1741 1.69112 69.3259 1.81569Q69.4777 1.94026 69.6232 2.07213Q69.7687 2.204 69.9075 2.34285Q70.0464 2.4817 70.1782 2.6272Q70.3101 2.7727 70.4347 2.92449Q70.5592 3.07628 70.6762 3.234Q70.7932 3.39172 70.9023 3.55499Q71.0114 3.71826 71.1123 3.88669Q71.2133 4.05512 71.3059 4.2283Q71.3984 4.40148 71.4824 4.57899Q71.5663 4.7565 71.6415 4.93791Q71.7166 5.11933 71.7828 5.30422Q71.8489 5.4891 71.9059 5.67701Q71.9629 5.86492 72.0106 6.0554Q72.0583 6.24588 72.0967 6.43847Q72.135 6.63106 72.1638 6.8253Q72.1926 7.01954 72.2119 7.21496Q72.2311 7.41038 72.2407 7.60651Q72.2504 7.80264 72.2504 7.999L72.2504 61.001Q72.2504 61.1974 72.2407 61.3935Q72.2311 61.5896 72.2119 61.785Q72.1926 61.9804 72.1638 62.1747Q72.135 62.3689 72.0967 62.5615Q72.0583 62.7541 72.0106 62.9446Q71.9629 63.1351 71.9059 63.323Q71.8489 63.5109 71.7828 63.6958Q71.7166 63.8806 71.6415 64.0621Q71.5663 64.2435 71.4824 64.421Q71.3984 64.5985 71.3059 64.7717Q71.2133 64.9449 71.1123 65.1133Q71.0114 65.2817 70.9023 65.445Q70.7932 65.6083 70.6762 65.766Q70.5592 65.9237 70.4347 66.0755Q70.3101 66.2273 70.1782 66.3728Q70.0464 66.5183 69.9075 66.6571Q69.7687 66.796 69.6232 66.9279Q69.4777 67.0597 69.3259 67.1843Q69.1741 67.3089 69.0164 67.4258Q68.8586 67.5428 68.6954 67.6519Q68.5321 67.761 68.3637 67.862Q68.1952 67.9629 68.0221 68.0555Q67.8489 68.148 67.6714 68.232Q67.4939 68.316 67.3124 68.3911Q67.131 68.4662 66.9461 68.5324Q66.7612 68.5985 66.5733 68.6556Q66.3854 68.7126 66.195 68.7603Q66.0045 68.808 65.8119 68.8463Q65.6193 68.8846 65.4251 68.9134Q65.2308 68.9422 65.0354 68.9615Q64.84 68.9807 64.6439 68.9904Q64.4477 69 64.2514 69L8.24937 69Q8.053 69 7.85687 68.9904Q7.66075 68.9807 7.46533 68.9615Q7.26991 68.9422 7.07567 68.9134Q6.88143 68.8846 6.68884 68.8463Q6.49625 68.808 6.30577 68.7603Q6.11529 68.7125 5.92738 68.6555Q5.73947 68.5985 5.55458 68.5324Q5.3697 68.4662 5.18828 68.3911Q5.00686 68.316 4.82935 68.232Q4.65184 68.148 4.47866 68.0555Q4.30549 67.9629 4.13706 67.862Q3.96863 67.761 3.80536 67.6519Q3.64209 67.5428 3.48437 67.4258Q3.32665 67.3089 3.17485 67.1843Q3.02306 67.0597 2.87757 66.9279Q2.73207 66.796 2.59322 66.6571Q2.45437 66.5183 2.3225 66.3728Q2.19063 66.2273 2.06606 66.0755Q1.94148 65.9237 1.82451 65.766Q1.70754 65.6083 1.59844 65.445Q1.48935 65.2817 1.3884 65.1133Q1.28744 64.9449 1.19488 64.7717Q1.10231 64.5985 1.01836 64.421Q0.934399 64.2435 0.859254 64.0621Q0.784108 63.8806 0.717955 63.6958Q0.651802 63.5109 0.5948 63.323Q0.537799 63.1351 0.490086 62.9446Q0.442374 62.7541 0.404065 62.5615Q0.365756 62.3689 0.336943 62.1747Q0.308131 61.9804 0.288884 61.785Q0.269637 61.5896 0.260001 61.3935Q0.250366 61.1974 0.250366 61.001L0.250366 7.999Q0.250366 7.80264 0.260001 7.60651Q0.269637 7.41038 0.288884 7.21496Q0.308131 7.01954 0.336943 6.8253Q0.365756 6.63106 0.404065 6.43847Q0.442374 6.24588 0.490086 6.0554Q0.537799 5.86492 0.594801 5.67701Q0.651802 5.4891 0.717955 5.30422Q0.784108 5.11933 0.859254 4.93791Q0.934399 4.7565 1.01836 4.57899Q1.10231 4.40148 1.19488 4.2283Q1.28744 4.05512 1.3884 3.88669Q1.48935 3.71826 1.59844 3.55499Q1.70754 3.39172 1.82451 3.234Q1.94148 3.07628 2.06606 2.92449Q2.19063 2.7727 2.3225 2.6272Q2.45437 2.4817 2.59322 2.34285Q2.73207 2.204 2.87757 2.07213Q3.02306 1.94026 3.17485 1.81569Q3.32665 1.69112 3.48437 1.57414Q3.64209 1.45717 3.80536 1.34807Q3.96863 1.23898 4.13706 1.13803Q4.30549 1.03708 4.47866 0.944512Q4.65184 0.851946 4.82935 0.76799Q5.00686 0.684033 5.18828 0.608888Q5.3697 0.533742 5.55458 0.467589Q5.73947 0.401436 5.92738 0.344434Q6.11529 0.287433 6.30577 0.23972Q6.49625 0.192007 6.68884 0.153699Q6.88143 0.11539 7.07567 0.0865771Q7.26991 0.0577644 7.46533 0.0385174Q7.66075 0.0192703 7.85687 0.00963514Q8.053 0 8.24937 0Z" id="Rectangle" fill="none" fill-rule="evenodd" stroke="#808080" stroke-width="4" stroke-dasharray="15 7" />
      <path d="M1.90735e-06 50.7497L-2.14267e-05 68.7497L22 68.7497" id="New-shape-Copy-2" fill="none" fill-rule="evenodd" stroke="#808080" stroke-width="5" />
      <path d="M72.2504 50.7498L72.2503 69.7498L50.2503 69.7497" id="New-shape-Copy-3" fill="none" fill-rule="evenodd" stroke="#808080" stroke-width="5" />
      <path d="M53.2506 0.635895L72.2506 0.635895L72.2506 22.6359" id="New-shape-Copy-4" fill="none" fill-rule="evenodd" stroke="#808080" stroke-width="5" />
      <path d="M0.250307 19.5L0.250329 0.499975L22.2504 0.5" id="New-shape-Copy-5" fill="none" fill-rule="evenodd" stroke="#808080" stroke-width="5" />
    </g>
  </g>
</svg>