<?xml version="1.0" encoding="utf-8"?>
<svg width="72px" height="69px" viewBox="0 0 72 69" version="1.1" xmlns:xlink="http://www.w3.org/1999/xlink" xmlns="http://www.w3.org/2000/svg">
  <defs>
    <filter id="filter_1">
      <feColorMatrix in="SourceGraphic" type="matrix" values="0 0 0 0 0.827451 0 0 0 0 0.827451 0 0 0 0 0.827451 0 0 0 1 0" />
    </filter>
  </defs>
  <g id="text-tool" filter="url(#filter_1)">
    <g id="T">
      <path d="M25.671 58.062L25.671 55.29L27.189 55.29Q29.367 55.29 30.984 54.531Q32.601 53.772 32.601 50.868L32.601 14.238L26.265 14.238Q23.361 14.238 22.239 15.855Q21.117 17.472 20.853 19.65L20.523 22.488L17.091 22.488L17.421 10.938L54.579 10.938L54.909 22.488L51.477 22.488L51.147 19.65Q50.883 17.472 49.761 15.855Q48.639 14.238 45.669 14.238L39.267 14.238L39.267 50.538Q39.267 53.64 40.851 54.465Q42.435 55.29 44.679 55.29L46.197 55.29L46.197 58.062L25.671 58.062Z" />
    </g>
  </g>
</svg>