<?xml version="1.0" encoding="utf-8"?>
<svg width="120px" height="120px" viewBox="0 0 120 120" version="1.1" xmlns:xlink="http://www.w3.org/1999/xlink" xmlns="http://www.w3.org/2000/svg">
  <defs>
    <filter id="filter_1">
      <feColorMatrix in="SourceGraphic" type="matrix" values="0 0 0 0 0.827451 0 0 0 0 0.827451 0 0 0 0 0.827451 0 0 0 1 0" />
    </filter>
  </defs>
  <g id="two-arrows-icon">
    <g id="Group-21" filter="url(#filter_1)">
      <path d="M9.06977 19.9209L34.808 5.15449Q34.9781 5.05689 35.1543 4.97061Q35.3304 4.88433 35.5118 4.80974Q35.6932 4.73514 35.879 4.67256Q36.0649 4.60998 36.2545 4.55967Q36.4441 4.50936 36.6365 4.47154Q36.829 4.43372 37.0235 4.40855Q37.218 4.38338 37.4137 4.37097Q37.6095 4.35856 37.8056 4.35896Q38.0017 4.35936 38.1974 4.37258Q38.3931 4.38579 38.5875 4.41175Q38.7819 4.43772 38.9742 4.47633Q39.1665 4.51493 39.3558 4.56602Q39.5452 4.61711 39.7308 4.68045Q39.9164 4.7438 40.0975 4.81913Q40.2786 4.89446 40.4544 4.98147Q40.6302 5.06847 40.7999 5.16676Q40.9696 5.26506 41.1325 5.37424Q41.2955 5.48341 41.4509 5.60299Q41.6064 5.72257 41.7537 5.85206Q41.901 5.98154 42.0396 6.12036Q42.1781 6.25919 42.3073 6.40677Q42.4365 6.55435 42.5557 6.71006Q42.675 6.86576 42.7838 7.02892Q42.8927 7.19208 42.9906 7.362Q43.0886 7.53192 43.1752 7.70788Q43.2619 7.88384 43.3368 8.06507Q43.4118 8.24631 43.4748 8.43206Q43.5377 8.61781 43.5884 8.80728Q43.6391 8.99674 43.6773 9.18911Q43.7155 9.38149 43.7411 9.57594Q43.7667 9.7704 43.7795 9.96611Q43.7923 10.1618 43.7923 10.358L43.7923 39.8908Q43.7923 40.087 43.7795 40.2827Q43.7666 40.4784 43.7411 40.6728Q43.7155 40.8673 43.6773 41.0597Q43.6391 41.252 43.5884 41.4415Q43.5377 41.631 43.4747 41.8167Q43.4118 42.0025 43.3368 42.1837Q43.2618 42.3649 43.1752 42.5409Q43.0885 42.7169 42.9906 42.8868Q42.8926 43.0567 42.7838 43.2199Q42.675 43.383 42.5557 43.5387Q42.4364 43.6944 42.3073 43.842Q42.1781 43.9896 42.0395 44.1284Q41.901 44.2672 41.7537 44.3967Q41.6064 44.5262 41.4509 44.6458Q41.2954 44.7654 41.1325 44.8745Q40.9696 44.9837 40.7998 45.082Q40.6301 45.1803 40.4544 45.2673Q40.2786 45.3543 40.0975 45.4296Q39.9164 45.505 39.7308 45.5683Q39.5452 45.6317 39.3558 45.6828Q39.1664 45.7338 38.9741 45.7725Q38.7819 45.8111 38.5874 45.837Q38.393 45.863 38.1974 45.8762Q38.0017 45.8894 37.8055 45.8898Q37.6094 45.8902 37.4137 45.8778Q37.2179 45.8654 37.0234 45.8402Q36.8289 45.8151 36.6365 45.7772Q36.444 45.7394 36.2544 45.6891Q36.0649 45.6388 35.879 45.5762Q35.6931 45.5136 35.5117 45.439Q35.3303 45.3644 35.1542 45.2782Q34.9781 45.1919 34.808 45.0943L9.06976 30.3278Q8.89897 30.2298 8.73497 30.1208Q8.57098 30.0119 8.41448 29.8924Q8.25799 29.7729 8.10966 29.6434Q7.96134 29.5139 7.82182 29.375Q7.68231 29.236 7.55221 29.0882Q7.42211 28.9404 7.30198 28.7844Q7.18185 28.6284 7.0722 28.4649Q6.96256 28.3013 6.86388 28.1309Q6.7652 27.9606 6.6779 27.7841Q6.5906 27.6076 6.51507 27.4257Q6.43953 27.2439 6.37608 27.0575Q6.31263 26.8711 6.26154 26.681Q6.21045 26.4908 6.17194 26.2977Q6.13343 26.1046 6.10766 25.9094Q6.08189 25.7142 6.06898 25.5177Q6.05607 25.3212 6.05607 25.1243Q6.05607 24.9275 6.06898 24.731Q6.08189 24.5345 6.10766 24.3393Q6.13343 24.1441 6.17194 23.951Q6.21045 23.7579 6.26154 23.5677Q6.31263 23.3776 6.37609 23.1912Q6.43954 23.0048 6.51507 22.823Q6.59061 22.6411 6.67791 22.4646Q6.7652 22.2881 6.86388 22.1178Q6.96257 21.9474 7.07221 21.7838Q7.18185 21.6203 7.30198 21.4643Q7.42211 21.3083 7.55222 21.1605Q7.68232 21.0127 7.82183 20.8737Q7.96135 20.7348 8.10967 20.6053Q8.258 20.4758 8.41449 20.3563Q8.57099 20.2368 8.73498 20.1279Q8.89898 20.0189 9.06977 19.9209Z" id="Triangle" fill="#D3D3D3" fill-rule="evenodd" stroke="none" />
      <path d="M89.4811 111.121L74.5903 85.5979Q74.4912 85.4279 74.4033 85.2518Q74.3155 85.0757 74.2394 84.8941Q74.1633 84.7126 74.0993 84.5265Q74.0353 84.3404 73.9836 84.1505Q73.9319 83.9606 73.8927 83.7677Q73.8536 83.5749 73.8272 83.3798Q73.8008 83.1848 73.7872 82.9884Q73.7737 82.7921 73.773 82.5953Q73.7723 82.3985 73.7845 82.202Q73.7968 82.0056 73.8218 81.8104Q73.8469 81.6152 73.8847 81.4221Q73.9226 81.2289 73.973 81.0387Q74.0234 80.8484 74.0861 80.6619Q74.1489 80.4753 74.2237 80.2933Q74.2986 80.1113 74.3852 79.9346Q74.4718 79.7578 74.5698 79.5872Q74.6679 79.4165 74.7769 79.2526Q74.8858 79.0887 75.0054 78.9324Q75.1249 78.776 75.2543 78.6278Q75.3839 78.4795 75.5228 78.3401Q75.6617 78.2007 75.8095 78.0707Q75.9572 77.9407 76.1132 77.8207Q76.2692 77.7007 76.4327 77.5911Q76.5962 77.4816 76.7665 77.3829Q76.9369 77.2843 77.1133 77.1971Q77.2897 77.1099 77.4715 77.0344Q77.6533 76.959 77.8396 76.8956Q78.0259 76.8322 78.216 76.7811Q78.4061 76.7301 78.5991 76.6916Q78.7921 76.6531 78.9872 76.6274Q79.1823 76.6016 79.3787 76.5887Q79.5751 76.5758 79.7719 76.5758L109.553 76.5758Q109.75 76.5758 109.947 76.5886Q110.143 76.6015 110.338 76.6273Q110.533 76.653 110.726 76.6915Q110.919 76.73 111.109 76.781Q111.299 76.8321 111.486 76.8955Q111.672 76.9589 111.854 77.0343Q112.036 77.1098 112.212 77.197Q112.388 77.2843 112.559 77.3829Q112.729 77.4815 112.893 77.591Q113.056 77.7006 113.212 77.8206Q113.368 77.9406 113.516 78.0706Q113.664 78.2006 113.802 78.34Q113.941 78.4794 114.071 78.6276Q114.2 78.7759 114.32 78.9322Q114.439 79.0886 114.548 79.2525Q114.657 79.4164 114.755 79.587Q114.853 79.7577 114.94 79.9344Q115.027 80.1112 115.102 80.2932Q115.176 80.4752 115.239 80.6618Q115.302 80.8483 115.352 81.0385Q115.403 81.2288 115.441 81.4219Q115.478 81.6151 115.503 81.8103Q115.529 82.0055 115.541 82.2019Q115.553 82.3984 115.552 82.5952Q115.552 82.792 115.538 82.9883Q115.524 83.1847 115.498 83.3797Q115.472 83.5747 115.433 83.7676Q115.393 83.9605 115.342 84.1504Q115.29 84.3403 115.226 84.5264Q115.162 84.7125 115.086 84.894Q115.01 85.0756 114.922 85.2517Q114.834 85.4278 114.735 85.5978L99.8443 111.121Q99.7458 111.29 99.6365 111.452Q99.5271 111.614 99.4075 111.769Q99.2878 111.923 99.1584 112.07Q99.0289 112.216 98.8902 112.354Q98.7514 112.492 98.604 112.62Q98.4566 112.749 98.3011 112.867Q98.1457 112.986 97.9828 113.094Q97.82 113.202 97.6504 113.3Q97.4809 113.397 97.3053 113.483Q97.1298 113.569 96.949 113.644Q96.7682 113.718 96.583 113.781Q96.3977 113.844 96.2088 113.894Q96.0199 113.944 95.828 113.982Q95.6362 114.02 95.4424 114.046Q95.2485 114.071 95.0534 114.084Q94.8583 114.097 94.6627 114.097Q94.4672 114.097 94.2721 114.084Q94.077 114.071 93.8831 114.046Q93.6892 114.02 93.4974 113.982Q93.3056 113.944 93.1166 113.894Q92.9277 113.844 92.7425 113.781Q92.5572 113.719 92.3765 113.644Q92.1957 113.569 92.0201 113.483Q91.8446 113.397 91.675 113.3Q91.5055 113.202 91.3426 113.094Q91.1798 112.986 91.0243 112.867Q90.8688 112.749 90.7214 112.62Q90.574 112.492 90.4353 112.354Q90.2965 112.216 90.1671 112.07Q90.0376 111.923 89.9179 111.769Q89.7983 111.614 89.689 111.452Q89.5796 111.29 89.4811 111.121Z" id="Triangle-2" fill="#D3D3D3" fill-rule="evenodd" stroke="none" />
      <path d="M45.204 21.035L92.0838 21.035L92.0838 29.3441L45.204 29.3441L45.204 21.035Z" id="Rectangle" fill="#D3D3D3" fill-rule="evenodd" stroke="none" />
      <path d="M93.2074 21.035L93.2094 21.035Q93.3149 21.035 93.4203 21.0402Q93.5257 21.0454 93.6308 21.0557Q93.7358 21.0661 93.8402 21.0816Q93.9446 21.0971 94.0481 21.1176Q94.1516 21.1382 94.2539 21.1639Q94.3563 21.1895 94.4573 21.2202Q94.5583 21.2508 94.6577 21.2863Q94.757 21.3219 94.8545 21.3623Q94.952 21.4027 95.0474 21.4478Q95.1428 21.4929 95.2359 21.5427Q95.3289 21.5924 95.4195 21.6467Q95.51 21.7009 95.5977 21.7595Q95.6855 21.8182 95.7702 21.881Q95.855 21.9439 95.9366 22.0108Q96.0182 22.0778 96.0964 22.1487Q96.1745 22.2195 96.2492 22.2942Q96.3238 22.3688 96.3947 22.447Q96.4655 22.5252 96.5325 22.6067Q96.5994 22.6883 96.6623 22.7731Q96.7252 22.8578 96.7838 22.9456Q96.8424 23.0333 96.8967 23.1239Q96.9509 23.2144 97.0007 23.3074Q97.0504 23.4005 97.0956 23.4959Q97.1407 23.5913 97.1811 23.6888Q97.2214 23.7863 97.257 23.8857Q97.2926 23.985 97.3232 24.086Q97.3538 24.187 97.3795 24.2894Q97.4051 24.3918 97.4257 24.4953Q97.4463 24.5988 97.4618 24.7032Q97.4773 24.8075 97.4876 24.9126Q97.4979 25.0176 97.5031 25.123Q97.5083 25.2284 97.5083 25.3339L97.5083 74.8993Q97.5083 75.0048 97.5031 75.1102Q97.4979 75.2156 97.4876 75.3207Q97.4773 75.4257 97.4618 75.5301Q97.4463 75.6345 97.4257 75.738Q97.4051 75.8415 97.3795 75.9439Q97.3538 76.0462 97.3232 76.1472Q97.2926 76.2482 97.257 76.3476Q97.2214 76.4469 97.1811 76.5444Q97.1407 76.6419 97.0956 76.7373Q97.0504 76.8327 97.0007 76.9258Q96.9509 77.0189 96.8967 77.1094Q96.8424 77.1999 96.7838 77.2876Q96.7252 77.3754 96.6623 77.4602Q96.5994 77.5449 96.5325 77.6265Q96.4655 77.7081 96.3947 77.7863Q96.3238 77.8645 96.2492 77.9391Q96.1745 78.0137 96.0964 78.0846Q96.0182 78.1554 95.9366 78.2224Q95.855 78.2894 95.7702 78.3522Q95.6855 78.4151 95.5977 78.4737Q95.51 78.5323 95.4195 78.5866Q95.329 78.6408 95.2359 78.6906Q95.1428 78.7403 95.0474 78.7855Q94.952 78.8306 94.8545 78.871Q94.757 78.9114 94.6577 78.9469Q94.5583 78.9825 94.4573 79.0131Q94.3563 79.0437 94.2539 79.0694Q94.1516 79.095 94.0481 79.1156Q93.9446 79.1362 93.8402 79.1517Q93.7358 79.1672 93.6308 79.1775Q93.5257 79.1878 93.4203 79.193Q93.3149 79.1982 93.2094 79.1982L93.2074 79.1982Q93.1019 79.1982 92.9965 79.193Q92.8911 79.1878 92.7861 79.1775Q92.681 79.1672 92.5766 79.1517Q92.4722 79.1362 92.3687 79.1156Q92.2652 79.095 92.1629 79.0694Q92.0605 79.0437 91.9595 79.0131Q91.8585 78.9825 91.7591 78.9469Q91.6598 78.9114 91.5623 78.871Q91.4648 78.8306 91.3694 78.7855Q91.274 78.7403 91.1809 78.6906Q91.0878 78.6408 90.9973 78.5866Q90.9068 78.5323 90.8191 78.4737Q90.7313 78.4151 90.6466 78.3522Q90.5618 78.2894 90.4802 78.2224Q90.3986 78.1554 90.3204 78.0846Q90.2423 78.0137 90.1676 77.9391Q90.093 77.8645 90.0221 77.7863Q89.9513 77.7081 89.8843 77.6265Q89.8174 77.5449 89.7545 77.4602Q89.6916 77.3754 89.633 77.2876Q89.5744 77.1999 89.5201 77.1094Q89.4659 77.0189 89.4161 76.9258Q89.3664 76.8327 89.3213 76.7373Q89.2761 76.6419 89.2357 76.5444Q89.1954 76.4469 89.1598 76.3476Q89.1243 76.2482 89.0936 76.1472Q89.063 76.0462 89.0373 75.9439Q89.0117 75.8415 88.9911 75.738Q88.9705 75.6345 88.955 75.5301Q88.9396 75.4257 88.9292 75.3207Q88.9189 75.2156 88.9137 75.1102Q88.9085 75.0048 88.9085 74.8993L88.9085 25.3339Q88.9085 25.2284 88.9137 25.123Q88.9189 25.0176 88.9292 24.9126Q88.9396 24.8075 88.955 24.7032Q88.9705 24.5988 88.9911 24.4953Q89.0117 24.3918 89.0373 24.2894Q89.063 24.187 89.0936 24.086Q89.1243 23.985 89.1598 23.8857Q89.1954 23.7863 89.2357 23.6888Q89.2761 23.5913 89.3213 23.4959Q89.3664 23.4005 89.4161 23.3075Q89.4659 23.2144 89.5201 23.1239Q89.5744 23.0333 89.633 22.9456Q89.6916 22.8578 89.7545 22.7731Q89.8174 22.6883 89.8843 22.6067Q89.9513 22.5252 90.0221 22.447Q90.093 22.3688 90.1676 22.2942Q90.2423 22.2195 90.3204 22.1487Q90.3986 22.0778 90.4802 22.0108Q90.5618 21.9439 90.6466 21.881Q90.7313 21.8182 90.8191 21.7595Q90.9068 21.7009 90.9973 21.6467Q91.0878 21.5924 91.1809 21.5427Q91.274 21.4929 91.3694 21.4478Q91.4648 21.4027 91.5623 21.3623Q91.6598 21.3219 91.7591 21.2863Q91.8585 21.2508 91.9595 21.2202Q92.0605 21.1895 92.1629 21.1639Q92.2652 21.1382 92.3687 21.1176Q92.4722 21.0971 92.5766 21.0816Q92.681 21.0661 92.7861 21.0557Q92.8911 21.0454 92.9965 21.0402Q93.1019 21.035 93.2074 21.035Z" id="Rectangle-2" fill="#D3D3D3" fill-rule="evenodd" stroke="none" />
    </g>
  </g>
</svg>