<?xml version="1.0" encoding="utf-8"?>
<svg width="71px" height="68px" viewBox="0 0 71 68" version="1.1" xmlns:xlink="http://www.w3.org/1999/xlink" xmlns="http://www.w3.org/2000/svg">
  <defs>
    <filter id="filter_1">
      <feColorMatrix in="SourceGraphic" type="matrix" values="0 0 0 0 0.827451 0 0 0 0 0.827451 0 0 0 0 0.827451 0 0 0 1 0" />
    </filter>
    <path d="M0 0L71 0L71 68L0 68L0 0Z" id="path_1" />
    <clipPath id="mask_1">
      <use xlink:href="#path_1" />
    </clipPath>
  </defs>
  <g id="zoom-tool">
    <g id="Search-icon-2" filter="url(#filter_1)">
      <path d="M0 0L71 0L71 68L0 68L0 0Z" id="Background" fill="none" fill-rule="evenodd" stroke="none" />
      <g clip-path="url(#mask_1)">
        <path d="M27.3076 0.490339C12.5017 0.490339 0.511963 11.9735 0.511963 26.1538C0.511963 40.3341 12.5017 51.8173 27.3076 51.8173C33.5585 51.8173 39.3081 49.7025 43.8629 46.2596L46.2524 48.548C45.2496 50.3563 45.6017 52.6652 47.1911 54.1875L59.7355 66.2836C61.6876 68.1532 64.8664 68.1532 66.8185 66.2836L69.2079 63.9952C71.16 62.1256 71.16 59.0811 69.2079 57.2115L56.5781 45.1971C54.978 43.6646 52.5779 43.399 50.6898 44.3798L48.3004 42.0913C51.9166 37.7187 54.1033 32.1712 54.1033 26.1538C54.1033 11.9735 42.1135 0.490339 27.3076 0.490339L27.3076 0.490339ZM27.3076 5.23068C39.372 5.23068 49.1537 14.5991 49.1537 26.1538C49.1537 37.7084 39.372 47.0768 27.3076 47.0768C15.2431 47.0768 5.46143 37.7084 5.46143 26.1538C5.46143 14.5991 15.2431 5.23068 27.3076 5.23068L27.3076 5.23068ZM13.483 19.5337C12.075 21.72 11.2643 24.2945 11.2643 27.0529C11.2643 34.9706 17.9312 41.3558 26.1982 41.3558C29.3876 41.3558 32.3851 40.3648 34.8172 38.7404C34.1665 38.8119 33.4411 38.8221 32.7691 38.8221C22.0807 38.8221 13.483 30.5878 13.483 20.351C13.483 20.0751 13.4724 19.8095 13.483 19.5337L13.483 19.5337Z" id="Shape" fill="#FFFFFF" fill-rule="evenodd" stroke="none" />
      </g>
    </g>
  </g>
</svg>