<?xml version="1.0" encoding="utf-8"?>
<svg width="799.9939px" height="700.69995px" viewBox="0 0 799.9939 700.69995" version="1.1" xmlns:xlink="http://www.w3.org/1999/xlink" xmlns="http://www.w3.org/2000/svg">
  <path d="M743.375 90.3629L426.175 403.538L391.25 369.063L708.475 55.8876C718.125 46.3627 733.75 46.3627 743.375 55.8876C753.025 65.4129 753.025 80.8376 743.375 90.3629L743.375 90.3629L743.375 90.3629ZM338.9 489.738C335.675 486.563 303.975 455.263 303.975 455.263L356.35 403.538L391.25 438.013L338.9 489.738L338.9 489.738L338.9 489.738ZM286.525 610.363C261.925 633.188 152 684.063 87.2749 634.738C87.2749 634.738 109.8 617.163 126.85 581.888C167.575 473.713 269.075 489.738 269.075 489.738L303.975 524.188C304.325 524.538 330.05 570.013 286.525 610.363L286.525 610.363L286.525 610.363ZM778.3 21.4127C749.375 -7.1373 702.475 -7.1373 673.55 21.4127L244.1 445.438C191.525 444.238 118.7 462.863 87.2749 565.813C63.25 620.263 0 617.513 0 617.513C131.325 763.188 286.1 680.638 321.425 644.838C352.5 613.388 356.975 574.888 353.65 544.088L778.3 124.838C807.225 96.2627 807.225 49.9626 778.3 21.4127L778.3 21.4127L778.3 21.4127Z" id="Page-1" fill="#E1E1E1" fill-rule="evenodd" stroke="none" />
</svg>