<?xml version="1.0" encoding="utf-8"?>
<svg width="666.66797px" height="666.66797px" viewBox="0 0 666.66797 666.66797" version="1.1" xmlns:xlink="http://www.w3.org/1999/xlink" xmlns="http://www.w3.org/2000/svg">
  <path d="M482.667 533.334L150 533.334C140.79 533.334 133.333 525.883 133.333 516.668L133.333 16.6667C133.333 7.46204 125.872 0 116.667 0C107.462 0 100 7.46204 100 16.6667L100 100L16.6667 100C7.46191 100 0 107.462 0 116.667C0 125.872 7.46191 133.334 16.6667 133.334L100 133.334L100 516.668C100 544.296 122.387 566.668 150 566.668L482.667 566.668C491.873 566.668 499.334 559.206 499.334 550.001C499.334 540.796 491.873 533.334 482.667 533.334L482.667 533.334ZM516.681 133.334L183.414 133.334C174.209 133.334 166.747 125.872 166.747 116.667C166.747 107.462 174.209 100 183.414 100L516.681 100C544.294 100 566.681 122.372 566.681 150L566.681 533.334L650.001 533.334C659.206 533.334 666.668 540.796 666.668 550.001C666.668 559.206 659.206 566.668 650.001 566.668L566.681 566.668L566.681 650.001C566.681 659.206 559.219 666.668 550.014 666.668C540.81 666.668 533.348 659.206 533.348 650.001L533.348 550.674C533.339 550.451 533.334 550.226 533.334 550.001C533.334 549.776 533.339 549.551 533.348 549.328L533.348 150C533.348 140.785 525.891 133.334 516.681 133.334L516.681 133.334Z" id="crop" fill="#DBDBDB" fill-rule="evenodd" stroke="none" />
</svg>