<?xml version="1.0" encoding="utf-8"?>
<svg width="650px" height="650px" viewBox="0 0 650 650" version="1.1" xmlns:xlink="http://www.w3.org/1999/xlink" xmlns="http://www.w3.org/2000/svg">
  <path d="M108.502 305.32L126.18 322.997L108.502 305.32L108.502 305.32ZM25 423.407L0 423.407L25 423.407L25 423.407ZM226.592 625L226.592 650L226.592 625L226.592 625ZM305.32 108.502L287.64 90.8243L305.32 108.502L305.32 108.502ZM366.367 519.813C376.13 529.577 391.96 529.577 401.723 519.813C411.487 510.05 411.487 494.22 401.723 484.457L366.367 519.813L366.367 519.813ZM165.543 248.277C155.78 238.514 139.951 238.514 130.188 248.277C120.425 258.041 120.425 273.87 130.188 283.633L165.543 248.277L165.543 248.277ZM523.82 327.003L327.003 523.82L362.36 559.177L559.177 362.36L523.82 327.003L523.82 327.003ZM126.18 322.997L322.997 126.18L287.64 90.8243L90.8243 287.64L126.18 322.997L126.18 322.997ZM126.18 523.82C97.846 495.487 78.4117 475.977 65.751 459.383C53.5307 443.367 50 433.037 50 423.407L0 423.407C0 448.367 10.3863 469.247 26 489.713C41.1737 509.6 63.49 531.84 90.8243 559.177L126.18 523.82L126.18 523.82ZM90.8243 287.64C63.49 314.977 41.1737 337.217 26 357.103C10.3863 377.567 0 398.45 0 423.407L50 423.407C50 413.777 53.5307 403.45 65.751 387.433C78.4117 370.84 97.846 351.33 126.18 322.997L90.8243 287.64L90.8243 287.64ZM327.003 523.82C298.67 552.153 279.16 571.59 262.567 584.25C246.55 596.47 236.222 600 226.592 600L226.592 650C251.55 650 272.433 639.613 292.897 624C312.783 608.827 335.027 586.51 362.36 559.177L327.003 523.82L327.003 523.82ZM90.8243 559.177C118.159 586.51 140.4 608.827 160.288 624C180.752 639.613 201.634 650 226.592 650L226.592 600C216.962 600 206.633 596.47 190.617 584.25C174.023 571.59 154.514 552.153 126.18 523.82L90.8243 559.177L90.8243 559.177ZM523.82 126.18C552.153 154.514 571.59 174.023 584.25 190.617C596.47 206.633 600 216.962 600 226.592L650 226.592C650 201.634 639.613 180.752 624 160.288C608.827 140.4 586.51 118.159 559.177 90.8243L523.82 126.18L523.82 126.18ZM559.177 362.36C586.51 335.027 608.827 312.783 624 292.897C639.613 272.433 650 251.55 650 226.592L600 226.592C600 236.222 596.47 246.55 584.25 262.567C571.59 279.16 552.153 298.67 523.82 327.003L559.177 362.36L559.177 362.36ZM559.177 90.8243C531.84 63.49 509.6 41.1737 489.713 26C469.247 10.3863 448.367 0 423.407 0L423.407 50C433.037 50 443.367 53.5307 459.383 65.751C475.977 78.4117 495.487 97.846 523.82 126.18L559.177 90.8243L559.177 90.8243ZM322.997 126.18C351.33 97.846 370.84 78.4117 387.433 65.751C403.45 53.5307 413.777 50 423.407 50L423.407 0C398.45 0 377.567 10.3863 357.103 26C337.217 41.1737 314.977 63.49 287.64 90.8243L322.997 126.18L322.997 126.18ZM401.723 484.457L165.543 248.277L130.188 283.633L366.367 519.813L401.723 484.457L401.723 484.457Z" id="Shape" fill="#E1E1E1" fill-rule="evenodd" stroke="none" />
</svg>