<?xml version="1.0" encoding="utf-8"?>
<svg width="668.5364px" height="666.676px" viewBox="0 0 668.5364 666.676" version="1.1" xmlns:xlink="http://www.w3.org/1999/xlink" xmlns="http://www.w3.org/2000/svg">
  <path d="M101.87 233.333C101.87 191.841 125.646 150.979 170.746 119.144C215.758 87.371 279.69 66.6666 351.87 66.6666C424.05 66.6666 487.983 87.371 532.993 119.144C578.093 150.979 601.87 191.841 601.87 233.333C601.87 274.827 578.093 315.687 532.993 347.523C487.983 379.297 424.05 400 351.87 400C334.7 400 317.963 398.827 301.81 396.6C299.67 336.817 241.256 300 185.203 300C166.121 300 147.733 303.92 131.372 311.17C111.912 287.037 101.87 260.42 101.87 233.333L101.87 233.333ZM351.87 466.667C326.606 466.667 301.99 464.507 278.366 460.413C275.573 463.58 272.586 466.57 269.437 469.38C269.616 471.17 269.75 473.123 269.806 475.22C270.066 484.86 268.713 498.08 262.174 512.137C248.177 542.223 216.097 565.207 160.326 573.957C91.2048 584.8 73.4058 605.07 69.1191 612.483C66.8807 616.353 66.6211 619.41 66.6718 621.19C66.6925 621.92 66.7704 622.463 66.8235 622.757C67.3018 624.187 67.6858 625.663 67.9681 627.173C69.6417 636.013 67.6124 644.97 62.7365 652.127C60.0178 656.12 56.4138 659.55 52.0728 662.09C48.7927 664.017 45.1534 665.4 41.2798 666.113C37.3768 666.843 33.4524 666.85 29.6718 666.21C24.7698 665.39 20.2301 663.503 16.3008 660.793C12.3994 658.113 9.03845 654.583 6.5304 650.343C5.24316 648.177 4.19409 645.853 3.4198 643.41C3.31409 643.09 3.20313 642.743 3.08813 642.37C2.69775 641.103 2.25879 639.52 1.83716 637.653C0.997437 633.937 0.200073 628.983 0.0321045 623.09C-0.308228 611.157 1.96179 595.443 11.4061 579.11C30.4851 546.113 72.6644 520.227 149.993 508.097C163.633 505.957 173.699 503.027 181.129 499.937C125.299 498.17 68.5367 460.317 68.5367 400C68.5367 383.327 73.2091 368.057 80.9795 354.84C52.5941 320.337 35.2035 278.883 35.2035 233.333C35.2035 164.369 74.8534 105.23 132.3 64.6797C189.835 24.0674 267.569 0 351.87 0C436.17 0 513.906 24.0674 571.44 64.6797C628.886 105.23 668.536 164.369 668.536 233.333C668.536 302.297 628.886 361.437 571.44 401.987C513.906 442.6 436.17 466.667 351.87 466.667L351.87 466.667ZM146.612 379.287C155.361 372.08 168.914 366.667 185.203 366.667C220.143 366.667 235.203 388.147 235.203 400C235.203 403.097 234.52 406.167 233.083 409.24C230.408 414.957 224.77 421.27 215.609 426.137C207.381 430.51 196.943 433.333 185.203 433.333C150.264 433.333 135.203 411.853 135.203 400C135.203 393.64 138.274 386.153 146.612 379.287L146.612 379.287Z" id="Shape" fill="#DBDBDB" fill-rule="evenodd" stroke="none" />
</svg>