<?xml version="1.0" encoding="utf-8"?>
<svg width="663.9592px" height="733.33325px" viewBox="0 0 663.9592 733.33325" version="1.1" xmlns:xlink="http://www.w3.org/1999/xlink" xmlns="http://www.w3.org/2000/svg">
  <path d="M380.626 66.6666C371.422 66.6666 363.959 74.1287 363.959 83.3334L363.959 366.667C363.959 385.077 349.036 400 330.626 400C312.216 400 297.293 385.077 297.293 366.667L297.293 150C297.293 140.795 289.829 133.333 280.626 133.333C271.423 133.333 263.959 140.795 263.959 150L263.959 432.257C263.959 469.19 218.178 486.393 193.856 458.597L108.943 361.553C103.682 355.54 95.7789 352.533 87.8509 353.523C69.0689 355.87 60.2272 377.983 72.2132 392.633L228.562 583.727C271.513 636.223 335.759 666.667 403.586 666.667C510.566 666.667 597.293 579.94 597.293 472.96L597.293 216.667C597.293 207.462 589.829 200 580.626 200C571.422 200 563.959 207.462 563.959 216.667L563.959 366.667C563.959 385.077 549.036 400 530.626 400C512.216 400 497.293 385.077 497.293 366.667L497.293 150C497.293 140.795 489.829 133.333 480.626 133.333C471.422 133.333 463.959 140.795 463.959 150L463.959 366.667C463.959 385.077 449.036 400 430.626 400C412.216 400 397.293 385.077 397.293 366.667L397.293 83.3334C397.293 74.1287 389.829 66.6666 380.626 66.6666L380.626 66.6666ZM462.663 68.6077C455.709 29.6077 421.626 0 380.626 0C339.626 0 305.543 29.6077 298.589 68.6077C292.803 67.3367 286.793 66.6666 280.626 66.6666C234.602 66.6666 197.292 103.976 197.292 150L197.292 361.287L159.115 317.653C139.276 294.981 109.476 283.634 79.5819 287.371C8.75957 296.224 -24.5804 379.61 20.6159 434.85L176.965 625.943C232.577 693.913 315.763 733.333 403.586 733.333C547.386 733.333 663.959 616.76 663.959 472.96L663.959 216.667C663.959 170.643 626.649 133.333 580.626 133.333C574.459 133.333 568.449 134.003 562.663 135.274C555.709 96.2743 521.626 66.6666 480.626 66.6666C474.459 66.6666 468.449 67.3367 462.663 68.6077L462.663 68.6077Z" id="Shape" fill="#DBDBDB" fill-rule="evenodd" stroke="none" />
</svg>