<?xml version="1.0" encoding="utf-8"?>
<svg width="161px" height="157px" viewBox="0 0 161 157" version="1.1" xmlns:xlink="http://www.w3.org/1999/xlink" xmlns="http://www.w3.org/2000/svg">
  <defs>
    <filter id="filter_1">
      <feColorMatrix in="SourceGraphic" type="matrix" values="0 0 0 0 0.827451 0 0 0 0 0.827451 0 0 0 0 0.827451 0 0 0 1 0" />
    </filter>
    <path d="M0 60C0 26.8629 26.8629 0 60 0C93.1371 0 120 26.8629 120 60C120 93.1371 93.1371 120 60 120C26.8629 120 0 93.1371 0 60Z" id="path_1" />
    <clipPath id="mask_1">
      <use xlink:href="#path_1" />
    </clipPath>
  </defs>
  <g id="brightness-icon">
    <g id="Group-3" transform="translate(0 9.1552734E-05)" filter="url(#filter_1)">
      <g id="Rectangle-Mask" transform="translate(20.799988 20)">
        <path d="M0 60C0 26.8629 26.8629 0 60 0C93.1371 0 120 26.8629 120 60C120 93.1371 93.1371 120 60 120C26.8629 120 0 93.1371 0 60Z" id="Mask" fill="none" fill-rule="evenodd" stroke="#808080" stroke-width="4" />
        <g clip-path="url(#mask_1)">
          <path d="M60 -26L131 -26L131 146L60 146L60 -26Z" id="Rectangle" fill="#D3D3D3" fill-rule="evenodd" stroke="none" />
        </g>
      </g>
      <path d="M80.599 0L80.601 0Q80.6992 0 80.7969 0.00962573Q80.8946 0.0192515 80.991 0.0384102Q81.0873 0.057569 81.1812 0.0860763Q81.2752 0.114584 81.366 0.152165Q81.4567 0.189746 81.5433 0.236039Q81.6299 0.282333 81.7116 0.336892Q81.7932 0.391452 81.8691 0.453752Q81.945 0.516052 82.0145 0.585494Q82.0839 0.654935 82.1462 0.730848Q82.2085 0.806761 82.2631 0.888415Q82.3176 0.970069 82.3639 1.05668Q82.4102 1.14329 82.4478 1.23402Q82.4854 1.32474 82.5139 1.41872Q82.5424 1.5127 82.5616 1.60901Q82.5807 1.70533 82.5903 1.80306Q82.6 1.9008 82.6 1.999L82.6 14.001Q82.6 14.0992 82.5903 14.1969Q82.5807 14.2947 82.5616 14.391Q82.5424 14.4873 82.5139 14.5813Q82.4854 14.6753 82.4478 14.766Q82.4102 14.8567 82.3639 14.9433Q82.3176 15.0299 82.2631 15.1116Q82.2085 15.1932 82.1462 15.2692Q82.0839 15.3451 82.0145 15.4145Q81.945 15.4839 81.8691 15.5462Q81.7932 15.6085 81.7115 15.6631Q81.6299 15.7177 81.5433 15.764Q81.4567 15.8103 81.366 15.8478Q81.2752 15.8854 81.1812 15.9139Q81.0873 15.9424 80.991 15.9616Q80.8946 15.9807 80.7969 15.9904Q80.6992 16 80.601 16L80.599 16Q80.5008 16 80.403 15.9904Q80.3053 15.9807 80.209 15.9616Q80.1127 15.9424 80.0187 15.9139Q79.9247 15.8854 79.834 15.8478Q79.7433 15.8103 79.6566 15.764Q79.57 15.7177 79.4884 15.6631Q79.4067 15.6085 79.3308 15.5462Q79.2549 15.4839 79.1855 15.4145Q79.116 15.3451 79.0537 15.2692Q78.9914 15.1932 78.9369 15.1116Q78.8823 15.0299 78.836 14.9433Q78.7897 14.8567 78.7521 14.766Q78.7146 14.6753 78.6861 14.5813Q78.6575 14.4873 78.6384 14.391Q78.6192 14.2947 78.6096 14.1969Q78.6 14.0992 78.6 14.001L78.6 1.999Q78.6 1.9008 78.6096 1.80306Q78.6192 1.70533 78.6384 1.60901Q78.6575 1.5127 78.6861 1.41872Q78.7146 1.32474 78.7521 1.23402Q78.7897 1.14329 78.836 1.05668Q78.8823 0.970069 78.9369 0.888415Q78.9914 0.806761 79.0537 0.730848Q79.116 0.654935 79.1855 0.585494Q79.2549 0.516052 79.3308 0.453752Q79.4067 0.391452 79.4884 0.336892Q79.57 0.282333 79.6566 0.236039Q79.7433 0.189746 79.834 0.152165Q79.9247 0.114584 80.0187 0.0860763Q80.1127 0.057569 80.209 0.0384102Q80.3053 0.0192515 80.403 0.00962573Q80.5008 0 80.599 0Z" id="Rectangle" fill="#D3D3D3" fill-rule="evenodd" stroke="none" />
      <path d="M82.599 144L82.601 144Q82.6992 144 82.7969 144.01Q82.8946 144.019 82.991 144.038Q83.0873 144.058 83.1813 144.086Q83.2752 144.115 83.366 144.152Q83.4567 144.19 83.5433 144.236Q83.6299 144.282 83.7116 144.337Q83.7932 144.391 83.8691 144.454Q83.945 144.516 84.0145 144.585Q84.0839 144.655 84.1462 144.731Q84.2085 144.807 84.2631 144.888Q84.3176 144.97 84.3639 145.057Q84.4102 145.143 84.4478 145.234Q84.4854 145.325 84.5139 145.419Q84.5424 145.513 84.5616 145.609Q84.5807 145.705 84.5903 145.803Q84.6 145.901 84.6 145.999L84.6 155.001Q84.6 155.099 84.5903 155.197Q84.5807 155.295 84.5616 155.391Q84.5424 155.487 84.5139 155.581Q84.4854 155.675 84.4478 155.766Q84.4102 155.857 84.3639 155.943Q84.3176 156.03 84.2631 156.112Q84.2085 156.193 84.1462 156.269Q84.0839 156.345 84.0145 156.415Q83.945 156.484 83.8691 156.546Q83.7932 156.609 83.7116 156.663Q83.6299 156.718 83.5433 156.764Q83.4567 156.81 83.366 156.848Q83.2752 156.885 83.1813 156.914Q83.0873 156.942 82.991 156.962Q82.8946 156.981 82.7969 156.99Q82.6992 157 82.601 157L82.599 157Q82.5008 157 82.403 156.99Q82.3053 156.981 82.209 156.962Q82.1127 156.942 82.0187 156.914Q81.9247 156.885 81.834 156.848Q81.7433 156.81 81.6567 156.764Q81.5701 156.718 81.4884 156.663Q81.4067 156.609 81.3308 156.546Q81.2549 156.484 81.1855 156.415Q81.116 156.345 81.0537 156.269Q80.9914 156.193 80.9369 156.112Q80.8823 156.03 80.836 155.943Q80.7897 155.857 80.7521 155.766Q80.7146 155.675 80.6861 155.581Q80.6575 155.487 80.6384 155.391Q80.6192 155.295 80.6096 155.197Q80.6 155.099 80.6 155.001L80.6 145.999Q80.6 145.901 80.6096 145.803Q80.6192 145.705 80.6384 145.609Q80.6575 145.513 80.6861 145.419Q80.7146 145.325 80.7521 145.234Q80.7897 145.143 80.836 145.057Q80.8823 144.97 80.9369 144.888Q80.9914 144.807 81.0537 144.731Q81.116 144.655 81.1855 144.585Q81.2549 144.516 81.3308 144.454Q81.4067 144.391 81.4884 144.337Q81.5701 144.282 81.6567 144.236Q81.7433 144.19 81.834 144.152Q81.9247 144.115 82.0187 144.086Q82.1127 144.058 82.209 144.038Q82.3053 144.019 82.403 144.01Q82.5008 144 82.599 144Z" id="Rectangle-2" fill="#D3D3D3" fill-rule="evenodd" stroke="none" />
      <path d="M160.6 79.999L160.6 80.001Q160.6 80.0992 160.59 80.1969Q160.581 80.2947 160.562 80.391Q160.542 80.4873 160.514 80.5813Q160.485 80.6752 160.448 80.766Q160.41 80.8567 160.364 80.9433Q160.318 81.0299 160.263 81.1116Q160.209 81.1932 160.146 81.2691Q160.084 81.3451 160.014 81.4145Q159.945 81.4839 159.869 81.5462Q159.793 81.6085 159.712 81.6631Q159.63 81.7177 159.543 81.764Q159.457 81.8102 159.366 81.8478Q159.275 81.8854 159.181 81.9139Q159.087 81.9424 158.991 81.9616Q158.895 81.9807 158.797 81.9904Q158.699 82 158.601 82L147.599 82Q147.501 82 147.403 81.9904Q147.305 81.9808 147.209 81.9616Q147.113 81.9424 147.019 81.9139Q146.925 81.8854 146.834 81.8478Q146.743 81.8103 146.657 81.764Q146.57 81.7177 146.488 81.6631Q146.407 81.6086 146.331 81.5463Q146.255 81.484 146.185 81.4145Q146.116 81.3451 146.054 81.2692Q145.991 81.1932 145.937 81.1116Q145.882 81.0299 145.836 80.9433Q145.79 80.8567 145.752 80.766Q145.715 80.6753 145.686 80.5813Q145.658 80.4873 145.638 80.391Q145.619 80.2947 145.61 80.197Q145.6 80.0992 145.6 80.001L145.6 79.999Q145.6 79.9008 145.61 79.8031Q145.619 79.7054 145.638 79.609Q145.658 79.5127 145.686 79.4187Q145.715 79.3248 145.752 79.234Q145.79 79.1433 145.836 79.0567Q145.882 78.9701 145.937 78.8884Q145.991 78.8068 146.054 78.7309Q146.116 78.6549 146.185 78.5855Q146.255 78.5161 146.331 78.4538Q146.407 78.3915 146.488 78.3369Q146.57 78.2823 146.657 78.2361Q146.743 78.1898 146.834 78.1522Q146.925 78.1146 147.019 78.0861Q147.113 78.0576 147.209 78.0384Q147.305 78.0193 147.403 78.0096Q147.501 78 147.599 78L158.601 78Q158.699 78 158.797 78.0096Q158.895 78.0192 158.991 78.0384Q159.087 78.0576 159.181 78.0861Q159.275 78.1146 159.366 78.1522Q159.457 78.1897 159.543 78.236Q159.63 78.2823 159.712 78.3369Q159.793 78.3915 159.869 78.4538Q159.945 78.5161 160.014 78.5855Q160.084 78.6549 160.146 78.7308Q160.209 78.8068 160.263 78.8884Q160.318 78.9701 160.364 79.0567Q160.41 79.1433 160.448 79.234Q160.485 79.3247 160.514 79.4187Q160.542 79.5127 160.562 79.609Q160.581 79.7053 160.59 79.8031Q160.6 79.9008 160.6 79.999Z" id="Rectangle-3" fill="#D3D3D3" fill-rule="evenodd" stroke="none" />
      <path d="M16 77.999L16 78.001Q16 78.0992 15.9904 78.1969Q15.9808 78.2947 15.9616 78.391Q15.9424 78.4873 15.9139 78.5813Q15.8854 78.6753 15.8478 78.766Q15.8103 78.8567 15.764 78.9433Q15.7177 79.0299 15.6631 79.1116Q15.6086 79.1932 15.5463 79.2691Q15.484 79.3451 15.4145 79.4145Q15.3451 79.4839 15.2692 79.5462Q15.1932 79.6085 15.1116 79.6631Q15.0299 79.7177 14.9433 79.764Q14.8567 79.8102 14.766 79.8478Q14.6753 79.8854 14.5813 79.9139Q14.4873 79.9424 14.391 79.9616Q14.2947 79.9807 14.1969 79.9904Q14.0992 80 14.001 80L1.999 80Q1.9008 80 1.80307 79.9904Q1.70534 79.9808 1.60902 79.9616Q1.5127 79.9424 1.41873 79.9139Q1.32475 79.8854 1.23402 79.8478Q1.14329 79.8103 1.05668 79.764Q0.970074 79.7177 0.888419 79.6631Q0.806765 79.6086 0.730852 79.5463Q0.654939 79.484 0.585498 79.4145Q0.516056 79.3451 0.453756 79.2692Q0.391456 79.1933 0.336896 79.1116Q0.282337 79.0299 0.236043 78.9433Q0.18975 78.8567 0.152168 78.766Q0.114587 78.6753 0.0860796 78.5813Q0.0575723 78.4873 0.0384134 78.391Q0.0192546 78.2947 0.00962878 78.197Q2.95473e-06 78.0992 2.86102e-06 78.001L2.86102e-06 77.999Q2.72047e-06 77.9008 0.00962831 77.8031Q0.0192539 77.7054 0.0384125 77.609Q0.0575711 77.5127 0.0860783 77.4187Q0.114585 77.3248 0.152167 77.234Q0.189748 77.1433 0.236041 77.0567Q0.282334 76.9701 0.336893 76.8884Q0.391453 76.8068 0.453753 76.7309Q0.516053 76.655 0.585494 76.5855Q0.654935 76.5161 0.730848 76.4538Q0.806761 76.3915 0.888415 76.3369Q0.970069 76.2823 1.05668 76.2361Q1.14329 76.1898 1.23402 76.1522Q1.32474 76.1146 1.41872 76.0861Q1.5127 76.0576 1.60901 76.0384Q1.70533 76.0193 1.80306 76.0096Q1.9008 76 1.999 76L14.001 76Q14.0992 76 14.1969 76.0096Q14.2947 76.0193 14.391 76.0384Q14.4873 76.0576 14.5813 76.0861Q14.6753 76.1146 14.766 76.1522Q14.8567 76.1897 14.9433 76.236Q15.0299 76.2823 15.1116 76.3369Q15.1932 76.3914 15.2692 76.4537Q15.3451 76.516 15.4145 76.5855Q15.4839 76.6549 15.5462 76.7308Q15.6085 76.8068 15.6631 76.8884Q15.7177 76.9701 15.764 77.0567Q15.8103 77.1433 15.8478 77.234Q15.8854 77.3247 15.9139 77.4187Q15.9424 77.5127 15.9616 77.609Q15.9807 77.7053 15.9904 77.8031Q16 77.9008 16 77.999Z" id="Rectangle-4" fill="#D3D3D3" fill-rule="evenodd" stroke="none" />
      <path d="M27.4034 126.374L27.4047 126.375Q27.4651 126.453 27.5177 126.536Q27.5703 126.619 27.6145 126.706Q27.6587 126.794 27.6941 126.886Q27.7295 126.977 27.7557 127.072Q27.782 127.166 27.7988 127.263Q27.8157 127.36 27.8229 127.458Q27.8302 127.556 27.8279 127.654Q27.8255 127.752 27.8135 127.85Q27.8016 127.947 27.7801 128.043Q27.7586 128.139 27.7279 128.232Q27.6971 128.325 27.6574 128.415Q27.6176 128.505 27.5693 128.59Q27.5209 128.676 27.4644 128.756Q27.4079 128.837 27.3438 128.911Q27.2797 128.985 27.2086 129.053Q27.1375 129.121 27.0601 129.181L17.6024 136.57Q17.5251 136.631 17.4421 136.684Q17.3592 136.736 17.2715 136.78Q17.1838 136.825 17.0922 136.86Q17.0006 136.895 16.9059 136.922Q16.8113 136.948 16.7146 136.965Q16.6178 136.981 16.5199 136.989Q16.4219 136.996 16.3238 136.994Q16.2256 136.991 16.1281 136.979Q16.0306 136.967 15.9348 136.946Q15.839 136.924 15.7457 136.894Q15.6525 136.863 15.5627 136.823Q15.4729 136.783 15.3874 136.735Q15.3019 136.687 15.2216 136.63Q15.1413 136.574 15.0669 136.51Q14.9925 136.446 14.9247 136.374Q14.857 136.303 14.7965 136.226L14.7953 136.224Q14.7348 136.147 14.6822 136.064Q14.6296 135.981 14.5854 135.893Q14.5412 135.806 14.5058 135.714Q14.4705 135.623 14.4442 135.528Q14.418 135.433 14.4011 135.337Q14.3843 135.24 14.377 135.142Q14.3697 135.044 14.3721 134.946Q14.3744 134.848 14.3864 134.75Q14.3984 134.653 14.4198 134.557Q14.4413 134.461 14.4721 134.368Q14.5028 134.274 14.5426 134.185Q14.5823 134.095 14.6307 134.009Q14.679 133.924 14.7355 133.844Q14.792 133.763 14.8561 133.689Q14.9202 133.614 14.9913 133.547Q15.0624 133.479 15.1398 133.418L24.5975 126.029Q24.6749 125.969 24.7578 125.916Q24.8408 125.864 24.9285 125.819Q25.0162 125.775 25.1078 125.74Q25.1994 125.704 25.294 125.678Q25.3886 125.652 25.4854 125.635Q25.5821 125.618 25.6801 125.611Q25.778 125.604 25.8762 125.606Q25.9743 125.608 26.0718 125.62Q26.1693 125.632 26.2651 125.654Q26.361 125.675 26.4542 125.706Q26.5475 125.737 26.6373 125.777Q26.7271 125.816 26.8126 125.865Q26.898 125.913 26.9784 125.97Q27.0587 126.026 27.1331 126.09Q27.2075 126.154 27.2752 126.225Q27.343 126.296 27.4034 126.374Z" id="Rectangle-7" fill="#D3D3D3" fill-rule="evenodd" stroke="none" />
      <path d="M139.411 138.658L139.41 138.659Q139.342 138.73 139.267 138.794Q139.192 138.857 139.112 138.913Q139.031 138.969 138.945 139.017Q138.859 139.065 138.769 139.104Q138.679 139.143 138.586 139.173Q138.492 139.203 138.396 139.224Q138.3 139.245 138.203 139.256Q138.105 139.268 138.007 139.269Q137.909 139.271 137.811 139.263Q137.713 139.255 137.616 139.238Q137.52 139.22 137.425 139.193Q137.331 139.167 137.239 139.131Q137.148 139.095 137.061 139.05Q136.973 139.005 136.891 138.952Q136.808 138.899 136.731 138.838Q136.654 138.777 136.583 138.709L127.95 130.371Q127.879 130.303 127.816 130.228Q127.752 130.154 127.696 130.073Q127.64 129.992 127.592 129.906Q127.545 129.821 127.505 129.731Q127.466 129.64 127.436 129.547Q127.406 129.454 127.385 129.358Q127.364 129.262 127.353 129.164Q127.342 129.067 127.34 128.968Q127.338 128.87 127.346 128.772Q127.354 128.674 127.371 128.578Q127.389 128.481 127.416 128.387Q127.443 128.292 127.479 128.201Q127.515 128.109 127.559 128.022Q127.604 127.935 127.657 127.852Q127.71 127.769 127.771 127.692Q127.832 127.615 127.901 127.545L127.902 127.543Q127.97 127.473 128.045 127.409Q128.12 127.345 128.201 127.289Q128.281 127.234 128.367 127.186Q128.453 127.138 128.543 127.099Q128.633 127.06 128.726 127.029Q128.82 126.999 128.916 126.978Q129.012 126.958 129.109 126.946Q129.207 126.935 129.305 126.933Q129.403 126.932 129.501 126.939Q129.599 126.947 129.696 126.965Q129.792 126.982 129.887 127.009Q129.981 127.036 130.073 127.072Q130.164 127.108 130.251 127.153Q130.339 127.198 130.421 127.251Q130.504 127.304 130.581 127.365Q130.658 127.426 130.729 127.494L139.362 135.831Q139.433 135.9 139.496 135.974Q139.56 136.049 139.616 136.13Q139.672 136.211 139.72 136.296Q139.768 136.382 139.807 136.472Q139.846 136.562 139.876 136.656Q139.906 136.749 139.927 136.845Q139.948 136.941 139.959 137.039Q139.97 137.136 139.972 137.234Q139.974 137.333 139.966 137.43Q139.958 137.528 139.941 137.625Q139.923 137.722 139.896 137.816Q139.869 137.91 139.833 138.002Q139.797 138.093 139.753 138.181Q139.708 138.268 139.655 138.351Q139.602 138.433 139.541 138.51Q139.48 138.587 139.411 138.658Z" id="Rectangle-8" fill="#D3D3D3" fill-rule="evenodd" stroke="none" />
      <path d="M32.0925 37.3609L32.0914 37.3625Q32.035 37.443 31.9711 37.5175Q31.9071 37.592 31.8362 37.6599Q31.7653 37.7279 31.688 37.7885Q31.6108 37.8491 31.5279 37.9019Q31.4451 37.9546 31.3575 37.999Q31.2699 38.0434 31.1784 38.079Q31.0868 38.1146 30.9923 38.1411Q30.8977 38.1675 30.801 38.1846Q30.7043 38.2016 30.6064 38.2091Q30.5084 38.2166 30.4103 38.2145Q30.3121 38.2123 30.2146 38.2006Q30.1171 38.1888 30.0212 38.1675Q29.9253 38.1463 29.832 38.1157Q29.7387 38.0852 29.6488 38.0456Q29.5589 38.0061 29.4733 37.9579Q29.3877 37.9098 29.3073 37.8534L17.8375 29.8222Q17.7571 29.7659 17.6825 29.702Q17.608 29.638 17.5401 29.5671Q17.4722 29.4961 17.4115 29.4189Q17.3509 29.3416 17.2981 29.2588Q17.2454 29.176 17.201 29.0884Q17.1566 29.0008 17.121 28.9092Q17.0854 28.8177 17.0589 28.7231Q17.0325 28.6286 17.0154 28.5319Q16.9984 28.4351 16.9909 28.3372Q16.9834 28.2393 16.9855 28.1411Q16.9877 28.0429 16.9994 27.9454Q17.0112 27.8479 17.0325 27.7521Q17.0537 27.6562 17.0843 27.5629Q17.1148 27.4695 17.1544 27.3796Q17.1939 27.2898 17.2421 27.2042Q17.2903 27.1186 17.3466 27.0382L17.3477 27.0365Q17.4041 26.9561 17.468 26.8815Q17.5319 26.807 17.6029 26.7391Q17.6738 26.6712 17.7511 26.6105Q17.8283 26.5499 17.9112 26.4972Q17.994 26.4444 18.0816 26.4Q18.1692 26.3556 18.2607 26.32Q18.3522 26.2844 18.4468 26.258Q18.5414 26.2315 18.6381 26.2145Q18.7348 26.1974 18.8327 26.1899Q18.9306 26.1824 19.0288 26.1846Q19.127 26.1867 19.2245 26.1985Q19.322 26.2102 19.4179 26.2315Q19.5138 26.2527 19.6071 26.2833Q19.7004 26.3138 19.7903 26.3534Q19.8802 26.3929 19.9658 26.4411Q20.0514 26.4893 20.1318 26.5456L31.6016 34.5768Q31.682 34.6331 31.7566 34.6971Q31.8311 34.761 31.899 34.832Q31.9669 34.9029 32.0275 34.9802Q32.0882 35.0574 32.1409 35.1402Q32.1937 35.2231 32.2381 35.3107Q32.2825 35.3983 32.3181 35.4898Q32.3537 35.5813 32.3801 35.6759Q32.4066 35.7705 32.4236 35.8672Q32.4407 35.9639 32.4482 36.0618Q32.4557 36.1597 32.4535 36.2579Q32.4514 36.3561 32.4396 36.4536Q32.4279 36.5511 32.4066 36.647Q32.3854 36.7428 32.3548 36.8362Q32.3243 36.9295 32.2847 37.0194Q32.2452 37.1093 32.197 37.1949Q32.1488 37.2804 32.0925 37.3609Z" id="Rectangle-5" fill="#D3D3D3" fill-rule="evenodd" stroke="none" />
      <path d="M129.909 37.7625L129.908 37.7609Q129.851 37.6805 129.803 37.5949Q129.755 37.5093 129.715 37.4194Q129.676 37.3295 129.645 37.2362Q129.615 37.1429 129.593 37.047Q129.572 36.9511 129.56 36.8536Q129.549 36.7561 129.546 36.6579Q129.544 36.5597 129.552 36.4618Q129.559 36.3639 129.576 36.2672Q129.593 36.1705 129.62 36.0759Q129.646 35.9813 129.682 35.8898Q129.717 35.7983 129.762 35.7107Q129.806 35.6231 129.859 35.5403Q129.912 35.4574 129.972 35.3802Q130.033 35.3029 130.101 35.232Q130.169 35.161 130.243 35.0971Q130.318 35.0332 130.398 34.9768L141.868 26.9456Q141.949 26.8893 142.034 26.8411Q142.12 26.793 142.21 26.7534Q142.3 26.7139 142.393 26.6833Q142.486 26.6528 142.582 26.6315Q142.678 26.6102 142.775 26.5985Q142.873 26.5867 142.971 26.5846Q143.069 26.5825 143.167 26.5899Q143.265 26.5974 143.362 26.6145Q143.459 26.6315 143.553 26.658Q143.648 26.6844 143.739 26.72Q143.831 26.7556 143.918 26.8Q144.006 26.8444 144.089 26.8972Q144.172 26.9499 144.249 27.0106Q144.326 27.0712 144.397 27.1391Q144.468 27.207 144.532 27.2816Q144.596 27.3561 144.652 27.4365L144.653 27.4382Q144.71 27.5186 144.758 27.6042Q144.806 27.6898 144.846 27.7797Q144.885 27.8696 144.916 27.9629Q144.946 28.0562 144.968 28.1521Q144.989 28.248 145.001 28.3455Q145.012 28.443 145.014 28.5412Q145.017 28.6393 145.009 28.7373Q145.002 28.8352 144.985 28.9319Q144.968 29.0286 144.941 29.1232Q144.915 29.2177 144.879 29.3093Q144.843 29.4008 144.799 29.4884Q144.755 29.576 144.702 29.6588Q144.649 29.7416 144.589 29.8189Q144.528 29.8962 144.46 29.9671Q144.392 30.038 144.318 30.102Q144.243 30.1659 144.163 30.2222L132.693 38.2534Q132.612 38.3098 132.527 38.3579Q132.441 38.4061 132.351 38.4457Q132.261 38.4852 132.168 38.5158Q132.075 38.5463 131.979 38.5676Q131.883 38.5888 131.785 38.6006Q131.688 38.6123 131.59 38.6145Q131.492 38.6166 131.394 38.6091Q131.296 38.6016 131.199 38.5846Q131.102 38.5675 131.008 38.5411Q130.913 38.5146 130.822 38.479Q130.73 38.4434 130.642 38.3991Q130.555 38.3547 130.472 38.3019Q130.389 38.2491 130.312 38.1885Q130.235 38.1279 130.164 38.06Q130.093 37.9921 130.029 37.9175Q129.965 37.843 129.909 37.7625Z" id="Rectangle-6" fill="#D3D3D3" fill-rule="evenodd" stroke="none" />
    </g>
  </g>
</svg>