<?xml version="1.0" encoding="utf-8"?>
<svg width="133px" height="126px" viewBox="0 0 133 126" version="1.1" xmlns:xlink="http://www.w3.org/1999/xlink" xmlns="http://www.w3.org/2000/svg">
  <g id="channel-mixer">
    <g id="Group-17">
      <path d="M39.3524 24.2705C49.0912 10.8663 67.8523 7.89481 81.2565 17.6335C94.6607 27.3723 97.6322 46.1334 87.8935 59.5376C78.1547 72.9418 59.3936 75.9133 45.9894 66.1746C32.5852 56.4358 29.6137 37.6748 39.3524 24.2705Z" id="Ellipse" fill="#9B9B9B" fill-rule="evenodd" stroke="none" />
      <path d="M17.6336 66.1016C27.3723 52.6973 46.1334 49.7259 59.5376 59.4646C72.9419 69.2033 75.9133 87.9644 66.1746 101.369C56.4359 114.773 37.6748 117.744 24.2705 108.006C10.8663 98.2669 7.89482 79.5058 17.6336 66.1016Z" id="Ellipse-2" fill="#D3D3D3" fill-rule="evenodd" stroke="none" />
      <path d="M66.3524 66.3359C76.0912 52.9317 94.8523 49.9602 108.256 59.699C121.661 69.4377 124.632 88.1988 114.893 101.603C105.155 115.007 86.3936 117.979 72.9894 108.24C59.5852 98.5013 56.6137 79.7402 66.3524 66.3359Z" id="Ellipse-3" fill="#BBBBBB" fill-rule="evenodd" stroke="none" />
      <g id="Group-16" transform="matrix(0.9998477 0.017452393 -0.017452393 0.9998477 36.000748 51.314575)">
        <path d="M28.5018 53.9968L0.000144958 0.000232697L57.003 6.48499e-05L28.5018 53.9968Z" id="Triangle-2" fill="#616161" fill-rule="evenodd" stroke="none" />
        <path d="M17.317 17.7863C17.317 12.4368 22.3727 8.1001 28.6091 8.1001C34.8455 8.1001 39.9012 12.4368 39.9012 17.7863C39.9012 23.1359 34.8455 27.4726 28.6091 27.4726C22.3727 27.4726 17.317 23.1359 17.317 17.7863Z" id="Ellipse-4" fill="#2E2E2E" fill-rule="evenodd" stroke="none" />
      </g>
    </g>
  </g>
</svg>