<?xml version="1.0" encoding="utf-8"?>
<svg width="153px" height="113px" viewBox="0 0 153 113" version="1.1" xmlns:xlink="http://www.w3.org/1999/xlink" xmlns="http://www.w3.org/2000/svg">
  <defs>
    <linearGradient x1="0" y1="0" x2="1" y2="1" id="gradient_1">
      <stop offset="0" stop-color="#FFFFFF" />
      <stop offset="1" stop-color="#989898" stop-opacity="0.05882353" />
    </linearGradient>
  </defs>
  <g id="color-lookup">
    <g id="Group-19">
      <path d="M0 0L58 0L58 46L0 46L0 0Z" id="Rectangle" fill="url(#gradient_1)" fill-rule="evenodd" stroke="none" />
      <g id="Group-18">
        <path d="M0 0L153 0L153 113L0 113L0 0Z" id="Rectangle" fill="none" fill-rule="evenodd" stroke="#808080" stroke-width="5" />
        <path d="M25.8 1.07959L25.8 111.92L56.3 111.92L56.3 1.07959L88.3001 1.07959L88.3001 111.92L124.3 111.92L124.3 1.07959L0.300049 1.07959L0.300049 23.3917L152.3 23.3917L152.3 46.4235L0.300049 46.4235L0.300049 70.8949L152.3 70.8949L152.3 93.9267L0.300049 93.9267" id="New-shape" fill="none" fill-rule="evenodd" stroke="#808080" stroke-width="2" />
      </g>
    </g>
  </g>
</svg>