<?xml version="1.0" encoding="utf-8"?>
<svg width="154px" height="113px" viewBox="0 0 154 113" version="1.1" xmlns:xlink="http://www.w3.org/1999/xlink" xmlns="http://www.w3.org/2000/svg">
  <g id="photo-filter">
    <g id="Group-14">
      <path d="M3.999 14.9L149.001 14.9Q149.197 14.9 149.393 14.9193Q149.589 14.9385 149.781 14.9769Q149.974 15.0152 150.162 15.0722Q150.35 15.1292 150.531 15.2044Q150.713 15.2796 150.886 15.3722Q151.059 15.4648 151.223 15.574Q151.386 15.6831 151.538 15.8078Q151.69 15.9324 151.829 16.0713Q151.968 16.2102 152.092 16.3621Q152.217 16.5139 152.326 16.6773Q152.435 16.8406 152.528 17.0139Q152.62 17.1872 152.696 17.3687Q152.771 17.5502 152.828 17.7382Q152.885 17.9262 152.923 18.1189Q152.961 18.3115 152.981 18.5071Q153 18.7026 153 18.899L153 100.901Q153 101.097 152.981 101.293Q152.961 101.489 152.923 101.681Q152.885 101.874 152.828 102.062Q152.771 102.25 152.696 102.431Q152.62 102.613 152.528 102.786Q152.435 102.959 152.326 103.123Q152.217 103.286 152.092 103.438Q151.968 103.59 151.829 103.729Q151.69 103.868 151.538 103.992Q151.386 104.117 151.223 104.226Q151.059 104.335 150.886 104.428Q150.713 104.52 150.531 104.596Q150.35 104.671 150.162 104.728Q149.974 104.785 149.781 104.823Q149.589 104.862 149.393 104.881Q149.197 104.9 149.001 104.9L3.999 104.9Q3.80254 104.9 3.60703 104.881Q3.41152 104.862 3.21883 104.823Q3.02615 104.785 2.83815 104.728Q2.65015 104.671 2.46865 104.596Q2.28715 104.52 2.11388 104.428Q1.94062 104.335 1.77727 104.226Q1.61393 104.117 1.46206 103.992Q1.3102 103.868 1.17128 103.729Q1.03236 103.59 0.907731 103.438Q0.783099 103.286 0.673953 103.123Q0.564807 102.959 0.472197 102.786Q0.379587 102.613 0.304406 102.431Q0.229224 102.25 0.172196 102.062Q0.115167 101.874 0.0768396 101.681Q0.0385126 101.489 0.0192563 101.293Q0 101.097 0 100.901L0 18.899Q0 18.7026 0.0192563 18.5071Q0.0385126 18.3115 0.0768396 18.1189Q0.115167 17.9262 0.172196 17.7382Q0.229224 17.5502 0.304406 17.3687Q0.379587 17.1872 0.472197 17.0139Q0.564807 16.8406 0.673953 16.6773Q0.783099 16.5139 0.907731 16.3621Q1.03236 16.2102 1.17128 16.0713Q1.3102 15.9324 1.46206 15.8078Q1.61393 15.6831 1.77727 15.574Q1.94062 15.4648 2.11388 15.3722Q2.28715 15.2796 2.46865 15.2044Q2.65015 15.1292 2.83815 15.0722Q3.02615 15.0152 3.21883 14.9769Q3.41152 14.9385 3.60703 14.9193Q3.80254 14.9 3.999 14.9Z" id="Rectangle" fill="#D3D3D3" fill-rule="evenodd" stroke="none" />
      <path d="M44.275 0L101.528 0Q101.806 0 102.08 0.0382349Q102.355 0.0764698 102.621 0.152209Q102.888 0.227947 103.142 0.339741Q103.395 0.451536 103.631 0.597247Q103.867 0.742959 104.08 0.919803Q104.293 1.09665 104.48 1.30124Q104.667 1.50583 104.824 1.73426Q104.981 1.96269 105.105 2.21059L130.5 53L21.7 53L40.5289 2.5995Q40.5819 2.4574 40.6456 2.31973Q40.7093 2.18206 40.7833 2.04961Q40.8572 1.91716 40.941 1.7907Q41.0248 1.66423 41.1179 1.54447Q41.211 1.42471 41.3129 1.31235Q41.4148 1.19999 41.5249 1.09568Q41.6351 0.991361 41.7528 0.895687Q41.8705 0.800014 41.9951 0.713533Q42.1198 0.627052 42.2506 0.550261Q42.3814 0.47347 42.5177 0.40681Q42.6539 0.34015 42.7948 0.284004Q42.9358 0.227859 43.0805 0.18255Q43.2253 0.137241 43.3731 0.10303Q43.5209 0.0688183 43.6708 0.0459009Q43.8208 0.0229835 43.972 0.0114917Q44.1233 0 44.275 0Z" id="Rectangle-2" fill="#D3D3D3" fill-rule="evenodd" stroke="none" />
      <path d="M46.5 56C46.5 41.0883 58.5883 29 73.5 29C88.4117 29 100.5 41.0883 100.5 56C100.5 70.9117 88.4117 83 73.5 83C58.5883 83 46.5 70.9117 46.5 56Z" id="Ellipse" fill="none" fill-rule="evenodd" stroke="#484848" stroke-width="7" />
      <path d="M100.5 86C100.5 71.0883 112.253 59 126.75 59C141.248 59 153 71.0883 153 86C153 100.912 141.248 113 126.75 113C112.253 113 100.5 100.912 100.5 86Z" id="Ellipse-2" fill="#707070" fill-rule="evenodd" stroke="#A7A7A7" stroke-width="3" />
    </g>
  </g>
</svg>