<?xml version="1.0" encoding="utf-8"?>
<svg width="73px" height="44px" viewBox="0 0 73 44" version="1.1" xmlns:xlink="http://www.w3.org/1999/xlink" xmlns="http://www.w3.org/2000/svg">
  <g id="custom-shape-tool">
    <path d="M7.78385 13.037L13.9261 13.037Q14.318 13.037 14.7024 12.961Q15.0868 12.8849 15.4492 12.7356Q15.8115 12.5864 16.138 12.3696Q16.4645 12.1529 16.7427 11.8769L25.0847 3.60025Q25.1651 3.52041 25.25 3.44525Q25.3349 3.37009 25.4239 3.29986Q25.5129 3.22963 25.6057 3.16455Q25.6985 3.09947 25.7949 3.03976Q25.8913 2.98005 25.9909 2.92589Q26.0904 2.87173 26.193 2.82331Q26.2955 2.77488 26.4005 2.73233Q26.5056 2.68979 26.6129 2.65327Q26.7203 2.61675 26.8295 2.58636Q26.9387 2.55598 27.0495 2.53184Q27.1602 2.50769 27.2722 2.48986Q27.3841 2.47202 27.4969 2.46056Q27.6097 2.4491 27.723 2.44405Q27.8362 2.439 27.9496 2.44037Q28.063 2.44174 28.176 2.44953Q28.2891 2.45732 28.4016 2.47151Q28.5141 2.48569 28.6256 2.50623Q28.7371 2.52676 28.8472 2.55358Q28.9574 2.5804 29.0658 2.61341Q29.1743 2.64643 29.2807 2.68554Q29.3871 2.72464 29.4911 2.76972Q29.5952 2.81479 29.6965 2.86568Q29.7978 2.91657 29.896 2.97312Q29.9943 3.02967 30.0892 3.0917Q30.1841 3.15373 30.2753 3.22103Q30.3665 3.28833 30.4538 3.36069Q30.5411 3.43306 30.6241 3.51025Q30.7071 3.58744 30.7856 3.66921Q30.8642 3.75098 30.9379 3.83706Q31.0117 3.92315 31.0805 4.01328Q31.1492 4.10341 31.2128 4.19729Q31.2763 4.29117 31.3345 4.3885L35.0834 10.6652Q35.1609 10.795 35.248 10.9185Q35.3351 11.0421 35.4312 11.1587Q35.5274 11.2754 35.6321 11.3844Q35.7368 11.4935 35.8495 11.5943Q35.9621 11.6951 36.082 11.7871Q36.202 11.8792 36.3285 11.9619Q36.4551 12.0446 36.5875 12.1175Q36.7199 12.1905 36.8574 12.2532Q36.995 12.3159 37.1369 12.3681Q37.2788 12.4202 37.4242 12.4615Q37.5696 12.5028 37.7177 12.533Q37.8659 12.5632 38.0158 12.5821Q38.1658 12.6011 38.3168 12.6086Q38.4678 12.6162 38.6189 12.6123Q38.7701 12.6084 38.9204 12.5932Q39.0708 12.5779 39.2197 12.5513L55.8176 9.58712Q55.9681 9.56024 56.1203 9.54632Q56.2726 9.5324 56.4255 9.53155Q56.5784 9.53069 56.7308 9.5429Q56.8832 9.55511 57.034 9.5803Q57.1848 9.60549 57.3329 9.64347Q57.4809 9.68146 57.6253 9.73196Q57.7696 9.78246 57.909 9.84511Q58.0485 9.90775 58.1821 9.98209Q58.3157 10.0564 58.4425 10.1419Q58.5692 10.2274 58.6882 10.3234Q58.8072 10.4194 58.9175 10.5252Q59.0279 10.631 59.1288 10.7459Q59.2297 10.8607 59.3204 10.9838Q59.4111 11.1069 59.491 11.2372Q59.5709 11.3676 59.6393 11.5043Q59.7078 11.641 59.7643 11.7831Q59.8208 11.9252 59.8649 12.0715Q59.9091 12.2179 59.9406 12.3675Q59.9721 12.5171 59.9907 12.6689Q60.0093 12.8206 60.0148 12.9734Q60.0204 13.1262 60.0128 13.2789Q60.0053 13.4316 59.9848 13.5831Q59.9642 13.7346 59.9308 13.8838Q59.8974 14.033 59.8513 14.1788Q59.8053 14.3246 59.747 14.4659Q59.6886 14.6072 59.6184 14.743Q59.5482 14.8789 59.4667 15.0082Q59.3851 15.1375 59.2928 15.2594Q59.2006 15.3813 59.0982 15.4948Q58.9958 15.6084 58.8841 15.7128Q58.7724 15.8172 58.6522 15.9116Q58.5319 16.0061 58.4041 16.0899L45.6061 24.4823Q45.3988 24.6182 45.2099 24.7787Q45.021 24.9392 44.8534 25.1217Q44.6858 25.3043 44.542 25.5062Q44.3982 25.708 44.2804 25.9261Q44.1626 26.1442 44.0727 26.3751Q43.9827 26.6061 43.922 26.8464Q43.8612 27.0867 43.8306 27.3326Q43.8 27.5786 43.8 27.8264L43.8 36.9727Q43.8 37.1044 43.7914 37.2358Q43.7827 37.3672 43.7654 37.4978Q43.7481 37.6283 43.7223 37.7575Q43.6964 37.8866 43.6621 38.0137Q43.6278 38.1409 43.5853 38.2655Q43.5427 38.3901 43.492 38.5117Q43.4413 38.6332 43.3828 38.7512Q43.3242 38.8691 43.258 38.983Q43.1918 39.0968 43.1182 39.2061Q43.0447 39.3153 42.9641 39.4195Q42.8835 39.5237 42.7963 39.6223Q42.709 39.7209 42.6155 39.8136Q42.5219 39.9063 42.4225 39.9926Q42.323 40.079 42.2181 40.1586Q42.1132 40.2382 42.0033 40.3107Q41.8933 40.3832 41.7789 40.4483Q41.6644 40.5135 41.5459 40.5709Q41.4274 40.6284 41.3054 40.6779Q41.1834 40.7275 41.0584 40.7689Q40.9334 40.8103 40.8059 40.8434Q40.6784 40.8765 40.5491 40.9011Q40.4197 40.9258 40.289 40.9418Q40.1583 40.9579 40.0268 40.9653Q39.8953 40.9728 39.7636 40.9715Q39.6319 40.9703 39.5006 40.9604Q39.3693 40.9505 39.2389 40.932Q39.1085 40.9135 38.9796 40.8864Q38.8507 40.8594 38.7239 40.8239Q38.5971 40.7884 38.4729 40.7447Q38.3487 40.701 38.2276 40.6492Q38.1065 40.5973 37.9891 40.5377Q37.8717 40.478 37.7585 40.4107L30.4613 36.0755Q30.259 35.9553 30.0439 35.8596Q29.8288 35.764 29.604 35.6942Q29.3791 35.6244 29.1477 35.5815Q28.9162 35.5386 28.6814 35.5232Q28.4465 35.5077 28.2114 35.5199Q27.9763 35.5321 27.7443 35.5718Q27.5123 35.6116 27.2865 35.6782Q27.0607 35.7449 26.8443 35.8375L16.9306 40.0836Q16.794 40.1421 16.6534 40.1904Q16.5128 40.2386 16.3691 40.2762Q16.2253 40.3138 16.0792 40.3407Q15.933 40.3676 15.7853 40.3835Q15.6375 40.3995 15.489 40.4044Q15.3405 40.4094 15.192 40.4033Q15.0436 40.3972 14.8959 40.3801Q14.7483 40.363 14.6024 40.3349Q14.4565 40.3069 14.313 40.2682Q14.1695 40.2294 14.0294 40.1801Q13.8892 40.1308 13.753 40.0713Q13.6169 40.0117 13.4856 39.9422Q13.3542 39.8727 13.2284 39.7936Q13.1026 39.7145 12.983 39.6264Q12.8634 39.5382 12.7506 39.4413Q12.6379 39.3445 12.5327 39.2396Q12.4274 39.1347 12.3303 39.0223Q12.2331 38.9098 12.1446 38.7905Q12.056 38.6711 11.9766 38.5456Q11.8971 38.42 11.8272 38.2888Q11.7573 38.1577 11.6973 38.0218Q11.6374 37.8858 11.5876 37.7458Q11.5379 37.6057 11.4987 37.4624Q11.4595 37.3191 11.4311 37.1732Q11.4026 37.0274 11.3851 36.8798Q11.3675 36.7323 11.361 36.5838Q11.3544 36.4353 11.3589 36.2868Q11.3634 36.1383 11.3789 35.9905Q11.3944 35.8427 11.4208 35.6965Q11.4473 35.5502 11.4845 35.4064Q11.5217 35.2625 11.5695 35.1218Q11.6173 34.9811 11.6753 34.8443L14.3959 28.4389Q14.459 28.2903 14.5099 28.1371Q14.5609 27.9839 14.5993 27.8271Q14.6377 27.6703 14.6633 27.511Q14.689 27.3516 14.7017 27.1907Q14.7144 27.0297 14.7141 26.8683Q14.7138 26.7069 14.7005 26.546Q14.6872 26.3851 14.661 26.2258Q14.6348 26.0666 14.5958 25.9099Q14.5568 25.7533 14.5054 25.6003Q14.4539 25.4473 14.3902 25.2989Q14.3266 25.1506 14.2512 25.0078Q14.1758 24.8651 14.0891 24.7289Q14.0025 24.5927 13.9051 24.4639Q13.8078 24.3351 13.7004 24.2146Q13.593 24.0941 13.4762 23.9827Q13.3594 23.8712 13.234 23.7695L6.04566 17.9399Q5.96322 17.8731 5.88617 17.8001Q5.80912 17.7271 5.7379 17.6484Q5.66668 17.5697 5.60171 17.4858Q5.53674 17.4019 5.47842 17.3132Q5.42009 17.2246 5.36874 17.1317Q5.31739 17.0388 5.27333 16.9422Q5.22927 16.8457 5.19276 16.746Q5.15624 16.6464 5.12749 16.5442Q5.09874 16.4421 5.07791 16.338Q5.05709 16.2339 5.04433 16.1286Q5.03156 16.0232 5.02692 15.9172Q5.02229 15.8111 5.02581 15.7051Q5.02933 15.599 5.04098 15.4935Q5.05264 15.388 5.07236 15.2837Q5.09209 15.1795 5.11976 15.077Q5.14744 14.9745 5.1829 14.8745Q5.21837 14.7745 5.26141 14.6775Q5.30445 14.5804 5.35482 14.487Q5.40518 14.3936 5.46257 14.3043Q5.51997 14.2151 5.58404 14.1305Q5.64812 14.0459 5.71851 13.9664Q5.7889 13.887 5.86518 13.8132Q5.94146 13.7394 6.02318 13.6717Q6.10491 13.604 6.19159 13.5427Q6.27827 13.4815 6.3694 13.4271Q6.46053 13.3727 6.55557 13.3255Q6.65061 13.2782 6.74899 13.2384Q6.84738 13.1986 6.94853 13.1665Q7.04968 13.1344 7.153 13.1101Q7.25633 13.0859 7.3612 13.0696Q7.46608 13.0533 7.5719 13.0452Q7.67772 13.037 7.78385 13.037Z" id="New-shape-2" fill="#595959" fill-rule="evenodd" stroke="#A4A4A4" stroke-width="1" />
  </g>
</svg>