<?xml version="1.0" encoding="utf-8"?>
<svg width="55px" height="38px" viewBox="0 0 55 38" version="1.1" xmlns:xlink="http://www.w3.org/1999/xlink" xmlns="http://www.w3.org/2000/svg">
  <g id="rounded-rectangle-shape-tool">
    <path d="M8.999 0L45.301 0Q45.522 0 45.7426 0.0108397Q45.9632 0.0216794 46.1831 0.0433326Q46.403 0.0649859 46.6215 0.0974006Q46.84 0.129815 47.0567 0.172913Q47.2733 0.216011 47.4876 0.269689Q47.7019 0.323366 47.9133 0.387494Q48.1247 0.451622 48.3327 0.526045Q48.5407 0.600468 48.7448 0.685008Q48.9489 0.769548 49.1486 0.864Q49.3483 0.958453 49.5431 1.06259Q49.738 1.16673 49.9274 1.2803Q50.1169 1.39387 50.3006 1.5166Q50.4843 1.63934 50.6617 1.77094Q50.8392 1.90253 51.0099 2.04268Q51.1807 2.18282 51.3444 2.33118Q51.5081 2.47954 51.6643 2.63575Q51.8205 2.79195 51.9689 2.95564Q52.1172 3.11933 52.2574 3.29009Q52.3975 3.46086 52.5291 3.6383Q52.6607 3.81574 52.7834 3.99942Q52.9062 4.1831 53.0197 4.37259Q53.1333 4.56207 53.2375 4.7569Q53.3416 4.95173 53.436 5.15143Q53.5305 5.35113 53.615 5.55523Q53.6996 5.75933 53.774 5.96733Q53.8484 6.17533 53.9126 6.38673Q53.9767 6.59813 54.0304 6.81242Q54.084 7.02671 54.1271 7.24338Q54.1702 7.46005 54.2026 7.67857Q54.2351 7.89709 54.2567 8.11694Q54.2784 8.33679 54.2892 8.55744Q54.3 8.77809 54.3 8.999L54.3 29.001Q54.3 29.2219 54.2892 29.4426Q54.2784 29.6632 54.2567 29.8831Q54.2351 30.1029 54.2026 30.3214Q54.1702 30.5399 54.1271 30.7566Q54.084 30.9733 54.0304 31.1876Q53.9767 31.4019 53.9126 31.6133Q53.8484 31.8247 53.774 32.0327Q53.6996 32.2407 53.615 32.4448Q53.5305 32.6489 53.436 32.8486Q53.3416 33.0483 53.2375 33.2431Q53.1333 33.4379 53.0197 33.6274Q52.9062 33.8169 52.7834 34.0006Q52.6607 34.1843 52.5291 34.3617Q52.3975 34.5391 52.2574 34.7099Q52.1172 34.8807 51.9689 35.0444Q51.8205 35.208 51.6643 35.3643Q51.5081 35.5205 51.3444 35.6688Q51.1807 35.8172 51.01 35.9573Q50.8392 36.0975 50.6617 36.2291Q50.4843 36.3607 50.3006 36.4834Q50.1169 36.6061 49.9275 36.7197Q49.738 36.8333 49.5431 36.9374Q49.3483 37.0415 49.1486 37.136Q48.9489 37.2304 48.7448 37.315Q48.5407 37.3995 48.3327 37.474Q48.1247 37.5484 47.9133 37.6125Q47.7019 37.6766 47.4876 37.7303Q47.2733 37.784 47.0567 37.8271Q46.84 37.8702 46.6215 37.9026Q46.403 37.935 46.1831 37.9567Q45.9632 37.9783 45.7426 37.9892Q45.522 38 45.301 38L8.999 38Q8.77809 38 8.55744 37.9892Q8.33679 37.9783 8.11694 37.9567Q7.89709 37.935 7.67857 37.9026Q7.46005 37.8702 7.24338 37.8271Q7.02671 37.784 6.81242 37.7303Q6.59813 37.6766 6.38673 37.6125Q6.17533 37.5484 5.96733 37.474Q5.75933 37.3995 5.55523 37.315Q5.35113 37.2304 5.15143 37.136Q4.95173 37.0415 4.7569 36.9374Q4.56207 36.8333 4.37259 36.7197Q4.1831 36.6061 3.99942 36.4834Q3.81574 36.3607 3.6383 36.2291Q3.46086 36.0975 3.29009 35.9573Q3.11933 35.8172 2.95564 35.6688Q2.79195 35.5205 2.63575 35.3643Q2.47954 35.208 2.33118 35.0444Q2.18282 34.8807 2.04268 34.7099Q1.90253 34.5391 1.77094 34.3617Q1.63934 34.1843 1.5166 34.0006Q1.39387 33.8169 1.2803 33.6274Q1.16673 33.4379 1.06259 33.2431Q0.958453 33.0483 0.864 32.8486Q0.769548 32.6489 0.685008 32.4448Q0.600468 32.2407 0.526045 32.0327Q0.451622 31.8247 0.387494 31.6133Q0.323366 31.4019 0.269689 31.1876Q0.216011 30.9733 0.172913 30.7566Q0.129815 30.5399 0.0974006 30.3214Q0.0649859 30.1029 0.0433326 29.8831Q0.0216794 29.6632 0.0108397 29.4426Q0 29.2219 0 29.001L0 8.999Q0 8.77809 0.0108397 8.55744Q0.0216794 8.33679 0.0433326 8.11694Q0.0649859 7.89709 0.0974006 7.67857Q0.129815 7.46005 0.172913 7.24338Q0.216011 7.02671 0.269689 6.81242Q0.323366 6.59813 0.387494 6.38673Q0.451622 6.17533 0.526045 5.96733Q0.600468 5.75933 0.685008 5.55523Q0.769548 5.35113 0.864 5.15143Q0.958453 4.95173 1.06259 4.7569Q1.16673 4.56207 1.2803 4.37259Q1.39387 4.1831 1.5166 3.99942Q1.63934 3.81574 1.77094 3.6383Q1.90253 3.46086 2.04268 3.29009Q2.18282 3.11933 2.33118 2.95564Q2.47954 2.79195 2.63575 2.63575Q2.79195 2.47954 2.95564 2.33118Q3.11933 2.18282 3.29009 2.04268Q3.46086 1.90253 3.6383 1.77094Q3.81574 1.63934 3.99942 1.5166Q4.1831 1.39387 4.37259 1.2803Q4.56207 1.16673 4.7569 1.06259Q4.95173 0.958453 5.15143 0.864Q5.35113 0.769548 5.55523 0.685008Q5.75933 0.600468 5.96733 0.526045Q6.17533 0.451622 6.38673 0.387494Q6.59813 0.323366 6.81242 0.269689Q7.02671 0.216011 7.24338 0.172913Q7.46005 0.129815 7.67857 0.0974006Q7.89709 0.0649859 8.11694 0.0433326Q8.33679 0.0216794 8.55744 0.0108397Q8.77809 0 8.999 0Z" id="Rectangle-3" fill="#848484" fill-opacity="0.47058824" fill-rule="evenodd" stroke="#D3D3D3" stroke-width="1" />
  </g>
</svg>