<?xml version="1.0" encoding="utf-8"?>
<svg width="176px" height="176px" viewBox="0 0 176 176" version="1.1" xmlns:xlink="http://www.w3.org/1999/xlink" xmlns="http://www.w3.org/2000/svg">
  <g id="arrow-right">
    <path d="M167.846 91.0768L5.78763 172.106Q5.67389 172.163 5.55677 172.213Q5.43965 172.262 5.31961 172.304Q5.19958 172.346 5.07712 172.381Q4.95467 172.415 4.83028 172.441Q4.70589 172.468 4.58007 172.486Q4.45426 172.505 4.32752 172.515Q4.20079 172.526 4.07365 172.528Q3.94651 172.53 3.81947 172.525Q3.69243 172.519 3.56602 172.505Q3.4396 172.491 3.31432 172.47Q3.18903 172.448 3.06538 172.418Q2.94174 172.388 2.82022 172.351Q2.69871 172.313 2.57983 172.268Q2.46094 172.223 2.34516 172.171Q2.22939 172.118 2.11719 172.058Q2.00499 171.998 1.89681 171.931Q1.78864 171.865 1.68493 171.791Q1.58123 171.717 1.48241 171.637Q1.38358 171.557 1.29005 171.471Q1.19651 171.385 1.10864 171.293Q1.02076 171.201 0.938904 171.104Q0.857046 171.007 0.781537 170.904Q0.706028 170.802 0.637172 170.695Q0.568315 170.588 0.506391 170.477Q0.444466 170.366 0.389723 170.251Q0.33498 170.136 0.28764 170.018Q0.2403 169.9 0.200553 169.78Q0.160807 169.659 0.128816 169.536Q0.0968245 169.413 0.0727171 169.288Q0.0486097 169.163 0.0324837 169.037Q0.0163576 168.911 0.00827815 168.784Q0.000198664 168.657 0.000198364 168.53L1.52588e-05 6.47073Q1.49589e-05 6.34357 0.00809383 6.21666Q0.0161727 6.08975 0.0322981 5.96361Q0.0484235 5.83748 0.0725303 5.71262Q0.096637 5.58776 0.128628 5.46469Q0.160618 5.34162 0.200364 5.22082Q0.240109 5.10003 0.287449 4.98201Q0.334789 4.86398 0.389531 4.7492Q0.444273 4.63443 0.506197 4.52336Q0.568121 4.41229 0.636977 4.30538Q0.705832 4.19847 0.781341 4.09615Q0.856849 3.99384 0.938706 3.89652Q1.02056 3.79921 1.10844 3.70729Q1.19631 3.61537 1.28985 3.52922Q1.38338 3.44308 1.4822 3.36304Q1.58103 3.28301 1.68473 3.20942Q1.78844 3.13583 1.89661 3.06897Q2.00478 3.00212 2.11698 2.94227Q2.22918 2.88243 2.34496 2.82983Q2.46074 2.77723 2.57962 2.7321Q2.6985 2.68696 2.82002 2.64947Q2.94153 2.61198 3.06518 2.58229Q3.18882 2.55259 3.31411 2.53081Q3.43939 2.50903 3.56581 2.49526Q3.69222 2.48148 3.81926 2.47577Q3.94629 2.47005 4.07344 2.47242Q4.20058 2.47478 4.32731 2.48522Q4.45405 2.49566 4.57986 2.51413Q4.70568 2.5326 4.83006 2.55903Q4.95445 2.58546 5.07691 2.61973Q5.19937 2.65401 5.3194 2.696Q5.43943 2.73798 5.55655 2.78751Q5.67368 2.83704 5.78741 2.89391L167.846 83.9232Q167.97 83.9851 168.09 84.0554Q168.209 84.1257 168.323 84.2041Q168.437 84.2825 168.545 84.3686Q168.654 84.4547 168.756 84.548Q168.858 84.6414 168.953 84.7416Q169.049 84.8419 169.137 84.9484Q169.226 85.055 169.306 85.1674Q169.387 85.2799 169.46 85.3976Q169.533 85.5154 169.597 85.6378Q169.661 85.7603 169.717 85.887Q169.773 86.0136 169.82 86.1439Q169.867 86.2741 169.905 86.4072Q169.943 86.5404 169.971 86.6758Q170 86.8112 170.019 86.9483Q170.038 87.0854 170.048 87.2235Q170.057 87.3616 170.057 87.5Q170.057 87.6384 170.048 87.7765Q170.038 87.9146 170.019 88.0517Q170 88.1888 169.971 88.3242Q169.943 88.4596 169.905 88.5928Q169.867 88.7259 169.82 88.8561Q169.773 88.9864 169.717 89.113Q169.662 89.2397 169.597 89.3622Q169.533 89.4847 169.46 89.6024Q169.387 89.7201 169.306 89.8326Q169.226 89.945 169.137 90.0516Q169.049 90.1582 168.954 90.2584Q168.858 90.3586 168.756 90.452Q168.654 90.5453 168.545 90.6314Q168.437 90.7175 168.323 90.7959Q168.209 90.8743 168.09 90.9446Q167.97 91.0149 167.846 91.0768Z" id="Triangle" fill="#191919" fill-rule="evenodd" stroke="none" />
  </g>
</svg>