<?xml version="1.0" encoding="utf-8"?>
<svg width="426px" height="264px" viewBox="0 0 426 264" version="1.1" xmlns:xlink="http://www.w3.org/1999/xlink" xmlns="http://www.w3.org/2000/svg">
  <g id="ArrowDown">
    <path d="M12.0012 61.8077L199.079 251.117Q199.391 251.433 199.718 251.732Q200.045 252.032 200.386 252.315Q200.727 252.599 201.082 252.865Q201.437 253.131 201.805 253.379Q202.172 253.628 202.552 253.858Q202.931 254.088 203.321 254.299Q203.712 254.51 204.112 254.701Q204.512 254.893 204.921 255.064Q205.33 255.236 205.747 255.387Q206.164 255.538 206.588 255.669Q207.012 255.799 207.442 255.908Q207.872 256.018 208.307 256.106Q208.742 256.194 209.18 256.261Q209.619 256.327 210.06 256.372Q210.501 256.417 210.944 256.44Q211.388 256.463 211.831 256.464Q212.275 256.466 212.718 256.445Q213.161 256.424 213.603 256.382Q214.044 256.34 214.483 256.275Q214.922 256.211 215.357 256.126Q215.793 256.04 216.223 255.933Q216.654 255.826 217.078 255.698Q217.503 255.57 217.921 255.421Q218.339 255.272 218.749 255.103Q219.159 254.934 219.56 254.744Q219.961 254.555 220.353 254.346Q220.744 254.137 221.125 253.91Q221.506 253.682 221.874 253.436Q222.243 253.189 222.6 252.925Q222.956 252.661 223.299 252.379Q223.642 252.098 223.971 251.8Q224.299 251.502 224.613 251.188L413.863 61.8082Q414.166 61.5051 414.455 61.1879Q414.743 60.8706 415.016 60.54Q415.288 60.2094 415.545 59.8663Q415.802 59.5231 416.042 59.168Q416.282 58.813 416.505 58.447Q416.728 58.0809 416.933 57.7047Q417.138 57.3284 417.325 56.9429Q417.512 56.5573 417.681 56.1632Q417.849 55.7692 417.999 55.3675Q418.148 54.9659 418.279 54.5576Q418.409 54.1493 418.52 53.7353Q418.631 53.3213 418.721 52.9024Q418.812 52.4836 418.883 52.0609Q418.954 51.6382 419.005 51.2127Q419.055 50.7871 419.086 50.3596Q419.116 49.9321 419.126 49.5036Q419.136 49.0752 419.125 48.6467Q419.115 48.2182 419.084 47.7908Q419.053 47.3633 419.002 46.9378Q418.951 46.5123 418.88 46.0897Q418.808 45.6671 418.717 45.2483Q418.626 44.8296 418.515 44.4157Q418.403 44.0018 418.273 43.5937Q418.142 43.1855 417.992 42.7841Q417.842 42.3826 417.673 41.9887Q417.504 41.5949 417.316 41.2095Q417.129 40.8241 416.923 40.4481Q416.717 40.0721 416.494 39.7063Q416.271 39.3405 416.03 38.9858Q415.79 38.631 415.533 38.2881Q415.276 37.9452 415.002 37.615Q414.729 37.2847 414.441 36.9678L393.318 13.7684Q393.014 13.4346 392.694 13.1165Q392.374 12.7984 392.038 12.4967Q391.702 12.195 391.352 11.9106Q391.001 11.6261 390.637 11.3596Q390.272 11.0931 389.895 10.8451Q389.518 10.5972 389.129 10.3685Q388.74 10.1398 388.34 9.93084Q387.939 9.72192 387.529 9.53332Q387.119 9.34472 386.7 9.17691Q386.281 9.00911 385.854 8.86252Q385.427 8.71593 384.993 8.59093Q384.56 8.46592 384.12 8.36282Q383.681 8.25972 383.237 8.17877Q382.793 8.09783 382.345 8.03924Q381.897 7.98066 381.448 7.94459Q380.998 7.90851 380.546 7.89504Q380.095 7.88157 379.644 7.89073Q379.193 7.89989 378.742 7.93166Q378.292 7.96344 377.844 8.01774Q377.396 8.07204 376.951 8.14874Q376.506 8.22544 376.066 8.32434Q375.625 8.42324 375.19 8.54409Q374.755 8.66495 374.327 8.80745Q373.899 8.94995 373.478 9.11375Q373.057 9.27754 372.646 9.46221Q372.234 9.64688 371.832 9.85197Q371.429 10.0571 371.038 10.282Q370.647 10.507 370.267 10.7514Q369.888 10.9957 369.521 11.2587Q369.154 11.5218 368.801 11.8029Q368.448 12.084 368.109 12.3824Q367.77 12.6808 367.447 12.9959L224.462 152.344Q224.149 152.648 223.822 152.937Q223.495 153.227 223.154 153.5Q222.813 153.773 222.46 154.029Q222.106 154.285 221.741 154.524Q221.375 154.762 220.998 154.983Q220.622 155.204 220.235 155.406Q219.848 155.608 219.452 155.791Q219.055 155.975 218.651 156.138Q218.246 156.302 217.834 156.446Q217.421 156.59 217.003 156.714Q216.584 156.838 216.16 156.941Q215.736 157.044 215.307 157.127Q214.878 157.21 214.446 157.271Q214.014 157.333 213.579 157.374Q213.145 157.415 212.708 157.434Q212.272 157.454 211.836 157.452Q211.399 157.451 210.963 157.428Q210.527 157.405 210.093 157.362Q209.658 157.318 209.227 157.253Q208.795 157.188 208.367 157.102Q207.939 157.017 207.515 156.91Q207.092 156.804 206.674 156.677Q206.256 156.55 205.845 156.404Q205.434 156.257 205.03 156.09Q204.627 155.923 204.232 155.737Q203.837 155.551 203.451 155.347Q203.066 155.142 202.691 154.918Q202.315 154.695 201.952 154.454Q201.588 154.212 201.236 153.954Q200.884 153.695 200.546 153.42Q200.207 153.144 199.882 152.853Q199.557 152.561 199.246 152.254L58.5548 13.1834Q58.2324 12.8646 57.8943 12.5625Q57.5562 12.2604 57.2034 11.9757Q56.8505 11.691 56.4837 11.4245Q56.117 11.1579 55.7372 10.9101Q55.3575 10.6624 54.9658 10.4341Q54.5741 10.2057 54.1714 9.9974Q53.7687 9.78909 53.356 9.60131Q52.9434 9.41353 52.5217 9.24677Q52.1001 9.08001 51.6707 8.93468Q51.2412 8.78936 50.8049 8.66584Q50.3687 8.54233 49.9268 8.44093Q49.4849 8.33954 49.0384 8.26052Q48.5919 8.1815 48.1421 8.12507Q47.6922 8.06863 47.2401 8.03491Q46.7879 8.00119 46.3347 7.99028Q45.8814 7.97938 45.4281 7.9913Q44.9749 8.00323 44.5228 8.03796Q44.0708 8.07269 43.621 8.13013Q43.1713 8.18758 42.725 8.2676Q42.2787 8.34762 41.8371 8.45Q41.3954 8.55239 40.9594 8.67688Q40.5234 8.80138 40.0943 8.94766Q39.6651 9.09395 39.2439 9.26165Q38.8227 9.42936 38.4104 9.61806Q37.9981 9.80677 37.5959 10.016Q37.1937 10.2252 36.8025 10.4544Q36.4113 10.6836 36.0321 10.9322Q35.653 11.1808 35.2868 11.4482Q34.9206 11.7156 34.5684 12.0011Q34.2162 12.2866 33.8788 12.5894Q33.5414 12.8923 33.2196 13.2118Q32.8979 13.5312 32.5926 13.8665L11.4947 37.0386Q11.2072 37.3543 10.9351 37.6833Q10.6629 38.0124 10.4066 38.3539Q10.1503 38.6955 9.91054 39.0488Q9.67075 39.4021 9.44799 39.7664Q9.22523 40.1307 9.01999 40.5052Q8.81476 40.8796 8.62751 41.2634Q8.44026 41.6471 8.27142 42.0394Q8.10258 42.4316 7.95253 42.8313Q7.80248 43.2311 7.67155 43.6376Q7.54063 44.044 7.42912 44.4562Q7.31762 44.8684 7.22579 45.2854Q7.13396 45.7024 7.06201 46.1233Q6.99006 46.5442 6.93815 46.9681Q6.88623 47.3919 6.85448 47.8177Q6.82273 48.2435 6.8112 48.6704Q6.79968 49.0972 6.8084 49.5242Q6.81713 49.9511 6.8461 50.3771Q6.87506 50.8031 6.9242 51.2273Q6.97333 51.6515 7.04253 52.0728Q7.11172 52.4942 7.20082 52.9118Q7.28992 53.3294 7.39872 53.7423Q7.50752 54.1553 7.63578 54.5625Q7.76404 54.9698 7.91147 55.3706Q8.0589 55.7713 8.22517 56.1646Q8.39143 56.5579 8.57617 56.9429Q8.7609 57.3279 8.96368 57.7037Q9.16646 58.0795 9.38683 58.4452Q9.6072 58.811 9.84467 59.1659Q10.0821 59.5207 10.3362 59.864Q10.5902 60.2072 10.8602 60.538Q11.1302 60.8688 11.4156 61.1864Q11.7011 61.504 12.0012 61.8077L12.0012 61.8077Z" id="New-shape" fill="#8B8B8B" fill-rule="evenodd" stroke="none" />
  </g>
</svg>