<?xml version="1.0" encoding="utf-8"?>
<svg width="240px" height="165px" viewBox="0 0 340 165" version="1.1" xmlns:xlink="http://www.w3.org/1999/xlink" xmlns="http://www.w3.org/2000/svg">
  <g id="default-template-icon">
    <g id="Group-4">
      <path d="M55.4991 50.8L186.259 50.8L239.5 94.122L239.5 158.801Q239.5 158.948 239.493 159.095Q239.486 159.242 239.471 159.389Q239.457 159.536 239.435 159.681Q239.413 159.827 239.385 159.971Q239.356 160.116 239.32 160.259Q239.284 160.401 239.242 160.542Q239.199 160.683 239.149 160.822Q239.1 160.961 239.043 161.097Q238.987 161.233 238.924 161.366Q238.861 161.499 238.792 161.629Q238.722 161.759 238.647 161.885Q238.571 162.011 238.489 162.134Q238.407 162.256 238.319 162.375Q238.232 162.493 238.138 162.607Q238.045 162.721 237.946 162.83Q237.847 162.939 237.743 163.043Q237.639 163.147 237.53 163.246Q237.421 163.345 237.307 163.438Q237.193 163.532 237.075 163.619Q236.956 163.707 236.834 163.789Q236.711 163.871 236.585 163.946Q236.459 164.022 236.329 164.092Q236.199 164.161 236.066 164.224Q235.933 164.287 235.797 164.343Q235.661 164.4 235.522 164.449Q235.383 164.499 235.242 164.542Q235.102 164.584 234.959 164.62Q234.816 164.656 234.671 164.685Q234.527 164.713 234.381 164.735Q234.236 164.757 234.089 164.771Q233.943 164.786 233.795 164.793Q233.648 164.8 233.501 164.8L55.4991 164.8Q55.3518 164.8 55.2047 164.793Q55.0576 164.786 54.9111 164.771Q54.7645 164.757 54.6188 164.735Q54.4731 164.713 54.3287 164.685Q54.1843 164.656 54.0414 164.62Q53.8986 164.584 53.7576 164.542Q53.6167 164.499 53.4781 164.449Q53.3394 164.4 53.2033 164.343Q53.0673 164.287 52.9342 164.224Q52.801 164.161 52.6711 164.092Q52.5413 164.022 52.4149 163.946Q52.2886 163.871 52.1662 163.789Q52.0437 163.707 51.9255 163.619Q51.8072 163.532 51.6933 163.438Q51.5795 163.345 51.4704 163.246Q51.3613 163.147 51.2571 163.043Q51.153 162.939 51.0541 162.83Q50.9552 162.721 50.8618 162.607Q50.7683 162.493 50.6806 162.375Q50.5929 162.256 50.5111 162.134Q50.4292 162.011 50.3535 161.885Q50.2778 161.759 50.2084 161.629Q50.139 161.499 50.076 161.366Q50.0131 161.233 49.9567 161.097Q49.9003 160.961 49.8507 160.822Q49.8011 160.683 49.7584 160.542Q49.7156 160.401 49.6798 160.259Q49.6441 160.116 49.6153 159.971Q49.5866 159.827 49.565 159.681Q49.5434 159.536 49.5289 159.389Q49.5145 159.242 49.5073 159.095Q49.5001 158.948 49.5001 158.801L49.5001 56.799Q49.5001 56.6517 49.5073 56.5046Q49.5145 56.3575 49.5289 56.211Q49.5434 56.0644 49.565 55.9187Q49.5866 55.7731 49.6153 55.6286Q49.6441 55.4842 49.6798 55.3413Q49.7156 55.1985 49.7584 55.0576Q49.8011 54.9166 49.8507 54.778Q49.9003 54.6393 49.9567 54.5033Q50.0131 54.3672 50.076 54.2341Q50.139 54.101 50.2084 53.9711Q50.2778 53.8412 50.3535 53.7149Q50.4292 53.5886 50.5111 53.4661Q50.5929 53.3437 50.6806 53.2254Q50.7683 53.1071 50.8618 52.9933Q50.9552 52.8794 51.0541 52.7703Q51.153 52.6612 51.2571 52.5571Q51.3613 52.4529 51.4704 52.354Q51.5795 52.2551 51.6933 52.1617Q51.8072 52.0683 51.9255 51.9805Q52.0437 51.8928 52.1662 51.811Q52.2886 51.7292 52.4149 51.6535Q52.5413 51.5778 52.6711 51.5083Q52.801 51.4389 52.9341 51.3759Q53.0673 51.313 53.2033 51.2566Q53.3394 51.2003 53.478 51.1507Q53.6167 51.1011 53.7576 51.0583Q53.8986 51.0156 54.0414 50.9798Q54.1843 50.944 54.3287 50.9153Q54.4731 50.8865 54.6188 50.8649Q54.7645 50.8433 54.9111 50.8289Q55.0576 50.8144 55.2047 50.8072Q55.3518 50.8 55.4991 50.8Z" id="Rectangle" fill="none" fill-rule="evenodd" stroke="#808080" stroke-width="7" />
      <path d="M187.5 54.1218L187.5 91.501Q187.5 91.5994 187.519 91.6959Q187.538 91.7924 187.576 91.8833Q187.614 91.9742 187.668 92.056Q187.723 92.1378 187.793 92.2074Q187.862 92.277 187.944 92.3316Q188.026 92.3863 188.117 92.424Q188.208 92.4616 188.304 92.4808Q188.401 92.5 188.499 92.5L233.723 92.5Q233.762 92.5 233.8 92.4971Q233.838 92.4941 233.876 92.4883Q233.914 92.4825 233.951 92.4737Q233.988 92.465 234.025 92.4535Q234.061 92.4419 234.097 92.4276Q234.132 92.4133 234.166 92.3964Q234.201 92.3794 234.234 92.3598Q234.267 92.3403 234.298 92.3183Q234.329 92.2962 234.359 92.2719Q234.388 92.2476 234.416 92.221Q234.443 92.1945 234.469 92.1659Q234.494 92.1374 234.518 92.107Q234.541 92.0765 234.562 92.0444Q234.582 92.0123 234.601 91.9787Q234.619 91.945 234.635 91.9101Q234.65 91.8752 234.663 91.8392Q234.676 91.8032 234.686 91.7663Q234.697 91.7294 234.704 91.6918Q234.711 91.6542 234.716 91.6162Q234.72 91.5782 234.722 91.5399Q234.723 91.5017 234.722 91.4634Q234.72 91.4252 234.716 91.3872Q234.711 91.3492 234.704 91.3116Q234.697 91.274 234.687 91.2371Q234.677 91.2002 234.664 91.1641Q234.651 91.1281 234.635 91.0931Q234.62 91.0582 234.601 91.0246Q234.583 90.9909 234.562 90.9588Q234.542 90.9266 234.518 90.8962Q234.495 90.8657 234.47 90.8371Q234.444 90.8085 234.417 90.7819Q234.389 90.7554 234.36 90.731L189.136 53.3517Q189.108 53.3293 189.08 53.3087Q189.051 53.2882 189.021 53.2698Q188.991 53.2513 188.959 53.2351Q188.928 53.2188 188.895 53.2048Q188.863 53.1908 188.83 53.1791Q188.796 53.1674 188.762 53.1581Q188.728 53.1488 188.694 53.1419Q188.659 53.135 188.624 53.1306Q188.589 53.1262 188.554 53.1243Q188.518 53.1223 188.483 53.1229Q188.448 53.1235 188.413 53.1265Q188.377 53.1296 188.343 53.1351Q188.308 53.1407 188.273 53.1486Q188.239 53.1566 188.205 53.167Q188.171 53.1774 188.138 53.1901Q188.105 53.2029 188.074 53.2179Q188.042 53.233 188.011 53.2502Q187.98 53.2675 187.95 53.2869Q187.921 53.3063 187.893 53.3277Q187.865 53.3492 187.838 53.3725Q187.812 53.3959 187.787 53.4211Q187.762 53.4462 187.739 53.4731Q187.716 53.4999 187.695 53.5283Q187.674 53.5568 187.656 53.5866Q187.637 53.6164 187.62 53.6475Q187.603 53.6786 187.589 53.7107Q187.574 53.7429 187.562 53.7761Q187.55 53.8092 187.54 53.8431Q187.53 53.877 187.522 53.9115Q187.515 53.9461 187.51 53.981Q187.505 54.016 187.503 54.0512Q187.5 54.0864 187.5 54.1218Z" id="New-shape" fill="none" fill-rule="evenodd" stroke="#808080" stroke-width="5" />
      <path d="M49.5001 0L49.5001 35" id="Line" fill="none" fill-rule="evenodd" stroke="#808080" stroke-width="6" stroke-linecap="square" />
      <path d="M0 50.8L35 50.8" id="Line-Copy" fill="none" fill-rule="evenodd" stroke="#808080" stroke-width="6" stroke-linecap="square" />
    </g>
  </g>
</svg>