<?xml version="1.0" encoding="utf-8"?>
<svg width="456px" height="515px" viewBox="0 0 456 515" version="1.1" xmlns:xlink="http://www.w3.org/1999/xlink" xmlns="http://www.w3.org/2000/svg">
  <defs>
    <filter id="filter_1">
      <feColorMatrix in="SourceGraphic" type="matrix" values="0 0 0 0 0.827451 0 0 0 0 0.827451 0 0 0 0 0.827451 0 0 0 1 0" />
    </filter>
    <path d="M0 0L176 0L176 176L0 176L0 0Z" id="path_1" />
    <clipPath id="mask_1">
      <use xlink:href="#path_1" />
    </clipPath>
  </defs>
  <g id="eye-drop-plus">
    <g id="Group-3" filter="url(#filter_1)">
      <g id="Group" transform="matrix(0.80901724 0.5877849 -0.5877849 0.80901724 282.7245 0)" filter="url(#filter_1)">
        <path d="M105.999 101L106.001 101Q106.958 101 107.915 101.047Q108.871 101.094 109.824 101.188Q110.776 101.282 111.723 101.422Q112.67 101.563 113.609 101.749Q114.548 101.936 115.477 102.169Q116.406 102.401 117.322 102.679Q118.238 102.957 119.139 103.28Q120.041 103.602 120.925 103.969Q121.81 104.335 122.675 104.744Q123.541 105.154 124.385 105.605Q125.229 106.056 126.05 106.548Q126.872 107.041 127.668 107.572Q128.464 108.104 129.233 108.675Q130.002 109.245 130.742 109.852Q131.482 110.46 132.191 111.103Q132.9 111.746 133.577 112.422Q134.254 113.099 134.897 113.809Q135.54 114.518 136.148 115.258Q136.755 115.998 137.325 116.767Q137.896 117.536 138.427 118.332Q138.959 119.128 139.452 119.949Q139.944 120.771 140.395 121.615Q140.846 122.459 141.256 123.325Q141.665 124.19 142.031 125.075Q142.398 125.959 142.72 126.861Q143.043 127.762 143.321 128.678Q143.599 129.594 143.831 130.523Q144.064 131.452 144.251 132.391Q144.437 133.33 144.578 134.277Q144.718 135.224 144.812 136.176Q144.906 137.129 144.953 138.085Q145 139.042 145 139.999L145 442.001Q145 442.958 144.953 443.914Q144.906 444.871 144.812 445.823Q144.718 446.776 144.578 447.723Q144.437 448.67 144.251 449.609Q144.064 450.548 143.831 451.477Q143.599 452.406 143.321 453.322Q143.043 454.238 142.72 455.139Q142.398 456.041 142.031 456.925Q141.665 457.81 141.256 458.675Q140.846 459.541 140.395 460.385Q139.944 461.229 139.452 462.05Q138.959 462.872 138.427 463.668Q137.896 464.464 137.325 465.233Q136.755 466.002 136.148 466.742Q135.54 467.482 134.897 468.191Q134.254 468.9 133.577 469.577Q132.9 470.254 132.191 470.897Q131.482 471.54 130.742 472.147Q130.002 472.755 129.233 473.325Q128.464 473.895 127.668 474.427Q126.872 474.959 126.05 475.451Q125.229 475.944 124.385 476.395Q123.541 476.846 122.675 477.255Q121.81 477.665 120.925 478.031Q120.041 478.398 119.139 478.72Q118.238 479.043 117.322 479.321Q116.406 479.598 115.477 479.831Q114.548 480.064 113.609 480.25Q112.67 480.437 111.723 480.578Q110.776 480.718 109.824 480.812Q108.871 480.906 107.915 480.953Q106.958 481 106.001 481L105.999 481Q105.042 481 104.085 480.953Q103.129 480.906 102.176 480.812Q101.224 480.718 100.277 480.578Q99.3296 480.437 98.3907 480.251Q97.4517 480.064 96.523 479.831Q95.5943 479.598 94.6782 479.321Q93.762 479.043 92.8606 478.72Q91.9592 478.398 91.0747 478.031Q90.1902 477.665 89.3248 477.256Q88.4593 476.846 87.615 476.395Q86.7707 475.944 85.9495 475.451Q85.1283 474.959 84.3323 474.427Q83.5363 473.895 82.7673 473.325Q81.9983 472.755 81.2583 472.147Q80.5182 471.54 79.8089 470.897Q79.0995 470.254 78.4225 469.577Q77.7456 468.9 77.1026 468.191Q76.4597 467.482 75.8524 466.742Q75.245 466.001 74.6747 465.233Q74.1044 464.464 73.5725 463.668Q73.0406 462.871 72.5484 462.05Q72.0563 461.229 71.6049 460.385Q71.1536 459.54 70.7443 458.675Q70.335 457.81 69.9686 456.925Q69.6022 456.041 69.2797 455.139Q68.9572 454.238 68.6793 453.322Q68.4014 452.406 68.1688 451.477Q67.9361 450.548 67.7494 449.609Q67.5626 448.67 67.4221 447.723Q67.2816 446.776 67.1878 445.823Q67.094 444.871 67.047 443.914Q67 442.958 67 442.001L67 139.999Q67 139.042 67.047 138.085Q67.0939 137.129 67.1878 136.176Q67.2816 135.224 67.4221 134.277Q67.5626 133.33 67.7494 132.391Q67.9361 131.452 68.1687 130.523Q68.4014 129.594 68.6793 128.678Q68.9572 127.762 69.2797 126.861Q69.6022 125.959 69.9686 125.075Q70.335 124.19 70.7443 123.325Q71.1536 122.459 71.6049 121.615Q72.0562 120.771 72.5484 119.949Q73.0406 119.128 73.5725 118.332Q74.1044 117.536 74.6747 116.767Q75.245 115.998 75.8524 115.258Q76.4597 114.518 77.1026 113.809Q77.7456 113.099 78.4225 112.422Q79.0995 111.746 79.8089 111.103Q80.5182 110.46 81.2583 109.852Q81.9983 109.245 82.7673 108.675Q83.5363 108.104 84.3323 107.572Q85.1283 107.041 85.9495 106.548Q86.7707 106.056 87.615 105.605Q88.4593 105.154 89.3248 104.744Q90.1902 104.335 91.0747 103.969Q91.9592 103.602 92.8606 103.28Q93.762 102.957 94.6782 102.679Q95.5943 102.401 96.523 102.169Q97.4517 101.936 98.3907 101.749Q99.3296 101.563 100.277 101.422Q101.224 101.282 102.176 101.188Q103.129 101.094 104.085 101.047Q105.042 101 105.999 101Z" id="Rectangle" fill="none" fill-rule="evenodd" stroke="#808080" stroke-width="16" />
        <path d="M104.999 -0.000122585L105.001 -0.000122585Q105.958 -0.000122597 106.915 0.0468534Q107.871 0.0938294 108.824 0.187668Q109.776 0.281507 110.723 0.421982Q111.67 0.562458 112.609 0.749232Q113.548 0.936006 114.477 1.16863Q115.406 1.40125 116.322 1.67916Q117.238 1.95707 118.139 2.2796Q119.041 2.60213 119.925 2.9685Q120.81 3.33487 121.675 3.7442Q122.541 4.15353 123.385 4.60483Q124.229 5.05613 125.05 5.54832Q125.872 6.0405 126.668 6.57239Q127.464 7.10428 128.233 7.67458Q129.002 8.24489 129.742 8.85224Q130.482 9.45959 131.191 10.1025Q131.9 10.7455 132.577 11.4224Q133.254 12.0994 133.897 12.8087Q134.54 13.5181 135.148 14.2582Q135.755 14.9982 136.325 15.7672Q136.896 16.5362 137.427 17.3322Q137.959 18.1282 138.452 18.9494Q138.944 19.7705 139.395 20.6149Q139.846 21.4592 140.256 22.3247Q140.665 23.1901 141.031 24.0746Q141.398 24.9591 141.72 25.8605Q142.043 26.7619 142.321 27.6781Q142.599 28.5942 142.831 29.5229Q143.064 30.4516 143.251 31.3905Q143.437 32.3295 143.578 33.2765Q143.718 34.2235 143.812 35.1763Q143.906 36.1291 143.953 37.0853Q144 38.0415 144 38.9989L144 98.0009Q144 98.9582 143.953 99.9145Q143.906 100.871 143.812 101.823Q143.718 102.776 143.578 103.723Q143.437 104.67 143.251 105.609Q143.064 106.548 142.831 107.477Q142.599 108.406 142.321 109.322Q142.043 110.238 141.72 111.139Q141.398 112.041 141.031 112.925Q140.665 113.81 140.256 114.675Q139.846 115.541 139.395 116.385Q138.944 117.229 138.452 118.05Q137.959 118.871 137.427 119.668Q136.896 120.464 136.325 121.233Q135.755 122.001 135.148 122.742Q134.54 123.482 133.897 124.191Q133.254 124.9 132.577 125.577Q131.9 126.254 131.191 126.897Q130.482 127.54 129.742 128.148Q129.002 128.755 128.233 129.325Q127.464 129.895 126.668 130.427Q125.872 130.959 125.05 131.451Q124.229 131.944 123.385 132.395Q122.541 132.846 121.675 133.256Q120.81 133.665 119.925 134.031Q119.041 134.398 118.139 134.72Q117.238 135.043 116.322 135.321Q115.406 135.598 114.477 135.831Q113.548 136.064 112.609 136.25Q111.67 136.437 110.723 136.578Q109.776 136.718 108.824 136.812Q107.871 136.906 106.915 136.953Q105.958 137 105.001 137L104.999 137Q104.042 137 103.085 136.953Q102.129 136.906 101.176 136.812Q100.224 136.718 99.2766 136.578Q98.3296 136.437 97.3907 136.251Q96.4517 136.064 95.523 135.831Q94.5943 135.598 93.6782 135.321Q92.762 135.043 91.8606 134.72Q90.9592 134.398 90.0747 134.031Q89.1902 133.665 88.3248 133.256Q87.4593 132.846 86.615 132.395Q85.7707 131.944 84.9495 131.451Q84.1283 130.959 83.3323 130.427Q82.5363 129.895 81.7673 129.325Q80.9984 128.755 80.2583 128.147Q79.5182 127.54 78.8089 126.897Q78.0995 126.254 77.4225 125.577Q76.7456 124.9 76.1026 124.191Q75.4597 123.482 74.8524 122.742Q74.245 122.001 73.6747 121.233Q73.1044 120.464 72.5725 119.668Q72.0406 118.871 71.5484 118.05Q71.0563 117.229 70.6049 116.385Q70.1536 115.541 69.7443 114.675Q69.335 113.81 68.9686 112.925Q68.6022 112.041 68.2797 111.139Q67.9572 110.238 67.6793 109.322Q67.4014 108.406 67.1687 107.477Q66.9361 106.548 66.7493 105.609Q66.5626 104.67 66.4221 103.723Q66.2816 102.776 66.1878 101.823Q66.0939 100.871 66.047 99.9145Q66 98.9582 66 98.0009L66 38.9989Q66 38.0415 66.047 37.0853Q66.0939 36.1291 66.1878 35.1763Q66.2816 34.2235 66.4221 33.2765Q66.5626 32.3295 66.7493 31.3905Q66.9361 30.4516 67.1687 29.5229Q67.4014 28.5942 67.6793 27.6781Q67.9572 26.7619 68.2797 25.8605Q68.6022 24.9591 68.9686 24.0746Q69.335 23.1901 69.7443 22.3247Q70.1536 21.4592 70.6049 20.6149Q71.0563 19.7705 71.5484 18.9494Q72.0406 18.1282 72.5725 17.3322Q73.1044 16.5362 73.6747 15.7672Q74.245 14.9982 74.8524 14.2582Q75.4597 13.5181 76.1026 12.8088Q76.7456 12.0994 77.4225 11.4224Q78.0995 10.7455 78.8089 10.1025Q79.5182 9.45959 80.2583 8.85224Q80.9984 8.24489 81.7673 7.67459Q82.5363 7.10428 83.3323 6.57239Q84.1283 6.04051 84.9495 5.54832Q85.7707 5.05613 86.615 4.60483Q87.4593 4.15353 88.3248 3.7442Q89.1902 3.33487 90.0747 2.9685Q90.9592 2.60213 91.8606 2.2796Q92.762 1.95707 93.6782 1.67916Q94.5943 1.40125 95.523 1.16863Q96.4517 0.936006 97.3907 0.749232Q98.3296 0.562458 99.2766 0.421983Q100.224 0.281507 101.176 0.187668Q102.129 0.0938294 103.085 0.0468534Q104.042 -0.000122572 104.999 -0.000122585Z" id="Rectangle-Copy" fill="#D3D3D3" fill-rule="evenodd" stroke="#808080" stroke-width="16" />
        <path d="M0 86.8L213 86.8L213 143.8L7.51629e-07 143.8L0 86.8Z" id="Rectangle-2" fill="#D3D3D3" fill-rule="evenodd" stroke="none" />
      </g>
      <g id="Plus-icon" transform="translate(226.62305 329.66797)">
        <path d="M0 0L176 0L176 176L0 176L0 0Z" id="Background" fill="none" fill-rule="evenodd" stroke="none" />
        <g clip-path="url(#mask_1)">
          <path d="M80.6666 14.6667L80.6666 80.6667L14.6666 80.6667L14.6666 95.3334L80.6666 95.3334L80.6666 161.333L95.3333 161.333L95.3333 95.3334L161.333 95.3334L161.333 80.6667L95.3333 80.6667L95.3333 14.6667L80.6666 14.6667Z" id="Shape" fill="#FFFFFF" fill-rule="evenodd" stroke="none" />
        </g>
      </g>
    </g>
  </g>
</svg>