<?xml version="1.0" encoding="utf-8"?>
<svg width="456px" height="515px" viewBox="0 0 456 515" version="1.1" xmlns:xlink="http://www.w3.org/1999/xlink" xmlns="http://www.w3.org/2000/svg">
  <defs>
    <filter id="filter_1">
      <feColorMatrix in="SourceGraphic" type="matrix" values="0 0 0 0 0.827451 0 0 0 0 0.827451 0 0 0 0 0.827451 0 0 0 1 0" />
    </filter>
  </defs>
  <g id="eye-drop-minus">
    <g id="Group-5">
      <g id="Group-4" filter="url(#filter_1)">
        <g id="Group-2" transform="matrix(0.8090173 0.5877848 -0.5877848 0.8090173 282.7246 0)" filter="url(#filter_1)">
          <path d="M105.999 101L106.001 101Q106.959 101 107.915 101.047Q108.871 101.094 109.824 101.188Q110.777 101.282 111.724 101.422Q112.671 101.563 113.61 101.75Q114.549 101.936 115.477 102.169Q116.406 102.402 117.322 102.68Q118.238 102.957 119.14 103.28Q120.041 103.602 120.925 103.969Q121.81 104.335 122.675 104.745Q123.541 105.154 124.385 105.605Q125.23 106.056 126.051 106.549Q126.872 107.041 127.668 107.573Q128.464 108.105 129.233 108.675Q130.002 109.245 130.742 109.853Q131.482 110.46 132.191 111.103Q132.901 111.746 133.578 112.423Q134.255 113.1 134.898 113.809Q135.541 114.518 136.148 115.259Q136.755 115.999 137.326 116.768Q137.896 117.537 138.428 118.333Q138.96 119.129 139.452 119.95Q139.944 120.771 140.395 121.615Q140.847 122.46 141.256 123.325Q141.665 124.19 142.032 125.075Q142.398 125.959 142.721 126.861Q143.043 127.762 143.321 128.678Q143.599 129.595 143.831 130.523Q144.064 131.452 144.251 132.391Q144.438 133.33 144.578 134.277Q144.719 135.224 144.812 136.177Q144.906 137.129 144.953 138.086Q145 139.042 145 139.999L145 442.001Q145 442.959 144.953 443.915Q144.906 444.871 144.812 445.824Q144.719 446.777 144.578 447.724Q144.438 448.671 144.251 449.61Q144.064 450.548 143.831 451.477Q143.599 452.406 143.321 453.322Q143.043 454.238 142.721 455.14Q142.398 456.041 142.032 456.925Q141.665 457.81 141.256 458.675Q140.847 459.541 140.395 460.385Q139.944 461.229 139.452 462.051Q138.96 462.872 138.428 463.668Q137.896 464.464 137.326 465.233Q136.755 466.002 136.148 466.742Q135.541 467.482 134.898 468.191Q134.255 468.901 133.578 469.578Q132.901 470.255 132.191 470.898Q131.482 471.54 130.742 472.148Q130.002 472.755 129.233 473.325Q128.464 473.896 127.668 474.428Q126.872 474.96 126.051 475.452Q125.23 475.944 124.385 476.395Q123.541 476.847 122.675 477.256Q121.81 477.665 120.925 478.032Q120.041 478.398 119.14 478.72Q118.238 479.043 117.322 479.321Q116.406 479.599 115.477 479.831Q114.549 480.064 113.61 480.251Q112.671 480.438 111.724 480.578Q110.777 480.719 109.824 480.812Q108.871 480.906 107.915 480.953Q106.959 481 106.001 481L105.999 481Q105.042 481 104.086 480.953Q103.129 480.906 102.177 480.812Q101.224 480.719 100.277 480.578Q99.3299 480.438 98.3909 480.251Q97.4519 480.064 96.5232 479.831Q95.5946 479.599 94.6784 479.321Q93.7623 479.043 92.8609 478.72Q91.9595 478.398 91.075 478.032Q90.1905 477.665 89.325 477.256Q88.4596 476.847 87.6152 476.395Q86.7709 475.944 85.9498 475.452Q85.1286 474.96 84.3326 474.428Q83.5365 473.896 82.7676 473.325Q81.9986 472.755 81.2585 472.148Q80.5185 471.54 79.8091 470.898Q79.0997 470.255 78.4228 469.578Q77.7458 468.901 77.1029 468.191Q76.46 467.482 75.8526 466.742Q75.2453 466.002 74.6749 465.233Q74.1046 464.464 73.5727 463.668Q73.0409 462.872 72.5487 462.051Q72.0565 461.229 71.6052 460.385Q71.1539 459.541 70.7446 458.675Q70.3352 457.81 69.9689 456.925Q69.6025 456.041 69.28 455.14Q68.9574 454.238 68.6795 453.322Q68.4016 452.406 68.169 451.477Q67.9364 450.548 67.7496 449.61Q67.5628 448.671 67.4223 447.724Q67.2819 446.777 67.188 445.824Q67.0942 444.871 67.0472 443.915Q67.0002 442.959 67.0002 442.001L67.0002 139.999Q67.0002 139.042 67.0472 138.086Q67.0942 137.129 67.188 136.177Q67.2819 135.224 67.4223 134.277Q67.5628 133.33 67.7496 132.391Q67.9364 131.452 68.169 130.523Q68.4016 129.595 68.6795 128.678Q68.9574 127.762 69.28 126.861Q69.6025 125.959 69.9689 125.075Q70.3352 124.19 70.7446 123.325Q71.1539 122.46 71.6052 121.615Q72.0565 120.771 72.5487 119.95Q73.0409 119.129 73.5728 118.333Q74.1046 117.537 74.6749 116.768Q75.2453 115.999 75.8526 115.259Q76.46 114.518 77.1029 113.809Q77.7458 113.1 78.4228 112.423Q79.0997 111.746 79.8091 111.103Q80.5185 110.46 81.2585 109.853Q81.9986 109.245 82.7676 108.675Q83.5365 108.105 84.3326 107.573Q85.1286 107.041 85.9497 106.549Q86.7709 106.056 87.6152 105.605Q88.4596 105.154 89.325 104.745Q90.1905 104.335 91.075 103.969Q91.9594 103.602 92.8609 103.28Q93.7623 102.957 94.6784 102.68Q95.5946 102.402 96.5232 102.169Q97.4519 101.936 98.3909 101.75Q99.3299 101.563 100.277 101.422Q101.224 101.282 102.177 101.188Q103.129 101.094 104.086 101.047Q105.042 101 105.999 101Z" id="Rectangle" fill="none" fill-rule="evenodd" stroke="#808080" stroke-width="16" />
          <path d="M104.999 0L105.001 0Q105.959 0 106.915 0.046976Q107.871 0.093952 108.824 0.187791Q109.777 0.28163 110.724 0.422105Q111.671 0.562581 112.61 0.749355Q113.549 0.936129 114.477 1.16875Q115.406 1.40137 116.322 1.67928Q117.238 1.95719 118.14 2.27972Q119.041 2.60225 119.926 2.96862Q120.81 3.33499 121.675 3.74432Q122.541 4.15365 123.385 4.60495Q124.23 5.05625 125.051 5.54844Q125.872 6.04063 126.668 6.57252Q127.464 7.1044 128.233 7.67471Q129.002 8.24501 129.742 8.85236Q130.482 9.45971 131.191 10.1026Q131.901 10.7456 132.578 11.4225Q133.255 12.0995 133.898 12.8089Q134.541 13.5182 135.148 14.2583Q135.755 14.9984 136.326 15.7673Q136.896 16.5363 137.428 17.3323Q137.96 18.1283 138.452 18.9495Q138.944 19.7707 139.395 20.615Q139.847 21.4593 140.256 22.3248Q140.665 23.1902 141.032 24.0747Q141.398 24.9592 141.72 25.8606Q142.043 26.762 142.321 27.6782Q142.599 28.5943 142.831 29.523Q143.064 30.4517 143.251 31.3907Q143.438 32.3296 143.578 33.2767Q143.719 34.2237 143.812 35.1764Q143.906 36.1292 143.953 37.0854Q144 38.0416 144 38.999L144 98.001Q144 98.9584 143.953 99.9146Q143.906 100.871 143.812 101.824Q143.719 102.776 143.578 103.723Q143.438 104.67 143.251 105.609Q143.064 106.548 142.831 107.477Q142.599 108.406 142.321 109.322Q142.043 110.238 141.72 111.139Q141.398 112.041 141.032 112.925Q140.665 113.81 140.256 114.675Q139.847 115.541 139.395 116.385Q138.944 117.229 138.452 118.05Q137.96 118.872 137.428 119.668Q136.896 120.464 136.326 121.233Q135.755 122.002 135.148 122.742Q134.541 123.482 133.898 124.191Q133.255 124.9 132.578 125.577Q131.901 126.254 131.191 126.897Q130.482 127.54 129.742 128.148Q129.002 128.755 128.233 129.325Q127.464 129.896 126.668 130.427Q125.872 130.959 125.051 131.452Q124.23 131.944 123.385 132.395Q122.541 132.846 121.675 133.256Q120.81 133.665 119.926 134.031Q119.041 134.398 118.14 134.72Q117.238 135.043 116.322 135.321Q115.406 135.599 114.477 135.831Q113.549 136.064 112.61 136.251Q111.671 136.437 110.724 136.578Q109.777 136.718 108.824 136.812Q107.871 136.906 106.915 136.953Q105.959 137 105.001 137L104.999 137Q104.042 137 103.086 136.953Q102.129 136.906 101.177 136.812Q100.224 136.718 99.2769 136.578Q98.3299 136.437 97.3909 136.251Q96.4519 136.064 95.5233 135.831Q94.5946 135.599 93.6784 135.321Q92.7623 135.043 91.8609 134.72Q90.9595 134.398 90.075 134.031Q89.1905 133.665 88.325 133.256Q87.4596 132.846 86.6152 132.395Q85.7709 131.944 84.9497 131.452Q84.1286 130.959 83.3326 130.427Q82.5365 129.896 81.7676 129.325Q80.9986 128.755 80.2585 128.148Q79.5185 127.54 78.8091 126.897Q78.0997 126.254 77.4228 125.577Q76.7458 124.9 76.1029 124.191Q75.46 123.482 74.8526 122.742Q74.2453 122.002 73.6749 121.233Q73.1046 120.464 72.5727 119.668Q72.0409 118.872 71.5487 118.05Q71.0565 117.229 70.6052 116.385Q70.1539 115.541 69.7445 114.675Q69.3352 113.81 68.9688 112.925Q68.6025 112.041 68.28 111.139Q67.9574 110.238 67.6795 109.322Q67.4016 108.406 67.169 107.477Q66.9364 106.548 66.7496 105.609Q66.5628 104.67 66.4223 103.723Q66.2819 102.776 66.188 101.824Q66.0942 100.871 66.0472 99.9146Q66.0002 98.9584 66.0002 98.001L66.0002 38.999Q66.0002 38.0416 66.0472 37.0854Q66.0942 36.1292 66.188 35.1764Q66.2819 34.2237 66.4223 33.2767Q66.5628 32.3296 66.7496 31.3907Q66.9364 30.4517 67.169 29.523Q67.4016 28.5943 67.6795 27.6782Q67.9574 26.762 68.28 25.8606Q68.6025 24.9592 68.9689 24.0747Q69.3352 23.1902 69.7446 22.3248Q70.1539 21.4593 70.6052 20.615Q71.0565 19.7707 71.5487 18.9495Q72.0409 18.1283 72.5727 17.3323Q73.1046 16.5363 73.6749 15.7673Q74.2453 14.9984 74.8526 14.2583Q75.46 13.5182 76.1029 12.8089Q76.7458 12.0995 77.4228 11.4225Q78.0997 10.7456 78.8091 10.1026Q79.5185 9.45972 80.2585 8.85237Q80.9986 8.24502 81.7676 7.67471Q82.5365 7.1044 83.3326 6.57252Q84.1286 6.04063 84.9497 5.54844Q85.7709 5.05625 86.6152 4.60495Q87.4596 4.15365 88.325 3.74432Q89.1905 3.33499 90.075 2.96862Q90.9595 2.60225 91.8609 2.27972Q92.7623 1.95719 93.6784 1.67928Q94.5946 1.40137 95.5232 1.16875Q96.4519 0.936129 97.3909 0.749355Q98.3299 0.562581 99.2769 0.422105Q100.224 0.28163 101.177 0.187791Q102.129 0.093952 103.086 0.046976Q104.042 0 104.999 0Z" id="Rectangle-Copy" fill="#D3D3D3" fill-rule="evenodd" stroke="#808080" stroke-width="16" />
          <path d="M0 86.7999L213 86.7999L213 143.8L0 143.8L0 86.7999Z" id="Rectangle-2" fill="#D3D3D3" fill-rule="evenodd" stroke="none" />
        </g>
        <path d="M227.023 416.668L395.023 416.668" id="Line" fill="none" fill-rule="evenodd" stroke="#808080" stroke-width="16" stroke-linecap="square" />
      </g>
    </g>
  </g>
</svg>