<?xml version="1.0" encoding="utf-8"?>
<svg width="458px" height="646px" viewBox="0 0 458 646" version="1.1" xmlns:xlink="http://www.w3.org/1999/xlink" xmlns="http://www.w3.org/2000/svg">
  <defs>
    <filter id="filter_1">
      <feColorMatrix in="SourceGraphic" type="matrix" values="0 0 0 0 0.827451 0 0 0 0 0.827451 0 0 0 0 0.827451 0 0 0 1 0" />
    </filter>
  </defs>
  <g id="eye-drop" transform="matrix(0.9998477 -0.017452369 0.017452369 0.9998477 0 7.7837563)">
    <g id="Group" transform="matrix(0.8090174 0.5877849 -0.5877849 0.8090174 277.91522 62.24039)" filter="url(#filter_1)">
      <path d="M105.999 101.005L106.001 101.005Q106.959 101.005 107.915 101.052Q108.871 101.099 109.824 101.193Q110.777 101.287 111.724 101.427Q112.671 101.568 113.61 101.754Q114.549 101.941 115.477 102.174Q116.406 102.407 117.322 102.684Q118.238 102.962 119.14 103.285Q120.041 103.607 120.925 103.974Q121.81 104.34 122.675 104.749Q123.541 105.159 124.385 105.61Q125.23 106.061 126.051 106.554Q126.872 107.046 127.668 107.578Q128.464 108.11 129.233 108.68Q130.002 109.25 130.742 109.858Q131.482 110.465 132.191 111.108Q132.901 111.751 133.578 112.428Q134.255 113.105 134.898 113.814Q135.54 114.523 136.148 115.263Q136.755 116.003 137.325 116.772Q137.896 117.541 138.428 118.337Q138.96 119.133 139.452 119.955Q139.944 120.776 140.395 121.62Q140.847 122.464 141.256 123.33Q141.665 124.195 142.032 125.08Q142.398 125.964 142.72 126.866Q143.043 127.767 143.321 128.683Q143.599 129.599 143.831 130.528Q144.064 131.457 144.251 132.396Q144.438 133.335 144.578 134.282Q144.719 135.229 144.812 136.182Q144.906 137.134 144.953 138.091Q145 139.047 145 140.004L145 442.025Q145 442.982 144.953 443.938Q144.906 444.895 144.812 445.847Q144.719 446.8 144.578 447.747Q144.438 448.694 144.251 449.633Q144.064 450.572 143.831 451.501Q143.599 452.429 143.321 453.346Q143.043 454.262 142.72 455.163Q142.398 456.065 142.032 456.949Q141.665 457.834 141.256 458.699Q140.847 459.564 140.395 460.409Q139.944 461.253 139.452 462.074Q138.96 462.895 138.428 463.691Q137.896 464.487 137.325 465.257Q136.755 466.025 136.148 466.766Q135.54 467.506 134.898 468.215Q134.255 468.924 133.578 469.601Q132.901 470.278 132.191 470.921Q131.482 471.564 130.742 472.171Q130.002 472.779 129.233 473.349Q128.464 473.919 127.668 474.451Q126.872 474.983 126.051 475.475Q125.229 475.968 124.385 476.419Q123.541 476.87 122.675 477.279Q121.81 477.689 120.925 478.055Q120.041 478.421 119.14 478.744Q118.238 479.067 117.322 479.345Q116.406 479.622 115.477 479.855Q114.548 480.088 113.61 480.274Q112.671 480.461 111.724 480.602Q110.777 480.742 109.824 480.836Q108.871 480.93 107.915 480.977Q106.959 481.024 106.001 481.024L105.999 481.024Q105.042 481.024 104.086 480.977Q103.129 480.93 102.177 480.836Q101.224 480.742 100.277 480.602Q99.3298 480.461 98.3909 480.274Q97.4519 480.088 96.5232 479.855Q95.5945 479.622 94.6784 479.345Q93.7622 479.067 92.8608 478.744Q91.9594 478.422 91.0749 478.055Q90.1904 477.689 89.325 477.279Q88.4595 476.87 87.6152 476.419Q86.7709 475.968 85.9497 475.475Q85.1285 474.983 84.3325 474.451Q83.5365 473.919 82.7675 473.349Q81.9985 472.779 81.2585 472.171Q80.5184 471.564 79.8091 470.921Q79.0997 470.278 78.4227 469.601Q77.7458 468.924 77.1028 468.215Q76.4599 467.506 75.8526 466.766Q75.2452 466.026 74.6749 465.257Q74.1046 464.488 73.5727 463.691Q73.0408 462.895 72.5486 462.074Q72.0564 461.253 71.6051 460.409Q71.1538 459.564 70.7445 458.699Q70.3352 457.834 69.9688 456.949Q69.6024 456.065 69.2799 455.163Q68.9574 454.262 68.6795 453.346Q68.4016 452.429 68.1689 451.501Q67.9363 450.572 67.7495 449.633Q67.5628 448.694 67.4223 447.747Q67.2818 446.8 67.188 445.847Q67.0941 444.895 67.0472 443.938Q67.0002 442.982 67.0002 442.025L67.0002 140.004Q67.0002 139.047 67.0472 138.091Q67.0942 137.134 67.188 136.182Q67.2819 135.229 67.4223 134.282Q67.5628 133.335 67.7496 132.396Q67.9364 131.457 68.169 130.528Q68.4016 129.599 68.6795 128.683Q68.9574 127.767 69.28 126.866Q69.6025 125.964 69.9689 125.08Q70.3352 124.195 70.7446 123.33Q71.1539 122.464 71.6052 121.62Q72.0565 120.776 72.5487 119.955Q73.0409 119.133 73.5728 118.337Q74.1046 117.541 74.6749 116.772Q75.2453 116.003 75.8526 115.263Q76.46 114.523 77.1029 113.814Q77.7458 113.105 78.4228 112.428Q79.0997 111.751 79.8091 111.108Q80.5185 110.465 81.2585 109.857Q81.9986 109.25 82.7676 108.68Q83.5365 108.11 84.3326 107.578Q85.1286 107.046 85.9497 106.554Q86.7709 106.061 87.6152 105.61Q88.4596 105.159 89.325 104.749Q90.1905 104.34 91.075 103.974Q91.9594 103.607 92.8609 103.285Q93.7623 102.962 94.6784 102.684Q95.5946 102.407 96.5232 102.174Q97.4519 101.941 98.3909 101.754Q99.3299 101.568 100.277 101.427Q101.224 101.287 102.177 101.193Q103.129 101.099 104.086 101.052Q105.042 101.005 105.999 101.005Z" id="Rectangle" fill="none" fill-rule="evenodd" stroke="#808080" stroke-width="16" />
      <path d="M104.999 6.61797e-05L105.001 6.618e-05Q105.959 6.63062e-05 106.915 0.0470424Q107.871 0.0940185 108.824 0.187857Q109.777 0.281696 110.724 0.422172Q111.671 0.562648 112.61 0.749422Q113.549 0.936196 114.477 1.16882Q115.406 1.40144 116.322 1.67935Q117.238 1.95726 118.14 2.27979Q119.041 2.60232 119.925 2.96869Q120.81 3.33506 121.675 3.74439Q122.541 4.15372 123.385 4.60502Q124.23 5.05632 125.051 5.54851Q125.872 6.0407 126.668 6.57258Q127.464 7.10447 128.233 7.67478Q129.002 8.24508 129.742 8.85243Q130.482 9.45978 131.191 10.1027Q131.901 10.7456 132.578 11.4226Q133.255 12.0996 133.898 12.8089Q134.54 13.5183 135.148 14.2584Q135.755 14.9984 136.326 15.7674Q136.896 16.5364 137.428 17.3324Q137.96 18.1284 138.452 18.9496Q138.944 19.7707 139.395 20.6151Q139.847 21.4594 140.256 22.3248Q140.665 23.1903 141.032 24.0748Q141.398 24.9593 141.72 25.8607Q142.043 26.7621 142.321 27.6783Q142.599 28.5944 142.831 29.5231Q143.064 30.4518 143.251 31.3907Q143.438 32.3297 143.578 33.2767Q143.719 34.2237 143.812 35.1765Q143.906 36.1293 143.953 37.0855Q144 38.0417 144 38.9991L144 98.0078Q144 98.9652 143.953 99.9214Q143.906 100.878 143.812 101.83Q143.719 102.783 143.578 103.73Q143.438 104.677 143.251 105.616Q143.064 106.555 142.831 107.484Q142.599 108.412 142.321 109.329Q142.043 110.245 141.72 111.146Q141.398 112.048 141.032 112.932Q140.665 113.817 140.256 114.682Q139.847 115.548 139.395 116.392Q138.944 117.236 138.452 118.057Q137.96 118.878 137.428 119.675Q136.896 120.471 136.326 121.24Q135.755 122.008 135.148 122.749Q134.54 123.489 133.898 124.198Q133.255 124.907 132.578 125.584Q131.901 126.261 131.191 126.904Q130.482 127.547 129.742 128.154Q129.002 128.762 128.233 129.332Q127.464 129.902 126.668 130.434Q125.872 130.966 125.051 131.458Q124.23 131.951 123.385 132.402Q122.541 132.853 121.675 133.263Q120.81 133.672 119.925 134.038Q119.041 134.405 118.14 134.727Q117.238 135.05 116.322 135.328Q115.406 135.605 114.477 135.838Q113.549 136.071 112.61 136.257Q111.671 136.444 110.724 136.585Q109.777 136.725 108.824 136.819Q107.871 136.913 106.915 136.96Q105.959 137.007 105.001 137.007L104.999 137.007Q104.042 137.007 103.086 136.96Q102.129 136.913 101.177 136.819Q100.224 136.725 99.2769 136.585Q98.3299 136.444 97.3909 136.257Q96.4519 136.071 95.5232 135.838Q94.5946 135.605 93.6784 135.328Q92.7623 135.05 91.8608 134.727Q90.9594 134.405 90.0749 134.038Q89.1904 133.672 88.325 133.263Q87.4595 132.853 86.6152 132.402Q85.7709 131.951 84.9497 131.458Q84.1286 130.966 83.3325 130.434Q82.5365 129.902 81.7675 129.332Q80.9986 128.762 80.2585 128.154Q79.5185 127.547 78.8091 126.904Q78.0997 126.261 77.4228 125.584Q76.7458 124.907 76.1029 124.198Q75.4599 123.489 74.8526 122.749Q74.2452 122.008 73.6749 121.239Q73.1046 120.471 72.5727 119.674Q72.0408 118.878 71.5487 118.057Q71.0565 117.236 70.6052 116.392Q70.1539 115.547 69.7445 114.682Q69.3352 113.817 68.9688 112.932Q68.6025 112.048 68.2799 111.146Q67.9574 110.245 67.6795 109.329Q67.4016 108.412 67.169 107.484Q66.9364 106.555 66.7496 105.616Q66.5628 104.677 66.4223 103.73Q66.2819 102.783 66.188 101.83Q66.0942 100.878 66.0472 99.9214Q66.0002 98.9652 66.0002 98.0078L66.0002 38.9991Q66.0002 38.0417 66.0472 37.0855Q66.0942 36.1292 66.188 35.1765Q66.2819 34.2237 66.4223 33.2767Q66.5628 32.3297 66.7496 31.3907Q66.9364 30.4517 67.169 29.5231Q67.4016 28.5944 67.6795 27.6782Q67.9574 26.7621 68.28 25.8607Q68.6025 24.9593 68.9688 24.0748Q69.3352 23.1903 69.7446 22.3248Q70.1539 21.4594 70.6052 20.6151Q71.0565 19.7707 71.5487 18.9496Q72.0409 18.1284 72.5727 17.3324Q73.1046 16.5363 73.6749 15.7674Q74.2453 14.9984 74.8526 14.2584Q75.46 13.5183 76.1029 12.8089Q76.7458 12.0996 77.4228 11.4226Q78.0997 10.7456 78.8091 10.1027Q79.5185 9.45978 80.2585 8.85243Q80.9986 8.24508 81.7676 7.67477Q82.5365 7.10447 83.3326 6.57258Q84.1286 6.04069 84.9497 5.5485Q85.7709 5.05632 86.6152 4.60501Q87.4596 4.15371 88.325 3.74438Q89.1905 3.33506 90.075 2.96869Q90.9595 2.60232 91.8609 2.27979Q92.7623 1.95726 93.6784 1.67935Q94.5946 1.40144 95.5232 1.16882Q96.4519 0.936194 97.3909 0.74942Q98.3299 0.562646 99.2769 0.422171Q100.224 0.281695 101.177 0.187856Q102.129 0.0940178 103.086 0.0470419Q104.042 6.60535e-05 104.999 6.61797e-05Z" id="Rectangle-Copy" fill="#D3D3D3" fill-rule="evenodd" stroke="#808080" stroke-width="16" />
      <path d="M0 86.8042L213 86.8043L213 143.807L-7.51516e-06 143.807L0 86.8042Z" id="Rectangle-2" fill="#D3D3D3" fill-rule="evenodd" stroke="none" />
    </g>
  </g>
</svg>