<?xml version="1.0" encoding="utf-8"?>
<svg width="80px" height="44px" viewBox="0 0 80 44" version="1.1" xmlns:xlink="http://www.w3.org/1999/xlink" xmlns="http://www.w3.org/2000/svg">
  <g id="eye-ball">
    <g id="Group-21" transform="translate(0 1.4270216)">
      <path d="M0.00356439 21.2865C-0.292633 17.2504 17.9106 0 40 0C62.0894 0 79.7002 17.572 79.9964 21.2865C80.2927 25.0009 62.0894 42.573 40 42.573C17.9106 42.573 0.299762 25.3226 0.00356439 21.2865Z" id="Ellipse" fill="#D3D3D3" fill-rule="evenodd" stroke="none" />
      <path d="M25.1866 21.2302C25.1866 12.3475 31.8189 5.14672 40.0001 5.14672C48.1814 5.14672 54.8136 12.3475 54.8136 21.2302C54.8136 30.1129 48.1814 37.3137 40.0001 37.3137C31.8189 37.3137 25.1866 30.1129 25.1866 21.2302Z" id="Ellipse-2" fill="#363636" fill-rule="evenodd" stroke="none" />
      <path d="M43.4186 10.8564C46.2003 10.8564 50.0698 15.1253 50.0698 19.3002C50.0698 23.4751 43.4188 26.4627 43.4188 26.4627C43.4188 26.4627 47.2552 23.2018 47.2551 19.3002C47.2551 15.3986 42.2716 10.8564 43.4186 10.8564Z" id="Ellipse-3" fill="#D3D3D3" fill-rule="evenodd" stroke="none" />
    </g>
  </g>
</svg>