<?xml version="1.0" encoding="utf-8"?>
<svg width="182px" height="219px" viewBox="0 0 182 219" version="1.1" xmlns:xlink="http://www.w3.org/1999/xlink" xmlns="http://www.w3.org/2000/svg">
  <g id="fx-icon">
    <g id="fx" fill="#FFFFFF">
      <path d="M55.3107 76.1367L73.5089 76.1367L70.4854 90.3605L52.2873 90.3605L32.0128 185.744L14.6514 185.744L34.9258 90.3605L20.2836 90.3605L23.307 76.1367L37.9492 76.1367L41.9062 57.5202C45.2408 41.8321 56.8192 32.6284 72.9257 32.6284C76.4816 32.6284 78.738 32.8376 82.5343 33.6743L79.4666 48.1073C75.5368 47.8982 74.9093 47.8982 73.4451 47.8982C65.4964 47.8982 60.5126 51.6633 58.9566 58.9844L55.3107 76.1367ZM175.586 76.1367L127.522 129.058L153.334 185.744L133.044 185.744L114.579 143.7L77.822 185.744L57.9505 185.744L108.519 129.895L83.34 76.1367L103.212 76.1367L121.12 115.88L155.924 76.1367L175.586 76.1367Z" />
    </g>
  </g>
</svg>