<?xml version="1.0" encoding="utf-8"?>
<svg width="92px" height="74px" viewBox="0 0 92 74" version="1.1" xmlns:xlink="http://www.w3.org/1999/xlink" xmlns="http://www.w3.org/2000/svg">
  <defs>
    <path d="M0 34.8235C0 15.591 19.158 0 42.7907 0C66.4233 0 85.5814 15.591 85.5814 34.8235C85.5814 54.056 66.4233 69.6471 42.7907 69.6471C19.158 69.6471 0 54.056 0 34.8235Z" id="path_1" />
    <clipPath id="mask_1">
      <use xlink:href="#path_1" />
    </clipPath>
  </defs>
  <g id="half-circle">
    <g id="Rectangle-Mask" transform="translate(3.209387 0.87060547)">
      <path d="M0 34.8235C0 15.591 19.158 0 42.7907 0C66.4233 0 85.5814 15.591 85.5814 34.8235C85.5814 54.056 66.4233 69.6471 42.7907 69.6471C19.158 69.6471 0 54.056 0 34.8235Z" id="Mask" fill="none" fill-rule="evenodd" stroke="#808080" stroke-width="4" />
      <g clip-path="url(#mask_1)">
        <path d="M0 65.3439L72.2948 -1.52588e-05L127.942 40.7774L55.6475 106.121L0 65.3439Z" id="Rectangle" fill="#D3D3D3" fill-rule="evenodd" stroke="none" />
      </g>
    </g>
  </g>
</svg>