<?xml version="1.0" encoding="utf-8"?>
<svg width="323px" height="323px" viewBox="0 0 323 323" version="1.1" xmlns:xlink="http://www.w3.org/1999/xlink" xmlns="http://www.w3.org/2000/svg">
  <defs>
    <filter id="filter_1">
      <feColorMatrix in="SourceGraphic" type="matrix" values="0 0 0 0 0.827451 0 0 0 0 0.827451 0 0 0 0 0.827451 0 0 0 1 0" />
    </filter>
    <path d="M0 0L323 0L323 323L0 323L0 0Z" id="path_1" />
    <clipPath id="mask_1">
      <use xlink:href="#path_1" />
    </clipPath>
  </defs>
  <g id="hand-width-arrows">
    <g id="Group">
      <g id="Hand-Cursor-icon" filter="url(#filter_1)">
        <path d="M0 0L323 0L323 323L0 323L0 0Z" id="Background" fill="none" fill-rule="evenodd" stroke="none" />
        <g clip-path="url(#mask_1)">
          <path d="M105.596 24.8462C95.3083 24.8462 86.9615 33.1929 86.9615 43.4808L86.9615 198.769L61.8242 164.363C54.3509 152.862 39.7926 148.98 29.1166 155.58C18.5375 162.325 15.8685 176.98 23.2447 188.481C23.2447 188.481 63.8138 249.869 81.1382 276.171C98.414 302.424 126.414 323 178.776 323C265.543 323 273.308 256.032 273.308 236.038L273.308 155.288C273.308 145.001 264.961 136.654 254.673 136.654C244.385 136.654 236.038 145.001 236.038 155.288C236.038 158.734 233.272 161.5 229.827 161.5C226.381 161.5 223.615 158.734 223.615 155.288L223.615 142.865C223.615 132.578 215.269 124.231 204.981 124.231C194.693 124.231 186.346 132.578 186.346 142.865C186.346 146.262 183.532 149.077 180.135 149.077C176.738 149.077 173.923 146.262 173.923 142.865C173.923 132.578 165.576 124.231 155.288 124.231C145.001 124.231 136.654 132.578 136.654 142.865C136.654 146.262 133.839 149.077 130.442 149.077C127.045 149.077 124.231 146.262 124.231 142.865L124.231 43.4808C124.231 33.1929 115.884 24.8462 105.596 24.8462L105.596 24.8462Z" id="Shape" fill="#FFFFFF" fill-rule="evenodd" stroke="none" />
        </g>
      </g>
      <path d="M188.113 59.9955L147.824 79.6236Q147.653 79.7067 147.478 79.7789Q147.302 79.8511 147.122 79.912Q146.943 79.9729 146.759 80.0224Q146.576 80.0718 146.39 80.1096Q146.204 80.1474 146.016 80.1733Q145.828 80.1992 145.639 80.2132Q145.45 80.2272 145.26 80.2292Q145.07 80.2313 144.88 80.2213Q144.691 80.2113 144.502 80.1893Q144.314 80.1673 144.127 80.1335Q143.94 80.0997 143.756 80.0541Q143.572 80.0085 143.391 79.9514Q143.21 79.8943 143.033 79.8258Q142.856 79.7574 142.684 79.6779Q142.511 79.5984 142.344 79.5081Q142.177 79.4179 142.016 79.3173Q141.855 79.2167 141.701 79.1061Q141.547 78.9955 141.4 78.8754Q141.253 78.7553 141.114 78.6261Q140.975 78.497 140.844 78.3593Q140.714 78.2216 140.592 78.0759Q140.47 77.9302 140.358 77.7772Q140.246 77.6241 140.144 77.4642Q140.041 77.3044 139.949 77.1384Q139.857 76.9724 139.776 76.8009Q139.695 76.6294 139.624 76.4531Q139.554 76.2768 139.495 76.0964Q139.436 75.916 139.388 75.7323Q139.341 75.5485 139.305 75.3621Q139.269 75.1758 139.245 74.9875Q139.221 74.7992 139.209 74.6098Q139.197 74.4204 139.197 74.2306L139.197 34.9742Q139.197 34.7844 139.209 34.595Q139.221 34.4056 139.245 34.2173Q139.269 34.029 139.305 33.8426Q139.341 33.6562 139.388 33.4725Q139.436 33.2887 139.495 33.1084Q139.554 32.928 139.624 32.7517Q139.695 32.5754 139.776 32.4039Q139.857 32.2324 139.949 32.0664Q140.041 31.9004 140.144 31.7405Q140.246 31.5807 140.358 31.4276Q140.47 31.2745 140.592 31.1289Q140.714 30.9832 140.844 30.8455Q140.975 30.7078 141.114 30.5786Q141.253 30.4495 141.4 30.3294Q141.547 30.2092 141.701 30.0987Q141.855 29.9881 142.016 29.8875Q142.177 29.7869 142.344 29.6966Q142.511 29.6064 142.684 29.5269Q142.856 29.4474 143.033 29.3789Q143.21 29.3105 143.391 29.2534Q143.572 29.1962 143.756 29.1507Q143.94 29.1051 144.127 29.0713Q144.314 29.0374 144.502 29.0155Q144.691 28.9935 144.88 28.9835Q145.07 28.9735 145.26 28.9755Q145.45 28.9775 145.639 28.9915Q145.828 29.0055 146.016 29.0315Q146.204 29.0574 146.39 29.0952Q146.576 29.1329 146.759 29.1824Q146.943 29.2318 147.122 29.2928Q147.302 29.3537 147.478 29.4259Q147.653 29.498 147.824 29.5812L188.113 49.2094Q188.302 49.3012 188.483 49.4059Q188.665 49.5106 188.838 49.6278Q189.012 49.7449 189.177 49.8738Q189.343 50.0028 189.498 50.143Q189.654 50.2832 189.8 50.4339Q189.945 50.5846 190.08 50.7451Q190.215 50.9056 190.338 51.0751Q190.461 51.2446 190.573 51.4224Q190.684 51.6 190.782 51.7851Q190.88 51.9701 190.966 52.1615Q191.051 52.353 191.123 52.5499Q191.194 52.7468 191.252 52.9483Q191.31 53.1497 191.354 53.3547Q191.397 53.5597 191.426 53.7672Q191.456 53.9748 191.47 54.1838Q191.485 54.3929 191.485 54.6025Q191.485 54.812 191.47 55.0211Q191.456 55.2302 191.426 55.4377Q191.397 55.6452 191.354 55.8502Q191.31 56.0552 191.252 56.2567Q191.194 56.4581 191.123 56.655Q191.051 56.852 190.966 57.0434Q190.88 57.2348 190.782 57.4199Q190.684 57.6049 190.572 57.7826Q190.461 57.9603 190.338 58.1298Q190.215 58.2993 190.08 58.4598Q189.945 58.6203 189.8 58.771Q189.654 58.9217 189.498 59.0619Q189.343 59.2021 189.177 59.3311Q189.012 59.46 188.838 59.5772Q188.665 59.6943 188.483 59.799Q188.302 59.9037 188.113 59.9955Z" id="Triangle" fill="#D3D3D3" fill-rule="evenodd" stroke="none" />
      <path d="M16.7909 60.0212L58.3339 79.7541Q58.5045 79.8351 58.6799 79.9053Q58.8552 79.9754 59.0346 80.0344Q59.2141 80.0933 59.3968 80.1409Q59.5796 80.1885 59.765 80.2245Q59.9504 80.2604 60.1377 80.2847Q60.325 80.3089 60.5135 80.3214Q60.702 80.3338 60.8908 80.3343Q61.0797 80.3348 61.2682 80.3235Q61.4567 80.3121 61.6442 80.289Q61.8316 80.2658 62.0172 80.2309Q62.2028 80.1959 62.3859 80.1494Q62.5689 80.1029 62.7487 80.0449Q62.9284 79.9869 63.1042 79.9178Q63.2799 79.8486 63.451 79.7686Q63.622 79.6885 63.7877 79.5978Q63.9534 79.5072 64.113 79.4063Q64.2727 79.3053 64.4257 79.1946Q64.5787 79.0838 64.7244 78.9637Q64.8701 78.8435 65.008 78.7144Q65.1458 78.5854 65.2753 78.4479Q65.4048 78.3104 65.5253 78.165Q65.6459 78.0196 65.7571 77.8669Q65.8683 77.7143 65.9696 77.5549Q66.071 77.3955 66.1621 77.2301Q66.2533 77.0647 66.3338 76.8939Q66.4144 76.723 66.484 76.5475Q66.5537 76.3719 66.6121 76.1923Q66.6706 76.0128 66.7177 75.8298Q66.7647 75.6469 66.8001 75.4614Q66.8356 75.2759 66.8593 75.0885Q66.883 74.9012 66.8949 74.7127Q66.9068 74.5242 66.9068 74.3353L66.9068 34.8695Q66.9068 34.6806 66.8949 34.4921Q66.883 34.3036 66.8593 34.1162Q66.8356 33.9289 66.8001 33.7433Q66.7647 33.5578 66.7177 33.3749Q66.6706 33.192 66.6121 33.0124Q66.5537 32.8328 66.484 32.6573Q66.4144 32.4817 66.3338 32.3109Q66.2533 32.1401 66.1621 31.9746Q66.071 31.8092 65.9696 31.6499Q65.8683 31.4905 65.7571 31.3378Q65.6459 31.1852 65.5253 31.0398Q65.4048 30.8944 65.2753 30.7569Q65.1458 30.6194 65.0079 30.4903Q64.8701 30.3612 64.7244 30.2411Q64.5786 30.1209 64.4257 30.0102Q64.2727 29.8994 64.113 29.7985Q63.9534 29.6976 63.7877 29.6069Q63.622 29.5163 63.451 29.4362Q63.2799 29.3561 63.1041 29.287Q62.9284 29.2178 62.7486 29.1599Q62.5689 29.1019 62.3858 29.0554Q62.2028 29.0089 62.0172 28.9739Q61.8316 28.939 61.6441 28.9158Q61.4567 28.8926 61.2682 28.8813Q61.0797 28.8699 60.8908 28.8705Q60.7019 28.871 60.5135 28.8834Q60.325 28.8958 60.1377 28.9201Q59.9504 28.9443 59.765 28.9803Q59.5796 29.0163 59.3968 29.0639Q59.214 29.1114 59.0346 29.1704Q58.8552 29.2294 58.6798 29.2995Q58.5045 29.3697 58.3339 29.4507L16.7909 49.1837Q16.5999 49.2744 16.4158 49.3784Q16.2317 49.4823 16.0553 49.5989Q15.879 49.7156 15.7113 49.8443Q15.5436 49.9731 15.3854 50.1134Q15.2272 50.2536 15.0792 50.4047Q14.9313 50.5557 14.7943 50.7168Q14.6574 50.8779 14.5321 51.0482Q14.4068 51.2185 14.2939 51.3972Q14.1809 51.576 14.0808 51.7622Q13.9807 51.9484 13.894 52.1412Q13.8072 52.334 13.7343 52.5325Q13.6613 52.7309 13.6025 52.934Q13.5437 53.1371 13.4993 53.3438Q13.455 53.5506 13.4253 53.7599Q13.3956 53.9692 13.3807 54.1801Q13.3658 54.391 13.3658 54.6025Q13.3658 54.8139 13.3807 55.0248Q13.3956 55.2357 13.4253 55.445Q13.455 55.6544 13.4993 55.8611Q13.5437 56.0678 13.6025 56.2709Q13.6613 56.474 13.7343 56.6725Q13.8072 56.8709 13.894 57.0637Q13.9807 57.2565 14.0808 57.4428Q14.1809 57.629 14.2939 57.8077Q14.4068 57.9864 14.5321 58.1568Q14.6574 58.3271 14.7943 58.4882Q14.9313 58.6493 15.0792 58.8003Q15.2272 58.9513 15.3854 59.0916Q15.5436 59.2318 15.7113 59.3606Q15.879 59.4894 16.0553 59.606Q16.2317 59.7226 16.4158 59.8266Q16.5999 59.9305 16.7909 60.0212L16.7909 60.0212Z" id="Triangle-Copy" fill="#D3D3D3" fill-rule="evenodd" stroke="none" />
    </g>
  </g>
</svg>