<?xml version="1.0" encoding="utf-8"?>
<svg width="87px" height="74px" viewBox="0 0 87 74" version="1.1" xmlns:xlink="http://www.w3.org/1999/xlink" xmlns="http://www.w3.org/2000/svg">
  <defs>
    <filter id="filter_1">
      <feColorMatrix in="SourceGraphic" type="matrix" values="0 0 0 0 0.827451 0 0 0 0 0.827451 0 0 0 0 0.827451 0 0 0 1 0" />
    </filter>
    <path d="M0 0L86.3333 0L86.3333 74L0 74L0 0Z" id="path_1" />
    <clipPath id="mask_1">
      <use xlink:href="#path_1" />
    </clipPath>
  </defs>
  <g id="image-icon" filter="url(#filter_1)">
    <g id="Picture-icon">
      <path d="M0 0L86.3333 0L86.3333 74L0 74L0 0Z" id="Background" fill="none" fill-rule="evenodd" stroke="none" />
      <g clip-path="url(#mask_1)">
        <path d="M9.25 0C4.16732 0 0 4.16732 0 9.25L0 64.75C0 69.8327 4.16732 74 9.25 74L77.0834 74C82.1661 74 86.3334 69.8327 86.3334 64.75L86.3334 9.25C86.3334 4.16732 82.1661 0 77.0834 0L9.25 0ZM9.25008 6.16666L77.0835 6.16666C78.8178 6.16666 80.1668 7.51562 80.1668 9.24999L80.1668 51.14L58.5834 29.5566L46.2501 41.89L27.7501 23.39L6.16675 44.9733L6.16675 9.24999C6.16675 7.51562 7.51571 6.16666 9.25008 6.16666L9.25008 6.16666ZM67.8334 12.3333C64.4369 12.3333 61.6667 15.1035 61.6667 18.5C61.6667 21.8965 64.4369 24.6667 67.8334 24.6667C71.2299 24.6667 74.0001 21.8965 74.0001 18.5C74.0001 15.1035 71.2299 12.3333 67.8334 12.3333L67.8334 12.3333ZM27.7501 32.11L50.2488 54.6087L54.5847 50.2246L50.6101 46.25L58.5834 38.2767L80.1668 59.86L80.1668 64.75C80.1668 66.4844 78.8178 67.8333 77.0835 67.8333L9.25008 67.8333C7.51571 67.8333 6.16675 66.4844 6.16675 64.75L6.16675 53.6934L27.7501 32.11Z" id="Shape" fill="#FFFFFF" fill-rule="evenodd" stroke="none" />
      </g>
    </g>
  </g>
</svg>