<?xml version="1.0" encoding="utf-8"?>
<svg width="254px" height="244px" viewBox="0 0 254 244" version="1.1" xmlns:xlink="http://www.w3.org/1999/xlink" xmlns="http://www.w3.org/2000/svg">
  <g id="img-wrapper">
    <g id="Group-22" transform="translate(4.980641 4.671889)">
      <g id="Group-21" transform="translate(0 131.52356)">
        <path d="M0.957735 0L0.957735 100.205" id="Line-Copy-2" fill="none" fill-rule="evenodd" stroke="#FFFFFF" stroke-width="6" stroke-linecap="square" />
        <path d="M1.91547 100.205L102.181 100.205" id="Line-Copy-3" fill="none" fill-rule="evenodd" stroke="#FFFFFF" stroke-width="6" stroke-linecap="square" />
      </g>
      <g id="Group-21-Copy" transform="matrix(1.2675908E-06 1 -1 1.2675908E-06 101.3938 -0.026677102)">
        <path d="M0.9577 0L0.9577 100.209" id="Line-Copy-2" fill="none" fill-rule="evenodd" stroke="#FFFFFF" stroke-width="6" stroke-linecap="square" />
        <path d="M1.9154 100.209L102.177 100.209" id="Line-Copy-3" fill="none" fill-rule="evenodd" stroke="#FFFFFF" stroke-width="6" stroke-linecap="square" />
      </g>
      <g id="Group-21-Copy-2" transform="matrix(-1 2.6555854E-06 -2.6555854E-06 -1 243.06395 101.16659)">
        <path d="M0.9577 0L0.9577 100.209" id="Line-Copy-2" fill="none" fill-rule="evenodd" stroke="#FFFFFF" stroke-width="6" stroke-linecap="square" />
        <path d="M1.9126 100.209L102.174 100.209" id="Line-Copy-3" fill="none" fill-rule="evenodd" stroke="#FFFFFF" stroke-width="6" stroke-linecap="square" />
      </g>
      <g id="Group-21-Copy-3" transform="matrix(1.2663965E-06 -1 1 1.2663965E-06 141.67027 232.74013)">
        <path d="M0.9577 0L0.9577 100.209" id="Line-Copy-2" fill="none" fill-rule="evenodd" stroke="#FFFFFF" stroke-width="6" stroke-linecap="square" />
        <path d="M1.91517 100.209L102.177 100.209" id="Line-Copy-3" fill="none" fill-rule="evenodd" stroke="#FFFFFF" stroke-width="6" stroke-linecap="square" />
      </g>
    </g>
  </g>
</svg>