<?xml version="1.0" encoding="utf-8"?>
<svg width="80px" height="81px" viewBox="0 0 80 81" version="1.1" xmlns:xlink="http://www.w3.org/1999/xlink" xmlns="http://www.w3.org/2000/svg">
  <defs>
    <filter id="filter_1">
      <feColorMatrix in="SourceGraphic" type="matrix" values="0 0 0 0 0.54509807 0 0 0 0 0.54509807 0 0 0 0 0.54509807 0 0 0 1 0" />
    </filter>
    <path d="M0 0L80 0L80 80L0 80L0 0Z" id="path_1" />
    <clipPath id="mask_1">
      <use xlink:href="#path_1" />
    </clipPath>
  </defs>
  <g id="Info-icon" filter="url(#filter_1)">
    <path d="M0 0L80 0L80 80L0 80L0 0Z" id="Background" fill="none" fill-rule="evenodd" stroke="none" />
    <g clip-path="url(#mask_1)">
      <path d="M40 3.2C19.6949 3.2 3.20001 19.6949 3.20001 40C3.20001 60.3052 19.6949 76.8 40 76.8C60.3052 76.8 76.8 60.3052 76.8 40C76.8 19.6949 60.3052 3.2 40 3.2L40 3.2ZM40 6.4C58.5758 6.4 73.6 21.4243 73.6 40C73.6 58.5757 58.5758 73.6 40 73.6C21.4243 73.6 6.40001 58.5757 6.40001 40C6.40001 21.4243 21.4243 6.4 40 6.4L40 6.4ZM40 17.6C37.3491 17.6 35.2 19.749 35.2 22.4C35.2 25.051 37.3491 27.2 40 27.2C42.651 27.2 44.8 25.051 44.8 22.4C44.8 19.749 42.651 17.6 40 17.6L40 17.6ZM33.6 33.6L33.6 36.8L35.2 36.8L36.8 36.8L36.8 57.6L35.2 57.6L33.6 57.6L33.6 60.8L35.2 60.8L36.8 60.8L43.2 60.8L44.8 60.8L46.4 60.8L46.4 57.6L44.8 57.6L43.2 57.6L43.2 33.6L41.6 33.6L35.2 33.6L33.6 33.6L33.6 33.6Z" id="Shape" fill="#FFFFFF" fill-rule="evenodd" stroke="none" />
    </g>
  </g>
</svg>