<?xml version="1.0" encoding="utf-8"?>
<svg width="176px" height="100px" viewBox="0 0 176 100" version="1.1" xmlns:xlink="http://www.w3.org/1999/xlink" xmlns="http://www.w3.org/2000/svg">
  <defs>
    <filter id="filter_1">
      <feColorMatrix in="SourceGraphic" type="matrix" values="0 0 0 0 0.827451 0 0 0 0 0.827451 0 0 0 0 0.827451 0 0 0 1 0" />
    </filter>
  </defs>
  <g id="landscape-orientation" filter="url(#filter_1)">
    <g id="Group-5" transform="translate(6.4842105 6.0869565)">
      <path d="M1.999 0L161.033 0Q161.131 0 161.229 0.00962573Q161.326 0.0192515 161.423 0.0384102Q161.519 0.057569 161.613 0.0860763Q161.707 0.114584 161.798 0.152165Q161.888 0.189746 161.975 0.236039Q162.062 0.282333 162.143 0.336892Q162.225 0.391452 162.301 0.453752Q162.377 0.516052 162.446 0.585494Q162.516 0.654935 162.578 0.730848Q162.64 0.806761 162.695 0.888415Q162.749 0.970069 162.796 1.05668Q162.842 1.14329 162.879 1.23402Q162.917 1.32474 162.946 1.41872Q162.974 1.5127 162.993 1.60901Q163.012 1.70533 163.022 1.80306Q163.032 1.9008 163.032 1.999L163.032 84.9575Q163.032 85.0557 163.022 85.1535Q163.012 85.2512 162.993 85.3475Q162.974 85.4438 162.946 85.5378Q162.917 85.6318 162.879 85.7225Q162.842 85.8132 162.796 85.8998Q162.749 85.9865 162.695 86.0681Q162.64 86.1498 162.578 86.2257Q162.516 86.3016 162.446 86.371Q162.377 86.4405 162.301 86.5028Q162.225 86.5651 162.143 86.6196Q162.062 86.6742 161.975 86.7205Q161.888 86.7668 161.798 86.8043Q161.707 86.8419 161.613 86.8704Q161.519 86.8989 161.423 86.9181Q161.326 86.9373 161.229 86.9469Q161.131 86.9565 161.033 86.9565L1.999 86.9565Q1.9008 86.9565 1.80306 86.9469Q1.70533 86.9373 1.60901 86.9181Q1.5127 86.8989 1.41872 86.8704Q1.32474 86.8419 1.23402 86.8043Q1.14329 86.7668 1.05668 86.7205Q0.970069 86.6742 0.888415 86.6196Q0.806761 86.5651 0.730848 86.5028Q0.654935 86.4405 0.585494 86.371Q0.516052 86.3016 0.453752 86.2257Q0.391452 86.1498 0.336892 86.0681Q0.282333 85.9865 0.236039 85.8998Q0.189746 85.8132 0.152165 85.7225Q0.114584 85.6318 0.0860763 85.5378Q0.057569 85.4438 0.0384102 85.3475Q0.0192515 85.2512 0.00962573 85.1535Q0 85.0557 0 84.9575L0 1.999Q0 1.9008 0.00962573 1.80306Q0.0192515 1.70533 0.0384102 1.60901Q0.057569 1.5127 0.0860763 1.41872Q0.114584 1.32474 0.152165 1.23402Q0.189746 1.14329 0.236039 1.05668Q0.282333 0.970069 0.336892 0.888415Q0.391452 0.806761 0.453752 0.730848Q0.516052 0.654935 0.585494 0.585494Q0.654935 0.516052 0.730848 0.453752Q0.806761 0.391452 0.888415 0.336892Q0.970069 0.282333 1.05668 0.236039Q1.14329 0.189746 1.23402 0.152165Q1.32474 0.114584 1.41872 0.0860763Q1.5127 0.057569 1.60901 0.0384102Q1.70533 0.0192515 1.80306 0.00962573Q1.9008 0 1.999 0L1.999 0Z" id="Rectangle" fill="none" fill-rule="evenodd" stroke="#808080" stroke-width="8" />
      <g id="Group-4" transform="translate(33.625256 8.347911)">
        <path d="M25.2884 13.913C25.2884 6.22908 33.3756 0 43.3516 0C53.3276 0 61.4147 6.22908 61.4147 13.913C61.4147 21.597 53.3276 27.8261 43.3516 27.8261C33.3756 27.8261 25.2884 21.597 25.2884 13.913Z" id="Ellipse" fill="#D3D3D3" fill-rule="evenodd" stroke="none" />
        <path d="M13.999 33.1019L77.7063 33.1019Q78.0499 33.1019 78.3932 33.1188Q78.7364 33.1356 79.0784 33.1693Q79.4204 33.203 79.7603 33.2534Q80.1003 33.3039 80.4373 33.3709Q80.7744 33.4379 81.1077 33.5214Q81.4411 33.6049 81.77 33.7047Q82.0988 33.8045 82.4224 33.9202Q82.7459 34.036 83.0634 34.1675Q83.3809 34.299 83.6916 34.446Q84.0023 34.5929 84.3053 34.7549Q84.6084 34.9169 84.9032 35.0936Q85.1979 35.2702 85.4837 35.4612Q85.7694 35.6521 86.0454 35.8568Q86.3215 36.0615 86.5871 36.2795Q86.8528 36.4975 87.1074 36.7283Q87.362 36.9591 87.605 37.2021Q87.8481 37.4451 88.0788 37.6998Q88.3096 37.9544 88.5276 38.22Q88.7456 38.4857 88.9504 38.7617Q89.1551 39.0377 89.346 39.3235Q89.5369 39.6092 89.7136 39.904Q89.8903 40.1987 90.0523 40.5018Q90.2143 40.8049 90.3612 41.1156Q90.5081 41.4262 90.6396 41.7437Q90.7711 42.0612 90.8869 42.3848Q91.0027 42.7084 91.1025 43.0372Q91.2022 43.3661 91.2857 43.6994Q91.3692 44.0328 91.4363 44.3698Q91.5033 44.7069 91.5537 45.0468Q91.6042 45.3868 91.6379 45.7288Q91.6715 46.0708 91.6884 46.414Q91.7053 46.7573 91.7053 47.1009L91.7053 74.841L0 74.841L0 47.1009Q0 46.7573 0.0168624 46.414Q0.0337248 46.0708 0.067409 45.7288Q0.101093 45.3868 0.151518 45.0468Q0.201943 44.7069 0.268987 44.3698Q0.336031 44.0328 0.419532 43.6994Q0.503034 43.3661 0.602792 43.0372Q0.70255 42.7084 0.818324 42.3848Q0.934099 42.0612 1.06561 41.7437Q1.19712 41.4262 1.34405 41.1156Q1.49099 40.8049 1.65298 40.5018Q1.81498 40.1987 1.99166 39.904Q2.16833 39.6092 2.35926 39.3235Q2.55018 39.0377 2.7549 38.7617Q2.95961 38.4857 3.17763 38.22Q3.39564 37.9544 3.62642 37.6998Q3.85721 37.4451 4.10021 37.2021Q4.34321 36.9591 4.59785 36.7283Q4.85248 36.4976 5.11813 36.2795Q5.38378 36.0615 5.6598 35.8568Q5.93583 35.6521 6.22157 35.4612Q6.50731 35.2702 6.80207 35.0936Q7.09684 34.9169 7.39992 34.7549Q7.70299 34.5929 8.01366 34.446Q8.32432 34.299 8.64181 34.1675Q8.95931 34.036 9.28288 33.9202Q9.60644 33.8045 9.9353 33.7047Q10.2642 33.6049 10.5975 33.5214Q10.9309 33.4379 11.2679 33.3709Q11.605 33.3039 11.9449 33.2534Q12.2849 33.203 12.6269 33.1693Q12.9689 33.1356 13.3121 33.1188Q13.6553 33.1019 13.999 33.1019Z" id="Rectangle-2" fill="#D3D3D3" fill-rule="evenodd" stroke="none" />
      </g>
    </g>
  </g>
</svg>