<?xml version="1.0" encoding="utf-8"?>
<svg width="240px" height="233px" viewBox="0 0 240 233" version="1.1" xmlns:xlink="http://www.w3.org/1999/xlink" xmlns="http://www.w3.org/2000/svg">
  <g id="large-template-icon-Copy">
    <g id="Group-4" transform="translate(7.2453785 4.9743595)">
      <path d="M45.8486 42.1162L149.946 42.1162L192.808 104.813L192.808 201.1Q192.808 201.247 192.8 201.395Q192.793 201.542 192.779 201.688Q192.764 201.835 192.743 201.98Q192.721 202.126 192.692 202.27Q192.664 202.415 192.628 202.558Q192.592 202.701 192.549 202.842Q192.507 202.982 192.457 203.121Q192.407 203.26 192.351 203.396Q192.295 203.532 192.232 203.665Q192.169 203.798 192.099 203.928Q192.03 204.058 191.954 204.184Q191.878 204.311 191.797 204.433Q191.715 204.555 191.627 204.674Q191.539 204.792 191.446 204.906Q191.352 205.02 191.254 205.129Q191.155 205.238 191.051 205.342Q190.946 205.446 190.837 205.545Q190.728 205.644 190.614 205.737Q190.501 205.831 190.382 205.919Q190.264 206.006 190.141 206.088Q190.019 206.17 189.893 206.246Q189.766 206.321 189.637 206.391Q189.507 206.46 189.374 206.523Q189.24 206.586 189.104 206.642Q188.968 206.699 188.83 206.748Q188.691 206.798 188.55 206.841Q188.409 206.884 188.266 206.919Q188.123 206.955 187.979 206.984Q187.835 207.013 187.689 207.034Q187.543 207.056 187.397 207.07Q187.25 207.085 187.103 207.092Q186.956 207.099 186.809 207.099L45.8486 207.099Q45.7014 207.099 45.5543 207.092Q45.4072 207.085 45.2606 207.07Q45.1141 207.056 44.9684 207.034Q44.8227 207.013 44.6783 206.984Q44.5338 206.955 44.391 206.919Q44.2481 206.884 44.1072 206.841Q43.9663 206.798 43.8276 206.748Q43.689 206.699 43.5529 206.642Q43.4168 206.586 43.2837 206.523Q43.1506 206.46 43.0207 206.391Q42.8908 206.321 42.7645 206.246Q42.6382 206.17 42.5158 206.088Q42.3933 206.006 42.275 205.919Q42.1567 205.831 42.0429 205.737Q41.9291 205.644 41.8199 205.545Q41.7108 205.446 41.6067 205.342Q41.5026 205.238 41.4037 205.129Q41.3048 205.02 41.2113 204.906Q41.1179 204.792 41.0302 204.674Q40.9425 204.555 40.8606 204.433Q40.7788 204.311 40.7031 204.184Q40.6274 204.058 40.558 203.928Q40.4886 203.798 40.4256 203.665Q40.3626 203.532 40.3063 203.396Q40.2499 203.26 40.2003 203.121Q40.1507 202.982 40.1079 202.842Q40.0652 202.701 40.0294 202.558Q39.9936 202.415 39.9649 202.27Q39.9362 202.126 39.9146 201.98Q39.893 201.835 39.8785 201.688Q39.8641 201.542 39.8569 201.395Q39.8496 201.247 39.8496 201.1L39.8496 48.1152Q39.8496 47.968 39.8569 47.8209Q39.8641 47.6738 39.8785 47.5272Q39.893 47.3807 39.9146 47.235Q39.9362 47.0893 39.9649 46.9449Q39.9936 46.8004 40.0294 46.6576Q40.0652 46.5147 40.1079 46.3738Q40.1507 46.2329 40.2003 46.0942Q40.2499 45.9556 40.3063 45.8195Q40.3626 45.6835 40.4256 45.5503Q40.4886 45.4172 40.558 45.2873Q40.6274 45.1574 40.7031 45.0311Q40.7788 44.9048 40.8606 44.7824Q40.9425 44.6599 41.0302 44.5416Q41.1179 44.4233 41.2113 44.3095Q41.3048 44.1957 41.4037 44.0865Q41.5026 43.9774 41.6067 43.8733Q41.7108 43.7692 41.8199 43.6703Q41.9291 43.5714 42.0429 43.4779Q42.1567 43.3845 42.275 43.2968Q42.3933 43.2091 42.5158 43.1272Q42.6382 43.0454 42.7645 42.9697Q42.8908 42.894 43.0207 42.8246Q43.1506 42.7552 43.2837 42.6922Q43.4168 42.6292 43.5529 42.5729Q43.689 42.5165 43.8276 42.4669Q43.9663 42.4173 44.1072 42.3745Q44.2481 42.3318 44.391 42.296Q44.5338 42.2602 44.6783 42.2315Q44.8227 42.2028 44.9684 42.1812Q45.1141 42.1596 45.2606 42.1451Q45.4072 42.1307 45.5543 42.1235Q45.7014 42.1162 45.8486 42.1162Z" id="Rectangle" fill="none" fill-rule="evenodd" stroke="#808080" stroke-width="7" />
      <path d="M150.945 46.4708L150.945 106.281Q150.945 106.38 150.965 106.476Q150.984 106.573 151.021 106.664Q151.059 106.755 151.114 106.836Q151.168 106.918 151.238 106.988Q151.308 107.057 151.389 107.112Q151.471 107.167 151.562 107.204Q151.653 107.242 151.75 107.261Q151.846 107.28 151.944 107.28L190.963 107.28Q190.997 107.28 191.03 107.278Q191.064 107.276 191.097 107.271Q191.13 107.267 191.163 107.26Q191.196 107.253 191.228 107.244Q191.261 107.236 191.292 107.225Q191.324 107.213 191.355 107.2Q191.386 107.187 191.416 107.172Q191.446 107.157 191.474 107.14Q191.503 107.122 191.531 107.103Q191.558 107.084 191.585 107.063Q191.611 107.043 191.636 107.02Q191.661 106.997 191.684 106.973Q191.707 106.949 191.729 106.923Q191.75 106.898 191.77 106.87Q191.79 106.843 191.808 106.815Q191.826 106.787 191.842 106.757Q191.858 106.728 191.872 106.697Q191.886 106.667 191.897 106.635Q191.909 106.604 191.919 106.572Q191.929 106.54 191.936 106.507Q191.944 106.474 191.949 106.441Q191.955 106.408 191.958 106.375Q191.961 106.341 191.962 106.308Q191.963 106.274 191.961 106.241Q191.96 106.207 191.956 106.174Q191.953 106.14 191.947 106.107Q191.941 106.074 191.933 106.042Q191.925 106.009 191.915 105.977Q191.905 105.945 191.892 105.914Q191.88 105.883 191.865 105.852Q191.851 105.822 191.835 105.793Q191.818 105.764 191.8 105.735L152.781 45.925Q152.759 45.8915 152.735 45.8598Q152.71 45.8281 152.683 45.7985Q152.656 45.7689 152.627 45.7415Q152.598 45.7142 152.567 45.6892Q152.535 45.6643 152.502 45.6419Q152.469 45.6196 152.434 45.6Q152.399 45.5804 152.363 45.5636Q152.326 45.5468 152.289 45.533Q152.251 45.5192 152.213 45.5085Q152.174 45.4978 152.135 45.4901Q152.095 45.4825 152.056 45.478Q152.016 45.4736 151.976 45.4723Q151.936 45.4711 151.896 45.473Q151.856 45.475 151.816 45.4801Q151.776 45.4852 151.737 45.4936Q151.698 45.5019 151.66 45.5133Q151.621 45.5247 151.584 45.5391Q151.547 45.5536 151.511 45.5709Q151.475 45.5883 151.44 45.6086Q151.405 45.6288 151.373 45.6517Q151.34 45.6746 151.309 45.7001Q151.278 45.7256 151.249 45.7534Q151.22 45.7813 151.194 45.8114Q151.168 45.8414 151.144 45.8735Q151.12 45.9056 151.098 45.9395Q151.077 45.9734 151.059 46.0089Q151.04 46.0444 151.025 46.0813Q151.009 46.1182 150.996 46.1562Q150.984 46.1942 150.974 46.233Q150.965 46.2719 150.958 46.3114Q150.952 46.351 150.949 46.3909Q150.945 46.4308 150.945 46.4708Z" id="New-shape" fill="none" fill-rule="evenodd" stroke="#808080" stroke-width="5" />
      <path d="M39.8496 0L39.8496 29.0171" id="Line" fill="none" fill-rule="evenodd" stroke="#808080" stroke-width="6" stroke-linecap="square" />
      <path d="M0 42.1162L28.1765 42.1162" id="Line-Copy" fill="none" fill-rule="evenodd" stroke="#808080" stroke-width="6" stroke-linecap="square" />
    </g>
  </g>
</svg>