<?xml version="1.0" encoding="utf-8"?>
<svg width="55px" height="72px" viewBox="0 0 55 72" version="1.1" xmlns:xlink="http://www.w3.org/1999/xlink" xmlns="http://www.w3.org/2000/svg">
  <defs>
    <path d="M0 0L55 0L55 72L0 72L0 0Z" id="path_1" />
    <clipPath id="mask_1">
      <use xlink:href="#path_1" />
    </clipPath>
  </defs>
  <g id="lock-fill">
    <g id="Lock-icon">
      <path d="M0 0L55 0L55 72L0 72L0 0Z" id="Background" fill="none" fill-rule="evenodd" stroke="none" />
      <g clip-path="url(#mask_1)">
        <path d="M27.3072 0C21.1846 0 15.895 2.54207 12.5957 6.66346C9.2964 10.7849 7.92261 16.1286 7.92261 21.8942L7.92261 24.9231L16.2303 24.9231L16.2303 21.8942C16.2303 17.524 17.312 14.0841 19.0861 11.8558C20.8601 9.6274 23.2724 8.30769 27.3072 8.30769C31.3529 8.30769 33.7543 9.55168 35.5284 11.7692C37.3024 13.9868 38.3841 17.47 38.3841 21.8942L38.3841 24.9231L46.6918 24.9231L46.6918 21.8942C46.6918 16.0962 45.2315 10.6983 41.9322 6.57692C38.6329 2.45553 33.419 0 27.3072 0L27.3072 0ZM7.92341 27.6923C3.33688 27.6923 -0.384277 31.4135 -0.384277 36L-0.384277 63.6923C-0.384277 68.2789 3.33688 72 7.92341 72L46.6926 72C51.2792 72 55.0003 68.2789 55.0003 63.6923L55.0003 36C55.0003 31.4135 51.2792 27.6923 46.6926 27.6923L7.92341 27.6923ZM27.3085 41.5384C30.3698 41.5384 32.8469 44.0155 32.8469 47.0768C32.8469 49.1213 31.7328 50.8737 30.0777 51.8364L30.0777 58.1537C30.0777 59.679 28.8337 60.923 27.3085 60.923C25.7832 60.923 24.5393 59.679 24.5393 58.1537L24.5393 51.8364C22.8842 50.8737 21.77 49.1213 21.77 47.0768C21.77 44.0155 24.2472 41.5384 27.3085 41.5384L27.3085 41.5384Z" id="Shape" fill="#FFFFFF" fill-rule="evenodd" stroke="none" />
      </g>
    </g>
  </g>
</svg>