<?xml version="1.0" encoding="utf-8"?>
<svg width="80px" height="80px" viewBox="0 0 80 80" version="1.1" xmlns:xlink="http://www.w3.org/1999/xlink" xmlns="http://www.w3.org/2000/svg">
  <defs>
    <path d="M0 0L80 0L80 80L0 80L0 0Z" id="path_1" />
    <clipPath id="mask_1">
      <use xlink:href="#path_1" />
    </clipPath>
  </defs>
  <g id="lock-icon">
    <g id="Lock-icon">
      <path d="M0 0L80 0L80 80L0 80L0 0Z" id="Background" fill="none" fill-rule="evenodd" stroke="none" />
      <g clip-path="url(#mask_1)">
        <path d="M40.0001 4.79999C29.3813 4.79999 20.8001 13.3812 20.8001 24L20.8001 32L14.4001 32C11.7688 32 9.6001 34.1687 9.6001 36.8L9.6001 75.2C9.6001 77.8312 11.7688 80 14.4001 80L65.6001 80C68.2314 80 70.4001 77.8312 70.4001 75.2L70.4001 36.8C70.4001 34.1687 68.2314 32 65.6001 32L59.2001 32L59.2001 24C59.2001 13.3812 50.6189 4.79999 40.0001 4.79999L40.0001 4.79999ZM40.0001 7.99999C48.9063 7.99999 56.0001 15.0937 56.0001 24L56.0001 32L24.0001 32L24.0001 24C24.0001 15.0937 31.0938 7.99999 40.0001 7.99999L40.0001 7.99999ZM14.4001 35.2L65.6001 35.2C66.4876 35.2 67.2001 35.9125 67.2001 36.8L67.2001 75.2C67.2001 76.0875 66.4876 76.8 65.6001 76.8L14.4001 76.8C13.5126 76.8 12.8001 76.0875 12.8001 75.2L12.8001 36.8C12.8001 35.9125 13.5126 35.2 14.4001 35.2L14.4001 35.2ZM40.0001 48C37.2814 48 35.2001 50.0812 35.2001 52.8C35.2001 54.2375 35.8376 55.5 36.8001 56.3L36.8001 60.8C36.8001 62.5625 38.2376 64 40.0001 64C41.7626 64 43.2001 62.5625 43.2001 60.8L43.2001 56.3C44.1626 55.5 44.8001 54.2375 44.8001 52.8C44.8001 50.0812 42.7189 48 40.0001 48L40.0001 48Z" id="Shape" fill="#FFFFFF" fill-rule="evenodd" stroke="none" />
      </g>
    </g>
  </g>
</svg>