<svg xmlns="http://www.w3.org/2000/svg"   id="more"><path fill="#212121" d="M4,6.75 C4.69036,6.75 5.25,7.30964 5.25,8 C5.25,8.69036 4.69036,9.25 4,9.25 C3.30964,9.25 2.75,8.69036 2.75,8 C2.75,7.30964 3.30964,6.75 4,6.75 Z M8,6.75 C8.69036,6.75 9.25,7.30964 9.25,8 C9.25,8.69036 8.69036,9.25 8,9.25 C7.30964,9.25 6.75,8.69036 6.75,8 C6.75,7.30964 7.30964,6.75 8,6.75 Z M12,6.75 C12.6904,6.75 13.25,7.30964 13.25,8 C13.25,8.69036 12.6904,9.25 12,9.25 C11.3096,9.25 10.75,8.69036 10.75,8 C10.75,7.30964 11.3096,6.75 12,6.75 Z"></path></svg>
