<?xml version="1.0" encoding="utf-8"?>
<svg width="413px" height="413px" viewBox="0 0 413 413" version="1.1" xmlns:xlink="http://www.w3.org/1999/xlink" xmlns="http://www.w3.org/2000/svg">
  <defs>
    <linearGradient x1="0" y1="0" x2="1" y2="1" id="gradient_1">
      <stop offset="0" stop-color="#FF06A8" />
      <stop offset="1" stop-color="#FF0000" />
    </linearGradient>
  </defs>
  <g id="phorge-icon">
    <path d="M51.999 5.00003L362.001 5.00003Q363.106 5.00003 364.209 5.05423Q365.312 5.10844 366.412 5.21671Q367.511 5.32499 368.604 5.48708Q369.696 5.64917 370.78 5.86467Q371.863 6.08018 372.935 6.34859Q374.006 6.61701 375.064 6.93767Q376.121 7.25834 377.161 7.63049Q378.201 8.00264 379.221 8.42537Q380.242 8.84811 381.241 9.32042Q382.239 9.79272 383.213 10.3135Q384.188 10.8342 385.135 11.4021Q386.083 11.97 387.001 12.5837Q387.92 13.1974 388.807 13.8555Q389.694 14.5135 390.548 15.2143Q391.402 15.9151 392.22 16.657Q393.039 17.3988 393.82 18.1799Q394.601 18.961 395.343 19.7795Q396.085 20.598 396.786 21.452Q397.487 22.3059 398.145 23.1932Q398.803 24.0804 399.416 24.9989Q400.03 25.9174 400.598 26.8649Q401.166 27.8124 401.687 28.7866Q402.207 29.7609 402.68 30.7595Q403.152 31.7581 403.575 32.7787Q403.997 33.7992 404.37 34.8393Q404.742 35.8794 405.062 36.9365Q405.383 37.9936 405.651 39.0652Q405.92 40.1367 406.135 41.2202Q406.351 42.3036 406.513 43.3963Q406.675 44.489 406.783 45.5884Q406.892 46.6877 406.946 47.791Q407 48.8944 407 49.999L407 360.001Q407 361.106 406.946 362.209Q406.892 363.312 406.783 364.412Q406.675 365.511 406.513 366.604Q406.351 367.696 406.135 368.78Q405.92 369.863 405.651 370.935Q405.383 372.006 405.062 373.064Q404.742 374.121 404.37 375.161Q403.997 376.201 403.575 377.221Q403.152 378.242 402.68 379.241Q402.207 380.239 401.687 381.213Q401.166 382.188 400.598 383.135Q400.03 384.083 399.416 385.001Q398.803 385.92 398.144 386.807Q397.486 387.694 396.786 388.548Q396.085 389.402 395.343 390.221Q394.601 391.039 393.82 391.82Q393.039 392.601 392.22 393.343Q391.402 394.085 390.548 394.786Q389.694 395.487 388.807 396.145Q387.92 396.803 387.001 397.416Q386.083 398.03 385.135 398.598Q384.188 399.166 383.213 399.687Q382.239 400.207 381.241 400.68Q380.242 401.152 379.221 401.575Q378.201 401.997 377.161 402.37Q376.121 402.742 375.064 403.062Q374.006 403.383 372.935 403.651Q371.863 403.92 370.78 404.135Q369.696 404.351 368.604 404.513Q367.511 404.675 366.412 404.783Q365.312 404.892 364.209 404.946Q363.106 405 362.001 405L51.999 405Q50.8943 405 49.791 404.946Q48.6877 404.892 47.5883 404.783Q46.489 404.675 45.3963 404.513Q44.3036 404.351 43.2201 404.135Q42.1367 403.92 41.0651 403.651Q39.9936 403.383 38.9365 403.062Q37.8794 402.742 36.8393 402.37Q35.7992 401.997 34.7786 401.575Q33.758 401.152 32.7594 400.68Q31.7608 400.207 30.7866 399.687Q29.8124 399.166 28.8649 398.598Q27.9174 398.03 26.9989 397.416Q26.0804 396.803 25.1931 396.145Q24.3059 395.487 23.4519 394.786Q22.598 394.085 21.7795 393.343Q20.961 392.601 20.1799 391.82Q19.3988 391.039 18.6569 390.221Q17.9151 389.402 17.2143 388.548Q16.5135 387.694 15.8555 386.807Q15.1974 385.92 14.5837 385.001Q13.97 384.083 13.4021 383.135Q12.8342 382.188 12.3134 381.213Q11.7927 380.239 11.3204 379.241Q10.8481 378.242 10.4253 377.221Q10.0026 376.201 9.63046 375.161Q9.25831 374.121 8.93764 373.064Q8.61697 372.006 8.34856 370.935Q8.08015 369.863 7.86464 368.78Q7.64913 367.696 7.48705 366.604Q7.32496 365.511 7.21668 364.412Q7.10841 363.312 7.0542 362.209Q7 361.106 7 360.001L7 49.999Q7 48.8944 7.0542 47.791Q7.10841 46.6877 7.21668 45.5884Q7.32496 44.489 7.48705 43.3963Q7.64913 42.3036 7.86464 41.2202Q8.08015 40.1367 8.34856 39.0652Q8.61697 37.9936 8.93764 36.9365Q9.25831 35.8794 9.63046 34.8393Q10.0026 33.7992 10.4253 32.7787Q10.8481 31.7581 11.3204 30.7595Q11.7927 29.7609 12.3134 28.7866Q12.8342 27.8124 13.4021 26.8649Q13.97 25.9174 14.5837 24.9989Q15.1974 24.0804 15.8555 23.1932Q16.5135 22.3059 17.2143 21.452Q17.9151 20.598 18.6569 19.7795Q19.3988 18.961 20.1799 18.1799Q20.961 17.3988 21.7795 16.657Q22.598 15.9151 23.4519 15.2143Q24.3059 14.5135 25.1931 13.8555Q26.0804 13.1974 26.9989 12.5837Q27.9174 11.97 28.8649 11.4021Q29.8124 10.8342 30.7866 10.3135Q31.7608 9.79272 32.7594 9.32042Q33.7581 8.84811 34.7786 8.42537Q35.7992 8.00264 36.8393 7.63049Q37.8794 7.25834 38.9365 6.93767Q39.9936 6.61701 41.0651 6.34859Q42.1367 6.08018 43.2201 5.86467Q44.3036 5.64916 45.3963 5.48708Q46.489 5.32499 47.5883 5.21671Q48.6877 5.10844 49.791 5.05423Q50.8943 5.00003 51.999 5.00003L51.999 5.00003Z" id="Rectangle" fill="url(#gradient_1)" fill-rule="evenodd" stroke="none" />
    <path d="M78.0002 324C78.0002 324 60.5003 221.5 78.0002 162C95.5 102.5 183 -6.99996 296 162C409 331.001 208 324 207 324C206 324 207 244 207 244C207 244 283.333 241.667 280 201C276.667 160.333 258 148 230 143C202 138 183 151.75 174 180C165 208.25 174 324 174 324L78.0002 324Z" id="New-shape" fill="#FFFFFF" fill-rule="evenodd" stroke="none" />
    <path d="M217 192C217 184.82 223.268 179 231 179C238.732 179 245 184.82 245 192C245 199.18 238.732 205 231 205C223.268 205 217 199.18 217 192Z" id="Ellipse" fill="#FFFFFF" fill-rule="evenodd" stroke="none" />
  </g>
</svg>