<?xml version="1.0" encoding="utf-8"?>
<svg width="407px" height="409px" viewBox="0 0 407 409" version="1.1" xmlns:xlink="http://www.w3.org/1999/xlink" xmlns="http://www.w3.org/2000/svg">
  <defs>
    <linearGradient x1="0" y1="0" x2="1" y2="1" id="gradient_1">
      <stop offset="0" stop-color="#FF06A8" />
      <stop offset="1" stop-color="#FF0000" />
    </linearGradient>
  </defs>
  <g id="phorge-logo">
    <path d="M47.999 3L358.001 3Q359.106 3 360.209 3.0542Q361.312 3.10841 362.412 3.21668Q363.511 3.32496 364.604 3.48705Q365.696 3.64913 366.78 3.86464Q367.863 4.08015 368.935 4.34856Q370.006 4.61697 371.064 4.93764Q372.121 5.25831 373.161 5.63046Q374.201 6.00261 375.221 6.42534Q376.242 6.84808 377.241 7.32039Q378.239 7.79269 379.213 8.31343Q380.188 8.83416 381.135 9.40207Q382.083 9.96998 383.001 10.5837Q383.92 11.1974 384.807 11.8555Q385.694 12.5135 386.548 13.2143Q387.402 13.9151 388.22 14.6569Q389.039 15.3988 389.82 16.1799Q390.601 16.961 391.343 17.7795Q392.085 18.598 392.786 19.4519Q393.486 20.3059 394.145 21.1931Q394.803 22.0804 395.416 22.9989Q396.03 23.9174 396.598 24.8649Q397.166 25.8124 397.687 26.7866Q398.207 27.7608 398.68 28.7594Q399.152 29.758 399.575 30.7786Q399.997 31.7992 400.369 32.8393Q400.742 33.8794 401.062 34.9365Q401.383 35.9936 401.651 37.0651Q401.92 38.1367 402.135 39.2201Q402.351 40.3036 402.513 41.3963Q402.675 42.489 402.783 43.5883Q402.892 44.6877 402.946 45.791Q403 46.8943 403 47.999L403 358.001Q403 359.106 402.946 360.209Q402.892 361.312 402.783 362.412Q402.675 363.511 402.513 364.604Q402.351 365.696 402.135 366.78Q401.92 367.863 401.651 368.935Q401.383 370.006 401.062 371.064Q400.742 372.121 400.369 373.161Q399.997 374.201 399.575 375.221Q399.152 376.242 398.68 377.241Q398.207 378.239 397.687 379.213Q397.166 380.188 396.598 381.135Q396.03 382.083 395.416 383.001Q394.802 383.92 394.144 384.807Q393.486 385.694 392.786 386.548Q392.085 387.402 391.343 388.22Q390.601 389.039 389.82 389.82Q389.039 390.601 388.22 391.343Q387.402 392.085 386.548 392.786Q385.694 393.486 384.807 394.145Q383.92 394.803 383.001 395.416Q382.083 396.03 381.135 396.598Q380.188 397.166 379.213 397.687Q378.239 398.207 377.241 398.68Q376.242 399.152 375.221 399.575Q374.201 399.997 373.161 400.369Q372.121 400.742 371.064 401.062Q370.006 401.383 368.935 401.651Q367.863 401.92 366.78 402.135Q365.696 402.351 364.604 402.513Q363.511 402.675 362.412 402.783Q361.312 402.892 360.209 402.946Q359.106 403 358.001 403L47.999 403Q46.8943 403 45.791 402.946Q44.6877 402.892 43.5883 402.783Q42.489 402.675 41.3963 402.513Q40.3036 402.351 39.2201 402.135Q38.1367 401.92 37.0651 401.651Q35.9936 401.383 34.9365 401.062Q33.8794 400.742 32.8393 400.369Q31.7992 399.997 30.7786 399.575Q29.758 399.152 28.7594 398.68Q27.7608 398.207 26.7866 397.687Q25.8124 397.166 24.8649 396.598Q23.9174 396.03 22.9989 395.416Q22.0804 394.802 21.1931 394.144Q20.3059 393.486 19.4519 392.786Q18.598 392.085 17.7795 391.343Q16.961 390.601 16.1799 389.82Q15.3988 389.039 14.6569 388.22Q13.9151 387.402 13.2143 386.548Q12.5135 385.694 11.8555 384.807Q11.1974 383.92 10.5837 383.001Q9.96998 382.083 9.40207 381.135Q8.83416 380.188 8.31343 379.213Q7.79269 378.239 7.32039 377.241Q6.84808 376.242 6.42534 375.221Q6.00261 374.201 5.63046 373.161Q5.25831 372.121 4.93764 371.064Q4.61697 370.006 4.34856 368.935Q4.08015 367.863 3.86464 366.78Q3.64913 365.696 3.48705 364.604Q3.32496 363.511 3.21668 362.412Q3.10841 361.312 3.0542 360.209Q3 359.106 3 358.001L3 47.999Q3 46.8943 3.0542 45.791Q3.10841 44.6877 3.21668 43.5883Q3.32496 42.489 3.48705 41.3963Q3.64913 40.3036 3.86464 39.2201Q4.08015 38.1367 4.34856 37.0651Q4.61697 35.9936 4.93764 34.9365Q5.25831 33.8794 5.63046 32.8393Q6.00261 31.7992 6.42534 30.7786Q6.84808 29.758 7.32039 28.7594Q7.79269 27.7608 8.31343 26.7866Q8.83416 25.8124 9.40207 24.8649Q9.96998 23.9174 10.5837 22.9989Q11.1974 22.0804 11.8555 21.1931Q12.5135 20.3059 13.2143 19.4519Q13.9151 18.598 14.6569 17.7795Q15.3988 16.961 16.1799 16.1799Q16.961 15.3988 17.7795 14.6569Q18.598 13.9151 19.4519 13.2143Q20.3059 12.5135 21.1931 11.8555Q22.0804 11.1974 22.9989 10.5837Q23.9174 9.96998 24.8649 9.40207Q25.8124 8.83416 26.7866 8.31343Q27.7608 7.79269 28.7594 7.32039Q29.758 6.84808 30.7786 6.42534Q31.7992 6.00261 32.8393 5.63046Q33.8794 5.25831 34.9365 4.93764Q35.9936 4.61697 37.0651 4.34856Q38.1367 4.08015 39.2201 3.86464Q40.3036 3.64913 41.3963 3.48705Q42.489 3.32496 43.5883 3.21668Q44.6877 3.10841 45.791 3.0542Q46.8943 3 47.999 3Z" id="Rectangle" fill="url(#gradient_1)" fill-rule="evenodd" stroke="none" />
    <path d="M73.7777 322.152C73.7777 322.152 56.2779 219.652 73.7777 160.152C91.2775 100.652 178.778 -8.84816 291.777 160.152C404.777 329.152 203.778 322.152 202.778 322.152C201.777 322.152 202.778 242.152 202.778 242.152C202.778 242.152 279.111 239.819 275.777 199.152C272.444 158.485 253.778 146.152 225.778 141.152C197.778 136.152 178.778 149.902 169.778 178.152C160.778 206.402 169.778 322.152 169.778 322.152L73.7777 322.152Z" id="New-shape" fill="#FFFFFF" fill-rule="evenodd" stroke="none" />
  </g>
</svg>