<svg width="320" height="116" viewBox="0 0 320 116" fill="none" xmlns="http://www.w3.org/2000/svg">
<path fill-rule="evenodd" clip-rule="evenodd" d="M15.5892 81.5879C15.5892 81.5879 11.8915 61.0378 15.5892 49.1087C19.287 37.1796 37.7759 15.226 61.6531 49.1087C85.5302 82.9914 43.0585 81.5879 42.8472 81.5879C42.6359 81.588 42.8472 65.5488 42.8472 65.5488C42.8472 65.5488 58.9766 65.081 58.2722 56.9278C57.5679 48.7745 53.6236 46.3018 47.7072 45.2994C41.7907 44.2969 37.776 47.0537 35.8742 52.7175C33.9725 58.3813 35.8742 81.5879 35.8742 81.5879L15.5892 81.5879Z" fill="url(#paint0_linear_43_12)"/>
<path d="M111.137 55.1973C111.09 56.3105 110.861 57.3125 110.451 58.2031C110.053 59.082 109.52 59.8613 108.852 60.541C108.195 61.2207 107.434 61.8008 106.566 62.2812C105.699 62.7617 104.773 63.1602 103.789 63.4766C102.816 63.7812 101.809 64.0098 100.766 64.1621C99.7227 64.3027 98.7031 64.373 97.707 64.373C97.0508 64.373 96.3184 64.3496 95.5098 64.3027C94.7012 64.2559 93.834 64.1504 92.9082 63.9863L92.9785 71.0352L89.2695 71.1758V46.3027C90.5117 45.8926 91.7012 45.582 92.8379 45.3711C93.9863 45.1602 95 45.002 95.8789 44.8965C96.9102 44.7793 97.877 44.709 98.7793 44.6855C99.541 44.6855 100.379 44.75 101.293 44.8789C102.219 44.9961 103.15 45.207 104.088 45.5117C105.025 45.8164 105.928 46.2266 106.795 46.7422C107.674 47.2578 108.441 47.9082 109.098 48.6934C109.766 49.4668 110.287 50.3926 110.662 51.4707C111.037 52.5371 111.195 53.7793 111.137 55.1973ZM98.7793 48.5703C98.1113 48.5703 97.4375 48.5938 96.7578 48.6406C96.1602 48.6875 95.5156 48.7754 94.8242 48.9043C94.1328 49.0215 93.459 49.1973 92.8027 49.4316L92.873 60.3828C93.5996 60.5234 94.3145 60.6172 95.0176 60.6641C95.7324 60.7109 96.4004 60.7344 97.0215 60.7344C97.6895 60.7344 98.4043 60.7051 99.166 60.6465C99.9277 60.5762 100.684 60.459 101.434 60.2949C102.184 60.1191 102.904 59.8789 103.596 59.5742C104.287 59.2695 104.896 58.8828 105.424 58.4141C105.951 57.9336 106.373 57.3594 106.689 56.6914C107.006 56.0234 107.164 55.2383 107.164 54.3359C107.164 53.4336 106.965 52.6309 106.566 51.9277C106.18 51.2246 105.617 50.6328 104.879 50.1523C104.152 49.6602 103.273 49.2793 102.242 49.0098C101.211 48.7402 100.057 48.5938 98.7793 48.5703ZM118.572 44.6504L118.467 55.3379C119.111 54.6348 119.797 54.084 120.523 53.6855C121.25 53.2754 121.93 52.9648 122.562 52.7539C123.289 52.5195 124.01 52.3613 124.725 52.2793C126.037 52.2793 127.232 52.5137 128.311 52.9824C129.389 53.4512 130.314 54.125 131.088 55.0039C131.861 55.8828 132.471 56.9551 132.916 58.2207C133.373 59.4746 133.631 60.8926 133.689 62.4746C133.689 63.3066 133.678 64.1562 133.654 65.0234C133.643 65.8906 133.602 66.7402 133.531 67.5723C133.473 68.4043 133.385 69.1953 133.268 69.9453C133.162 70.6953 133.016 71.3691 132.828 71.9668L128.82 71.6855C129.16 70.5605 129.4 69.4648 129.541 68.3984C129.693 67.332 129.799 66.377 129.857 65.5332C129.916 64.5488 129.934 63.6113 129.91 62.7207C129.852 61.4668 129.635 60.4004 129.26 59.5215C128.885 58.6426 128.422 57.9277 127.871 57.377C127.332 56.8145 126.734 56.4102 126.078 56.1641C125.422 55.9062 124.777 55.7773 124.145 55.7773C123.477 55.8359 122.803 56.0293 122.123 56.3574C121.537 56.6387 120.91 57.0781 120.242 57.6758C119.574 58.2617 118.953 59.0938 118.379 60.1719L118.273 71.8262L114.828 71.8965L114.529 44.791L118.572 44.6504ZM155.873 62.4746C155.873 63.9512 155.627 65.3164 155.135 66.5703C154.643 67.8242 153.969 68.9141 153.113 69.8398C152.258 70.7656 151.256 71.4863 150.107 72.002C148.959 72.5293 147.734 72.793 146.434 72.793C145.133 72.793 143.914 72.5469 142.777 72.0547C141.641 71.5625 140.645 70.8652 139.789 69.9629C138.945 69.0488 138.277 67.959 137.785 66.6934C137.293 65.4277 137.047 64.0215 137.047 62.4746C137.047 60.916 137.293 59.5039 137.785 58.2383C138.277 56.9609 138.945 55.8711 139.789 54.9688C140.645 54.0664 141.641 53.3691 142.777 52.877C143.914 52.3848 145.133 52.1387 146.434 52.1387C147.734 52.1387 148.959 52.4023 150.107 52.9297C151.256 53.4453 152.258 54.166 153.113 55.0918C153.969 56.0059 154.643 57.0957 155.135 58.3613C155.627 59.6152 155.873 60.9863 155.873 62.4746ZM152.164 62.4395C152.164 61.5957 152.059 60.7461 151.848 59.8906C151.637 59.0234 151.303 58.25 150.846 57.5703C150.389 56.8789 149.797 56.3164 149.07 55.8828C148.344 55.4492 147.465 55.2324 146.434 55.2324C145.438 55.2324 144.582 55.4492 143.867 55.8828C143.152 56.3164 142.566 56.8789 142.109 57.5703C141.652 58.25 141.318 59.0234 141.107 59.8906C140.896 60.7461 140.791 61.5957 140.791 62.4395C140.791 63.2832 140.902 64.1328 141.125 64.9883C141.359 65.8438 141.711 66.6172 142.18 67.3086C142.648 67.9883 143.234 68.5449 143.938 68.9785C144.652 69.4121 145.484 69.6289 146.434 69.6289C147.43 69.6289 148.285 69.4121 149 68.9785C149.727 68.5449 150.324 67.9883 150.793 67.3086C151.262 66.6172 151.607 65.8438 151.83 64.9883C152.053 64.1328 152.164 63.2832 152.164 62.4395ZM167.352 45.6875L167.229 53.5449L174.049 53.3164L173.785 56.6035L167.193 56.7793L167.053 72.1074L163.344 72.1953L163.643 56.8848L157.561 57.0254L157.631 53.791L163.713 53.6152L163.854 45.916L167.352 45.6875ZM194.334 62.4746C194.334 63.9512 194.088 65.3164 193.596 66.5703C193.104 67.8242 192.43 68.9141 191.574 69.8398C190.719 70.7656 189.717 71.4863 188.568 72.002C187.42 72.5293 186.195 72.793 184.895 72.793C183.594 72.793 182.375 72.5469 181.238 72.0547C180.102 71.5625 179.105 70.8652 178.25 69.9629C177.406 69.0488 176.738 67.959 176.246 66.6934C175.754 65.4277 175.508 64.0215 175.508 62.4746C175.508 60.916 175.754 59.5039 176.246 58.2383C176.738 56.9609 177.406 55.8711 178.25 54.9688C179.105 54.0664 180.102 53.3691 181.238 52.877C182.375 52.3848 183.594 52.1387 184.895 52.1387C186.195 52.1387 187.42 52.4023 188.568 52.9297C189.717 53.4453 190.719 54.166 191.574 55.0918C192.43 56.0059 193.104 57.0957 193.596 58.3613C194.088 59.6152 194.334 60.9863 194.334 62.4746ZM190.625 62.4395C190.625 61.5957 190.52 60.7461 190.309 59.8906C190.098 59.0234 189.764 58.25 189.307 57.5703C188.85 56.8789 188.258 56.3164 187.531 55.8828C186.805 55.4492 185.926 55.2324 184.895 55.2324C183.898 55.2324 183.043 55.4492 182.328 55.8828C181.613 56.3164 181.027 56.8789 180.57 57.5703C180.113 58.25 179.779 59.0234 179.568 59.8906C179.357 60.7461 179.252 61.5957 179.252 62.4395C179.252 63.2832 179.363 64.1328 179.586 64.9883C179.82 65.8438 180.172 66.6172 180.641 67.3086C181.109 67.9883 181.695 68.5449 182.398 68.9785C183.113 69.4121 183.945 69.6289 184.895 69.6289C185.891 69.6289 186.746 69.4121 187.461 68.9785C188.188 68.5449 188.785 67.9883 189.254 67.3086C189.723 66.6172 190.068 65.8438 190.291 64.9883C190.514 64.1328 190.625 63.2832 190.625 62.4395ZM200.521 53.1758C200.65 51.9453 200.896 50.7617 201.26 49.625C201.635 48.4766 202.156 47.4629 202.824 46.584C203.504 45.7051 204.354 45.002 205.373 44.4746C206.393 43.9473 207.617 43.6836 209.047 43.6836C209.82 43.6836 210.635 43.8184 211.49 44.0879C212.357 44.3457 213.213 44.8438 214.057 45.582L212.316 48.5352C211.684 48.0898 211.068 47.7793 210.471 47.6035C209.873 47.416 209.34 47.2988 208.871 47.252C208.32 47.2051 207.805 47.2227 207.324 47.3047C206.855 47.4219 206.439 47.6094 206.076 47.8672C205.713 48.1133 205.396 48.4648 205.127 48.9219C204.857 49.3789 204.635 49.959 204.459 50.6621C204.283 51.3535 204.143 52.2031 204.037 53.2109L211.49 53.2461L211.104 56.709L203.826 56.6035V58.1504C203.814 59.6973 203.809 61.2793 203.809 62.8965C203.809 63.5879 203.803 64.3262 203.791 65.1113C203.791 65.8848 203.791 66.6758 203.791 67.4844C203.791 68.293 203.785 69.1133 203.773 69.9453C203.773 70.7656 203.768 71.5625 203.756 72.3359L200.117 72.4062C200.152 69.8516 200.182 67.6602 200.205 65.832C200.229 64.0039 200.252 62.4863 200.275 61.2793C200.299 59.873 200.316 58.707 200.328 57.7812V56.5684L196.338 56.498V53.1406L200.521 53.1758ZM231.635 62.4746C231.635 63.9512 231.389 65.3164 230.896 66.5703C230.404 67.8242 229.73 68.9141 228.875 69.8398C228.02 70.7656 227.018 71.4863 225.869 72.002C224.721 72.5293 223.496 72.793 222.195 72.793C220.895 72.793 219.676 72.5469 218.539 72.0547C217.402 71.5625 216.406 70.8652 215.551 69.9629C214.707 69.0488 214.039 67.959 213.547 66.6934C213.055 65.4277 212.809 64.0215 212.809 62.4746C212.809 60.916 213.055 59.5039 213.547 58.2383C214.039 56.9609 214.707 55.8711 215.551 54.9688C216.406 54.0664 217.402 53.3691 218.539 52.877C219.676 52.3848 220.895 52.1387 222.195 52.1387C223.496 52.1387 224.721 52.4023 225.869 52.9297C227.018 53.4453 228.02 54.166 228.875 55.0918C229.73 56.0059 230.404 57.0957 230.896 58.3613C231.389 59.6152 231.635 60.9863 231.635 62.4746ZM227.926 62.4395C227.926 61.5957 227.82 60.7461 227.609 59.8906C227.398 59.0234 227.064 58.25 226.607 57.5703C226.15 56.8789 225.559 56.3164 224.832 55.8828C224.105 55.4492 223.227 55.2324 222.195 55.2324C221.199 55.2324 220.344 55.4492 219.629 55.8828C218.914 56.3164 218.328 56.8789 217.871 57.5703C217.414 58.25 217.08 59.0234 216.869 59.8906C216.658 60.7461 216.553 61.5957 216.553 62.4395C216.553 63.2832 216.664 64.1328 216.887 64.9883C217.121 65.8438 217.473 66.6172 217.941 67.3086C218.41 67.9883 218.996 68.5449 219.699 68.9785C220.414 69.4121 221.246 69.6289 222.195 69.6289C223.191 69.6289 224.047 69.4121 224.762 68.9785C225.488 68.5449 226.086 67.9883 226.555 67.3086C227.023 66.6172 227.369 65.8438 227.592 64.9883C227.814 64.1328 227.926 63.2832 227.926 62.4395ZM248.791 61.1035C248.779 60.5293 248.727 60.0312 248.633 59.6094C248.551 59.1875 248.439 58.8242 248.299 58.5195C248.17 58.2148 248.018 57.9629 247.842 57.7637C247.678 57.5645 247.508 57.4004 247.332 57.2715C246.922 56.9785 246.459 56.8379 245.943 56.8496C245.615 56.8965 245.264 57.0371 244.889 57.2715C244.525 57.4941 244.15 57.7871 243.764 58.1504C243.377 58.502 242.984 58.9062 242.586 59.3633C242.199 59.8086 241.824 60.2715 241.461 60.752C241.098 61.2207 240.752 61.6895 240.424 62.1582C240.096 62.627 239.803 63.0547 239.545 63.4414C239.557 64.3203 239.574 65.1875 239.598 66.043C239.621 66.8867 239.639 67.6777 239.65 68.416C239.674 69.1426 239.697 69.8047 239.721 70.4023C239.756 70.9883 239.791 71.4629 239.826 71.8262L236.047 72.3008C235.977 70.2852 235.912 68.4629 235.854 66.834C235.795 65.1934 235.742 63.7285 235.695 62.4395C235.648 61.1504 235.607 60.0137 235.572 59.0293C235.549 58.0449 235.525 57.1953 235.502 56.4805C235.455 54.8047 235.42 53.5625 235.396 52.7539L239.404 52.6836C239.416 53.3984 239.422 54.1309 239.422 54.8809C239.434 55.6191 239.445 56.2988 239.457 56.9199C239.469 57.6465 239.475 58.3555 239.475 59.0469C239.814 58.5078 240.225 57.916 240.705 57.2715C241.197 56.627 241.748 56.0176 242.357 55.4434C242.979 54.8691 243.652 54.3711 244.379 53.9492C245.117 53.5156 245.902 53.2461 246.734 53.1406C247.672 53.0938 248.527 53.293 249.301 53.7383C249.629 53.9258 249.951 54.1777 250.268 54.4941C250.596 54.7988 250.895 55.1973 251.164 55.6895C251.445 56.1699 251.68 56.75 251.867 57.4297C252.055 58.0977 252.184 58.8887 252.254 59.8027L248.791 61.1035ZM273.77 51.5234L273.664 71.7207C273.652 72.4824 273.553 73.2383 273.365 73.9883C273.178 74.75 272.896 75.4824 272.521 76.1855C272.158 76.9004 271.701 77.5684 271.15 78.1895C270.611 78.8223 269.984 79.3789 269.27 79.8594C268.566 80.3516 267.775 80.75 266.896 81.0547C266.018 81.3711 265.057 81.5703 264.014 81.6523C262.596 81.6992 261.26 81.5527 260.006 81.2129C259.467 81.0723 258.916 80.8789 258.354 80.6328C257.803 80.3867 257.27 80.0703 256.754 79.6836C256.238 79.3086 255.764 78.8516 255.33 78.3125C254.896 77.7852 254.539 77.1582 254.258 76.4316L257.65 74.9551C257.873 75.459 258.143 75.8926 258.459 76.2559C258.775 76.6191 259.115 76.9238 259.479 77.1699C259.842 77.416 260.211 77.6152 260.586 77.7676C260.973 77.9199 261.348 78.0312 261.711 78.1016C262.566 78.2891 263.469 78.3242 264.418 78.207C265.238 78.043 265.947 77.791 266.545 77.4512C267.154 77.1113 267.67 76.7305 268.092 76.3086C268.514 75.8984 268.854 75.459 269.111 74.9902C269.381 74.5332 269.592 74.0938 269.744 73.6719C269.896 73.25 269.996 72.8633 270.043 72.5117C270.102 72.1719 270.131 71.9082 270.131 71.7207V69.418C269.428 70.0859 268.695 70.6016 267.934 70.9648C267.184 71.3164 266.486 71.5742 265.842 71.7383C265.092 71.9375 264.354 72.0488 263.627 72.0723C262.268 72.0723 261.002 71.832 259.83 71.3516C258.658 70.8828 257.639 70.209 256.771 69.3301C255.904 68.4395 255.219 67.3613 254.715 66.0957C254.223 64.8301 253.977 63.4062 253.977 61.8242C253.977 60.2305 254.252 58.8125 254.803 57.5703C255.354 56.3164 256.074 55.2617 256.965 54.4062C257.867 53.5508 258.881 52.9004 260.006 52.4551C261.143 51.998 262.285 51.7695 263.434 51.7695C264.23 51.8633 265.033 52.0391 265.842 52.2969C266.533 52.5195 267.277 52.8359 268.074 53.2461C268.871 53.6562 269.609 54.2129 270.289 54.916L270.324 51.418L273.77 51.5234ZM263.627 68.6973C264.4 68.6973 265.15 68.5625 265.877 68.293C266.604 68.0234 267.26 67.6484 267.846 67.168C268.443 66.6758 268.947 66.0957 269.357 65.4277C269.768 64.748 270.049 64.0039 270.201 63.1953V60.8926C270.072 60.0605 269.797 59.3047 269.375 58.625C268.953 57.9336 268.438 57.3418 267.828 56.8496C267.219 56.3574 266.539 55.9766 265.789 55.707C265.051 55.4375 264.295 55.3027 263.521 55.3027C262.678 55.3027 261.898 55.4785 261.184 55.8301C260.469 56.1699 259.854 56.6445 259.338 57.2539C258.834 57.8633 258.436 58.584 258.143 59.416C257.861 60.248 257.721 61.1445 257.721 62.1055C257.721 63.0664 257.867 63.9512 258.16 64.7598C258.453 65.5684 258.857 66.2656 259.373 66.8516C259.9 67.4258 260.521 67.877 261.236 68.2051C261.963 68.5332 262.76 68.6973 263.627 68.6973ZM287.357 69.3828C287.979 69.3828 288.594 69.2891 289.203 69.1016C289.812 68.9023 290.375 68.6211 290.891 68.2578C291.406 67.8828 291.852 67.4199 292.227 66.8691C292.613 66.3184 292.895 65.6797 293.07 64.9531L296.463 65.6387C296.135 66.7051 295.672 67.6719 295.074 68.5391C294.477 69.4062 293.779 70.1504 292.982 70.7715C292.186 71.3926 291.307 71.873 290.346 72.2129C289.396 72.5527 288.4 72.7227 287.357 72.7227C285.811 72.7227 284.439 72.4883 283.244 72.0195C282.049 71.5508 281.041 70.8887 280.221 70.0332C279.4 69.1777 278.773 68.1465 278.34 66.9395C277.918 65.7324 277.707 64.3848 277.707 62.8965C277.707 61.4316 277.953 60.0664 278.445 58.8008C278.949 57.5234 279.635 56.416 280.502 55.4785C281.369 54.541 282.389 53.8027 283.561 53.2637C284.732 52.7246 285.998 52.4551 287.357 52.4551C288.576 52.4551 289.725 52.6953 290.803 53.1758C291.881 53.6445 292.836 54.3008 293.668 55.1445C294.5 55.9766 295.186 56.9609 295.725 58.0977C296.264 59.2344 296.604 60.4648 296.744 61.7891L281.521 64.0566C281.604 64.8887 281.809 65.6387 282.137 66.3066C282.465 66.9629 282.881 67.5195 283.385 67.9766C283.9 68.4336 284.492 68.7852 285.16 69.0312C285.84 69.2656 286.572 69.3828 287.357 69.3828ZM292.209 59.5215L292.104 59.1875C291.658 58.0273 291.043 57.1191 290.258 56.4629C289.484 55.8066 288.518 55.4785 287.357 55.4785C286.865 55.4785 286.326 55.5664 285.74 55.7422C285.154 55.9062 284.586 56.1934 284.035 56.6035C283.484 57.0137 282.986 57.5645 282.541 58.2559C282.107 58.9355 281.803 59.7852 281.627 60.8047L292.209 59.5215Z" fill="#3D3D3D"/>
<defs>
<linearGradient id="paint0_linear_43_12" x1="13.9458" y1="56.3152" x2="68.9347" y2="56.3152" gradientUnits="userSpaceOnUse">
<stop stop-color="#F9283D"/>
<stop offset="1" stop-color="#C51E2F"/>
</linearGradient>
</defs>
</svg>
