<?xml version="1.0" encoding="utf-8"?>
<svg width="500px" height="410px" viewBox="0 0 500 410" version="1.1" xmlns:xlink="http://www.w3.org/1999/xlink" xmlns="http://www.w3.org/2000/svg">
  <g id="photoshop-icon">
    <g id="Group">
      <path d="M24.999 0L475.001 0Q475.615 0 476.228 0.0301124Q476.841 0.0602248 477.451 0.120377Q478.062 0.180529 478.669 0.270576Q479.276 0.360624 479.878 0.480349Q480.48 0.600074 481.075 0.749189Q481.671 0.898303 482.258 1.07645Q482.845 1.25459 483.423 1.46134Q484.001 1.66809 484.568 1.90294Q485.135 2.13778 485.689 2.40017Q486.244 2.66256 486.785 2.95185Q487.327 3.24114 487.853 3.55664Q488.379 3.87214 488.89 4.21309Q489.4 4.55404 489.893 4.91961Q490.386 5.28519 490.86 5.67451Q491.335 6.06383 491.789 6.47596Q492.244 6.88809 492.678 7.32204Q493.112 7.75598 493.524 8.2107Q493.936 8.66541 494.325 9.1398Q494.715 9.61419 495.08 10.1071Q495.446 10.6 495.787 11.1103Q496.128 11.6206 496.443 12.1469Q496.759 12.6733 497.048 13.2146Q497.337 13.7558 497.6 14.3105Q497.862 14.8653 498.097 15.4323Q498.332 15.9993 498.539 16.5771Q498.745 17.1549 498.923 17.7422Q499.102 18.3294 499.251 18.9247Q499.4 19.52 499.52 20.1219Q499.639 20.7238 499.729 21.3309Q499.819 21.9379 499.88 22.5487Q499.94 23.1594 499.97 23.7724Q500 24.3853 500 24.999L500 385.001Q500 385.615 499.97 386.228Q499.94 386.841 499.88 387.451Q499.819 388.062 499.729 388.669Q499.639 389.276 499.52 389.878Q499.4 390.48 499.251 391.075Q499.102 391.671 498.923 392.258Q498.745 392.845 498.539 393.423Q498.332 394.001 498.097 394.568Q497.862 395.135 497.6 395.689Q497.337 396.244 497.048 396.785Q496.759 397.327 496.443 397.853Q496.128 398.379 495.787 398.89Q495.446 399.4 495.08 399.893Q494.715 400.386 494.325 400.86Q493.936 401.335 493.524 401.789Q493.112 402.244 492.678 402.678Q492.244 403.112 491.789 403.524Q491.335 403.936 490.86 404.325Q490.386 404.715 489.893 405.08Q489.4 405.446 488.89 405.787Q488.379 406.128 487.853 406.443Q487.327 406.759 486.785 407.048Q486.244 407.337 485.689 407.6Q485.135 407.862 484.568 408.097Q484.001 408.332 483.423 408.539Q482.845 408.745 482.258 408.924Q481.67 409.102 481.075 409.251Q480.48 409.4 479.878 409.52Q479.276 409.639 478.669 409.729Q478.062 409.819 477.451 409.88Q476.841 409.94 476.228 409.97Q475.615 410 475.001 410L24.999 410Q24.3853 410 23.7724 409.97Q23.1594 409.94 22.5487 409.88Q21.9379 409.819 21.3309 409.729Q20.7238 409.639 20.1219 409.52Q19.52 409.4 18.9247 409.251Q18.3294 409.102 17.7422 408.924Q17.1549 408.745 16.5771 408.539Q15.9993 408.332 15.4323 408.097Q14.8653 407.862 14.3105 407.6Q13.7558 407.337 13.2146 407.048Q12.6733 406.759 12.1469 406.443Q11.6206 406.128 11.1103 405.787Q10.6 405.446 10.1071 405.08Q9.61419 404.715 9.1398 404.325Q8.66541 403.936 8.2107 403.524Q7.75598 403.112 7.32204 402.678Q6.88809 402.244 6.47596 401.789Q6.06383 401.335 5.67451 400.86Q5.28519 400.386 4.91961 399.893Q4.55404 399.4 4.21309 398.89Q3.87214 398.379 3.55664 397.853Q3.24114 397.327 2.95185 396.785Q2.66256 396.244 2.40017 395.689Q2.13778 395.135 1.90294 394.568Q1.66809 394.001 1.46134 393.423Q1.25459 392.845 1.07645 392.258Q0.898303 391.671 0.749189 391.075Q0.600074 390.48 0.480349 389.878Q0.360624 389.276 0.270576 388.669Q0.180529 388.062 0.120377 387.451Q0.0602248 386.841 0.0301124 386.228Q0 385.615 0 385.001L0 24.999Q0 24.3853 0.0301124 23.7724Q0.0602248 23.1594 0.120377 22.5487Q0.180529 21.9379 0.270576 21.3309Q0.360624 20.7238 0.480349 20.1219Q0.600074 19.52 0.749189 18.9247Q0.898303 18.3294 1.07645 17.7422Q1.25459 17.1549 1.46134 16.5771Q1.66809 15.9993 1.90294 15.4323Q2.13778 14.8653 2.40017 14.3105Q2.66256 13.7558 2.95185 13.2146Q3.24114 12.6733 3.55664 12.1469Q3.87214 11.6206 4.21309 11.1103Q4.55404 10.6 4.91961 10.1071Q5.28519 9.61419 5.67451 9.1398Q6.06383 8.66541 6.47596 8.2107Q6.88809 7.75598 7.32204 7.32204Q7.75598 6.88809 8.2107 6.47596Q8.66541 6.06383 9.1398 5.67451Q9.61419 5.28519 10.1071 4.91961Q10.6 4.55404 11.1103 4.21309Q11.6206 3.87214 12.1469 3.55664Q12.6733 3.24114 13.2146 2.95185Q13.7558 2.66256 14.3105 2.40017Q14.8653 2.13778 15.4323 1.90294Q15.9993 1.66809 16.5771 1.46134Q17.1549 1.25459 17.7422 1.07645Q18.3294 0.898303 18.9247 0.749189Q19.52 0.600074 20.1219 0.480349Q20.7238 0.360624 21.3309 0.270576Q21.9379 0.180529 22.5487 0.120377Q23.1594 0.0602248 23.7724 0.0301124Q24.3853 0 24.999 0L24.999 0Z" id="Rectangle" fill="#070A1C" fill-rule="evenodd" stroke="none" />
      <g id="Ps" fill="#006EFF" transform="translate(62.5 51)">
        <path d="M89.4453 261.83L89.4453 180.318L117.869 180.318Q153.813 180.318 174.942 160.768Q196.072 141.217 196.072 110.537Q196.072 79.8574 177.048 63.0137Q158.023 46.1699 123.434 46.1699L64.1797 46.1699L64.1797 261.83L89.4453 261.83ZM89.4453 157.459L89.4453 69.0293L119.072 69.0293Q169.604 69.0293 169.604 111.74Q169.604 133.547 155.843 145.503Q142.082 157.459 115.914 157.459L89.4453 157.459ZM224.045 229.797L224.045 256.266Q241.49 265.439 265.252 265.439Q277.283 265.439 288.262 262.732Q299.24 260.025 307.662 254.461Q316.084 248.896 321.122 240.475Q326.16 232.053 326.16 220.623Q326.16 211.299 323.077 204.531Q319.994 197.764 314.279 192.575Q308.564 187.387 300.443 183.251Q292.322 179.115 282.096 175.205Q274.426 172.197 268.41 169.641Q262.395 167.084 258.184 163.926Q253.973 160.768 251.792 156.707Q249.611 152.646 249.611 146.631Q249.611 141.818 251.792 137.833Q253.973 133.848 257.958 130.99Q261.943 128.133 267.508 126.554Q273.072 124.975 279.99 124.975Q302.098 124.975 319.092 136.104L319.092 111.139Q303.301 104.221 283.299 104.221Q272.02 104.221 261.417 107.078Q250.814 109.936 242.543 115.575Q234.271 121.215 229.309 129.562Q224.346 137.908 224.346 148.736Q224.346 157.609 226.978 164.227Q229.609 170.844 234.798 176.032Q239.986 181.221 247.731 185.356Q255.477 189.492 265.703 193.553Q273.072 196.41 279.464 199.042Q285.855 201.674 290.593 204.982Q295.33 208.291 298.112 212.577Q300.895 216.863 300.895 223.029Q300.895 244.686 268.41 244.686Q244.197 244.686 224.045 229.797Z" />
      </g>
    </g>
  </g>
</svg>