<?xml version="1.0" encoding="utf-8"?>
<svg width="420px" height="420px" viewBox="0 0 420 420" version="1.1" xmlns:xlink="http://www.w3.org/1999/xlink" xmlns="http://www.w3.org/2000/svg">
  <defs>
    <filter id="filter_1">
      <feColorMatrix in="SourceGraphic" type="matrix" values="0 0 0 0 0.827451 0 0 0 0 0.827451 0 0 0 0 0.827451 0 0 0 1 0" />
    </filter>
    <path d="M0 0L420 0L420 420L0 420L0 0Z" id="path_1" />
    <clipPath id="mask_1">
      <use xlink:href="#path_1" />
    </clipPath>
  </defs>
  <g id="pic-icon">
    <g id="Picture-icon" filter="url(#filter_1)">
      <path d="M0 0L420 0L420 420L0 420L0 0Z" id="Background" fill="none" fill-rule="evenodd" stroke="none" />
      <g clip-path="url(#mask_1)">
        <path d="M65.625 52.5C43.9893 52.5 26.25 70.2393 26.25 91.875L26.25 328.125C26.25 349.761 43.9893 367.5 65.625 367.5L354.375 367.5C376.011 367.5 393.75 349.761 393.75 328.125L393.75 91.875C393.75 70.2393 376.011 52.5 354.375 52.5L65.625 52.5ZM65.625 78.75L354.375 78.75C361.758 78.75 367.5 84.4922 367.5 91.875L367.5 270.19L275.625 178.315L223.125 230.815L144.375 152.065L52.5 243.94L52.5 91.875C52.5 84.4922 58.2422 78.75 65.625 78.75L65.625 78.75ZM315 105C300.542 105 288.75 116.792 288.75 131.25C288.75 145.708 300.542 157.5 315 157.5C329.458 157.5 341.25 145.708 341.25 131.25C341.25 116.792 329.458 105 315 105L315 105ZM144.375 189.185L240.147 284.956L258.604 266.294L241.685 249.375L275.625 215.435L367.5 307.31L367.5 328.125C367.5 335.508 361.758 341.25 354.375 341.25L65.625 341.25C58.2422 341.25 52.5 335.508 52.5 328.125L52.5 281.06L144.375 189.185Z" id="Shape" fill="#FFFFFF" fill-rule="evenodd" stroke="none" />
      </g>
    </g>
  </g>
</svg>