<?xml version="1.0" encoding="utf-8"?>
<svg width="136px" height="148px" viewBox="0 0 136 148" version="1.1" xmlns:xlink="http://www.w3.org/1999/xlink" xmlns="http://www.w3.org/2000/svg">
  <defs>
    <filter id="filter_1">
      <feColorMatrix in="SourceGraphic" type="matrix" values="0 0 0 0 0.827451 0 0 0 0 0.827451 0 0 0 0 0.827451 0 0 0 1 0" />
    </filter>
  </defs>
  <g id="portrait-orientation" filter="url(#filter_1)">
    <g id="Group-6" transform="translate(4.5945945 5.55)">
      <path d="M1.999 0L122.974 0Q123.072 0 123.17 0.00962573Q123.268 0.0192515 123.364 0.0384102Q123.46 0.057569 123.554 0.0860763Q123.648 0.114584 123.739 0.152165Q123.83 0.189746 123.916 0.236039Q124.003 0.282333 124.085 0.336892Q124.166 0.391452 124.242 0.453752Q124.318 0.516052 124.387 0.585494Q124.457 0.654935 124.519 0.730848Q124.582 0.806761 124.636 0.888415Q124.691 0.970069 124.737 1.05668Q124.783 1.14329 124.821 1.23402Q124.858 1.32474 124.887 1.41872Q124.915 1.5127 124.935 1.60901Q124.954 1.70533 124.963 1.80306Q124.973 1.9008 124.973 1.999L124.973 134.901Q124.973 134.999 124.963 135.097Q124.954 135.195 124.935 135.291Q124.915 135.387 124.887 135.481Q124.858 135.575 124.821 135.666Q124.783 135.757 124.737 135.843Q124.691 135.93 124.636 136.012Q124.582 136.093 124.519 136.169Q124.457 136.245 124.387 136.314Q124.318 136.384 124.242 136.446Q124.166 136.509 124.085 136.563Q124.003 136.618 123.916 136.664Q123.83 136.71 123.739 136.748Q123.648 136.785 123.554 136.814Q123.46 136.842 123.364 136.862Q123.268 136.881 123.17 136.89Q123.072 136.9 122.974 136.9L1.999 136.9Q1.9008 136.9 1.80306 136.89Q1.70533 136.881 1.60901 136.862Q1.5127 136.842 1.41872 136.814Q1.32474 136.785 1.23402 136.748Q1.14329 136.71 1.05668 136.664Q0.970069 136.618 0.888415 136.563Q0.806761 136.509 0.730848 136.446Q0.654935 136.384 0.585494 136.314Q0.516052 136.245 0.453752 136.169Q0.391452 136.093 0.336892 136.012Q0.282333 135.93 0.236039 135.843Q0.189746 135.757 0.152165 135.666Q0.114584 135.575 0.0860763 135.481Q0.057569 135.387 0.0384102 135.291Q0.0192515 135.195 0.00962573 135.097Q0 134.999 0 134.901L0 1.999Q0 1.9008 0.00962573 1.80306Q0.0192515 1.70533 0.0384102 1.60901Q0.057569 1.5127 0.0860763 1.41872Q0.114584 1.32474 0.152165 1.23402Q0.189746 1.14329 0.236039 1.05668Q0.282333 0.970069 0.336892 0.888415Q0.391452 0.806761 0.453752 0.730848Q0.516052 0.654935 0.585494 0.585494Q0.654935 0.516052 0.730848 0.453752Q0.806761 0.391452 0.888415 0.336892Q0.970069 0.282333 1.05668 0.236039Q1.14329 0.189746 1.23402 0.152165Q1.32474 0.114584 1.41872 0.0860763Q1.5127 0.057569 1.60901 0.0384102Q1.70533 0.0192515 1.80306 0.00962573Q1.9008 0 1.999 0L1.999 0Z" id="Rectangle" fill="none" fill-rule="evenodd" stroke="#808080" stroke-width="8" />
      <g id="Group-3" transform="translate(16.81622 9.989989)">
        <path d="M26.0054 15.2625C26.0054 6.83325 34.028 0 43.9243 0C53.8207 0 61.8432 6.83325 61.8432 15.2625C61.8432 23.6917 53.8207 30.525 43.9243 30.525C34.028 30.525 26.0054 23.6917 26.0054 15.2625Z" id="Ellipse" fill="#D3D3D3" fill-rule="evenodd" stroke="none" />
        <path d="M13.999 39.6825L76.974 39.6825Q77.3176 39.6825 77.6609 39.6994Q78.0041 39.7162 78.3461 39.7499Q78.6881 39.7836 79.028 39.834Q79.368 39.8845 79.705 39.9515Q80.0421 40.0186 80.3754 40.1021Q80.7088 40.1856 81.0377 40.2853Q81.3665 40.3851 81.6901 40.5008Q82.0136 40.6166 82.3311 40.7481Q82.6486 40.8796 82.9593 41.0266Q83.27 41.1735 83.573 41.3355Q83.8761 41.4975 84.1709 41.6742Q84.4656 41.8508 84.7514 42.0418Q85.0371 42.2327 85.3131 42.4374Q85.5892 42.6421 85.8548 42.8601Q86.1205 43.0782 86.3751 43.3089Q86.6297 43.5397 86.8727 43.7827Q87.1157 44.0257 87.3465 44.2804Q87.5773 44.535 87.7953 44.8006Q88.0133 45.0663 88.2181 45.3423Q88.4228 45.6183 88.6137 45.9041Q88.8046 46.1898 88.9813 46.4846Q89.158 46.7794 89.32 47.0824Q89.482 47.3855 89.6289 47.6962Q89.7758 48.0068 89.9073 48.3243Q90.0389 48.6418 90.1546 48.9654Q90.2704 49.289 90.3702 49.6178Q90.4699 49.9467 90.5534 50.28Q90.6369 50.6134 90.704 50.9504Q90.771 51.2875 90.8214 51.6274Q90.8719 51.9674 90.9056 52.3094Q90.9392 52.6514 90.9561 52.9946Q90.973 53.3379 90.973 53.6815L90.973 98.8825L0 98.8825L0 53.6815Q0 53.3379 0.0168624 52.9946Q0.0337248 52.6514 0.067409 52.3094Q0.101093 51.9674 0.151518 51.6274Q0.201943 51.2875 0.268987 50.9504Q0.336031 50.6134 0.419532 50.28Q0.503034 49.9467 0.602792 49.6178Q0.70255 49.289 0.818324 48.9654Q0.934099 48.6418 1.06561 48.3243Q1.19712 48.0068 1.34405 47.6962Q1.49099 47.3855 1.65298 47.0824Q1.81498 46.7794 1.99166 46.4846Q2.16833 46.1898 2.35926 45.9041Q2.55018 45.6184 2.7549 45.3423Q2.95961 45.0663 3.17763 44.8007Q3.39564 44.535 3.62642 44.2804Q3.85721 44.0257 4.10021 43.7827Q4.34321 43.5397 4.59785 43.3089Q4.85248 43.0782 5.11813 42.8602Q5.38378 42.6421 5.6598 42.4374Q5.93583 42.2327 6.22157 42.0418Q6.50731 41.8509 6.80207 41.6742Q7.09684 41.4975 7.39992 41.3355Q7.70299 41.1735 8.01366 41.0266Q8.32432 40.8796 8.64181 40.7481Q8.95931 40.6166 9.28288 40.5008Q9.60644 40.3851 9.9353 40.2853Q10.2642 40.1856 10.5975 40.1021Q10.9309 40.0186 11.2679 39.9515Q11.605 39.8845 11.9449 39.834Q12.2849 39.7836 12.6269 39.7499Q12.9689 39.7162 13.3121 39.6994Q13.6553 39.6825 13.999 39.6825L13.999 39.6825Z" id="Rectangle-2" fill="#D3D3D3" fill-rule="evenodd" stroke="none" />
        <path d="M12.3135 82.51L77.5567 82.51L77.5567 124.135L12.3135 124.135L12.3135 82.51Z" id="Rectangle-3" fill="#D3D3D3" fill-rule="evenodd" stroke="none" />
      </g>
    </g>
  </g>
</svg>