<?xml version="1.0" encoding="utf-8"?>
<svg width="114px" height="110px" viewBox="0 0 114 110" version="1.1" xmlns:xlink="http://www.w3.org/1999/xlink" xmlns="http://www.w3.org/2000/svg">
  <defs>
    <filter id="filter_1">
      <feColorMatrix in="SourceGraphic" type="matrix" values="0 0 0 0 0.827451 0 0 0 0 0.827451 0 0 0 0 0.827451 0 0 0 1 0" />
    </filter>
  </defs>
  <g id="rec-select-with-small-rec">
    <g id="Group-22" transform="translate(4.5238094 4.5454545)" filter="url(#filter_1)">
      <g id="Group-21" filter="url(#filter_1)">
        <path d="M9.22853 9.00002L94.0952 9.00002L94.0952 90.9091L9.22853 90.9091L9.22853 9.00002Z" id="Rectangle" fill="none" fill-rule="evenodd" stroke="#808080" stroke-width="4" />
        <path d="M0 0L9.04762 0L9.04762 9.09091L0 9.09091L0 0Z" id="Rectangle-2" fill="none" fill-rule="evenodd" stroke="#808080" stroke-width="4" />
        <path d="M94.0952 90.9091L103.143 90.9091L103.143 100L94.0952 100L94.0952 90.9091Z" id="Rectangle-3" fill="none" fill-rule="evenodd" stroke="#808080" stroke-width="4" />
        <path d="M0 90.9091L9.04762 90.9091L9.04762 100L0 100L0 90.9091Z" id="Rectangle-4" fill="none" fill-rule="evenodd" stroke="#808080" stroke-width="4" />
        <path d="M94.0952 0L103.143 0L103.143 9.09091L94.0952 9.09091L94.0952 0Z" id="Rectangle-5" fill="none" fill-rule="evenodd" stroke="#808080" stroke-width="4" />
      </g>
      <path d="M69.6666 64.5453L101.333 64.5453L101.333 95.4544L69.6666 95.4544L69.6666 64.5453Z" id="Rectangle" fill="none" fill-rule="evenodd" stroke="#FFFFFF" stroke-width="14" />
    </g>
  </g>
</svg>