<?xml version="1.0" encoding="utf-8"?>
<svg width="220px" height="220px" viewBox="0 0 220 220" version="1.1" xmlns:xlink="http://www.w3.org/1999/xlink" xmlns="http://www.w3.org/2000/svg">
  <defs>
    <filter id="filter_1">
      <feColorMatrix in="SourceGraphic" type="matrix" values="0 0 0 0 0.827451 0 0 0 0 0.827451 0 0 0 0 0.827451 0 0 0 1 0" />
    </filter>
    <path d="M0 0L246.939 0L246.939 211.354L0 211.354L0 0Z" id="path_1" />
    <clipPath id="mask_1">
      <use xlink:href="#path_1" />
    </clipPath>
  </defs>
  <g id="trash-icon">
    <g id="Remove-icon" transform="translate(3.3673468 2.882096)" filter="url(#filter_1)">
      <path d="M0 0L246.939 0L246.939 211.354L0 211.354L0 0Z" id="Background" fill="none" fill-rule="evenodd" stroke="none" />
      <g clip-path="url(#mask_1)">
        <path d="M81.8419 0.480349C66.8587 0.480349 54.5153 11.4672 54.5153 24.8038L54.5153 32.9963L-0.280612 32.9963L-0.280612 49.2543L17.9847 49.2543L17.9847 187.447C17.9847 200.911 30.2567 211.834 45.3826 211.834L154.974 211.834C170.1 211.834 182.372 200.911 182.372 187.447L182.372 49.2543L200.638 49.2543L200.638 32.9963L145.842 32.9963L145.842 24.8038C145.842 11.4672 133.498 0.480349 118.515 0.480349L81.8419 0.480349ZM81.842 16.7383L118.515 16.7383C123.652 16.7383 127.577 20.2313 127.577 24.8038L127.577 32.9963L72.7806 32.9963L72.7806 24.8038C72.7806 20.2313 76.7048 16.7383 81.842 16.7383L81.842 16.7383ZM54.5154 65.5123L72.7807 65.5123L72.7807 179.318L54.5154 179.318L54.5154 65.5123ZM91.0459 65.5123L109.311 65.5123L109.311 179.318L91.0459 179.318L91.0459 65.5123ZM127.576 65.5123L145.842 65.5123L145.842 179.318L127.576 179.318L127.576 65.5123Z" id="Shape" fill="#FFFFFF" fill-rule="evenodd" stroke="none" />
      </g>
    </g>
  </g>
</svg>