<?xml version="1.0" encoding="utf-8"?>
<svg width="2898px" height="2691px" viewBox="0 0 2898 2691" version="1.1" xmlns:xlink="http://www.w3.org/1999/xlink" xmlns="http://www.w3.org/2000/svg">
  <g id="va">
    <g id="Group-3" transform="translate(183 0)">
      <g id="Group-2">
        <g id="Group" transform="translate(0.10644531 73.99999)">
          <path d="M71.999 0L2483 0Q2484.77 0 2486.53 0.0867259Q2488.3 0.173452 2490.06 0.346695Q2491.82 0.519938 2493.57 0.77928Q2495.31 1.03862 2497.05 1.38344Q2498.78 1.72826 2500.49 2.15772Q2502.21 2.58718 2503.9 3.10025Q2505.59 3.61332 2507.26 4.20877Q2508.92 4.80421 2510.55 5.4806Q2512.19 6.15698 2513.78 6.91267Q2515.38 7.66837 2516.94 8.50155Q2518.5 9.33473 2520.02 10.2434Q2521.53 11.1521 2523 12.134Q2524.47 13.116 2525.89 14.1689Q2527.31 15.2217 2528.68 16.343Q2530.04 17.4643 2531.35 18.6513Q2532.66 19.8382 2533.91 21.088Q2535.16 22.3378 2536.35 23.6474Q2537.54 24.957 2538.66 26.3233Q2539.78 27.6896 2540.83 29.1092Q2541.88 30.5289 2542.87 31.9985Q2543.85 33.4681 2544.76 34.9841Q2545.67 36.5001 2546.5 38.0589Q2547.33 39.6177 2548.09 41.2155Q2548.84 42.8132 2549.52 44.4462Q2550.2 46.0791 2550.79 47.7433Q2551.39 49.4074 2551.9 51.0988Q2552.41 52.7902 2552.84 54.5047Q2553.27 56.2192 2553.62 57.9527Q2553.96 59.6862 2554.22 61.4346Q2554.48 63.1829 2554.65 64.9419Q2554.83 66.7008 2554.91 68.4662Q2555 70.2315 2555 71.999L2555 1953Q2555 1954.77 2554.91 1956.53Q2554.83 1958.3 2554.65 1960.06Q2554.48 1961.82 2554.22 1963.56Q2553.96 1965.31 2553.62 1967.05Q2553.27 1968.78 2552.84 1970.49Q2552.41 1972.21 2551.9 1973.9Q2551.39 1975.59 2550.79 1977.26Q2550.2 1978.92 2549.52 1980.55Q2548.84 1982.19 2548.09 1983.78Q2547.33 1985.38 2546.5 1986.94Q2545.67 1988.5 2544.76 1990.02Q2543.85 1991.53 2542.87 1993Q2541.88 1994.47 2540.83 1995.89Q2539.78 1997.31 2538.66 1998.68Q2537.54 2000.04 2536.35 2001.35Q2535.16 2002.66 2533.91 2003.91Q2532.66 2005.16 2531.35 2006.35Q2530.04 2007.54 2528.68 2008.66Q2527.31 2009.78 2525.89 2010.83Q2524.47 2011.88 2523 2012.87Q2521.53 2013.85 2520.02 2014.76Q2518.5 2015.66 2516.94 2016.5Q2515.38 2017.33 2513.78 2018.09Q2512.19 2018.84 2510.55 2019.52Q2508.92 2020.2 2507.26 2020.79Q2505.59 2021.39 2503.9 2021.9Q2502.21 2022.41 2500.49 2022.84Q2498.78 2023.27 2497.05 2023.62Q2495.31 2023.96 2493.57 2024.22Q2491.82 2024.48 2490.06 2024.65Q2488.3 2024.83 2486.53 2024.91Q2484.77 2025 2483 2025L71.999 2025Q70.2315 2025 68.4662 2024.91Q66.7008 2024.83 64.9419 2024.65Q63.1829 2024.48 61.4346 2024.22Q59.6862 2023.96 57.9527 2023.62Q56.2192 2023.27 54.5047 2022.84Q52.7902 2022.41 51.0988 2021.9Q49.4074 2021.39 47.7433 2020.79Q46.0791 2020.2 44.4462 2019.52Q42.8132 2018.84 41.2155 2018.09Q39.6177 2017.33 38.0589 2016.5Q36.5001 2015.66 34.9841 2014.76Q33.4681 2013.85 31.9985 2012.87Q30.5289 2011.88 29.1092 2010.83Q27.6896 2009.78 26.3233 2008.66Q24.957 2007.54 23.6474 2006.35Q22.3378 2005.16 21.088 2003.91Q19.8382 2002.66 18.6513 2001.35Q17.4643 2000.04 16.343 1998.68Q15.2217 1997.31 14.1689 1995.89Q13.116 1994.47 12.134 1993Q11.1521 1991.53 10.2434 1990.02Q9.33473 1988.5 8.50155 1986.94Q7.66837 1985.38 6.91267 1983.78Q6.15698 1982.19 5.4806 1980.55Q4.80421 1978.92 4.20877 1977.26Q3.61332 1975.59 3.10025 1973.9Q2.58718 1972.21 2.15772 1970.49Q1.72826 1968.78 1.38344 1967.05Q1.03862 1965.31 0.77928 1963.56Q0.519938 1961.82 0.346695 1960.06Q0.173452 1958.3 0.0867259 1956.53Q0 1954.77 0 1953L0 71.999Q0 70.2315 0.0867259 68.4662Q0.173452 66.7008 0.346695 64.9419Q0.519938 63.1829 0.77928 61.4346Q1.03862 59.6862 1.38344 57.9527Q1.72826 56.2192 2.15772 54.5047Q2.58718 52.7902 3.10025 51.0988Q3.61332 49.4074 4.20877 47.7433Q4.80421 46.0791 5.4806 44.4462Q6.15698 42.8132 6.91267 41.2155Q7.66837 39.6177 8.50155 38.0589Q9.33473 36.5001 10.2434 34.9841Q11.1521 33.4681 12.134 31.9985Q13.116 30.5289 14.1689 29.1092Q15.2217 27.6896 16.343 26.3233Q17.4643 24.957 18.6513 23.6474Q19.8382 22.3378 21.088 21.088Q22.3378 19.8382 23.6474 18.6513Q24.957 17.4643 26.3233 16.343Q27.6896 15.2217 29.1092 14.1689Q30.5289 13.116 31.9985 12.134Q33.4681 11.1521 34.9841 10.2434Q36.5001 9.33473 38.0589 8.50155Q39.6177 7.66837 41.2155 6.91267Q42.8132 6.15698 44.4462 5.4806Q46.0791 4.80421 47.7433 4.20877Q49.4074 3.61332 51.0988 3.10025Q52.7902 2.58718 54.5047 2.15772Q56.2192 1.72826 57.9527 1.38344Q59.6862 1.03862 61.4346 0.77928Q63.1829 0.519938 64.9419 0.346695Q66.7008 0.173452 68.4662 0.0867259Q70.2315 0 71.999 0Z" id="Rectangle" fill="#D3D3D3" fill-rule="evenodd" stroke="none" />
        </g>
        <g id="VA" fill="#5E5E5E" transform="translate(43.106445 0)">
          <path d="M611.868 1564.65L216.107 442.454L46.8665 442.454L536.361 1775.55L702.997 1775.55L1192.49 442.454L1023.25 442.454L627.49 1564.65L611.868 1564.65ZM1204.12 1775.55L1373.36 1775.55L1507.45 1398.01L2046.42 1398.01L2180.51 1775.55L2349.75 1775.55L1860.26 442.454L1693.62 442.454L1204.12 1775.55ZM1995.65 1254.81L1558.23 1254.81L1771.73 653.354L1782.14 653.354L1995.65 1254.81Z" />
        </g>
        <path d="M0 2463.5L2555.21 2463.5" id="Arrow" fill="none" fill-rule="evenodd" stroke="#FFFFFF" stroke-width="77" />
      </g>
    </g>
  </g>
</svg>