<?xml version="1.0" encoding="utf-8"?>
<svg width="182px" height="182px" viewBox="0 0 182 182" version="1.1" xmlns:xlink="http://www.w3.org/1999/xlink" xmlns="http://www.w3.org/2000/svg">
  <defs>
    <filter id="filter_1">
      <feColorMatrix in="SourceGraphic" type="matrix" values="0 0 0 0 0.827451 0 0 0 0 0.827451 0 0 0 0 0.827451 0 0 0 1 0" />
    </filter>
  </defs>
  <g id="align-center-horizontal">
    <g id="Group-26" transform="matrix(1 -2.5351817E-06 2.5351817E-06 1 5.6263647 13.596805)" filter="url(#filter_1)">
      <path d="M88.8572 0L88.8572 153.814" id="Line" fill="none" fill-rule="evenodd" stroke="#808080" stroke-width="15" stroke-linecap="square" />
      <path d="M42.4489 28.2656L128.049 28.2656Q128.368 28.2656 128.687 28.2813Q129.006 28.2969 129.323 28.3282Q129.641 28.3595 129.956 28.4063Q130.272 28.4531 130.585 28.5154Q130.898 28.5776 131.208 28.6552Q131.517 28.7327 131.823 28.8253Q132.128 28.918 132.428 29.0255Q132.729 29.133 133.024 29.2551Q133.318 29.3772 133.607 29.5136Q133.895 29.6501 134.177 29.8005Q134.458 29.9509 134.732 30.115Q135.006 30.279 135.271 30.4563Q135.536 30.6336 135.793 30.8237Q136.049 31.0138 136.296 31.2162Q136.542 31.4187 136.779 31.633Q137.015 31.8473 137.241 32.0729Q137.466 32.2986 137.681 32.535Q137.895 32.7714 138.097 33.0181Q138.3 33.2648 138.49 33.5211Q138.68 33.7774 138.857 34.0427Q139.035 34.3081 139.199 34.5818Q139.363 34.8555 139.513 35.1369Q139.664 35.4183 139.8 35.7068Q139.937 35.9953 140.059 36.2901Q140.181 36.5849 140.288 36.8854Q140.396 37.1858 140.488 37.4912Q140.581 37.7966 140.659 38.1061Q140.736 38.4156 140.798 38.7286Q140.861 39.0416 140.907 39.3572Q140.954 39.6729 140.986 39.9905Q141.017 40.3081 141.032 40.6268Q141.048 40.9455 141.048 41.2646L141.048 63.5158Q141.048 63.835 141.032 64.1537Q141.017 64.4724 140.986 64.79Q140.954 65.1075 140.907 65.4232Q140.861 65.7388 140.798 66.0518Q140.736 66.3648 140.659 66.6743Q140.581 66.9839 140.488 67.2892Q140.396 67.5946 140.288 67.8951Q140.181 68.1955 140.059 68.4903Q139.937 68.7852 139.8 69.0736Q139.664 69.3621 139.513 69.6435Q139.363 69.925 139.199 70.1987Q139.035 70.4724 138.857 70.7377Q138.68 71.003 138.49 71.2593Q138.3 71.5156 138.097 71.7623Q137.895 72.009 137.681 72.2454Q137.466 72.4819 137.241 72.7075Q137.015 72.9332 136.779 73.1475Q136.542 73.3618 136.296 73.5642Q136.049 73.7667 135.793 73.9567Q135.536 74.1468 135.271 74.3241Q135.006 74.5014 134.732 74.6655Q134.458 74.8295 134.177 74.9799Q133.895 75.1304 133.607 75.2668Q133.318 75.4032 133.024 75.5254Q132.729 75.6475 132.428 75.755Q132.128 75.8625 131.823 75.9551Q131.517 76.0478 131.208 76.1253Q130.898 76.2028 130.585 76.2651Q130.272 76.3273 129.956 76.3742Q129.641 76.421 129.323 76.4523Q129.006 76.4835 128.687 76.4992Q128.368 76.5148 128.049 76.5148L42.4489 76.5148Q42.1298 76.5148 41.8111 76.4992Q41.4924 76.4835 41.1748 76.4523Q40.8572 76.421 40.5416 76.3741Q40.2259 76.3273 39.9129 76.2651Q39.6 76.2028 39.2904 76.1253Q38.9809 76.0478 38.6755 75.9551Q38.3701 75.8625 38.0697 75.755Q37.7692 75.6475 37.4744 75.5254Q37.1796 75.4032 36.8911 75.2668Q36.6027 75.1304 36.3212 74.9799Q36.0398 74.8295 35.7661 74.6655Q35.4924 74.5014 35.2271 74.3241Q34.9617 74.1468 34.7054 73.9567Q34.4491 73.7666 34.2024 73.5642Q33.9558 73.3618 33.7193 73.1475Q33.4829 72.9332 33.2572 72.7075Q33.0316 72.4819 32.8173 72.2454Q32.603 72.009 32.4006 71.7623Q32.1981 71.5156 32.008 71.2593Q31.8179 71.003 31.6406 70.7377Q31.4634 70.4724 31.2993 70.1987Q31.1352 69.9249 30.9848 69.6435Q30.8344 69.3621 30.698 69.0736Q30.5615 68.7852 30.4394 68.4903Q30.3173 68.1955 30.2098 67.8951Q30.1023 67.5946 30.0097 67.2892Q29.917 66.9839 29.8395 66.6743Q29.7619 66.3648 29.6997 66.0518Q29.6374 65.7388 29.5906 65.4232Q29.5438 65.1075 29.5125 64.79Q29.4812 64.4724 29.4656 64.1537Q29.4499 63.835 29.4499 63.5158L29.4499 41.2646Q29.4499 40.9455 29.4656 40.6268Q29.4812 40.3081 29.5125 39.9905Q29.5438 39.6729 29.5906 39.3572Q29.6374 39.0416 29.6997 38.7286Q29.7619 38.4156 29.8395 38.1061Q29.917 37.7966 30.0097 37.4912Q30.1023 37.1858 30.2098 36.8854Q30.3173 36.5849 30.4394 36.2901Q30.5615 35.9953 30.698 35.7068Q30.8344 35.4183 30.9848 35.1369Q31.1352 34.8555 31.2993 34.5818Q31.4634 34.3081 31.6406 34.0427Q31.8179 33.7774 32.008 33.5211Q32.1981 33.2648 32.4006 33.0181Q32.603 32.7715 32.8173 32.535Q33.0316 32.2986 33.2572 32.0729Q33.4829 31.8473 33.7193 31.633Q33.9558 31.4187 34.2024 31.2162Q34.4491 31.0138 34.7054 30.8237Q34.9617 30.6336 35.2271 30.4563Q35.4924 30.279 35.7661 30.115Q36.0398 29.9509 36.3212 29.8005Q36.6027 29.6501 36.8911 29.5136Q37.1796 29.3772 37.4744 29.2551Q37.7692 29.133 38.0697 29.0255Q38.3701 28.918 38.6755 28.8253Q38.9809 28.7327 39.2904 28.6552Q39.6 28.5776 39.9129 28.5154Q40.2259 28.4531 40.5416 28.4063Q40.8572 28.3595 41.1748 28.3282Q41.4924 28.2969 41.8111 28.2813Q42.1298 28.2656 42.4489 28.2656Z" id="Rectangle" fill="#D3D3D3" fill-rule="evenodd" stroke="none" />
      <path d="M12.999 83.4933L156.743 83.4933Q157.062 83.4933 157.381 83.5089Q157.699 83.5246 158.017 83.5559Q158.334 83.5871 158.65 83.634Q158.966 83.6808 159.279 83.743Q159.592 83.8053 159.901 83.8828Q160.211 83.9604 160.516 84.053Q160.822 84.1456 161.122 84.2531Q161.422 84.3606 161.717 84.4827Q162.012 84.6049 162.301 84.7413Q162.589 84.8777 162.87 85.0282Q163.152 85.1786 163.426 85.3427Q163.699 85.5067 163.965 85.684Q164.23 85.8613 164.486 86.0514Q164.743 86.2415 164.989 86.4439Q165.236 86.6464 165.472 86.8607Q165.709 87.0749 165.934 87.3006Q166.16 87.5262 166.374 87.7627Q166.589 87.9991 166.791 88.2458Q166.994 88.4925 167.184 88.7488Q167.374 89.0051 167.551 89.2704Q167.728 89.5357 167.892 89.8094Q168.056 90.0832 168.207 90.3646Q168.357 90.646 168.494 90.9345Q168.63 91.2229 168.752 91.5178Q168.874 91.8126 168.982 92.113Q169.089 92.4135 169.182 92.7189Q169.275 93.0242 169.352 93.3338Q169.43 93.6433 169.492 93.9563Q169.554 94.2693 169.601 94.5849Q169.648 94.9006 169.679 95.2181Q169.71 95.5357 169.726 95.8544Q169.742 96.1732 169.742 96.4923L169.742 118.744Q169.742 119.063 169.726 119.381Q169.71 119.7 169.679 120.018Q169.648 120.335 169.601 120.651Q169.554 120.967 169.492 121.279Q169.43 121.592 169.352 121.902Q169.275 122.212 169.182 122.517Q169.089 122.822 168.982 123.123Q168.874 123.423 168.752 123.718Q168.63 124.013 168.494 124.301Q168.357 124.59 168.207 124.871Q168.056 125.153 167.892 125.426Q167.728 125.7 167.551 125.965Q167.374 126.231 167.184 126.487Q166.994 126.743 166.791 126.99Q166.589 127.237 166.374 127.473Q166.16 127.71 165.934 127.935Q165.709 128.161 165.472 128.375Q165.236 128.589 164.989 128.792Q164.743 128.994 164.486 129.184Q164.23 129.374 163.965 129.552Q163.699 129.729 163.426 129.893Q163.152 130.057 162.87 130.208Q162.589 130.358 162.301 130.494Q162.012 130.631 161.717 130.753Q161.422 130.875 161.122 130.983Q160.822 131.09 160.516 131.183Q160.211 131.275 159.901 131.353Q159.592 131.43 159.279 131.493Q158.966 131.555 158.65 131.602Q158.334 131.649 158.017 131.68Q157.699 131.711 157.381 131.727Q157.062 131.743 156.743 131.743L12.999 131.743Q12.6799 131.743 12.3612 131.727Q12.0424 131.711 11.7249 131.68Q11.4073 131.649 11.0917 131.602Q10.776 131.555 10.463 131.493Q10.15 131.43 9.8405 131.353Q9.53096 131.275 9.22559 131.183Q8.92022 131.09 8.61977 130.983Q8.31931 130.875 8.0245 130.753Q7.72968 130.631 7.44121 130.494Q7.15274 130.358 6.87131 130.208Q6.58989 130.057 6.31618 129.893Q6.04247 129.729 5.77714 129.552Q5.51181 129.374 5.2555 129.184Q4.99919 128.994 4.75252 128.792Q4.50585 128.589 4.2694 128.375Q4.03296 128.161 3.80732 127.935Q3.58168 127.71 3.36738 127.473Q3.15308 127.237 2.95064 126.99Q2.7482 126.743 2.55811 126.487Q2.36801 126.231 2.19073 125.965Q2.01344 125.7 1.84939 125.426Q1.68533 125.153 1.53491 124.871Q1.38448 124.59 1.24804 124.301Q1.11161 124.013 0.98949 123.718Q0.867373 123.423 0.759869 123.123Q0.652364 122.822 0.559732 122.517Q0.4671 122.212 0.389564 121.902Q0.312027 121.592 0.249772 121.279Q0.187517 120.967 0.140694 120.651Q0.0938717 120.335 0.0625937 120.018Q0.0313157 119.7 0.0156579 119.381Q0 119.063 0 118.744L0 96.4923Q0 96.1732 0.0156579 95.8544Q0.0313157 95.5357 0.0625937 95.2181Q0.0938717 94.9006 0.140695 94.5849Q0.187517 94.2693 0.249772 93.9563Q0.312027 93.6433 0.389564 93.3338Q0.4671 93.0242 0.559732 92.7189Q0.652364 92.4135 0.759869 92.113Q0.867373 91.8126 0.98949 91.5178Q1.11161 91.2229 1.24804 90.9345Q1.38448 90.646 1.53491 90.3646Q1.68533 90.0832 1.84939 89.8094Q2.01344 89.5357 2.19073 89.2704Q2.36801 89.0051 2.55811 88.7488Q2.7482 88.4925 2.95064 88.2458Q3.15308 87.9991 3.36738 87.7627Q3.58168 87.5262 3.80732 87.3006Q4.03296 87.0749 4.2694 86.8607Q4.50585 86.6464 4.75252 86.4439Q4.99919 86.2415 5.2555 86.0514Q5.51181 85.8613 5.77714 85.684Q6.04247 85.5067 6.31618 85.3427Q6.58989 85.1786 6.87131 85.0282Q7.15274 84.8777 7.44121 84.7413Q7.72968 84.6049 8.0245 84.4828Q8.31931 84.3606 8.61977 84.2531Q8.92022 84.1456 9.22559 84.053Q9.53096 83.9604 9.8405 83.8828Q10.15 83.8053 10.463 83.743Q10.776 83.6808 11.0917 83.634Q11.4073 83.5871 11.7249 83.5559Q12.0424 83.5246 12.3612 83.5089Q12.6799 83.4933 12.999 83.4933L12.999 83.4933Z" id="Rectangle-2" fill="#D3D3D3" fill-rule="evenodd" stroke="none" />
    </g>
  </g>
</svg>