<?xml version="1.0" encoding="utf-8"?>
<svg width="182px" height="182px" viewBox="0 0 182 182" version="1.1" xmlns:xlink="http://www.w3.org/1999/xlink" xmlns="http://www.w3.org/2000/svg">
  <defs>
    <filter id="filter_1">
      <feColorMatrix in="SourceGraphic" type="matrix" values="0 0 0 0 0.827451 0 0 0 0 0.827451 0 0 0 0 0.827451 0 0 0 1 0" />
    </filter>
  </defs>
  <g id="align-center-vertical">
    <g id="Group-24" transform="matrix(-1.2675908E-06 1 -1 -1.2675908E-06 169.4548 11.232803)" filter="url(#filter_1)">
      <path d="M82.0541 0L82.0541 161.38" id="Line" fill="none" fill-rule="evenodd" stroke="#808080" stroke-width="15" stroke-linecap="square" />
      <path d="M40.1928 29.6559L117.249 29.6559Q117.568 29.6559 117.887 29.6716Q118.205 29.6872 118.523 29.7185Q118.84 29.7498 119.156 29.7966Q119.472 29.8434 119.785 29.9057Q120.098 29.968 120.407 30.0455Q120.717 30.123 121.022 30.2157Q121.328 30.3083 121.628 30.4158Q121.928 30.5233 122.223 30.6454Q122.518 30.7675 122.807 30.904Q123.095 31.0404 123.376 31.1908Q123.658 31.3413 123.932 31.5053Q124.205 31.6694 124.471 31.8467Q124.736 32.0239 124.992 32.214Q125.249 32.4041 125.495 32.6066Q125.742 32.809 125.978 33.0233Q126.215 33.2376 126.44 33.4632Q126.666 33.6889 126.88 33.9253Q127.095 34.1618 127.297 34.4085Q127.5 34.6551 127.69 34.9114Q127.88 35.1677 128.057 35.4331Q128.234 35.6984 128.398 35.9721Q128.562 36.2458 128.713 36.5272Q128.863 36.8087 129 37.0971Q129.136 37.3856 129.258 37.6804Q129.38 37.9752 129.488 38.2757Q129.595 38.5761 129.688 38.8815Q129.781 39.1869 129.858 39.4964Q129.936 39.806 129.998 40.1189Q130.06 40.4319 130.107 40.7476Q130.154 41.0632 130.185 41.3808Q130.216 41.6984 130.232 42.0171Q130.248 42.3358 130.248 42.6549L130.248 67.2795Q130.248 67.5986 130.232 67.9173Q130.216 68.236 130.185 68.5536Q130.154 68.8711 130.107 69.1868Q130.06 69.5025 129.998 69.8154Q129.936 70.1284 129.858 70.438Q129.781 70.7475 129.688 71.0529Q129.595 71.3582 129.488 71.6587Q129.38 71.9591 129.258 72.2539Q129.136 72.5488 129 72.8372Q128.863 73.1257 128.713 73.4071Q128.562 73.6886 128.398 73.9623Q128.234 74.236 128.057 74.5013Q127.88 74.7666 127.69 75.023Q127.5 75.2793 127.297 75.5259Q127.095 75.7726 126.88 76.0091Q126.666 76.2455 126.44 76.4711Q126.215 76.6968 125.978 76.9111Q125.742 77.1254 125.495 77.3278Q125.249 77.5303 124.992 77.7203Q124.736 77.9104 124.471 78.0877Q124.205 78.265 123.932 78.4291Q123.658 78.5931 123.376 78.7435Q123.095 78.894 122.807 79.0304Q122.518 79.1668 122.223 79.289Q121.928 79.4111 121.628 79.5186Q121.328 79.6261 121.022 79.7187Q120.717 79.8113 120.407 79.8889Q120.098 79.9664 119.785 80.0287Q119.472 80.0909 119.156 80.1378Q118.84 80.1846 118.523 80.2159Q118.205 80.2471 117.887 80.2628Q117.568 80.2785 117.249 80.2785L40.1928 80.2785Q39.8737 80.2785 39.555 80.2628Q39.2362 80.2471 38.9187 80.2159Q38.6011 80.1846 38.2854 80.1378Q37.9698 80.0909 37.6568 80.0287Q37.3438 79.9664 37.0343 79.8889Q36.7247 79.8113 36.4194 79.7187Q36.114 79.6261 35.8136 79.5186Q35.5131 79.4111 35.2183 79.289Q34.9235 79.1668 34.635 79.0304Q34.3465 78.894 34.0651 78.7435Q33.7837 78.5931 33.51 78.4291Q33.2363 78.265 32.9709 78.0877Q32.7056 77.9104 32.4493 77.7203Q32.193 77.5303 31.9463 77.3278Q31.6996 77.1254 31.4632 76.9111Q31.2268 76.6968 31.0011 76.4711Q30.7755 76.2455 30.5612 76.0091Q30.3469 75.7726 30.1444 75.5259Q29.942 75.2793 29.7519 75.023Q29.5618 74.7666 29.3845 74.5013Q29.2072 74.236 29.0432 73.9623Q28.8791 73.6886 28.7287 73.4071Q28.5783 73.1257 28.4418 72.8372Q28.3054 72.5488 28.1833 72.2539Q28.0612 71.9591 27.9537 71.6587Q27.8462 71.3582 27.7535 71.0529Q27.6609 70.7475 27.5834 70.438Q27.5058 70.1284 27.4436 69.8154Q27.3813 69.5025 27.3345 69.1868Q27.2877 68.8711 27.2564 68.5536Q27.2251 68.236 27.2095 67.9173Q27.1938 67.5986 27.1938 67.2795L27.1938 42.6549Q27.1938 42.3358 27.2095 42.0171Q27.2251 41.6984 27.2564 41.3808Q27.2877 41.0632 27.3345 40.7476Q27.3813 40.4319 27.4436 40.1189Q27.5058 39.806 27.5834 39.4964Q27.6609 39.1869 27.7535 38.8815Q27.8462 38.5761 27.9537 38.2757Q28.0612 37.9752 28.1833 37.6804Q28.3054 37.3856 28.4418 37.0971Q28.5783 36.8087 28.7287 36.5272Q28.8791 36.2458 29.0432 35.9721Q29.2072 35.6984 29.3845 35.4331Q29.5618 35.1677 29.7519 34.9114Q29.942 34.6551 30.1444 34.4084Q30.3469 34.1618 30.5612 33.9253Q30.7755 33.6889 31.0011 33.4632Q31.2268 33.2376 31.4632 33.0233Q31.6996 32.809 31.9463 32.6066Q32.193 32.4041 32.4493 32.214Q32.7056 32.0239 32.9709 31.8467Q33.2363 31.6694 33.51 31.5053Q33.7837 31.3413 34.0651 31.1908Q34.3465 31.0404 34.635 30.904Q34.9235 30.7675 35.2183 30.6454Q35.5131 30.5233 35.8136 30.4158Q36.114 30.3083 36.4194 30.2157Q36.7247 30.123 37.0343 30.0455Q37.3438 29.968 37.6568 29.9057Q37.9698 29.8434 38.2854 29.7966Q38.6011 29.7498 38.9187 29.7185Q39.2362 29.6872 39.555 29.6716Q39.8737 29.6559 40.1928 29.6559Z" id="Rectangle" fill="#D3D3D3" fill-rule="evenodd" stroke="none" />
      <path d="M12.999 87.6002L143.747 87.6002Q144.066 87.6002 144.385 87.6159Q144.704 87.6316 145.021 87.6628Q145.339 87.6941 145.654 87.7409Q145.97 87.7878 146.283 87.85Q146.596 87.9123 146.905 87.9898Q147.215 88.0673 147.52 88.16Q147.826 88.2526 148.126 88.3601Q148.427 88.4676 148.721 88.5897Q149.016 88.7118 149.305 88.8483Q149.593 88.9847 149.875 89.1351Q150.156 89.2856 150.43 89.4496Q150.704 89.6137 150.969 89.791Q151.234 89.9682 151.49 90.1583Q151.747 90.3484 151.993 90.5509Q152.24 90.7533 152.477 90.9676Q152.713 91.1819 152.939 91.4076Q153.164 91.6332 153.379 91.8696Q153.593 92.1061 153.795 92.3528Q153.998 92.5994 154.188 92.8557Q154.378 93.112 154.555 93.3774Q154.733 93.6427 154.897 93.9164Q155.061 94.1901 155.211 94.4715Q155.362 94.753 155.498 95.0414Q155.634 95.3299 155.756 95.6247Q155.879 95.9195 155.986 96.22Q156.094 96.5205 156.186 96.8258Q156.279 97.1312 156.356 97.4407Q156.434 97.7503 156.496 98.0632Q156.558 98.3762 156.605 98.6919Q156.652 99.0075 156.683 99.3251Q156.715 99.6427 156.73 99.9614Q156.746 100.28 156.746 100.599L156.746 125.224Q156.746 125.543 156.73 125.862Q156.715 126.18 156.683 126.498Q156.652 126.815 156.605 127.131Q156.558 127.447 156.496 127.76Q156.434 128.073 156.356 128.382Q156.279 128.692 156.186 128.997Q156.094 129.303 155.986 129.603Q155.879 129.903 155.756 130.198Q155.634 130.493 155.498 130.782Q155.362 131.07 155.211 131.351Q155.061 131.633 154.897 131.907Q154.733 132.18 154.555 132.446Q154.378 132.711 154.188 132.967Q153.998 133.224 153.795 133.47Q153.593 133.717 153.379 133.953Q153.164 134.19 152.939 134.415Q152.713 134.641 152.477 134.855Q152.24 135.07 151.993 135.272Q151.747 135.475 151.49 135.665Q151.234 135.855 150.969 136.032Q150.704 136.209 150.43 136.373Q150.156 136.537 149.875 136.688Q149.593 136.838 149.305 136.975Q149.016 137.111 148.721 137.233Q148.427 137.355 148.126 137.463Q147.826 137.57 147.52 137.663Q147.215 137.756 146.905 137.833Q146.596 137.911 146.283 137.973Q145.97 138.035 145.654 138.082Q145.339 138.129 145.021 138.16Q144.704 138.191 144.385 138.207Q144.066 138.223 143.747 138.223L12.999 138.223Q12.6799 138.223 12.3612 138.207Q12.0424 138.191 11.7249 138.16Q11.4073 138.129 11.0917 138.082Q10.776 138.035 10.463 137.973Q10.15 137.911 9.8405 137.833Q9.53096 137.756 9.22559 137.663Q8.92022 137.57 8.61977 137.463Q8.31931 137.355 8.0245 137.233Q7.72968 137.111 7.44121 136.975Q7.15274 136.838 6.87131 136.688Q6.58989 136.537 6.31618 136.373Q6.04247 136.209 5.77714 136.032Q5.51181 135.855 5.2555 135.665Q4.99919 135.475 4.75252 135.272Q4.50585 135.07 4.2694 134.855Q4.03296 134.641 3.80732 134.415Q3.58168 134.19 3.36738 133.953Q3.15308 133.717 2.95064 133.47Q2.7482 133.224 2.55811 132.967Q2.36801 132.711 2.19073 132.446Q2.01344 132.18 1.84939 131.907Q1.68533 131.633 1.53491 131.351Q1.38448 131.07 1.24804 130.782Q1.11161 130.493 0.98949 130.198Q0.867373 129.903 0.759869 129.603Q0.652364 129.303 0.559732 128.997Q0.4671 128.692 0.389564 128.382Q0.312027 128.073 0.249772 127.76Q0.187517 127.447 0.140694 127.131Q0.0938717 126.815 0.0625937 126.498Q0.0313157 126.18 0.0156579 125.862Q0 125.543 0 125.224L0 100.599Q0 100.28 0.0156579 99.9614Q0.0313157 99.6427 0.0625937 99.3251Q0.0938717 99.0075 0.140695 98.6919Q0.187517 98.3762 0.249772 98.0632Q0.312027 97.7503 0.389564 97.4407Q0.4671 97.1312 0.559732 96.8258Q0.652364 96.5204 0.759869 96.22Q0.867373 95.9195 0.98949 95.6247Q1.11161 95.3299 1.24804 95.0414Q1.38448 94.753 1.53491 94.4716Q1.68533 94.1901 1.84939 93.9164Q2.01344 93.6427 2.19073 93.3774Q2.36801 93.112 2.55811 92.8557Q2.7482 92.5994 2.95064 92.3528Q3.15308 92.1061 3.36738 91.8696Q3.58168 91.6332 3.80732 91.4076Q4.03296 91.1819 4.2694 90.9676Q4.50585 90.7533 4.75252 90.5509Q4.99919 90.3484 5.2555 90.1583Q5.51181 89.9682 5.77714 89.791Q6.04247 89.6137 6.31618 89.4496Q6.58989 89.2856 6.87131 89.1351Q7.15274 88.9847 7.44121 88.8483Q7.72968 88.7118 8.0245 88.5897Q8.31931 88.4676 8.61977 88.3601Q8.92022 88.2526 9.22559 88.16Q9.53096 88.0673 9.8405 87.9898Q10.15 87.9123 10.463 87.85Q10.776 87.7878 11.0917 87.7409Q11.4073 87.6941 11.7249 87.6628Q12.0424 87.6316 12.3612 87.6159Q12.6799 87.6002 12.999 87.6002Z" id="Rectangle-2" fill="#D3D3D3" fill-rule="evenodd" stroke="none" />
    </g>
  </g>
</svg>