<?xml version="1.0" encoding="utf-8"?>
<svg width="182px" height="182px" viewBox="0 0 182 182" version="1.1" xmlns:xlink="http://www.w3.org/1999/xlink" xmlns="http://www.w3.org/2000/svg">
  <defs>
    <filter id="filter_1">
      <feColorMatrix in="SourceGraphic" type="matrix" values="0 0 0 0 0.827451 0 0 0 0 0.827451 0 0 0 0 0.827451 0 0 0 1 0" />
    </filter>
  </defs>
  <g id="align-top">
    <g id="Group-22" transform="matrix(-1.2675908E-06 1 -1 -1.2675908E-06 171.93596 12.271561)" filter="url(#filter_1)">
      <path d="M3.27964 0L3.27964 164.619" id="Line" fill="none" fill-rule="evenodd" stroke="#808080" stroke-width="15" stroke-linecap="square" />
      <path d="M13.3502 29.3427L91.4058 29.3427Q91.7249 29.3427 92.0436 29.3584Q92.3623 29.374 92.6799 29.4053Q92.9975 29.4366 93.3131 29.4834Q93.6288 29.5302 93.9417 29.5925Q94.2547 29.6547 94.5643 29.7323Q94.8738 29.8098 95.1792 29.9024Q95.4845 29.9951 95.785 30.1026Q96.0854 30.2101 96.3803 30.3322Q96.6751 30.4543 96.9635 30.5907Q97.252 30.7272 97.5335 30.8776Q97.8149 31.028 98.0886 31.1921Q98.3623 31.3561 98.6276 31.5334Q98.8929 31.7107 99.1493 31.9008Q99.4056 32.0909 99.6522 32.2933Q99.8989 32.4958 100.135 32.7101Q100.372 32.9244 100.597 33.15Q100.823 33.3757 101.037 33.6121Q101.252 33.8485 101.454 34.0952Q101.657 34.3419 101.847 34.5982Q102.037 34.8545 102.214 35.1198Q102.391 35.3852 102.555 35.6589Q102.719 35.9326 102.87 36.214Q103.02 36.4954 103.157 36.7839Q103.293 37.0724 103.415 37.3672Q103.537 37.662 103.645 37.9625Q103.752 38.2629 103.845 38.5683Q103.938 38.8736 104.015 39.1832Q104.093 39.4927 104.155 39.8057Q104.217 40.1187 104.264 40.4343Q104.311 40.75 104.342 41.0676Q104.373 41.3851 104.389 41.7039Q104.405 42.0226 104.405 42.3417L104.405 67.9825Q104.405 68.3017 104.389 68.6204Q104.373 68.9391 104.342 69.2567Q104.311 69.5742 104.264 69.8899Q104.217 70.2055 104.155 70.5185Q104.093 70.8315 104.015 71.141Q103.938 71.4506 103.845 71.756Q103.752 72.0613 103.645 72.3618Q103.537 72.6622 103.415 72.957Q103.293 73.2518 103.157 73.5403Q103.02 73.8288 102.87 74.1102Q102.719 74.3916 102.555 74.6654Q102.391 74.939 102.214 75.2044Q102.037 75.4697 101.847 75.726Q101.657 75.9823 101.454 76.229Q101.252 76.4757 101.037 76.7121Q100.823 76.9486 100.597 77.1742Q100.372 77.3999 100.135 77.6142Q99.8989 77.8285 99.6522 78.0309Q99.4056 78.2333 99.1493 78.4234Q98.8929 78.6135 98.6276 78.7908Q98.3623 78.9681 98.0886 79.1321Q97.8149 79.2962 97.5334 79.4466Q97.252 79.597 96.9635 79.7335Q96.6751 79.8699 96.3802 79.992Q96.0854 80.1142 95.785 80.2216Q95.4845 80.3292 95.1792 80.4218Q94.8738 80.5144 94.5642 80.592Q94.2547 80.6695 93.9417 80.7318Q93.6288 80.794 93.3131 80.8408Q92.9975 80.8877 92.6799 80.9189Q92.3623 80.9502 92.0436 80.9659Q91.7249 80.9815 91.4058 80.9815L13.3502 80.9815Q13.0311 80.9815 12.7123 80.9659Q12.3936 80.9502 12.076 80.9189Q11.7585 80.8877 11.4428 80.8408Q11.1272 80.794 10.8142 80.7318Q10.5012 80.6695 10.1917 80.592Q9.88212 80.5144 9.57676 80.4218Q9.27139 80.3292 8.97094 80.2216Q8.67048 80.1142 8.37567 79.992Q8.08085 79.8699 7.79238 79.7335Q7.50391 79.597 7.22248 79.4466Q6.94105 79.2962 6.66735 79.1321Q6.39364 78.9681 6.12831 78.7908Q5.86298 78.6135 5.60667 78.4234Q5.35036 78.2333 5.10369 78.0309Q4.85702 77.8285 4.62057 77.6142Q4.38413 77.3999 4.15849 77.1742Q3.93284 76.9486 3.71854 76.7121Q3.50425 76.4757 3.30181 76.229Q3.09937 75.9823 2.90927 75.726Q2.71918 75.4697 2.54189 75.2044Q2.36461 74.939 2.20055 74.6654Q2.0365 74.3916 1.88607 74.1102Q1.73565 73.8288 1.59921 73.5403Q1.46278 73.2518 1.34066 72.957Q1.21854 72.6622 1.11104 72.3618Q1.00353 72.0613 0.910901 71.7559Q0.818269 71.4506 0.740732 71.141Q0.663196 70.8315 0.600941 70.5185Q0.538686 70.2055 0.491863 69.8899Q0.445041 69.5742 0.413763 69.2567Q0.382485 68.9391 0.366827 68.6204Q0.351169 68.3017 0.351169 67.9825L0.351169 42.3417Q0.351169 42.0226 0.366827 41.7039Q0.382485 41.3851 0.413763 41.0676Q0.445041 40.75 0.491863 40.4343Q0.538686 40.1187 0.600941 39.8057Q0.663196 39.4927 0.740732 39.1832Q0.818269 38.8736 0.910901 38.5683Q1.00353 38.2629 1.11104 37.9625Q1.21854 37.662 1.34066 37.3672Q1.46278 37.0724 1.59921 36.7839Q1.73565 36.4954 1.88607 36.214Q2.0365 35.9326 2.20055 35.6589Q2.36461 35.3852 2.54189 35.1198Q2.71918 34.8545 2.90927 34.5982Q3.09937 34.3419 3.30181 34.0952Q3.50425 33.8485 3.71854 33.6121Q3.93284 33.3757 4.15849 33.15Q4.38413 32.9244 4.62057 32.7101Q4.85702 32.4958 5.10369 32.2933Q5.35036 32.0909 5.60667 31.9008Q5.86298 31.7107 6.12831 31.5334Q6.39364 31.3561 6.66735 31.1921Q6.94105 31.028 7.22248 30.8776Q7.50391 30.7272 7.79238 30.5907Q8.08085 30.4543 8.37567 30.3322Q8.67048 30.2101 8.97094 30.1026Q9.27139 29.9951 9.57676 29.9024Q9.88212 29.8098 10.1917 29.7323Q10.5012 29.6547 10.8142 29.5925Q11.1272 29.5302 11.4428 29.4834Q11.7585 29.4366 12.076 29.4053Q12.3936 29.374 12.7123 29.3584Q13.0311 29.3427 13.3502 29.3427Z" id="Rectangle" fill="#D3D3D3" fill-rule="evenodd" stroke="none" />
      <path d="M12.999 88.4384L145.267 88.4384Q145.586 88.4384 145.905 88.4541Q146.224 88.4697 146.542 88.501Q146.859 88.5323 147.175 88.5791Q147.49 88.6259 147.803 88.6882Q148.116 88.7505 148.426 88.828Q148.735 88.9055 149.041 88.9982Q149.346 89.0908 149.647 89.1983Q149.947 89.3058 150.242 89.4279Q150.537 89.55 150.825 89.6865Q151.114 89.8229 151.395 89.9733Q151.676 90.1237 151.95 90.2878Q152.224 90.4519 152.489 90.6291Q152.755 90.8064 153.011 90.9965Q153.267 91.1866 153.514 91.3891Q153.761 91.5915 153.997 91.8058Q154.233 92.0201 154.459 92.2457Q154.685 92.4714 154.899 92.7078Q155.113 92.9443 155.316 93.191Q155.518 93.4376 155.708 93.6939Q155.898 93.9502 156.076 94.2156Q156.253 94.4809 156.417 94.7546Q156.581 95.0283 156.731 95.3097Q156.882 95.5912 157.018 95.8796Q157.155 96.1681 157.277 96.4629Q157.399 96.7577 157.507 97.0582Q157.614 97.3587 157.707 97.664Q157.799 97.9694 157.877 98.2789Q157.954 98.5885 158.017 98.9014Q158.079 99.2144 158.126 99.5301Q158.173 99.8457 158.204 100.163Q158.235 100.481 158.251 100.8Q158.266 101.118 158.266 101.437L158.266 127.078Q158.266 127.397 158.251 127.716Q158.235 128.035 158.204 128.352Q158.173 128.67 158.126 128.986Q158.079 129.301 158.017 129.614Q157.954 129.927 157.877 130.237Q157.799 130.546 157.707 130.852Q157.614 131.157 157.507 131.458Q157.399 131.758 157.277 132.053Q157.155 132.348 157.018 132.636Q156.882 132.925 156.731 133.206Q156.581 133.487 156.417 133.761Q156.253 134.035 156.076 134.3Q155.898 134.565 155.708 134.822Q155.518 135.078 155.316 135.325Q155.113 135.571 154.899 135.808Q154.685 136.044 154.459 136.27Q154.233 136.496 153.997 136.71Q153.761 136.924 153.514 137.127Q153.267 137.329 153.011 137.519Q152.755 137.709 152.489 137.887Q152.224 138.064 151.95 138.228Q151.676 138.392 151.395 138.542Q151.114 138.693 150.825 138.829Q150.537 138.966 150.242 139.088Q149.947 139.21 149.647 139.317Q149.346 139.425 149.041 139.518Q148.735 139.61 148.426 139.688Q148.116 139.765 147.803 139.827Q147.49 139.89 147.175 139.937Q146.859 139.983 146.542 140.015Q146.224 140.046 145.905 140.062Q145.586 140.077 145.267 140.077L12.999 140.077Q12.6799 140.077 12.3612 140.062Q12.0424 140.046 11.7249 140.015Q11.4073 139.983 11.0917 139.937Q10.776 139.89 10.463 139.827Q10.15 139.765 9.8405 139.688Q9.53096 139.61 9.22559 139.518Q8.92022 139.425 8.61977 139.317Q8.31931 139.21 8.0245 139.088Q7.72968 138.966 7.44121 138.829Q7.15274 138.693 6.87131 138.542Q6.58989 138.392 6.31618 138.228Q6.04247 138.064 5.77714 137.887Q5.51181 137.709 5.2555 137.519Q4.99919 137.329 4.75252 137.127Q4.50585 136.924 4.2694 136.71Q4.03296 136.496 3.80732 136.27Q3.58168 136.044 3.36738 135.808Q3.15308 135.571 2.95064 135.325Q2.7482 135.078 2.55811 134.822Q2.36801 134.565 2.19073 134.3Q2.01344 134.035 1.84939 133.761Q1.68533 133.487 1.53491 133.206Q1.38448 132.925 1.24804 132.636Q1.11161 132.348 0.98949 132.053Q0.867373 131.758 0.759869 131.458Q0.652364 131.157 0.559732 130.852Q0.4671 130.546 0.389564 130.237Q0.312027 129.927 0.249772 129.614Q0.187517 129.301 0.140694 128.986Q0.0938717 128.67 0.0625937 128.352Q0.0313157 128.035 0.0156579 127.716Q0 127.397 0 127.078L0 101.437Q0 101.118 0.0156579 100.8Q0.0313157 100.481 0.0625937 100.163Q0.0938717 99.8457 0.140695 99.5301Q0.187517 99.2144 0.249772 98.9014Q0.312027 98.5885 0.389564 98.2789Q0.4671 97.9694 0.559732 97.664Q0.652364 97.3586 0.759869 97.0582Q0.867373 96.7577 0.98949 96.4629Q1.11161 96.1681 1.24804 95.8796Q1.38448 95.5912 1.53491 95.3097Q1.68533 95.0283 1.84939 94.7546Q2.01344 94.4809 2.19073 94.2156Q2.36801 93.9502 2.55811 93.6939Q2.7482 93.4376 2.95064 93.191Q3.15308 92.9443 3.36738 92.7078Q3.58168 92.4714 3.80732 92.2457Q4.03296 92.0201 4.2694 91.8058Q4.50585 91.5915 4.75252 91.3891Q4.99919 91.1866 5.2555 90.9965Q5.51181 90.8064 5.77714 90.6292Q6.04247 90.4519 6.31618 90.2878Q6.58989 90.1237 6.87131 89.9733Q7.15274 89.8229 7.44121 89.6865Q7.72968 89.55 8.0245 89.4279Q8.31931 89.3058 8.61977 89.1983Q8.92022 89.0908 9.22559 88.9982Q9.53096 88.9055 9.8405 88.828Q10.15 88.7505 10.463 88.6882Q10.776 88.6259 11.0917 88.5791Q11.4073 88.5323 11.7249 88.501Q12.0424 88.4698 12.3612 88.4541Q12.6799 88.4384 12.999 88.4384Z" id="Rectangle-2" fill="#D3D3D3" fill-rule="evenodd" stroke="none" />
    </g>
  </g>
</svg>