<?xml version="1.0" encoding="utf-8"?>
<svg width="182px" height="182px" viewBox="0 0 182 182" version="1.1" xmlns:xlink="http://www.w3.org/1999/xlink" xmlns="http://www.w3.org/2000/svg">
  <defs>
    <filter id="filter_1">
      <feColorMatrix in="SourceGraphic" type="matrix" values="0 0 0 0 0.827451 0 0 0 0 0.827451 0 0 0 0 0.827451 0 0 0 1 0" />
    </filter>
  </defs>
  <g id="align-bottom">
    <g id="Group-25" transform="matrix(-1.2941264E-06 -1 1 -1.2941264E-06 9.759933 164.92363)" filter="url(#filter_1)">
      <path d="M3.15897 -1.60153e-08L3.15898 159.805" id="Line" fill="none" fill-rule="evenodd" stroke="#808080" stroke-width="15" stroke-linecap="square" />
      <path d="M13.3383 28.4846L87.5264 28.4846Q87.8456 28.4846 88.1643 28.5003Q88.483 28.5159 88.8006 28.5472Q89.1181 28.5785 89.4338 28.6253Q89.7494 28.6721 90.0624 28.7344Q90.3754 28.7967 90.6849 28.8742Q90.9945 28.9517 91.2999 29.0444Q91.6052 29.137 91.9057 29.2445Q92.2061 29.352 92.5009 29.4741Q92.7958 29.5962 93.0842 29.7327Q93.3727 29.8691 93.6541 30.0195Q93.9356 30.17 94.2093 30.334Q94.483 30.4981 94.7483 30.6753Q95.0136 30.8526 95.2699 31.0427Q95.5262 31.2328 95.7729 31.4353Q96.0196 31.6377 96.256 31.852Q96.4925 32.0663 96.7181 32.2919Q96.9438 32.5176 97.1581 32.754Q97.3724 32.9905 97.5748 33.2371Q97.7772 33.4838 97.9673 33.7401Q98.1574 33.9964 98.3347 34.2618Q98.512 34.5271 98.6761 34.8008Q98.8401 35.0745 98.9905 35.3559Q99.141 35.6374 99.2774 35.9258Q99.4138 36.2143 99.5359 36.5091Q99.6581 36.8039 99.7656 37.1044Q99.8731 37.4048 99.9657 37.7102Q100.058 38.0156 100.136 38.3251Q100.213 38.6347 100.276 38.9476Q100.338 39.2606 100.385 39.5763Q100.432 39.8919 100.463 40.2095Q100.494 40.5271 100.51 40.8458Q100.525 41.1645 100.525 41.4836L100.525 65.6142Q100.525 65.9333 100.51 66.252Q100.494 66.5707 100.463 66.8883Q100.432 67.2059 100.385 67.5215Q100.338 67.8372 100.276 68.1502Q100.213 68.4631 100.136 68.7727Q100.058 69.0822 99.9657 69.3876Q99.8731 69.693 99.7656 69.9934Q99.6581 70.2939 99.5359 70.5887Q99.4138 70.8835 99.2774 71.172Q99.141 71.4604 98.9905 71.7419Q98.8401 72.0233 98.676 72.297Q98.512 72.5707 98.3347 72.836Q98.1574 73.1014 97.9673 73.3577Q97.7772 73.614 97.5748 73.8607Q97.3724 74.1073 97.1581 74.3438Q96.9437 74.5802 96.7181 74.8059Q96.4925 75.0315 96.256 75.2458Q96.0196 75.4601 95.7729 75.6626Q95.5262 75.865 95.2699 76.0551Q95.0136 76.2452 94.7483 76.4225Q94.4829 76.5997 94.2093 76.7638Q93.9355 76.9279 93.6541 77.0783Q93.3727 77.2287 93.0842 77.3651Q92.7958 77.5016 92.5009 77.6237Q92.2061 77.7458 91.9057 77.8533Q91.6052 77.9608 91.2999 78.0535Q90.9945 78.1461 90.6849 78.2236Q90.3754 78.3012 90.0624 78.3634Q89.7494 78.4257 89.4338 78.4725Q89.1181 78.5193 88.8006 78.5506Q88.483 78.5819 88.1643 78.5975Q87.8456 78.6132 87.5264 78.6132L13.3384 78.6132Q13.0192 78.6132 12.7005 78.5975Q12.3818 78.5819 12.0642 78.5506Q11.7467 78.5193 11.431 78.4725Q11.1153 78.4257 10.8024 78.3634Q10.4894 78.3012 10.1799 78.2236Q9.87031 78.1461 9.56494 78.0535Q9.25957 77.9608 8.95912 77.8533Q8.65866 77.7458 8.36385 77.6237Q8.06903 77.5016 7.78056 77.3652Q7.49209 77.2287 7.21066 77.0783Q6.92924 76.9279 6.65553 76.7638Q6.38182 76.5998 6.11649 76.4225Q5.85116 76.2452 5.59485 76.0551Q5.33855 75.865 5.09187 75.6626Q4.8452 75.4601 4.60876 75.2458Q4.37231 75.0315 4.14667 74.8059Q3.92103 74.5802 3.70673 74.3438Q3.49243 74.1073 3.28999 73.8607Q3.08755 73.614 2.89746 73.3577Q2.70736 73.1014 2.53008 72.836Q2.35279 72.5707 2.18874 72.297Q2.02468 72.0233 1.87426 71.7419Q1.72383 71.4604 1.58739 71.172Q1.45096 70.8835 1.32884 70.5887Q1.20672 70.2939 1.09922 69.9934Q0.991715 69.693 0.899083 69.3876Q0.806451 69.0822 0.728914 68.7727Q0.651377 68.4631 0.589123 68.1502Q0.526868 67.8372 0.480045 67.5215Q0.433222 67.2059 0.401944 66.8883Q0.370666 66.5707 0.355008 66.252Q0.339351 65.9333 0.339351 65.6142L0.33935 41.4836Q0.33935 41.1645 0.355008 40.8458Q0.370666 40.5271 0.401944 40.2095Q0.433222 39.8919 0.480045 39.5763Q0.526867 39.2606 0.589122 38.9476Q0.651377 38.6347 0.728914 38.3251Q0.80645 38.0156 0.899082 37.7102Q0.991714 37.4048 1.09922 37.1044Q1.20672 36.8039 1.32884 36.5091Q1.45096 36.2143 1.58739 35.9258Q1.72383 35.6374 1.87426 35.3559Q2.02468 35.0745 2.18874 34.8008Q2.35279 34.5271 2.53008 34.2618Q2.70736 33.9964 2.89745 33.7401Q3.08755 33.4838 3.28999 33.2371Q3.49243 32.9905 3.70673 32.754Q3.92103 32.5176 4.14667 32.2919Q4.37231 32.0663 4.60875 31.852Q4.8452 31.6377 5.09187 31.4353Q5.33854 31.2328 5.59485 31.0427Q5.85116 30.8526 6.11649 30.6753Q6.38182 30.4981 6.65553 30.334Q6.92923 30.17 7.21066 30.0195Q7.49209 29.8691 7.78056 29.7327Q8.06903 29.5962 8.36385 29.4741Q8.65866 29.352 8.95912 29.2445Q9.25957 29.137 9.56494 29.0444Q9.87031 28.9517 10.1798 28.8742Q10.4894 28.7967 10.8024 28.7344Q11.1153 28.6721 11.431 28.6253Q11.7467 28.5785 12.0642 28.5472Q12.3818 28.5159 12.7005 28.5003Q13.0192 28.4846 13.3383 28.4846Z" id="Rectangle" fill="#D3D3D3" fill-rule="evenodd" stroke="none" />
      <path d="M12.999 85.8519L139.385 85.8519Q139.704 85.8519 140.023 85.8675Q140.341 85.8832 140.659 85.9145Q140.977 85.9458 141.292 85.9926Q141.608 86.0394 141.921 86.1017Q142.234 86.1639 142.543 86.2414Q142.853 86.319 143.158 86.4116Q143.464 86.5042 143.764 86.6117Q144.065 86.7193 144.359 86.8414Q144.654 86.9635 144.943 87.0999Q145.231 87.2364 145.513 87.3868Q145.794 87.5372 146.068 87.7013Q146.341 87.8653 146.607 88.0426Q146.872 88.2199 147.128 88.41Q147.385 88.6001 147.631 88.8025Q147.878 89.005 148.114 89.2193Q148.351 89.4336 148.577 89.6592Q148.802 89.8848 149.016 90.1213Q149.231 90.3577 149.433 90.6044Q149.636 90.8511 149.826 91.1074Q150.016 91.3637 150.193 91.629Q150.37 91.8943 150.534 92.1681Q150.699 92.4418 150.849 92.7232Q150.999 93.0046 151.136 93.2931Q151.272 93.5816 151.394 93.8764Q151.517 94.1712 151.624 94.4717Q151.732 94.7721 151.824 95.0775Q151.917 95.3828 151.994 95.6924Q152.072 96.0019 152.134 96.3149Q152.196 96.6279 152.243 96.9435Q152.29 97.2592 152.321 97.5768Q152.353 97.8943 152.368 98.2131Q152.384 98.5318 152.384 98.8509L152.384 122.981Q152.384 123.301 152.368 123.619Q152.353 123.938 152.321 124.256Q152.29 124.573 152.243 124.889Q152.196 125.204 152.134 125.517Q152.072 125.83 151.994 126.14Q151.917 126.449 151.824 126.755Q151.731 127.06 151.624 127.361Q151.516 127.661 151.394 127.956Q151.272 128.251 151.136 128.539Q150.999 128.828 150.849 129.109Q150.699 129.391 150.534 129.664Q150.37 129.938 150.193 130.203Q150.016 130.469 149.826 130.725Q149.636 130.981 149.433 131.228Q149.231 131.475 149.016 131.711Q148.802 131.948 148.577 132.173Q148.351 132.399 148.114 132.613Q147.878 132.827 147.631 133.03Q147.385 133.232 147.128 133.422Q146.872 133.612 146.607 133.79Q146.341 133.967 146.068 134.131Q145.794 134.295 145.513 134.446Q145.231 134.596 144.943 134.732Q144.654 134.869 144.359 134.991Q144.065 135.113 143.764 135.221Q143.464 135.328 143.158 135.421Q142.853 135.513 142.543 135.591Q142.234 135.668 141.921 135.731Q141.608 135.793 141.292 135.84Q140.977 135.887 140.659 135.918Q140.341 135.949 140.023 135.965Q139.704 135.98 139.385 135.98L12.999 135.98Q12.6799 135.98 12.3612 135.965Q12.0424 135.949 11.7249 135.918Q11.4073 135.887 11.0917 135.84Q10.776 135.793 10.463 135.731Q10.15 135.668 9.8405 135.591Q9.53096 135.513 9.22559 135.421Q8.92022 135.328 8.61977 135.221Q8.31931 135.113 8.0245 134.991Q7.72968 134.869 7.44121 134.732Q7.15274 134.596 6.87131 134.446Q6.58989 134.295 6.31618 134.131Q6.04247 133.967 5.77714 133.79Q5.51181 133.612 5.25551 133.422Q4.9992 133.232 4.75252 133.03Q4.50585 132.827 4.26941 132.613Q4.03296 132.399 3.80732 132.173Q3.58168 131.948 3.36738 131.711Q3.15308 131.475 2.95064 131.228Q2.7482 130.981 2.55811 130.725Q2.36801 130.469 2.19073 130.203Q2.01344 129.938 1.84939 129.664Q1.68533 129.391 1.53491 129.109Q1.38448 128.828 1.24804 128.539Q1.11161 128.251 0.989491 127.956Q0.867373 127.661 0.759869 127.361Q0.652365 127.06 0.559733 126.755Q0.467101 126.45 0.389564 126.14Q0.312028 125.83 0.249773 125.517Q0.187518 125.204 0.140695 124.889Q0.0938725 124.573 0.0625945 124.256Q0.0313164 123.938 0.0156586 123.619Q7.12377e-07 123.301 7.06307e-07 122.981L2.47277e-07 98.8509Q2.41207e-07 98.5318 0.0156581 98.2131Q0.031316 97.8943 0.062594 97.5768Q0.093872 97.2592 0.140695 96.9435Q0.187518 96.6279 0.249772 96.3149Q0.312027 96.0019 0.389564 95.6924Q0.467101 95.3828 0.559733 95.0775Q0.652365 94.7721 0.759869 94.4716Q0.867373 94.1712 0.98949 93.8764Q1.11161 93.5816 1.24804 93.2931Q1.38448 93.0046 1.53491 92.7232Q1.68533 92.4418 1.84939 92.1681Q2.01344 91.8944 2.19073 91.629Q2.36801 91.3637 2.55811 91.1074Q2.7482 90.8511 2.95064 90.6044Q3.15308 90.3577 3.36738 90.1213Q3.58168 89.8848 3.80732 89.6592Q4.03296 89.4336 4.2694 89.2193Q4.50585 89.005 4.75252 88.8025Q4.99919 88.6001 5.2555 88.41Q5.51181 88.2199 5.77714 88.0426Q6.04247 87.8653 6.31618 87.7013Q6.58989 87.5372 6.87131 87.3868Q7.15274 87.2364 7.44121 87.0999Q7.72968 86.9635 8.0245 86.8414Q8.31931 86.7193 8.61977 86.6118Q8.92022 86.5042 9.22559 86.4116Q9.53096 86.319 9.8405 86.2414Q10.15 86.1639 10.463 86.1017Q10.776 86.0394 11.0917 85.9926Q11.4073 85.9458 11.7249 85.9145Q12.0424 85.8832 12.3612 85.8675Q12.6799 85.8519 12.999 85.8519Z" id="Rectangle-2" fill="#D3D3D3" fill-rule="evenodd" stroke="none" />
    </g>
  </g>
</svg>