<?xml version="1.0" encoding="utf-8"?>
<svg width="182px" height="182px" viewBox="0 0 182 182" version="1.1" xmlns:xlink="http://www.w3.org/1999/xlink" xmlns="http://www.w3.org/2000/svg">
  <defs>
    <filter id="filter_1">
      <feColorMatrix in="SourceGraphic" type="matrix" values="0 0 0 0 0.827451 0 0 0 0 0.827451 0 0 0 0 0.827451 0 0 0 1 0" />
    </filter>
  </defs>
  <g id="align-right">
    <g id="Group-23" transform="matrix(-1 -2.2093402E-06 2.2093402E-06 -1 168.26761 167.89641)" filter="url(#filter_1)">
      <path d="M3.41281 0L3.41281 148.24" id="Line" fill="none" fill-rule="evenodd" stroke="#808080" stroke-width="15" stroke-linecap="square" />
      <path d="M13.3644 26.4232L95.6028 26.4232Q95.9219 26.4232 96.2406 26.4388Q96.5594 26.4545 96.8769 26.4858Q97.1945 26.517 97.5101 26.5639Q97.8258 26.6107 98.1388 26.6729Q98.4517 26.7352 98.7613 26.8127Q99.0708 26.8903 99.3762 26.9829Q99.6816 27.0755 99.982 27.183Q100.282 27.2905 100.577 27.4126Q100.872 27.5348 101.161 27.6712Q101.449 27.8076 101.73 27.9581Q102.012 28.1085 102.286 28.2725Q102.559 28.4366 102.825 28.6139Q103.09 28.7912 103.346 28.9813Q103.603 29.1714 103.849 29.3738Q104.096 29.5762 104.332 29.7905Q104.569 30.0048 104.794 30.2305Q105.02 30.4561 105.234 30.6926Q105.449 30.929 105.651 31.1757Q105.854 31.4224 106.044 31.6787Q106.234 31.935 106.411 32.2003Q106.588 32.4656 106.752 32.7393Q106.916 33.013 107.067 33.2945Q107.217 33.5759 107.354 33.8644Q107.49 34.1528 107.612 34.4477Q107.734 34.7425 107.842 35.0429Q107.949 35.3434 108.042 35.6488Q108.135 35.9541 108.212 36.2637Q108.29 36.5732 108.352 36.8862Q108.414 37.1992 108.461 37.5148Q108.508 37.8305 108.539 38.148Q108.57 38.4656 108.586 38.7843Q108.602 39.1031 108.602 39.4222L108.602 59.925Q108.602 60.2441 108.586 60.5629Q108.57 60.8816 108.539 61.1992Q108.508 61.5167 108.461 61.8324Q108.414 62.148 108.352 62.461Q108.29 62.774 108.212 63.0835Q108.135 63.3931 108.042 63.6984Q107.949 64.0038 107.842 64.3043Q107.734 64.6047 107.612 64.8995Q107.49 65.1944 107.354 65.4828Q107.217 65.7713 107.067 66.0527Q106.916 66.3341 106.752 66.6078Q106.588 66.8816 106.411 67.1469Q106.234 67.4122 106.044 67.6685Q105.854 67.9248 105.651 68.1715Q105.449 68.4182 105.234 68.6546Q105.02 68.8911 104.794 69.1167Q104.569 69.3424 104.332 69.5567Q104.096 69.771 103.849 69.9734Q103.603 70.1758 103.346 70.3659Q103.09 70.556 102.825 70.7333Q102.559 70.9106 102.286 71.0746Q102.012 71.2387 101.73 71.3891Q101.449 71.5396 101.161 71.676Q100.872 71.8124 100.577 71.9345Q100.282 72.0567 99.982 72.1642Q99.6816 72.2717 99.3762 72.3643Q99.0708 72.4569 98.7613 72.5345Q98.4517 72.612 98.1388 72.6743Q97.8258 72.7365 97.5101 72.7833Q97.1945 72.8302 96.8769 72.8615Q96.5594 72.8927 96.2406 72.9084Q95.9219 72.924 95.6028 72.924L13.3644 72.924Q13.0453 72.924 12.7266 72.9084Q12.4078 72.8927 12.0903 72.8615Q11.7727 72.8302 11.457 72.7833Q11.1414 72.7365 10.8284 72.6743Q10.5154 72.612 10.2059 72.5345Q9.89635 72.4569 9.59099 72.3643Q9.28562 72.2717 8.98516 72.1642Q8.68471 72.0567 8.38989 71.9345Q8.09508 71.8124 7.80661 71.676Q7.51814 71.5396 7.23671 71.3891Q6.95528 71.2387 6.68157 71.0746Q6.40787 70.9106 6.14254 70.7333Q5.87721 70.556 5.6209 70.3659Q5.36459 70.1758 5.11792 69.9734Q4.87124 69.7709 4.6348 69.5567Q4.39836 69.3424 4.17272 69.1167Q3.94707 68.8911 3.73277 68.6546Q3.51847 68.4182 3.31603 68.1715Q3.11359 67.9248 2.9235 67.6685Q2.73341 67.4122 2.55612 67.1469Q2.37884 66.8816 2.21478 66.6078Q2.05073 66.3341 1.9003 66.0527Q1.74988 65.7713 1.61344 65.4828Q1.477 65.1944 1.35489 64.8995Q1.23277 64.6047 1.12527 64.3043Q1.01776 64.0038 0.925129 63.6984Q0.832497 63.3931 0.75496 63.0835Q0.677423 62.774 0.615169 62.461Q0.552914 62.148 0.506091 61.8324Q0.459268 61.5167 0.42799 61.1992Q0.396712 60.8816 0.381054 60.5629Q0.365396 60.2441 0.365396 59.925L0.365396 39.4222Q0.365396 39.1031 0.381054 38.7843Q0.396712 38.4656 0.42799 38.148Q0.459268 37.8305 0.506091 37.5148Q0.552914 37.1992 0.615169 36.8862Q0.677423 36.5732 0.75496 36.2637Q0.832497 35.9541 0.925129 35.6488Q1.01776 35.3434 1.12527 35.0429Q1.23277 34.7425 1.35489 34.4477Q1.477 34.1528 1.61344 33.8644Q1.74988 33.5759 1.9003 33.2945Q2.05073 33.013 2.21478 32.7393Q2.37884 32.4656 2.55612 32.2003Q2.73341 31.935 2.9235 31.6787Q3.11359 31.4224 3.31603 31.1757Q3.51847 30.929 3.73277 30.6926Q3.94707 30.4561 4.17272 30.2305Q4.39836 30.0048 4.6348 29.7905Q4.87124 29.5762 5.11792 29.3738Q5.36459 29.1714 5.6209 28.9813Q5.87721 28.7912 6.14254 28.6139Q6.40787 28.4366 6.68157 28.2725Q6.95528 28.1085 7.23671 27.9581Q7.51814 27.8076 7.80661 27.6712Q8.09508 27.5348 8.38989 27.4126Q8.68471 27.2905 8.98516 27.183Q9.28562 27.0755 9.59099 26.9829Q9.89635 26.8903 10.2059 26.8127Q10.5154 26.7352 10.8284 26.6729Q11.1414 26.6107 11.457 26.5639Q11.7727 26.517 12.0903 26.4858Q12.4078 26.4545 12.7266 26.4388Q13.0453 26.4232 13.3644 26.4232Z" id="Rectangle" fill="#D3D3D3" fill-rule="evenodd" stroke="none" />
      <path d="M12.9989 79.639L151.629 79.639Q151.948 79.639 152.267 79.6547Q152.586 79.6703 152.903 79.7016Q153.221 79.7329 153.537 79.7797Q153.852 79.8265 154.165 79.8888Q154.478 79.951 154.788 80.0286Q155.097 80.1061 155.403 80.1987Q155.708 80.2914 156.009 80.3989Q156.309 80.5064 156.604 80.6285Q156.899 80.7506 157.187 80.887Q157.476 81.0235 157.757 81.1739Q158.038 81.3243 158.312 81.4884Q158.586 81.6524 158.851 81.8297Q159.117 82.007 159.373 82.1971Q159.629 82.3872 159.876 82.5896Q160.123 82.7921 160.359 83.0064Q160.595 83.2207 160.821 83.4463Q161.047 83.672 161.261 83.9084Q161.475 84.1449 161.678 84.3915Q161.88 84.6382 162.07 84.8945Q162.26 85.1508 162.438 85.4161Q162.615 85.6815 162.779 85.9552Q162.943 86.2289 163.093 86.5103Q163.244 86.7917 163.38 87.0802Q163.517 87.3687 163.639 87.6635Q163.761 87.9583 163.868 88.2588Q163.976 88.5592 164.069 88.8646Q164.161 89.17 164.239 89.4795Q164.316 89.789 164.379 90.102Q164.441 90.415 164.488 90.7307Q164.534 91.0463 164.566 91.3639Q164.597 91.6814 164.613 92.0002Q164.628 92.3189 164.628 92.638L164.628 113.141Q164.628 113.46 164.613 113.779Q164.597 114.097 164.566 114.415Q164.534 114.733 164.488 115.048Q164.441 115.364 164.379 115.677Q164.316 115.99 164.239 116.299Q164.161 116.609 164.069 116.914Q163.976 117.22 163.868 117.52Q163.761 117.821 163.639 118.115Q163.517 118.41 163.38 118.699Q163.244 118.987 163.093 119.269Q162.943 119.55 162.779 119.824Q162.615 120.097 162.438 120.363Q162.26 120.628 162.07 120.884Q161.88 121.141 161.678 121.387Q161.475 121.634 161.261 121.87Q161.047 122.107 160.821 122.333Q160.595 122.558 160.359 122.773Q160.123 122.987 159.876 123.189Q159.629 123.392 159.373 123.582Q159.117 123.772 158.851 123.949Q158.586 124.126 158.312 124.29Q158.038 124.455 157.757 124.605Q157.476 124.755 157.187 124.892Q156.899 125.028 156.604 125.15Q156.309 125.273 156.009 125.38Q155.708 125.488 155.403 125.58Q155.097 125.673 154.788 125.75Q154.478 125.828 154.165 125.89Q153.852 125.952 153.537 125.999Q153.221 126.046 152.903 126.077Q152.586 126.109 152.267 126.124Q151.948 126.14 151.629 126.14L12.9989 126.14Q12.6798 126.14 12.3611 126.124Q12.0423 126.109 11.7248 126.077Q11.4072 126.046 11.0915 125.999Q10.7759 125.952 10.4629 125.89Q10.1499 125.828 9.84039 125.75Q9.53084 125.673 9.22548 125.58Q8.92011 125.488 8.61966 125.38Q8.3192 125.273 8.02439 125.15Q7.72957 125.028 7.4411 124.892Q7.15263 124.755 6.8712 124.605Q6.58977 124.455 6.31607 124.29Q6.04236 124.126 5.77703 123.949Q5.5117 123.772 5.25539 123.582Q4.99908 123.392 4.75241 123.189Q4.50574 122.987 4.26929 122.773Q4.03285 122.558 3.80721 122.333Q3.58156 122.107 3.36727 121.87Q3.15297 121.634 2.95053 121.387Q2.74809 121.141 2.55799 120.884Q2.3679 120.628 2.19062 120.363Q2.01333 120.097 1.84927 119.824Q1.68522 119.55 1.53479 119.269Q1.38437 118.987 1.24793 118.699Q1.1115 118.41 0.989379 118.115Q0.867262 117.821 0.759758 117.52Q0.652254 117.22 0.559622 116.914Q0.466989 116.609 0.389453 116.299Q0.311916 115.99 0.249661 115.677Q0.187406 115.364 0.140584 115.048Q0.0937607 114.733 0.0624827 114.415Q0.0312047 114.097 0.0155468 113.779Q-0.000111029 113.46 -0.000111029 113.141L-0.000111029 92.638Q-0.000111029 92.3189 0.0155468 92.0002Q0.0312047 91.6814 0.0624827 91.3639Q0.0937607 91.0463 0.140584 90.7306Q0.187406 90.415 0.249661 90.102Q0.311916 89.789 0.389453 89.4795Q0.46699 89.17 0.559622 88.8646Q0.652254 88.5592 0.759758 88.2588Q0.867262 87.9583 0.989379 87.6635Q1.1115 87.3687 1.24793 87.0802Q1.38437 86.7917 1.53479 86.5103Q1.68522 86.2289 1.84927 85.9552Q2.01333 85.6815 2.19062 85.4161Q2.3679 85.1508 2.55799 84.8945Q2.74809 84.6382 2.95053 84.3915Q3.15297 84.1449 3.36727 83.9084Q3.58156 83.672 3.80721 83.4463Q4.03285 83.2207 4.26929 83.0064Q4.50574 82.7921 4.75241 82.5896Q4.99908 82.3872 5.25539 82.1971Q5.5117 82.007 5.77703 81.8297Q6.04236 81.6524 6.31607 81.4884Q6.58977 81.3243 6.8712 81.1739Q7.15263 81.0235 7.4411 80.887Q7.72957 80.7506 8.02439 80.6285Q8.3192 80.5064 8.61966 80.3989Q8.92011 80.2914 9.22548 80.1987Q9.53084 80.1061 9.84039 80.0286Q10.1499 79.951 10.4629 79.8888Q10.7759 79.8265 11.0915 79.7797Q11.4072 79.7329 11.7248 79.7016Q12.0423 79.6703 12.3611 79.6547Q12.6798 79.639 12.9989 79.639Z" id="Rectangle-2" fill="#D3D3D3" fill-rule="evenodd" stroke="none" />
    </g>
  </g>
</svg>