<?xml version="1.0" encoding="utf-8"?>
<svg width="181px" height="177px" viewBox="0 0 181 177" version="1.1" xmlns:xlink="http://www.w3.org/1999/xlink" xmlns="http://www.w3.org/2000/svg">
  <defs>
    <filter id="filter_1">
      <feColorMatrix in="SourceGraphic" type="matrix" values="0 0 0 0 0.827451 0 0 0 0 0.827451 0 0 0 0 0.827451 0 0 0 1 0" />
    </filter>
  </defs>
  <g id="align-left">
    <g id="Group-21" transform="translate(12.482759 14.418864)" filter="url(#filter_1)">
      <path d="M3.3436 0L3.3436 146.436" id="Line" fill="none" fill-rule="evenodd" stroke="#808080" stroke-width="15" stroke-linecap="square" />
      <path d="M13.3556 26.1015L93.461 26.1015Q93.7801 26.1015 94.0988 26.1171Q94.4176 26.1328 94.7351 26.1641Q95.0527 26.1954 95.3684 26.2422Q95.684 26.289 95.997 26.3513Q96.31 26.4135 96.6195 26.4911Q96.9291 26.5686 97.2344 26.6612Q97.5398 26.7539 97.8402 26.8614Q98.1407 26.9689 98.4355 27.091Q98.7303 27.2131 99.0188 27.3495Q99.3073 27.486 99.5887 27.6364Q99.8701 27.7868 100.144 27.9509Q100.418 28.1149 100.683 28.2922Q100.948 28.4695 101.204 28.6596Q101.461 28.8497 101.707 29.0521Q101.954 29.2546 102.191 29.4689Q102.427 29.6832 102.653 29.9088Q102.878 30.1344 103.093 30.3709Q103.307 30.6073 103.509 30.854Q103.712 31.1007 103.902 31.357Q104.092 31.6133 104.269 31.8786Q104.447 32.144 104.611 32.4177Q104.775 32.6914 104.925 32.9728Q105.076 33.2542 105.212 33.5427Q105.348 33.8312 105.471 34.126Q105.593 34.4208 105.7 34.7213Q105.808 35.0217 105.9 35.3271Q105.993 35.6324 106.07 35.942Q106.148 36.2515 106.21 36.5645Q106.273 36.8775 106.319 37.1931Q106.366 37.5088 106.397 37.8264Q106.429 38.1439 106.444 38.4627Q106.46 38.7814 106.46 39.1005L106.46 59.0374Q106.46 59.3565 106.444 59.6753Q106.429 59.994 106.397 60.3116Q106.366 60.6291 106.319 60.9448Q106.273 61.2604 106.21 61.5734Q106.148 61.8864 106.07 62.1959Q105.993 62.5055 105.9 62.8108Q105.808 63.1162 105.7 63.4167Q105.593 63.7171 105.471 64.0119Q105.348 64.3067 105.212 64.5952Q105.076 64.8837 104.925 65.1651Q104.775 65.4465 104.611 65.7202Q104.447 65.9939 104.269 66.2593Q104.092 66.5246 103.902 66.7809Q103.712 67.0372 103.509 67.2839Q103.307 67.5306 103.093 67.767Q102.878 68.0035 102.653 68.2291Q102.427 68.4548 102.191 68.6691Q101.954 68.8834 101.707 69.0858Q101.461 69.2882 101.205 69.4783Q100.948 69.6684 100.683 69.8457Q100.418 70.023 100.144 70.187Q99.8701 70.3511 99.5887 70.5015Q99.3073 70.6519 99.0188 70.7884Q98.7303 70.9248 98.4355 71.0469Q98.1407 71.169 97.8402 71.2765Q97.5398 71.3841 97.2344 71.4767Q96.9291 71.5693 96.6195 71.6469Q96.31 71.7244 95.997 71.7867Q95.684 71.8489 95.3684 71.8957Q95.0527 71.9426 94.7352 71.9738Q94.4176 72.0051 94.0989 72.0208Q93.7801 72.0364 93.461 72.0364L13.3556 72.0364Q13.0365 72.0364 12.7177 72.0208Q12.399 72.0051 12.0814 71.9738Q11.7639 71.9426 11.4482 71.8957Q11.1326 71.8489 10.8196 71.7867Q10.5066 71.7244 10.1971 71.6469Q9.88752 71.5693 9.58215 71.4767Q9.27679 71.3841 8.97633 71.2766Q8.67588 71.169 8.38106 71.0469Q8.08624 70.9248 7.79777 70.7884Q7.5093 70.6519 7.22788 70.5015Q6.94645 70.3511 6.67274 70.187Q6.39903 70.023 6.1337 69.8457Q5.86838 69.6684 5.61207 69.4783Q5.35576 69.2882 5.10908 69.0858Q4.86241 68.8833 4.62597 68.6691Q4.38952 68.4548 4.16388 68.2291Q3.93824 68.0035 3.72394 67.767Q3.50964 67.5306 3.3072 67.2839Q3.10476 67.0372 2.91467 66.7809Q2.72458 66.5246 2.54729 66.2593Q2.37 65.9939 2.20595 65.7202Q2.04189 65.4465 1.89147 65.1651Q1.74104 64.8837 1.60461 64.5952Q1.46817 64.3067 1.34605 64.0119Q1.22394 63.7171 1.11643 63.4167Q1.00893 63.1162 0.916296 62.8108Q0.823664 62.5055 0.746127 62.1959Q0.66859 61.8864 0.606335 61.5734Q0.54408 61.2604 0.497258 60.9448Q0.450435 60.6291 0.419157 60.3116Q0.387879 59.994 0.372221 59.6753Q0.356563 59.3565 0.356563 59.0374L0.356563 39.1005Q0.356563 38.7814 0.372221 38.4627Q0.387879 38.1439 0.419157 37.8264Q0.450435 37.5088 0.497258 37.1931Q0.54408 36.8775 0.606335 36.5645Q0.66859 36.2515 0.746127 35.942Q0.823664 35.6324 0.916296 35.3271Q1.00893 35.0217 1.11643 34.7213Q1.22394 34.4208 1.34605 34.126Q1.46817 33.8312 1.60461 33.5427Q1.74104 33.2542 1.89147 32.9728Q2.04189 32.6914 2.20595 32.4177Q2.37 32.144 2.54729 31.8786Q2.72458 31.6133 2.91467 31.357Q3.10476 31.1007 3.3072 30.854Q3.50964 30.6073 3.72394 30.3709Q3.93824 30.1344 4.16388 29.9088Q4.38952 29.6832 4.62597 29.4689Q4.86241 29.2546 5.10908 29.0521Q5.35576 28.8497 5.61207 28.6596Q5.86838 28.4695 6.1337 28.2922Q6.39903 28.1149 6.67274 27.9509Q6.94645 27.7868 7.22788 27.6364Q7.5093 27.486 7.79777 27.3495Q8.08624 27.2131 8.38106 27.091Q8.67588 26.9689 8.97633 26.8614Q9.27678 26.7539 9.58215 26.6612Q9.88752 26.5686 10.1971 26.4911Q10.5066 26.4135 10.8196 26.3513Q11.1326 26.289 11.4482 26.2422Q11.7639 26.1954 12.0814 26.1641Q12.399 26.1328 12.7177 26.1171Q13.0365 26.1015 13.3556 26.1015L13.3556 26.1015Z" id="Rectangle" fill="#D3D3D3" fill-rule="evenodd" stroke="none" />
      <path d="M12.999 78.6696L148.385 78.6696Q148.704 78.6696 149.023 78.6853Q149.342 78.701 149.659 78.7322Q149.977 78.7635 150.293 78.8103Q150.608 78.8572 150.921 78.9194Q151.234 78.9817 151.544 79.0592Q151.853 79.1367 152.159 79.2294Q152.464 79.322 152.764 79.4295Q153.065 79.537 153.36 79.6591Q153.655 79.7813 153.943 79.9177Q154.231 80.0541 154.513 80.2046Q154.794 80.355 155.068 80.519Q155.342 80.6831 155.607 80.8604Q155.872 81.0377 156.129 81.2277Q156.385 81.4178 156.632 81.6203Q156.878 81.8227 157.115 82.037Q157.351 82.2513 157.577 82.477Q157.803 82.7026 158.017 82.939Q158.231 83.1755 158.434 83.4222Q158.636 83.6688 158.826 83.9251Q159.016 84.1814 159.193 84.4468Q159.371 84.7121 159.535 84.9858Q159.699 85.2595 159.849 85.5409Q160 85.8224 160.136 86.1108Q160.273 86.3993 160.395 86.6941Q160.517 86.989 160.624 87.2894Q160.732 87.5899 160.825 87.8952Q160.917 88.2006 160.995 88.5101Q161.072 88.8197 161.134 89.1327Q161.197 89.4456 161.244 89.7613Q161.29 90.077 161.322 90.3945Q161.353 90.7121 161.369 91.0308Q161.384 91.3495 161.384 91.6686L161.384 111.606Q161.384 111.925 161.369 112.243Q161.353 112.562 161.322 112.88Q161.29 113.197 161.244 113.513Q161.197 113.829 161.134 114.142Q161.072 114.455 160.995 114.764Q160.917 115.074 160.824 115.379Q160.732 115.684 160.624 115.985Q160.517 116.285 160.395 116.58Q160.273 116.875 160.136 117.163Q160 117.452 159.849 117.733Q159.699 118.015 159.535 118.288Q159.371 118.562 159.193 118.827Q159.016 119.093 158.826 119.349Q158.636 119.605 158.434 119.852Q158.231 120.099 158.017 120.335Q157.803 120.572 157.577 120.797Q157.351 121.023 157.115 121.237Q156.878 121.452 156.632 121.654Q156.385 121.856 156.129 122.046Q155.872 122.237 155.607 122.414Q155.342 122.591 155.068 122.755Q154.794 122.919 154.513 123.07Q154.231 123.22 153.943 123.357Q153.655 123.493 153.36 123.615Q153.065 123.737 152.764 123.845Q152.464 123.952 152.159 124.045Q151.853 124.137 151.544 124.215Q151.234 124.293 150.921 124.355Q150.608 124.417 150.293 124.464Q149.977 124.511 149.659 124.542Q149.342 124.573 149.023 124.589Q148.704 124.605 148.385 124.605L12.999 124.605Q12.6799 124.605 12.3612 124.589Q12.0424 124.573 11.7249 124.542Q11.4073 124.511 11.0917 124.464Q10.776 124.417 10.463 124.355Q10.15 124.293 9.8405 124.215Q9.53096 124.137 9.22559 124.045Q8.92022 123.952 8.61977 123.845Q8.31931 123.737 8.0245 123.615Q7.72968 123.493 7.44121 123.357Q7.15274 123.22 6.87131 123.07Q6.58989 122.919 6.31618 122.755Q6.04247 122.591 5.77714 122.414Q5.51181 122.237 5.2555 122.046Q4.99919 121.856 4.75252 121.654Q4.50585 121.452 4.2694 121.237Q4.03296 121.023 3.80732 120.797Q3.58168 120.572 3.36738 120.335Q3.15308 120.099 2.95064 119.852Q2.7482 119.605 2.55811 119.349Q2.36801 119.093 2.19073 118.827Q2.01344 118.562 1.84939 118.288Q1.68533 118.015 1.53491 117.733Q1.38448 117.452 1.24804 117.163Q1.11161 116.875 0.98949 116.58Q0.867373 116.285 0.759869 115.985Q0.652364 115.684 0.559732 115.379Q0.4671 115.074 0.389564 114.764Q0.312027 114.455 0.249772 114.142Q0.187517 113.829 0.140694 113.513Q0.0938717 113.197 0.0625937 112.88Q0.0313157 112.562 0.0156579 112.243Q0 111.925 0 111.606L0 91.6686Q0 91.3495 0.0156579 91.0308Q0.0313157 90.7121 0.0625937 90.3945Q0.0938717 90.077 0.140695 89.7613Q0.187517 89.4456 0.249772 89.1327Q0.312027 88.8197 0.389564 88.5101Q0.4671 88.2006 0.559732 87.8952Q0.652364 87.5899 0.759869 87.2894Q0.867373 86.989 0.98949 86.6941Q1.11161 86.3993 1.24804 86.1108Q1.38448 85.8224 1.53491 85.541Q1.68533 85.2595 1.84939 84.9858Q2.01344 84.7121 2.19073 84.4468Q2.36801 84.1814 2.55811 83.9251Q2.7482 83.6688 2.95064 83.4222Q3.15308 83.1755 3.36738 82.939Q3.58168 82.7026 3.80732 82.477Q4.03296 82.2513 4.2694 82.037Q4.50585 81.8227 4.75252 81.6203Q4.99919 81.4178 5.2555 81.2278Q5.51181 81.0377 5.77714 80.8604Q6.04247 80.6831 6.31618 80.519Q6.58989 80.355 6.87131 80.2046Q7.15274 80.0541 7.44121 79.9177Q7.72968 79.7813 8.0245 79.6591Q8.31931 79.537 8.61977 79.4295Q8.92022 79.322 9.22559 79.2294Q9.53096 79.1367 9.8405 79.0592Q10.15 78.9817 10.463 78.9194Q10.776 78.8572 11.0917 78.8103Q11.4073 78.7635 11.7249 78.7322Q12.0424 78.701 12.3612 78.6853Q12.6799 78.6696 12.999 78.6696Z" id="Rectangle-2" fill="#D3D3D3" fill-rule="evenodd" stroke="none" />
    </g>
  </g>
</svg>