<?xml version="1.0" encoding="utf-8"?>
<svg width="348px" height="300px" viewBox="0 0 348 300" version="1.1" xmlns:xlink="http://www.w3.org/1999/xlink" xmlns="http://www.w3.org/2000/svg">
  <defs>
    <filter id="filter_1">
      <feColorMatrix in="SourceGraphic" type="matrix" values="0 0 0 0 0.827451 0 0 0 0 0.827451 0 0 0 0 0.827451 0 0 0 1 0" />
    </filter>
    <path d="M12.4814 -2.08295e-08L23.3911 -3.90362e-08Q23.695 -3.95433e-08 23.9984 0.0153815Q24.3019 0.030763 24.6042 0.0614867Q24.9066 0.0922103 25.2069 0.138197Q25.5073 0.184184 25.805 0.245317Q26.1026 0.306449 26.3968 0.38257Q26.691 0.458691 26.981 0.549606Q27.2709 0.64052 27.5559 0.745996Q27.8409 0.851471 28.1202 0.971236Q28.3995 1.091 28.6723 1.22475Q28.9452 1.3585 29.2109 1.50589Q29.4767 1.65327 29.7346 1.81392Q29.9925 1.97457 30.242 2.14807Q30.4915 2.32158 30.7319 2.50748Q30.9722 2.69339 31.2029 2.89122Q31.4335 3.08906 31.6539 3.29831Q31.8742 3.50757 32.0837 3.72771Q32.2932 3.94786 32.4912 4.17832Q32.6893 4.40878 32.8754 4.64897Q33.0616 4.88917 33.2353 5.13847Q33.4091 5.38778 33.57 5.64556Q33.7309 5.90334 33.8785 6.16894Q34.0262 6.43453 34.1602 6.70726Q34.2942 6.97999 34.4142 7.25915Q34.5343 7.53832 34.64 7.8232Q34.7458 8.10808 34.837 8.39795Q34.9282 8.68782 35.0046 8.98193Q35.081 9.27604 35.1424 9.57364Q35.2038 9.87125 35.2501 10.1716Q35.2964 10.4719 35.3274 10.7742Q35.3584 11.0765 35.3741 11.38Q35.3898 11.6834 35.3901 11.9873Q35.3904 12.2912 35.3753 12.5947L25.7239 206.763Q25.7131 206.981 25.6927 207.198Q25.6723 207.416 25.6423 207.632Q25.6123 207.848 25.5728 208.062Q25.5334 208.277 25.4845 208.489Q25.4356 208.702 25.3774 208.912Q25.3192 209.122 25.2518 209.33Q25.1844 209.537 25.1079 209.741Q25.0314 209.946 24.946 210.146Q24.8605 210.347 24.7664 210.544Q24.6722 210.74 24.5694 210.933Q24.4667 211.125 24.3555 211.313Q24.2444 211.501 24.1251 211.683Q24.0058 211.866 23.8785 212.043Q23.7513 212.22 23.6163 212.391Q23.4814 212.563 23.3391 212.728Q23.1967 212.893 23.0472 213.052Q22.8977 213.211 22.7414 213.363Q22.585 213.515 22.4221 213.66Q22.2592 213.805 22.0901 213.943Q21.921 214.081 21.7459 214.211Q21.5709 214.341 21.3903 214.463Q21.2097 214.585 21.0238 214.7Q20.838 214.814 20.6473 214.92Q20.4567 215.026 20.2615 215.123Q20.0664 215.22 19.8671 215.309Q19.6678 215.398 19.4649 215.478Q19.2619 215.557 19.0556 215.628Q18.8493 215.699 18.6401 215.761Q18.4308 215.822 18.2191 215.875Q18.0074 215.927 17.7935 215.97Q17.5797 216.013 17.3642 216.046Q17.1487 216.08 16.9319 216.104L16.93 216.104Q16.7298 216.126 16.5288 216.138Q16.3278 216.15 16.1264 216.152Q15.9251 216.153 15.7239 216.144Q15.5228 216.135 15.3223 216.116Q15.1219 216.097 14.9227 216.068Q14.7235 216.038 14.526 215.999Q14.3286 215.959 14.1334 215.91Q13.9383 215.86 13.7459 215.801Q13.5536 215.741 13.3645 215.672Q13.1755 215.602 12.9902 215.523Q12.805 215.445 12.6241 215.356Q12.4431 215.268 12.2669 215.17Q12.0908 215.073 11.9198 214.967Q11.7488 214.86 11.5836 214.745Q11.4183 214.63 11.2592 214.507Q11.1 214.383 10.9474 214.252Q10.7948 214.121 10.6491 213.982Q10.5034 213.843 10.365 213.696Q10.2267 213.55 10.096 213.397Q9.96529 213.244 9.84264 213.084Q9.71998 212.924 9.60567 212.759Q9.49137 212.593 9.38571 212.421Q9.28005 212.25 9.18333 212.073Q9.0866 211.897 8.99905 211.715Q8.91151 211.534 8.83337 211.349Q8.75524 211.163 8.68673 210.974Q8.61821 210.784 8.5595 210.592Q8.50078 210.399 8.45202 210.204Q8.40326 210.008 8.36458 209.811Q8.3259 209.613 8.2974 209.414Q8.26891 209.214 8.25067 209.014Q8.23243 208.813 8.2245 208.612L0.491694 12.4717Q0.479799 12.17 0.483095 11.868Q0.48639 11.5661 0.504868 11.2647Q0.523346 10.9633 0.556959 10.6633Q0.590573 10.3632 0.639237 10.0652Q0.6879 9.76718 0.751492 9.472Q0.815083 9.17682 0.89344 8.88521Q0.971798 8.59361 1.06472 8.30631Q1.15765 8.01902 1.26491 7.73676Q1.37216 7.4545 1.49348 7.17799Q1.6148 6.90148 1.74988 6.63143Q1.88495 6.36137 2.03343 6.09845Q2.18192 5.83553 2.34344 5.58042Q2.50496 5.3253 2.67911 5.07863Q2.85326 4.83196 3.0396 4.59436Q3.22593 4.35676 3.42398 4.12883Q3.62203 3.9009 3.8313 3.68323Q4.04056 3.46555 4.26051 3.25867Q4.48046 3.0518 4.71053 2.85625Q4.94061 2.6607 5.18023 2.47697Q5.41985 2.29323 5.6684 2.12179Q5.91696 1.95034 6.17383 1.79161Q6.43069 1.63289 6.69522 1.48728Q6.95974 1.34167 7.23125 1.20955Q7.50277 1.07744 7.78058 0.959141Q8.05839 0.840847 8.34181 0.736676Q8.62522 0.632505 8.91352 0.542721Q9.20181 0.452936 9.49425 0.377766Q9.7867 0.302596 10.0826 0.24223Q10.3784 0.181865 10.6769 0.136456Q10.9754 0.0910475 11.2759 0.0607112Q11.5763 0.0303748 11.8779 0.0151874Q12.1794 -2.03256e-08 12.4814 -2.08295e-08L12.4814 -2.08295e-08Z" id="path_1" />
    <clipPath id="mask_1">
      <use xlink:href="#path_1" />
    </clipPath>
  </defs>
  <g id="bow-hit-icon">
    <g id="Group-22" transform="translate(10.472778 16)">
      <g id="Group-21" filter="url(#filter_1)">
        <path d="M0 137.5C0 61.5608 61.7847 0 138 0C214.215 0 276 61.5608 276 137.5C276 213.439 214.215 275 138 275C61.7847 275 0 213.439 0 137.5Z" id="Ellipse" fill="none" fill-rule="evenodd" stroke="#808080" stroke-width="10" />
        <path d="M28 137C28 76.801 76.801 28 137 28C197.199 28 246 76.801 246 137C246 197.199 197.199 246 137 246C76.801 246 28 197.199 28 137Z" id="Ellipse-2" fill="none" fill-rule="evenodd" stroke="#808080" stroke-width="10" />
        <path d="M53 135.5C53 89.3842 91.0558 52 138 52C184.944 52 223 89.3842 223 135.5C223 181.616 184.944 219 138 219C91.0558 219 53 181.616 53 135.5Z" id="Ellipse-3" fill="none" fill-rule="evenodd" stroke="#808080" stroke-width="10" />
      </g>
      <g id="Vector-+-Vector-2-Mask" transform="matrix(0.46947223 0.8829472 -0.8829472 0.46947223 311.6339 25.135422)" filter="url(#filter_1)">
        <path d="M12.4814 -2.08295e-08L23.3911 -3.90362e-08Q23.695 -3.95433e-08 23.9984 0.0153815Q24.3019 0.030763 24.6042 0.0614867Q24.9066 0.0922103 25.2069 0.138197Q25.5073 0.184184 25.805 0.245317Q26.1026 0.306449 26.3968 0.38257Q26.691 0.458691 26.981 0.549606Q27.2709 0.64052 27.5559 0.745996Q27.8409 0.851471 28.1202 0.971236Q28.3995 1.091 28.6723 1.22475Q28.9452 1.3585 29.2109 1.50589Q29.4767 1.65327 29.7346 1.81392Q29.9925 1.97457 30.242 2.14807Q30.4915 2.32158 30.7319 2.50748Q30.9722 2.69339 31.2029 2.89122Q31.4335 3.08906 31.6539 3.29831Q31.8742 3.50757 32.0837 3.72771Q32.2932 3.94786 32.4912 4.17832Q32.6893 4.40878 32.8754 4.64897Q33.0616 4.88917 33.2353 5.13847Q33.4091 5.38778 33.57 5.64556Q33.7309 5.90334 33.8785 6.16894Q34.0262 6.43453 34.1602 6.70726Q34.2942 6.97999 34.4142 7.25915Q34.5343 7.53832 34.64 7.8232Q34.7458 8.10808 34.837 8.39795Q34.9282 8.68782 35.0046 8.98193Q35.081 9.27604 35.1424 9.57364Q35.2038 9.87125 35.2501 10.1716Q35.2964 10.4719 35.3274 10.7742Q35.3584 11.0765 35.3741 11.38Q35.3898 11.6834 35.3901 11.9873Q35.3904 12.2912 35.3753 12.5947L25.7239 206.763Q25.7131 206.981 25.6927 207.198Q25.6723 207.416 25.6423 207.632Q25.6123 207.848 25.5728 208.062Q25.5334 208.277 25.4845 208.489Q25.4356 208.702 25.3774 208.912Q25.3192 209.122 25.2518 209.33Q25.1844 209.537 25.1079 209.741Q25.0314 209.946 24.946 210.146Q24.8605 210.347 24.7664 210.544Q24.6722 210.74 24.5694 210.933Q24.4667 211.125 24.3555 211.313Q24.2444 211.501 24.1251 211.683Q24.0058 211.866 23.8785 212.043Q23.7513 212.22 23.6163 212.391Q23.4814 212.563 23.3391 212.728Q23.1967 212.893 23.0472 213.052Q22.8977 213.211 22.7414 213.363Q22.585 213.515 22.4221 213.66Q22.2592 213.805 22.0901 213.943Q21.921 214.081 21.7459 214.211Q21.5709 214.341 21.3903 214.463Q21.2097 214.585 21.0238 214.7Q20.838 214.814 20.6473 214.92Q20.4567 215.026 20.2615 215.123Q20.0664 215.22 19.8671 215.309Q19.6678 215.398 19.4649 215.478Q19.2619 215.557 19.0556 215.628Q18.8493 215.699 18.6401 215.761Q18.4308 215.822 18.2191 215.875Q18.0074 215.927 17.7935 215.97Q17.5797 216.013 17.3642 216.046Q17.1487 216.08 16.9319 216.104L16.93 216.104Q16.7298 216.126 16.5288 216.138Q16.3278 216.15 16.1264 216.152Q15.9251 216.153 15.7239 216.144Q15.5228 216.135 15.3223 216.116Q15.1219 216.097 14.9227 216.068Q14.7235 216.038 14.526 215.999Q14.3286 215.959 14.1334 215.91Q13.9383 215.86 13.7459 215.801Q13.5536 215.741 13.3645 215.672Q13.1755 215.602 12.9902 215.523Q12.805 215.445 12.6241 215.356Q12.4431 215.268 12.2669 215.17Q12.0908 215.073 11.9198 214.967Q11.7488 214.86 11.5836 214.745Q11.4183 214.63 11.2592 214.507Q11.1 214.383 10.9474 214.252Q10.7948 214.121 10.6491 213.982Q10.5034 213.843 10.365 213.696Q10.2267 213.55 10.096 213.397Q9.96529 213.244 9.84264 213.084Q9.71998 212.924 9.60567 212.759Q9.49137 212.593 9.38571 212.421Q9.28005 212.25 9.18333 212.073Q9.0866 211.897 8.99905 211.715Q8.91151 211.534 8.83337 211.349Q8.75524 211.163 8.68673 210.974Q8.61821 210.784 8.5595 210.592Q8.50078 210.399 8.45202 210.204Q8.40326 210.008 8.36458 209.811Q8.3259 209.613 8.2974 209.414Q8.26891 209.214 8.25067 209.014Q8.23243 208.813 8.2245 208.612L0.491694 12.4717Q0.479799 12.17 0.483095 11.868Q0.48639 11.5661 0.504868 11.2647Q0.523346 10.9633 0.556959 10.6633Q0.590573 10.3632 0.639237 10.0652Q0.6879 9.76718 0.751492 9.472Q0.815083 9.17682 0.89344 8.88521Q0.971798 8.59361 1.06472 8.30631Q1.15765 8.01902 1.26491 7.73676Q1.37216 7.4545 1.49348 7.17799Q1.6148 6.90148 1.74988 6.63143Q1.88495 6.36137 2.03343 6.09845Q2.18192 5.83553 2.34344 5.58042Q2.50496 5.3253 2.67911 5.07863Q2.85326 4.83196 3.0396 4.59436Q3.22593 4.35676 3.42398 4.12883Q3.62203 3.9009 3.8313 3.68323Q4.04056 3.46555 4.26051 3.25867Q4.48046 3.0518 4.71053 2.85625Q4.94061 2.6607 5.18023 2.47697Q5.41985 2.29323 5.6684 2.12179Q5.91696 1.95034 6.17383 1.79161Q6.43069 1.63289 6.69522 1.48728Q6.95974 1.34167 7.23125 1.20955Q7.50277 1.07744 7.78058 0.959141Q8.05839 0.840847 8.34181 0.736676Q8.62522 0.632505 8.91352 0.542721Q9.20181 0.452936 9.49425 0.377766Q9.7867 0.302596 10.0826 0.24223Q10.3784 0.181865 10.6769 0.136456Q10.9754 0.0910475 11.2759 0.0607112Q11.5763 0.0303748 11.8779 0.0151874Q12.1794 -2.03256e-08 12.4814 -2.08295e-08L12.4814 -2.08295e-08Z" id="Mask" fill="#D3D3D3" fill-rule="evenodd" stroke="none" />
        <g clip-path="url(#mask_1)">
          <path d="M-1.15312 194.84C-0.211907 195.248 0.628785 195.934 1.67051 196.063C3.99989 196.351 6.37845 195.981 8.7296 196.063C18.1459 196.389 27.551 196.931 36.9659 197.286C39.148 197.368 44.7316 196.827 46.8486 197.286C47.4943 197.425 47.5949 198.508 48.2604 198.508C48.926 198.508 49.2017 197.693 49.6723 197.286" id="Vector" fill="none" fill-rule="evenodd" stroke="#000000" stroke-width="9" />
          <path d="M-25.1542 31.0119C-8.683 31.0119 7.7881 31.0119 24.2593 31.0119C29.9066 31.0119 35.5539 31.0119 41.2011 31.0119C45.9072 31.0119 50.6271 31.3244 55.3193 31.0119C56.8031 30.913 58.111 30.1018 59.5547 29.7893C61.0172 29.4727 63.8431 29.7893 65.202 29.7893" id="Vector-2" fill="none" fill-rule="evenodd" stroke="#000000" stroke-width="13" />
        </g>
      </g>
    </g>
  </g>
</svg>