<?xml version="1.0" encoding="utf-8"?>
<svg width="284px" height="284px" viewBox="0 0 284 284" version="1.1" xmlns:xlink="http://www.w3.org/1999/xlink" xmlns="http://www.w3.org/2000/svg">
  <defs>
    <filter id="filter_1">
      <feColorMatrix in="SourceGraphic" type="matrix" values="0 0 0 0 0.827451 0 0 0 0 0.827451 0 0 0 0 0.827451 0 0 0 1 0" />
    </filter>
    <filter id="filter_2">
      <feColorMatrix in="SourceGraphic" type="matrix" values="0 0 0 0 0.2 0 0 0 0 0.2 0 0 0 0 0.2 0 0 0 1 0" />
    </filter>
    <path d="M0 0L284 0L284 284L0 284L0 0Z" id="path_1" />
    <clipPath id="mask_1">
      <use xlink:href="#path_1" />
    </clipPath>
  </defs>
  <g id="brush-folder-icon">
    <g id="Group-21">
      <g id="Directory-icon" filter="url(#filter_1)">
        <path d="M0 0L284 0L284 284L0 284L0 0Z" id="Background" fill="none" fill-rule="evenodd" stroke="none" />
        <g clip-path="url(#mask_1)">
          <path d="M44.375 35.5C29.6758 35.5 17.75 47.4258 17.75 62.125L17.75 221.875C17.75 236.574 29.6758 248.5 44.375 248.5L239.625 248.5C254.324 248.5 266.25 236.574 266.25 221.875L266.25 97.625C266.25 82.9258 254.324 71 239.625 71L120.645 71L109.065 49.5059C104.42 40.8389 95.4756 35.5 85.6299 35.5L44.375 35.5Z" id="Shape" fill="#FFFFFF" fill-rule="evenodd" stroke="none" />
        </g>
      </g>
      <g id="brush-tool-2" transform="translate(55.399902 82.6001)" filter="url(#filter_2)">
        <g id="Group-9-Copy-2" filter="url(#filter_1)">
          <path d="M165.65 7.2025L169.087 10.4617Q169.245 10.6117 169.395 10.7702Q169.545 10.9286 169.686 11.095Q169.827 11.2614 169.958 11.4352Q170.09 11.609 170.212 11.7897Q170.334 11.9704 170.446 12.1575Q170.558 12.3446 170.66 12.5375Q170.761 12.7304 170.852 12.9286Q170.943 13.1268 171.023 13.3296Q171.103 13.5324 171.172 13.7393Q171.241 13.9462 171.298 14.1565Q171.356 14.3669 171.402 14.58Q171.448 14.7932 171.482 15.0085Q171.516 15.2239 171.539 15.4408Q171.561 15.6576 171.572 15.8754Q171.582 16.0932 171.581 16.3113Q171.58 16.5293 171.567 16.747Q171.554 16.9646 171.529 17.1812Q171.504 17.3979 171.467 17.6128Q171.43 17.8277 171.382 18.0403Q171.334 18.253 171.274 18.4626Q171.214 18.6723 171.143 18.8784Q171.071 19.0845 170.989 19.2864Q170.907 19.4883 170.813 19.6854Q170.72 19.8825 170.616 20.0743Q170.513 20.266 170.398 20.4518Q170.284 20.6376 170.16 20.8169Q170.036 20.9962 169.903 21.1685Q169.769 21.3408 169.626 21.5056Q169.483 21.6703 169.332 21.827Q169.18 21.9837 169.02 22.132Q168.86 22.2802 168.692 22.4195Q168.525 22.5588 168.35 22.6888L77.9823 89.7577L62.7615 75.322L155.379 6.58314Q155.519 6.47904 155.664 6.38115Q155.808 6.28327 155.957 6.1918Q156.106 6.10032 156.259 6.01543Q156.411 5.93054 156.568 5.8524Q156.724 5.77425 156.883 5.703Q157.043 5.63175 157.205 5.56754Q157.368 5.50332 157.533 5.44625Q157.698 5.38918 157.865 5.33938Q158.033 5.28958 158.202 5.24713Q158.372 5.20468 158.543 5.16967Q158.714 5.13466 158.886 5.10715Q159.059 5.07965 159.232 5.0597Q159.406 5.03975 159.58 5.0274Q159.754 5.01504 159.929 5.01031Q160.104 5.00557 160.278 5.00846Q160.453 5.01135 160.627 5.02187Q160.802 5.03238 160.975 5.0505Q161.149 5.06861 161.322 5.0943Q161.495 5.11998 161.666 5.15318Q161.838 5.18638 162.008 5.22704Q162.178 5.2677 162.346 5.31573Q162.513 5.36377 162.679 5.41909Q162.845 5.47441 163.008 5.53691Q163.171 5.59941 163.331 5.66897Q163.492 5.73853 163.649 5.81502Q163.806 5.89151 163.959 5.97479Q164.113 6.05806 164.263 6.14796Q164.412 6.23785 164.558 6.3342Q164.704 6.43056 164.845 6.53318Q164.986 6.63579 165.123 6.74449Q165.26 6.85318 165.392 6.96774Q165.524 7.0823 165.65 7.2025Z" id="Rectangle" fill="#B8B8B8" fill-rule="evenodd" stroke="none" />
          <path d="M11.0293 129.998C10.7995 129.838 10.3018 110.299 24.3391 97.8927C38.3764 85.4867 55.1762 79.7469 61.8627 85.0724C68.5491 90.3979 65.7495 111.148 48.5529 117.178C31.3562 123.208 11.259 130.159 11.0293 129.998Z" id="Ellipse" fill="#808080" fill-rule="evenodd" stroke="none" />
        </g>
      </g>
    </g>
  </g>
</svg>