<?xml version="1.0" encoding="utf-8"?>
<svg width="144px" height="144px" viewBox="0 0 144 144" version="1.1" xmlns:xlink="http://www.w3.org/1999/xlink" xmlns="http://www.w3.org/2000/svg">
  <defs>
    <filter id="filter_1">
      <feColorMatrix in="SourceGraphic" type="matrix" values="0 0 0 0 0.827451 0 0 0 0 0.827451 0 0 0 0 0.827451 0 0 0 1 0" />
    </filter>
  </defs>
  <g id="double-a">
    <g id="Group-22" filter="url(#filter_1)">
      <g id="a" fill="#FFFFFF" transform="translate(48 36)">
        <path d="M40.809 88.498Q34.511 88.498 30.375 84.832Q26.239 81.166 26.239 73.458Q26.239 65.938 31.55 62.366Q36.861 58.794 47.671 58.418L55.473 58.136L55.473 52.496Q55.473 49.112 54.909 46.527Q54.345 43.942 52.465 42.438Q50.585 40.934 46.731 40.934Q43.159 40.934 41.279 42.25Q39.399 43.566 38.788 45.916Q38.177 48.266 38.177 51.18Q34.229 51.18 32.208 49.817Q30.187 48.454 30.187 45.258Q30.187 42.062 32.49 40.041Q34.793 38.02 38.6 37.127Q42.407 36.234 47.107 36.234Q55.755 36.234 60.032 39.9Q64.309 43.566 64.309 52.496L64.309 76.842Q64.309 80.79 65.625 82.2Q66.941 83.61 70.137 83.61L70.419 83.61L70.419 87.558L57.729 87.558L56.225 79.474L55.473 79.474Q53.499 82.106 51.619 84.127Q49.739 86.148 47.201 87.323Q44.663 88.498 40.809 88.498ZM42.971 82.67Q48.705 82.67 52.089 79.145Q55.473 75.62 55.473 69.604L55.473 61.99L49.457 62.272Q41.467 62.648 38.412 65.515Q35.357 68.382 35.357 73.928Q35.357 82.67 42.971 82.67Z" />
      </g>
      <g id="a" fill="#FFFFFF">
        <path d="M40.809 88.498Q34.511 88.498 30.375 84.832Q26.239 81.166 26.239 73.458Q26.239 65.938 31.55 62.366Q36.861 58.794 47.671 58.418L55.473 58.136L55.473 52.496Q55.473 49.112 54.909 46.527Q54.345 43.942 52.465 42.438Q50.585 40.934 46.731 40.934Q43.159 40.934 41.279 42.25Q39.399 43.566 38.788 45.916Q38.177 48.266 38.177 51.18Q34.229 51.18 32.208 49.817Q30.187 48.454 30.187 45.258Q30.187 42.062 32.49 40.041Q34.793 38.02 38.6 37.127Q42.407 36.234 47.107 36.234Q55.755 36.234 60.032 39.9Q64.309 43.566 64.309 52.496L64.309 76.842Q64.309 80.79 65.625 82.2Q66.941 83.61 70.137 83.61L70.419 83.61L70.419 87.558L57.729 87.558L56.225 79.474L55.473 79.474Q53.499 82.106 51.619 84.127Q49.739 86.148 47.201 87.323Q44.663 88.498 40.809 88.498ZM42.971 82.67Q48.705 82.67 52.089 79.145Q55.473 75.62 55.473 69.604L55.473 61.99L49.457 62.272Q41.467 62.648 38.412 65.515Q35.357 68.382 35.357 73.928Q35.357 82.67 42.971 82.67Z" />
      </g>
    </g>
  </g>
</svg>