<?xml version="1.0" encoding="utf-8"?>
<svg width="142px" height="47px" viewBox="0 0 142 47" version="1.1" xmlns:xlink="http://www.w3.org/1999/xlink" xmlns="http://www.w3.org/2000/svg">
  <defs>
    <filter id="filter_1">
      <feColorMatrix in="SourceGraphic" type="matrix" values="0 0 0 0 0.5411765 0 0 0 0 0.5411765 0 0 0 0 0.5411765 0 0 0 1 0" />
    </filter>
  </defs>
  <g id="link-icon">
    <g id="Group-22" filter="url(#filter_1)">
      <path d="M88.3558 0L119.001 0Q119.565 0 120.129 0.0277035Q120.693 0.0554071 121.255 0.110747Q121.817 0.166088 122.375 0.248931Q122.934 0.331775 123.488 0.441923Q124.041 0.552071 124.589 0.689257Q125.137 0.826443 125.677 0.990337Q126.217 1.15423 126.749 1.34444Q127.281 1.53465 127.802 1.75071Q128.324 1.96677 128.834 2.20817Q129.345 2.44957 129.843 2.71572Q130.34 2.98186 130.825 3.27213Q131.309 3.56239 131.778 3.87606Q132.248 4.18974 132.701 4.52607Q133.155 4.8624 133.591 5.22058Q134.028 5.57875 134.446 5.95791Q134.864 6.33708 135.264 6.73631Q135.663 7.13554 136.042 7.55388Q136.421 7.97222 136.779 8.40866Q137.138 8.8451 137.474 9.29859Q137.81 9.75208 138.124 10.2215Q138.438 10.691 138.728 11.1752Q139.018 11.6595 139.284 12.1574Q139.55 12.6554 139.792 13.1658Q140.033 13.6762 140.249 14.1978Q140.465 14.7194 140.656 15.251Q140.846 15.7826 141.01 16.3229Q141.174 16.8632 141.311 17.4108Q141.448 17.9585 141.558 18.5123Q141.668 19.066 141.751 19.6245Q141.834 20.183 141.889 20.7449Q141.945 21.3068 141.972 21.8707Q142 22.4346 142 22.9992L142 23.0012Q142 23.5658 141.972 24.1297Q141.945 24.6936 141.889 25.2555Q141.834 25.8174 141.751 26.3759Q141.668 26.9344 141.558 27.4881Q141.448 28.0419 141.311 28.5895Q141.174 29.1372 141.01 29.6775Q140.846 30.2178 140.656 30.7494Q140.465 31.281 140.249 31.8026Q140.033 32.3242 139.792 32.8346Q139.55 33.345 139.284 33.8429Q139.018 34.3409 138.728 34.8251Q138.438 35.3094 138.124 35.7789Q137.81 36.2483 137.474 36.7018Q137.138 37.1553 136.779 37.5917Q136.421 38.0282 136.042 38.4465Q135.663 38.8648 135.264 39.2641Q134.864 39.6633 134.446 40.0425Q134.028 40.4216 133.591 40.7798Q133.155 41.138 132.701 41.4743Q132.248 41.8106 131.778 42.1243Q131.309 42.438 130.825 42.7283Q130.34 43.0185 129.843 43.2847Q129.345 43.5508 128.834 43.7922Q128.324 44.0336 127.802 44.2497Q127.281 44.4657 126.749 44.6559Q126.217 44.8461 125.677 45.01Q125.137 45.1739 124.589 45.3111Q124.041 45.4483 123.488 45.5585Q122.934 45.6686 122.375 45.7514Q121.817 45.8343 121.255 45.8896Q120.693 45.945 120.129 45.9727Q119.565 46.0004 119.001 46.0004L87.8942 46.0004Q87.7843 46.0004 87.6744 45.995Q87.5646 45.9896 87.4552 45.9788Q87.3457 45.968 87.2369 45.9519Q87.1282 45.9358 87.0203 45.9143Q86.9124 45.8928 86.8058 45.8661Q86.6991 45.8394 86.5938 45.8075Q86.4886 45.7756 86.3851 45.7385Q86.2815 45.7015 86.1799 45.6594Q86.0783 45.6173 85.9789 45.5703Q85.8795 45.5233 85.7825 45.4714Q85.6855 45.4196 85.5912 45.363Q85.4969 45.3065 85.4054 45.2454Q85.314 45.1843 85.2257 45.1188Q85.1373 45.0533 85.0523 44.9835Q84.9673 44.9138 84.8859 44.8399Q84.8044 44.7661 84.7266 44.6883Q84.6488 44.6105 84.575 44.5291Q84.5011 44.4476 84.4314 44.3626Q84.3616 44.2776 84.2961 44.1892Q84.2306 44.1009 84.1695 44.0095Q84.1084 43.918 84.0519 43.8237Q83.9953 43.7294 83.9435 43.6324Q83.8916 43.5354 83.8446 43.436Q83.7976 43.3366 83.7555 43.235Q83.7134 43.1334 83.6764 43.0298Q83.6394 42.9263 83.6074 42.8211Q83.5755 42.7158 83.5488 42.6091Q83.5221 42.5025 83.5006 42.3946Q83.4792 42.2868 83.463 42.178Q83.4469 42.0692 83.4361 41.9598Q83.4253 41.8503 83.4199 41.7405Q83.4145 41.6306 83.4145 41.5207L83.4145 37.039L131.12 37.039L131.12 9.88458L83.4145 9.88458L83.4145 4.94129Q83.4145 4.81999 83.4205 4.69883Q83.4264 4.57768 83.4383 4.45696Q83.4502 4.33624 83.468 4.21625Q83.4858 4.09626 83.5095 3.97729Q83.5331 3.85832 83.5626 3.74066Q83.5921 3.62299 83.6273 3.50691Q83.6625 3.39083 83.7034 3.27662Q83.7443 3.16241 83.7907 3.05034Q83.8371 2.93827 83.8889 2.82862Q83.9408 2.71896 83.998 2.61198Q84.0552 2.505 84.1175 2.40096Q84.1799 2.29692 84.2473 2.19606Q84.3147 2.0952 84.3869 1.99777Q84.4592 1.90034 84.5361 1.80657Q84.6131 1.7128 84.6946 1.62292Q84.776 1.53304 84.8618 1.44727Q84.9476 1.3615 85.0375 1.28004Q85.1273 1.19857 85.2211 1.12162Q85.3149 1.04467 85.4123 0.972409Q85.5097 0.900149 85.6106 0.832758Q85.7114 0.765366 85.8155 0.703004Q85.9195 0.640643 86.0265 0.583461Q86.1335 0.52628 86.2431 0.474417Q86.3528 0.422554 86.4649 0.376133Q86.5769 0.329713 86.6911 0.288848Q86.8053 0.247982 86.9214 0.21277Q87.0375 0.177558 87.1552 0.148084Q87.2728 0.11861 87.3918 0.0949455Q87.5108 0.0712807 87.6308 0.053482Q87.7508 0.0356833 87.8715 0.0237937Q87.9922 0.011904 88.1134 0.005952Q88.2345 0 88.3558 0Z" id="Rectangle" fill="#D3D3D3" fill-rule="evenodd" stroke="none" />
      <path d="M53.6489 46L22.9991 46.0001Q22.4345 46.0001 21.8706 45.9724Q21.3067 45.9447 20.7448 45.8894Q20.1829 45.834 19.6245 45.7512Q19.066 45.6683 18.5122 45.5582Q17.9585 45.448 17.4108 45.3109Q16.8631 45.1737 16.3229 45.0098Q15.7826 44.8459 15.251 44.6557Q14.7194 44.4655 14.1978 44.2494Q13.6762 44.0334 13.1658 43.792Q12.6554 43.5506 12.1575 43.2844Q11.6595 43.0183 11.1753 42.728Q10.691 42.4378 10.2215 42.1241Q9.7521 41.8104 9.29861 41.4741Q8.84512 41.1378 8.40869 40.7796Q7.97225 40.4214 7.55391 40.0423Q7.13557 39.6631 6.73635 39.2639Q6.33712 38.8647 5.95796 38.4463Q5.5788 38.028 5.22062 37.5915Q4.86245 37.1551 4.52612 36.7016Q4.18979 36.2481 3.87612 35.7787Q3.56244 35.3093 3.27218 34.825Q2.98192 34.3407 2.71577 33.8428Q2.44962 33.3449 2.20823 32.8345Q1.96683 32.3241 1.75077 31.8025Q1.53471 31.2809 1.3445 30.7493Q1.15429 30.2177 0.990399 29.6774Q0.826505 29.1371 0.689319 28.5894Q0.552132 28.0418 0.441984 27.488Q0.331836 26.9343 0.248991 26.3758Q0.166147 25.8173 0.110805 25.2554Q0.0554642 24.6936 0.0277595 24.1297Q5.48104e-05 23.5657 5.34058e-05 23.0011L5.34058e-05 22.9991Q5.20011e-05 22.4345 0.0277539 21.8706Q0.0554558 21.3067 0.110794 20.7448Q0.166133 20.183 0.248974 19.6245Q0.331816 19.066 0.441961 18.5123Q0.552107 17.9585 0.68929 17.4108Q0.826474 16.8632 0.990366 16.3229Q1.15426 15.7826 1.34446 15.251Q1.53467 14.7194 1.75073 14.1978Q1.96678 13.6762 2.20818 13.1658Q2.44957 12.6554 2.71572 12.1575Q2.98186 11.6596 3.27212 11.1753Q3.56238 10.691 3.87605 10.2216Q4.18972 9.75213 4.52605 9.29865Q4.86237 8.84516 5.22055 8.40872Q5.57872 7.97228 5.95788 7.55395Q6.33703 7.13561 6.73626 6.73638Q7.13549 6.33715 7.55382 5.95799Q7.97216 5.57883 8.4086 5.22066Q8.84503 4.86248 9.29852 4.52615Q9.752 4.18983 10.2214 3.87615Q10.6909 3.56248 11.1752 3.27222Q11.6594 2.98196 12.1573 2.71581Q12.6553 2.44966 13.1657 2.20827Q13.676 1.96687 14.1977 1.75081Q14.7193 1.53475 15.2509 1.34454Q15.7825 1.15433 16.3227 0.990437Q16.863 0.826543 17.4107 0.689356Q17.9584 0.55217 18.5121 0.442022Q19.0659 0.331874 19.6243 0.249029Q20.1828 0.166185 20.7447 0.110844Q21.3066 0.0555024 21.8705 0.0277977Q22.4344 9.29574e-05 22.999 9.15527e-05L54.1103 7.62939e-06Q54.2203 7.34846e-06 54.3301 0.00540303Q54.44 0.0107987 54.5494 0.0215774Q54.6589 0.032356 54.7676 0.0484917Q54.8764 0.0646273 54.9843 0.0860811Q55.0921 0.107535 55.1988 0.134255Q55.3055 0.160975 55.4107 0.192898Q55.5159 0.22482 55.6195 0.261867Q55.723 0.298915 55.8246 0.340998Q55.9262 0.383082 56.0256 0.4301Q56.125 0.477118 56.222 0.528957Q56.319 0.580796 56.4133 0.637331Q56.5077 0.693867 56.5991 0.754963Q56.6905 0.816058 56.7789 0.881567Q56.8672 0.947076 56.9522 1.01684Q57.0372 1.0866 57.1187 1.16045Q57.2002 1.23431 57.2779 1.31207Q57.3557 1.38983 57.4296 1.47131Q57.5034 1.55279 57.5732 1.6378Q57.6429 1.72281 57.7084 1.81113Q57.7739 1.89946 57.835 1.9909Q57.8961 2.08234 57.9527 2.17666Q58.0092 2.27098 58.0611 2.36797Q58.1129 2.46495 58.1599 2.56436Q58.2069 2.66378 58.249 2.76537Q58.2911 2.86697 58.3281 2.97051Q58.3652 3.07406 58.3971 3.17929Q58.429 3.28453 58.4558 3.3912Q58.4825 3.49787 58.5039 3.60573Q58.5254 3.71359 58.5415 3.82237Q58.5577 3.93115 58.5684 4.04059Q58.5792 4.15003 58.5846 4.25986Q58.59 4.3697 58.59 4.47967L58.59 8.96135L10.881 8.96148L10.8811 36.1156L58.5901 36.1155L58.5901 41.0587Q58.5901 41.18 58.5842 41.3012Q58.5782 41.4224 58.5663 41.5431Q58.5544 41.6638 58.5366 41.7838Q58.5188 41.9038 58.4952 42.0227Q58.4715 42.1417 58.442 42.2594Q58.4125 42.377 58.3773 42.4931Q58.3421 42.6092 58.3013 42.7234Q58.2604 42.8376 58.214 42.9497Q58.1676 43.0617 58.1157 43.1714Q58.0638 43.2811 58.0067 43.388Q57.9495 43.495 57.8871 43.5991Q57.8247 43.7031 57.7574 43.804Q57.69 43.9048 57.6177 44.0023Q57.5454 44.0997 57.4685 44.1934Q57.3915 44.2872 57.3101 44.3771Q57.2286 44.467 57.1429 44.5527Q57.0571 44.6385 56.9672 44.72Q56.8773 44.8014 56.7836 44.8784Q56.6898 44.9553 56.5924 45.0276Q56.4949 45.0999 56.3941 45.1673Q56.2932 45.2346 56.1892 45.297Q56.0851 45.3594 55.9782 45.4165Q55.8712 45.4737 55.7615 45.5256Q55.6519 45.5774 55.5398 45.6239Q55.4277 45.6703 55.3135 45.7112Q55.1993 45.752 55.0832 45.7872Q54.9672 45.8224 54.8495 45.8519Q54.7318 45.8814 54.6129 45.9051Q54.4939 45.9287 54.3739 45.9465Q54.2539 45.9643 54.1332 45.9762Q54.0125 45.9881 53.8913 45.9941Q53.7702 46 53.6489 46Z" id="Rectangle-2" fill="#D3D3D3" fill-rule="evenodd" stroke="none" />
      <path d="M23.7132 13.5127L118.845 13.5127L118.845 33.0629L23.7132 33.0629L23.7132 13.5127Z" id="Rectangle-3" fill="#D3D3D3" fill-rule="evenodd" stroke="none" />
    </g>
  </g>
</svg>