<?xml version="1.0" encoding="utf-8"?>
<svg width="231px" height="231px" viewBox="0 0 231 231" version="1.1" xmlns:xlink="http://www.w3.org/1999/xlink" xmlns="http://www.w3.org/2000/svg">
  <defs>
    <path d="M0 0L231 0L231 231L0 231L0 0Z" id="path_1" />
    <clipPath id="mask_1">
      <use xlink:href="#path_1" />
    </clipPath>
  </defs>
  <g id="setting-icon">
    <g id="Settings-icon">
      <path d="M0 0L231 0L231 231L0 231L0 0Z" id="Background" fill="none" fill-rule="evenodd" stroke="none" />
      <g clip-path="url(#mask_1)">
        <path d="M217.879 98.041L190.575 93.5781C188.976 88.0988 186.791 82.832 184.056 77.847L199.995 55.1305C201.284 53.2963 201.062 50.7969 199.478 49.2076L181.51 31.2497C179.907 29.6512 177.385 29.4433 175.546 30.7692L153.171 46.8514C148.14 44.0702 142.827 41.8618 137.315 40.2587L132.552 13.0654C132.164 10.857 130.247 9.23999 128.001 9.23999L102.591 9.23999C100.328 9.23999 98.3965 10.8801 98.0316 13.1162L93.6148 40.1617C88.0708 41.7556 82.7486 43.9408 77.7359 46.6851L55.4213 30.7461C53.5779 29.4294 51.0693 29.6419 49.4661 31.2358L31.5082 49.1937C29.9235 50.7784 29.7018 53.2732 30.9907 55.1073L46.6941 77.5744C43.899 82.6333 41.6722 87.9879 40.0506 93.5596L13.1113 98.0456C10.8845 98.4152 9.24902 100.346 9.24902 102.601L9.24902 128.011C9.24902 130.252 10.8568 132.169 13.0605 132.562L39.9997 137.339C41.6121 142.897 43.839 148.251 46.6433 153.324L30.7459 175.56C29.4338 177.394 29.6417 179.912 31.2356 181.515L49.1982 199.492C50.7828 201.076 53.2822 201.298 55.1164 200.009L77.6158 184.25C82.6654 187.027 88.0015 189.231 93.5317 190.829L98.0408 217.907C98.4058 220.129 100.332 221.76 102.591 221.76L128.001 221.76C130.242 221.76 132.159 220.152 132.548 217.948L137.375 190.737C142.915 189.106 148.223 186.888 153.222 184.107L175.883 200.004C177.722 201.303 180.217 201.076 181.806 199.492L199.769 181.515C201.367 179.912 201.575 177.385 200.249 175.546L184.088 153.107C186.828 148.117 189.004 142.841 190.589 137.362L217.93 132.562C220.143 132.174 221.751 130.252 221.751 128.011L221.751 102.601C221.755 100.337 220.115 98.406 217.879 98.041L217.879 98.041ZM115.5 147.84C97.6391 147.84 83.16 133.361 83.16 115.5C83.16 97.6391 97.6391 83.16 115.5 83.16C133.361 83.16 147.84 97.6391 147.84 115.5C147.84 133.361 133.361 147.84 115.5 147.84L115.5 147.84Z" id="Shape" fill="#FFFFFF" fill-rule="evenodd" stroke="none" />
      </g>
    </g>
  </g>
</svg>