<?xml version="1.0" encoding="utf-8"?>
<svg width="192px" height="255px" viewBox="0 0 192 255" version="1.1" xmlns:xlink="http://www.w3.org/1999/xlink" xmlns="http://www.w3.org/2000/svg">
  <defs>
    <filter id="filter_1">
      <feColorMatrix in="SourceGraphic" type="matrix" values="0 0 0 0 0.827451 0 0 0 0 0.827451 0 0 0 0 0.827451 0 0 0 1 0" />
    </filter>
  </defs>
  <g id="small-and-big-text">
    <g id="Group-22" filter="url(#filter_1)">
      <g id="T" fill="#FFFFFF">
        <path d="M62.6655 221.041L62.6655 212.095L67.5645 212.095Q74.5935 212.095 79.812 209.645Q85.0305 207.196 85.0305 197.824L85.0305 79.609L64.5825 79.609Q55.2105 79.609 51.5895 84.8275Q47.9685 90.046 47.1165 97.075L46.0515 106.234L34.9755 106.234L36.0405 68.959L155.96 68.959L157.025 106.234L145.949 106.234L144.883 97.075Q144.031 90.046 140.411 84.8275Q136.789 79.609 127.204 79.609L106.544 79.609L106.544 196.759Q106.544 206.77 111.656 209.432Q116.768 212.095 124.01 212.095L128.909 212.095L128.909 221.041L62.6655 221.041Z" />
      </g>
      <g id="T" fill="#FFFFFF" transform="translate(0 127)">
        <path d="M14.1 86.058L14.1 82.11L16.262 82.11Q19.364 82.11 21.667 81.029Q23.97 79.948 23.97 75.812L23.97 23.642L14.946 23.642Q10.81 23.642 9.212 25.945Q7.614 28.248 7.238 31.35L6.768 35.392L1.88 35.392L2.35 18.942L55.272 18.942L55.742 35.392L50.854 35.392L50.384 31.35Q50.008 28.248 48.41 25.945Q46.812 23.642 42.582 23.642L33.464 23.642L33.464 75.342Q33.464 79.76 35.72 80.935Q37.976 82.11 41.172 82.11L43.334 82.11L43.334 86.058L14.1 86.058Z" />
      </g>
    </g>
  </g>
</svg>