<?xml version="1.0" encoding="utf-8"?>
<svg width="353px" height="300px" viewBox="0 0 353 300" version="1.1" xmlns:xlink="http://www.w3.org/1999/xlink" xmlns="http://www.w3.org/2000/svg">
  <defs>
    <filter filterUnits="userSpaceOnUse" color-interpolation-filters="sRGB" id="filter_1">
      <feFlood flood-opacity="0" result="BackgroundImageFix" />
      <feColorMatrix in="SourceAlpha" type="matrix" values="0 0 0 0 0 0 0 0 0 0 0 0 0 0 0 0 0 0 127 0" />
      <feOffset dx="0" dy="2" />
      <feGaussianBlur stdDeviation="2" />
      <feColorMatrix type="matrix" values="0 0 0 0 0.05490196 0 0 0 0 0.05490196 0 0 0 0 0.05490196 0 0 0 0.49803922 0" />
      <feBlend mode="normal" in2="BackgroundImageFix" result="effect0_dropShadow" />
      <feBlend mode="normal" in="SourceGraphic" in2="effect0_dropShadow" result="shape" />
    </filter>
  </defs>
  <g id="straighten-icon">
    <g id="Group-15" transform="translate(-62.18449 -41.399902)">
      <path d="M187.8 229.826C146.994 208.543 138.33 164.531 168.448 131.523C198.566 98.5151 256.061 89.01 296.867 110.293C337.673 131.576 346.337 175.587 316.219 208.595C286.101 241.604 228.605 251.109 187.8 229.826Z" id="Ellipse" fill="none" fill-rule="evenodd" stroke="#D3D3D3" stroke-width="22" stroke-dasharray="2 2" />
      <g id="Group-14" transform="matrix(0.80901724 0.5877848 -0.5877848 0.80901724 181.89394 -3.6955528)">
        <path d="M-3.05176e-05 195.9L252.759 5.56245L341.751 107.757L88.9915 298.095L-3.05176e-05 195.9Z" id="Rectangle" fill="#D3D3D3" fill-rule="evenodd" stroke="none" />
        <path d="M22.0908 176.415L214.408 31.5922L303.399 133.787L111.082 278.609L22.0908 176.415Z" id="Rectangle-2" fill="#D3D3D3" fill-rule="evenodd" stroke="none" filter="url(#filter_1)" />
        <path d="M53.0251 150.152L141.403 259.732" id="New-shape" fill="none" fill-rule="evenodd" stroke="#808080" stroke-width="4" />
        <path d="M113.122 106.318L201.499 210.419" id="New-shape-2" fill="none" fill-rule="evenodd" stroke="#808080" stroke-width="4" />
        <path d="M177.932 57.009L266.309 161.11" id="New-shape-3" fill="none" fill-rule="evenodd" stroke="#808080" stroke-width="4" />
      </g>
    </g>
  </g>
</svg>