<?xml version="1.0" encoding="utf-8"?>
<svg width="398px" height="280px" viewBox="0 0 398 280" version="1.1" xmlns:xlink="http://www.w3.org/1999/xlink" xmlns="http://www.w3.org/2000/svg">
  <g id="swap-values">
    <g id="Group-21">
      <path d="M4.999 56.9493L287.001 56.9493Q287.124 56.9493 287.246 56.9554Q287.369 56.9614 287.491 56.9734Q287.613 56.9854 287.734 57.0034Q287.856 57.0215 287.976 57.0454Q288.097 57.0693 288.216 57.0991Q288.335 57.129 288.452 57.1646Q288.57 57.2002 288.685 57.2416Q288.801 57.2829 288.914 57.3299Q289.027 57.3768 289.138 57.4293Q289.249 57.4818 289.357 57.5396Q289.466 57.5975 289.571 57.6606Q289.676 57.7236 289.778 57.7918Q289.88 57.86 289.979 57.9331Q290.077 58.0062 290.172 58.0841Q290.267 58.1619 290.358 58.2443Q290.449 58.3267 290.536 58.4135Q290.623 58.5003 290.705 58.5912Q290.787 58.6821 290.865 58.777Q290.943 58.8719 291.016 58.9704Q291.089 59.069 291.157 59.171Q291.226 59.2731 291.289 59.3783Q291.352 59.4836 291.41 59.5918Q291.468 59.7001 291.52 59.811Q291.572 59.9219 291.619 60.0353Q291.666 60.1487 291.708 60.2642Q291.749 60.3798 291.785 60.4972Q291.82 60.6146 291.85 60.7337Q291.88 60.8527 291.904 60.9731Q291.928 61.0934 291.946 61.2148Q291.964 61.3362 291.976 61.4584Q291.988 61.5805 291.994 61.703Q292 61.8256 292 61.9483L292 89.9503Q292 90.0731 291.994 90.1956Q291.988 90.3182 291.976 90.4403Q291.964 90.5624 291.946 90.6838Q291.928 90.8052 291.904 90.9256Q291.88 91.046 291.85 91.165Q291.82 91.284 291.785 91.4015Q291.749 91.5189 291.708 91.6344Q291.666 91.75 291.619 91.8634Q291.572 91.9767 291.52 92.0877Q291.468 92.1986 291.41 92.3068Q291.352 92.4151 291.289 92.5203Q291.226 92.6256 291.157 92.7276Q291.089 92.8297 291.016 92.9282Q290.943 93.0268 290.865 93.1217Q290.787 93.2165 290.705 93.3075Q290.623 93.3984 290.536 93.4852Q290.449 93.5719 290.358 93.6544Q290.267 93.7368 290.172 93.8146Q290.077 93.8925 289.979 93.9656Q289.88 94.0387 289.778 94.1068Q289.676 94.175 289.571 94.2381Q289.466 94.3012 289.357 94.3591Q289.249 94.4169 289.138 94.4694Q289.027 94.5218 288.914 94.5688Q288.801 94.6158 288.685 94.6571Q288.57 94.6984 288.452 94.7341Q288.335 94.7697 288.216 94.7995Q288.097 94.8293 287.976 94.8533Q287.856 94.8772 287.734 94.8952Q287.613 94.9132 287.491 94.9253Q287.369 94.9373 287.246 94.9433Q287.124 94.9493 287.001 94.9493L4.999 94.9493Q4.87628 94.9493 4.75371 94.9433Q4.63114 94.9373 4.50901 94.9253Q4.38688 94.9132 4.26549 94.8952Q4.1441 94.8772 4.02374 94.8533Q3.90338 94.8293 3.78434 94.7995Q3.6653 94.7697 3.54787 94.7341Q3.43043 94.6984 3.31489 94.6571Q3.19934 94.6158 3.08597 94.5688Q2.97259 94.5218 2.86165 94.4694Q2.75072 94.4169 2.64249 94.3591Q2.53426 94.3012 2.429 94.2381Q2.32374 94.175 2.2217 94.1068Q2.11967 94.0387 2.0211 93.9656Q1.92253 93.8925 1.82767 93.8146Q1.73281 93.7368 1.64188 93.6544Q1.55095 93.5719 1.46417 93.4852Q1.3774 93.3984 1.29499 93.3074Q1.21257 93.2165 1.13472 93.1217Q1.05687 93.0268 0.983765 92.9282Q0.910662 92.8297 0.842483 92.7276Q0.774305 92.6256 0.711215 92.5203Q0.648125 92.4151 0.590276 92.3068Q0.532426 92.1986 0.479957 92.0877Q0.427489 91.9767 0.380526 91.8634Q0.333564 91.75 0.292221 91.6344Q0.250879 91.5189 0.215255 91.4015Q0.179632 91.284 0.149814 91.165Q0.119996 91.046 0.0960544 90.9256Q0.0721132 90.8052 0.0541066 90.6838Q0.0361001 90.5624 0.0240715 90.4403Q0.012043 90.3182 0.00602151 90.1956Q0 90.0731 0 89.9503L0 61.9483Q0 61.8256 0.00602151 61.703Q0.012043 61.5805 0.0240715 61.4584Q0.0361001 61.3362 0.0541066 61.2148Q0.0721132 61.0934 0.0960544 60.9731Q0.119996 60.8527 0.149814 60.7337Q0.179632 60.6146 0.215255 60.4972Q0.250879 60.3798 0.292221 60.2642Q0.333564 60.1487 0.380526 60.0353Q0.427489 59.9219 0.479957 59.811Q0.532426 59.7001 0.590276 59.5918Q0.648125 59.4836 0.711215 59.3783Q0.774305 59.2731 0.842483 59.171Q0.910662 59.069 0.983765 58.9704Q1.05687 58.8719 1.13472 58.777Q1.21257 58.6821 1.29499 58.5912Q1.3774 58.5003 1.46417 58.4135Q1.55095 58.3267 1.64188 58.2443Q1.73281 58.1619 1.82767 58.0841Q1.92253 58.0062 2.0211 57.9331Q2.11967 57.86 2.2217 57.7918Q2.32374 57.7236 2.429 57.6605Q2.53426 57.5975 2.64249 57.5396Q2.75072 57.4818 2.86165 57.4293Q2.97259 57.3768 3.08597 57.3299Q3.19934 57.2829 3.31489 57.2416Q3.43043 57.2002 3.54787 57.1646Q3.6653 57.129 3.78434 57.0991Q3.90338 57.0693 4.02374 57.0454Q4.1441 57.0215 4.26549 57.0034Q4.38688 56.9854 4.50901 56.9734Q4.63114 56.9614 4.75371 56.9554Q4.87628 56.9493 4.999 56.9493Z" id="Rectangle" fill="#D3D3D3" fill-rule="evenodd" stroke="none" />
      <path d="M387.98 74.212L296.297 133.976Q296.13 134.085 295.955 134.183Q295.781 134.281 295.601 134.367Q295.42 134.453 295.234 134.527Q295.049 134.6 294.859 134.661Q294.668 134.723 294.474 134.771Q294.281 134.82 294.084 134.855Q293.887 134.89 293.689 134.913Q293.49 134.935 293.29 134.944Q293.091 134.953 292.891 134.948Q292.691 134.944 292.492 134.926Q292.293 134.909 292.096 134.878Q291.898 134.847 291.703 134.803Q291.508 134.759 291.317 134.703Q291.125 134.646 290.938 134.576Q290.75 134.507 290.568 134.425Q290.386 134.344 290.209 134.25Q290.033 134.156 289.863 134.051Q289.693 133.946 289.53 133.83Q289.368 133.713 289.214 133.587Q289.059 133.46 288.913 133.323Q288.768 133.186 288.632 133.04Q288.495 132.894 288.369 132.739Q288.243 132.584 288.127 132.421Q288.012 132.258 287.907 132.087Q287.803 131.917 287.71 131.74Q287.617 131.563 287.536 131.381Q287.455 131.198 287.387 131.01Q287.318 130.823 287.262 130.631Q287.206 130.439 287.163 130.244Q287.12 130.049 287.09 129.851Q287.06 129.654 287.043 129.454Q287.026 129.255 287.023 129.055L284.993 12.7623Q284.99 12.5625 285 12.3629Q285.01 12.1633 285.033 11.9648Q285.056 11.7664 285.092 11.5698Q285.128 11.3733 285.177 11.1797Q285.227 10.986 285.289 10.796Q285.351 10.6061 285.425 10.4207Q285.5 10.2353 285.586 10.0552Q285.673 9.87517 285.772 9.70129Q285.87 9.52742 285.98 9.36048Q286.09 9.19354 286.21 9.03428Q286.331 8.87502 286.462 8.72415Q286.593 8.57328 286.734 8.43146Q286.875 8.28963 287.025 8.1575Q287.174 8.02536 287.333 7.90349Q287.491 7.78161 287.657 7.67055Q287.823 7.55949 287.997 7.45973Q288.17 7.35996 288.349 7.27195Q288.528 7.18393 288.713 7.10804Q288.898 7.03215 289.088 6.96874Q289.277 6.90532 289.47 6.85465Q289.664 6.80399 289.86 6.76629Q290.056 6.7286 290.255 6.70405Q290.453 6.67951 290.652 6.66821Q290.852 6.65691 291.052 6.65891Q291.251 6.66092 291.451 6.67621Q291.65 6.69151 291.848 6.72003Q292.046 6.74855 292.241 6.79017Q292.436 6.83178 292.629 6.88632Q292.821 6.94085 293.009 7.00805Q293.197 7.07525 293.381 7.15483Q293.564 7.23441 293.741 7.32601Q293.919 7.4176 294.09 7.52082L387.802 64.0497Q387.965 64.1476 388.12 64.2555Q388.276 64.3634 388.425 64.481Q388.573 64.5985 388.714 64.7252Q388.855 64.8519 388.988 64.9873Q389.121 65.1226 389.245 65.2661Q389.368 65.4095 389.483 65.5605Q389.598 65.7115 389.702 65.8694Q389.807 66.0273 389.902 66.1915Q389.996 66.3557 390.08 66.5255Q390.164 66.6954 390.238 66.8702Q390.311 67.045 390.373 67.2241Q390.435 67.4032 390.485 67.5858Q390.536 67.7685 390.575 67.9539Q390.614 68.1394 390.641 68.327Q390.668 68.5145 390.683 68.7034Q390.699 68.8923 390.702 69.0818Q390.705 69.2713 390.696 69.4606Q390.688 69.6499 390.667 69.8383Q390.647 70.0267 390.614 70.2134Q390.582 70.4001 390.538 70.5844Q390.493 70.7687 390.438 70.9499Q390.382 71.131 390.315 71.3083Q390.248 71.4855 390.17 71.6582Q390.092 71.8309 390.003 71.9983Q389.914 72.1657 389.815 72.3272Q389.716 72.4886 389.607 72.6435Q389.497 72.7984 389.379 72.9461Q389.26 73.0938 389.132 73.2336Q389.004 73.3735 388.868 73.5051Q388.731 73.6366 388.587 73.7593Q388.442 73.8819 388.29 73.9952Q388.138 74.1086 387.98 74.212L387.98 74.212Z" id="Triangle" fill="#D3D3D3" fill-rule="evenodd" stroke="none" />
      <path d="M392.609 222.747L110.607 222.748Q110.484 222.748 110.362 222.742Q110.239 222.736 110.117 222.724Q109.995 222.712 109.873 222.694Q109.752 222.676 109.632 222.652Q109.511 222.628 109.392 222.598Q109.273 222.568 109.156 222.533Q109.038 222.497 108.923 222.456Q108.807 222.414 108.694 222.367Q108.58 222.32 108.47 222.268Q108.359 222.216 108.25 222.158Q108.142 222.1 108.037 222.037Q107.932 221.974 107.83 221.906Q107.728 221.837 107.629 221.764Q107.53 221.691 107.436 221.613Q107.341 221.535 107.25 221.453Q107.159 221.371 107.072 221.284Q106.985 221.197 106.903 221.106Q106.82 221.015 106.743 220.92Q106.665 220.825 106.592 220.727Q106.519 220.628 106.45 220.526Q106.382 220.424 106.319 220.319Q106.256 220.214 106.198 220.106Q106.14 219.997 106.088 219.886Q106.035 219.775 105.988 219.662Q105.941 219.549 105.9 219.433Q105.859 219.318 105.823 219.2Q105.788 219.083 105.758 218.964Q105.728 218.845 105.704 218.724Q105.68 218.604 105.662 218.483Q105.644 218.361 105.632 218.239Q105.62 218.117 105.614 217.994Q105.608 217.872 105.608 217.749L105.608 189.747Q105.608 189.624 105.614 189.502Q105.62 189.379 105.632 189.257Q105.644 189.135 105.662 189.014Q105.68 188.892 105.704 188.772Q105.728 188.651 105.758 188.532Q105.787 188.413 105.823 188.296Q105.859 188.178 105.9 188.063Q105.941 187.947 105.988 187.834Q106.035 187.721 106.088 187.61Q106.14 187.499 106.198 187.39Q106.256 187.282 106.319 187.177Q106.382 187.072 106.45 186.97Q106.518 186.868 106.592 186.769Q106.665 186.671 106.743 186.576Q106.82 186.481 106.903 186.39Q106.985 186.299 107.072 186.212Q107.159 186.125 107.25 186.043Q107.341 185.961 107.435 185.883Q107.53 185.805 107.629 185.732Q107.727 185.659 107.83 185.59Q107.932 185.522 108.037 185.459Q108.142 185.396 108.25 185.338Q108.359 185.28 108.469 185.228Q108.58 185.175 108.694 185.129Q108.807 185.082 108.923 185.04Q109.038 184.999 109.156 184.963Q109.273 184.928 109.392 184.898Q109.511 184.868 109.632 184.844Q109.752 184.82 109.873 184.802Q109.995 184.784 110.117 184.772Q110.239 184.76 110.362 184.754Q110.484 184.748 110.607 184.748L392.609 184.747Q392.732 184.747 392.854 184.753Q392.977 184.759 393.099 184.771Q393.221 184.783 393.342 184.801Q393.464 184.819 393.584 184.843Q393.704 184.867 393.823 184.897Q393.943 184.927 394.06 184.963Q394.177 184.998 394.293 185.04Q394.408 185.081 394.522 185.128Q394.635 185.175 394.746 185.227Q394.857 185.28 394.965 185.338Q395.074 185.395 395.179 185.459Q395.284 185.522 395.386 185.59Q395.488 185.658 395.587 185.731Q395.685 185.804 395.78 185.882Q395.875 185.96 395.966 186.042Q396.057 186.125 396.144 186.212Q396.23 186.298 396.313 186.389Q396.395 186.48 396.473 186.575Q396.551 186.67 396.624 186.768Q396.697 186.867 396.765 186.969Q396.833 187.071 396.897 187.176Q396.96 187.282 397.018 187.39Q397.075 187.498 397.128 187.609Q397.18 187.72 397.227 187.833Q397.274 187.947 397.316 188.062Q397.357 188.178 397.393 188.295Q397.428 188.413 397.458 188.532Q397.488 188.651 397.512 188.771Q397.536 188.891 397.554 189.013Q397.572 189.134 397.584 189.256Q397.596 189.378 397.602 189.501Q397.608 189.624 397.608 189.746L397.608 217.748Q397.608 217.871 397.602 217.994Q397.596 218.116 397.584 218.238Q397.572 218.36 397.554 218.482Q397.536 218.603 397.512 218.724Q397.488 218.844 397.458 218.963Q397.428 219.082 397.393 219.199Q397.357 219.317 397.316 219.432Q397.274 219.548 397.227 219.661Q397.18 219.775 397.128 219.886Q397.075 219.997 397.018 220.105Q396.96 220.213 396.897 220.318Q396.834 220.424 396.765 220.526Q396.697 220.628 396.624 220.726Q396.551 220.825 396.473 220.92Q396.395 221.015 396.313 221.105Q396.23 221.196 396.144 221.283Q396.057 221.37 395.966 221.452Q395.875 221.535 395.78 221.613Q395.685 221.69 395.587 221.764Q395.488 221.837 395.386 221.905Q395.284 221.973 395.179 222.036Q395.074 222.099 394.965 222.157Q394.857 222.215 394.746 222.267Q394.635 222.32 394.522 222.367Q394.408 222.414 394.293 222.455Q394.177 222.496 394.06 222.532Q393.943 222.568 393.824 222.598Q393.704 222.627 393.584 222.651Q393.464 222.675 393.342 222.693Q393.221 222.711 393.099 222.723Q392.977 222.735 392.854 222.741Q392.732 222.747 392.609 222.747Z" id="Rectangle-2" fill="#D3D3D3" fill-rule="evenodd" stroke="none" />
      <path d="M9.41551 205.536L101.098 145.772Q101.265 145.663 101.44 145.565Q101.614 145.467 101.794 145.381Q101.975 145.295 102.161 145.221Q102.346 145.148 102.537 145.087Q102.727 145.025 102.921 144.977Q103.115 144.929 103.311 144.893Q103.508 144.858 103.706 144.835Q103.905 144.813 104.105 144.804Q104.304 144.795 104.504 144.8Q104.704 144.804 104.903 144.822Q105.102 144.839 105.299 144.87Q105.497 144.901 105.692 144.945Q105.887 144.989 106.078 145.045Q106.27 145.102 106.457 145.172Q106.645 145.241 106.827 145.323Q107.009 145.404 107.186 145.498Q107.362 145.592 107.532 145.697Q107.702 145.802 107.865 145.918Q108.027 146.035 108.182 146.161Q108.336 146.288 108.482 146.425Q108.627 146.562 108.763 146.708Q108.9 146.854 109.026 147.009Q109.152 147.164 109.268 147.327Q109.383 147.49 109.488 147.661Q109.592 147.831 109.685 148.008Q109.778 148.185 109.859 148.367Q109.94 148.55 110.008 148.738Q110.077 148.925 110.133 149.117Q110.189 149.309 110.232 149.504Q110.275 149.699 110.305 149.897Q110.335 150.094 110.352 150.294Q110.369 150.493 110.372 150.693L112.402 266.986Q112.405 267.185 112.396 267.385Q112.386 267.585 112.363 267.783Q112.34 267.982 112.303 268.178Q112.267 268.375 112.218 268.568Q112.169 268.762 112.107 268.952Q112.045 269.142 111.97 269.327Q111.896 269.513 111.809 269.693Q111.722 269.873 111.624 270.047Q111.525 270.221 111.416 270.388Q111.306 270.554 111.185 270.714Q111.064 270.873 110.933 271.024Q110.802 271.175 110.662 271.317Q110.521 271.458 110.371 271.591Q110.221 271.723 110.063 271.845Q109.904 271.966 109.738 272.077Q109.572 272.189 109.399 272.288Q109.226 272.388 109.046 272.476Q108.867 272.564 108.682 272.64Q108.497 272.716 108.308 272.779Q108.118 272.843 107.925 272.893Q107.732 272.944 107.535 272.982Q107.339 273.019 107.141 273.044Q106.943 273.069 106.743 273.08Q106.544 273.091 106.344 273.089Q106.144 273.087 105.945 273.072Q105.745 273.056 105.548 273.028Q105.35 272.999 105.154 272.958Q104.959 272.916 104.767 272.862Q104.575 272.807 104.386 272.74Q104.198 272.673 104.015 272.593Q103.832 272.514 103.654 272.422Q103.476 272.33 103.305 272.227L9.59288 215.699Q9.4306 215.601 9.27483 215.493Q9.11906 215.385 8.97041 215.267Q8.82176 215.15 8.68082 215.023Q8.53989 214.896 8.40724 214.761Q8.27458 214.626 8.15073 214.482Q8.02688 214.339 7.91234 214.188Q7.79779 214.037 7.693 213.879Q7.58821 213.721 7.49359 213.557Q7.39898 213.393 7.31492 213.223Q7.23086 213.053 7.15768 212.878Q7.08451 212.703 7.02252 212.524Q6.96053 212.345 6.90996 212.162Q6.85939 211.98 6.82046 211.794Q6.78152 211.609 6.75437 211.421Q6.72721 211.234 6.71195 211.045Q6.69669 210.856 6.69339 210.666Q6.69008 210.477 6.69874 210.288Q6.7074 210.098 6.72799 209.91Q6.74858 209.722 6.78102 209.535Q6.81346 209.348 6.85762 209.164Q6.90178 208.98 6.95749 208.798Q7.0132 208.617 7.08022 208.44Q7.14725 208.263 7.22533 208.09Q7.30342 207.917 7.39224 207.75Q7.48107 207.583 7.58028 207.421Q7.6795 207.26 7.78871 207.105Q7.89792 206.95 8.01669 206.802Q8.13545 206.654 8.26331 206.515Q8.39116 206.375 8.52758 206.243Q8.66401 206.112 8.80847 205.989Q8.95292 205.866 9.10483 205.753Q9.25674 205.64 9.41551 205.536L9.41551 205.536Z" id="Triangle-2" fill="#D3D3D3" fill-rule="evenodd" stroke="none" />
    </g>
  </g>
</svg>