<?xml version="1.0" encoding="utf-8"?>
<svg width="132px" height="108px" viewBox="0 0 132 108" version="1.1" xmlns:xlink="http://www.w3.org/1999/xlink" xmlns="http://www.w3.org/2000/svg">
  <g id="text-align-right">
    <g id="Group-22" transform="matrix(-1 0 0 1 132 0)">
      <g id="Group-22">
        <path d="M0 0L120.814 0L120.814 8L0 8L0 0Z" id="Rectangle" fill="#D3D3D3" fill-rule="evenodd" stroke="none" />
        <path d="M0 10L109.627 10L109.627 18L0 18L0 10Z" id="Rectangle-Copy" fill="#D3D3D3" fill-rule="evenodd" stroke="none" />
        <path d="M0 20L109.627 20L109.627 28L0 28L0 20Z" id="Rectangle-Copy-2" fill="#D3D3D3" fill-rule="evenodd" stroke="none" />
        <path d="M0 30L120.814 30L120.814 38L0 38L0 30Z" id="Rectangle-Copy-3" fill="#D3D3D3" fill-rule="evenodd" stroke="none" />
        <path d="M0 40L120.814 40L120.814 48L0 48L0 40Z" id="Rectangle-Copy-4" fill="#D3D3D3" fill-rule="evenodd" stroke="none" />
        <path d="M0 50L120.814 50L120.814 58L0 58L0 50Z" id="Rectangle-Copy-5" fill="#D3D3D3" fill-rule="evenodd" stroke="none" />
        <path d="M0 60L109.627 60L109.627 68L0 68L0 60Z" id="Rectangle-Copy-6" fill="#D3D3D3" fill-rule="evenodd" stroke="none" />
        <path d="M0 70L120.814 70L120.814 78L0 78L0 70Z" id="Rectangle-Copy-7" fill="#D3D3D3" fill-rule="evenodd" stroke="none" />
        <path d="M0 80L132 80L132 88L0 88L0 80Z" id="Rectangle-Copy-8" fill="#D3D3D3" fill-rule="evenodd" stroke="none" />
        <path d="M0 90L120.814 90L120.814 98L0 98L0 90Z" id="Rectangle-Copy-9" fill="#D3D3D3" fill-rule="evenodd" stroke="none" />
        <path d="M0 100L120.814 100L120.814 108L0 108L0 100Z" id="Rectangle-Copy-10" fill="#D3D3D3" fill-rule="evenodd" stroke="none" />
      </g>
    </g>
  </g>
</svg>