<?xml version="1.0" encoding="utf-8"?>
<svg width="118px" height="108px" viewBox="0 0 118 108" version="1.1" xmlns:xlink="http://www.w3.org/1999/xlink" xmlns="http://www.w3.org/2000/svg">
  <g id="text-align-left">
    <g id="Group-23">
      <g id="Group-22">
        <path d="M0 0L108 0L108 8L0 8L0 0Z" id="Rectangle" fill="#D3D3D3" fill-rule="evenodd" stroke="none" />
        <path d="M0 10L98 10L98 18L0 18L0 10Z" id="Rectangle-Copy" fill="#D3D3D3" fill-rule="evenodd" stroke="none" />
        <path d="M0 20L98 20L98 28L0 28L0 20Z" id="Rectangle-Copy-2" fill="#D3D3D3" fill-rule="evenodd" stroke="none" />
        <path d="M0 30L108 30L108 38L0 38L0 30Z" id="Rectangle-Copy-3" fill="#D3D3D3" fill-rule="evenodd" stroke="none" />
        <path d="M0 40L108 40L108 48L0 48L0 40Z" id="Rectangle-Copy-4" fill="#D3D3D3" fill-rule="evenodd" stroke="none" />
        <path d="M0 50L108 50L108 58L0 58L0 50Z" id="Rectangle-Copy-5" fill="#D3D3D3" fill-rule="evenodd" stroke="none" />
        <path d="M0 60L98 60L98 68L0 68L0 60Z" id="Rectangle-Copy-6" fill="#D3D3D3" fill-rule="evenodd" stroke="none" />
        <path d="M0 70L108 70L108 78L0 78L0 70Z" id="Rectangle-Copy-7" fill="#D3D3D3" fill-rule="evenodd" stroke="none" />
        <path d="M0 80L118 80L118 88L0 88L0 80Z" id="Rectangle-Copy-8" fill="#D3D3D3" fill-rule="evenodd" stroke="none" />
        <path d="M0 90L108 90L108 98L0 98L0 90Z" id="Rectangle-Copy-9" fill="#D3D3D3" fill-rule="evenodd" stroke="none" />
        <path d="M0 100L108 100L108 108L0 108L0 100Z" id="Rectangle-Copy-10" fill="#D3D3D3" fill-rule="evenodd" stroke="none" />
      </g>
    </g>
  </g>
</svg>